<?xml version="1.0" encoding="utf-8" standalone="no"?>
<!DOCTYPE svg PUBLIC "-//W3C//DTD SVG 1.1//EN"
  "http://www.w3.org/Graphics/SVG/1.1/DTD/svg11.dtd">
<!-- Created with matplotlib (https://matplotlib.org/) -->
<svg height="366.467812pt" version="1.1" viewBox="0 0 602.945312 366.467812" width="602.945312pt" xmlns="http://www.w3.org/2000/svg" xmlns:xlink="http://www.w3.org/1999/xlink">
 <metadata>
  <rdf:RDF xmlns:cc="http://creativecommons.org/ns#" xmlns:dc="http://purl.org/dc/elements/1.1/" xmlns:rdf="http://www.w3.org/1999/02/22-rdf-syntax-ns#">
   <cc:Work>
    <dc:type rdf:resource="http://purl.org/dc/dcmitype/StillImage"/>
    <dc:date>2021-08-03T17:29:08.676495</dc:date>
    <dc:format>image/svg+xml</dc:format>
    <dc:creator>
     <cc:Agent>
      <dc:title>Matplotlib v3.3.1, https://matplotlib.org/</dc:title>
     </cc:Agent>
    </dc:creator>
   </cc:Work>
  </rdf:RDF>
 </metadata>
 <defs>
  <style type="text/css">*{stroke-linecap:butt;stroke-linejoin:round;}</style>
 </defs>
 <g id="figure_1">
  <g id="patch_1">
   <path d="M 0 366.467812 
L 602.945312 366.467812 
L 602.945312 0 
L 0 0 
z
" style="fill:#ffffff;"/>
  </g>
  <g id="axes_1">
   <g id="patch_2">
    <path d="M 37.745313 333.36 
L 595.745312 333.36 
L 595.745312 7.2 
L 37.745313 7.2 
z
" style="fill:#ffffff;"/>
   </g>
   <g id="matplotlib.axis_1">
    <g id="xtick_1">
     <g id="line2d_1">
      <path clip-path="url(#pe5c05ba2ae)" d="M 63.108949 333.36 
L 63.108949 7.2 
" style="fill:none;stroke:#cccccc;stroke-linecap:round;stroke-width:0.8;"/>
     </g>
     <g id="line2d_2"/>
     <g id="text_1">
      <!-- 0.0 -->
      <g style="fill:#262626;" transform="translate(56.158949 344.017812)scale(0.1 -0.1)">
       <defs>
        <path d="M 4.15625 35.296875 
Q 4.15625 48 6.765625 55.734375 
Q 9.375 63.484375 14.515625 67.671875 
Q 19.671875 71.875 27.484375 71.875 
Q 33.25 71.875 37.59375 69.546875 
Q 41.9375 67.234375 44.765625 62.859375 
Q 47.609375 58.5 49.21875 52.21875 
Q 50.828125 45.953125 50.828125 35.296875 
Q 50.828125 22.703125 48.234375 14.96875 
Q 45.65625 7.234375 40.5 3 
Q 35.359375 -1.21875 27.484375 -1.21875 
Q 17.140625 -1.21875 11.234375 6.203125 
Q 4.15625 15.140625 4.15625 35.296875 
z
M 13.1875 35.296875 
Q 13.1875 17.671875 17.3125 11.828125 
Q 21.4375 6 27.484375 6 
Q 33.546875 6 37.671875 11.859375 
Q 41.796875 17.71875 41.796875 35.296875 
Q 41.796875 52.984375 37.671875 58.78125 
Q 33.546875 64.59375 27.390625 64.59375 
Q 21.34375 64.59375 17.71875 59.46875 
Q 13.1875 52.9375 13.1875 35.296875 
z
" id="ArialMT-48"/>
        <path d="M 9.078125 0 
L 9.078125 10.015625 
L 19.09375 10.015625 
L 19.09375 0 
z
" id="ArialMT-46"/>
       </defs>
       <use xlink:href="#ArialMT-48"/>
       <use x="55.615234" xlink:href="#ArialMT-46"/>
       <use x="83.398438" xlink:href="#ArialMT-48"/>
      </g>
     </g>
    </g>
    <g id="xtick_2">
     <g id="line2d_3">
      <path clip-path="url(#pe5c05ba2ae)" d="M 164.563494 333.36 
L 164.563494 7.2 
" style="fill:none;stroke:#cccccc;stroke-linecap:round;stroke-width:0.8;"/>
     </g>
     <g id="line2d_4"/>
     <g id="text_2">
      <!-- 0.2 -->
      <g style="fill:#262626;" transform="translate(157.613494 344.017812)scale(0.1 -0.1)">
       <defs>
        <path d="M 50.34375 8.453125 
L 50.34375 0 
L 3.03125 0 
Q 2.9375 3.171875 4.046875 6.109375 
Q 5.859375 10.9375 9.828125 15.625 
Q 13.8125 20.3125 21.34375 26.46875 
Q 33.015625 36.03125 37.109375 41.625 
Q 41.21875 47.21875 41.21875 52.203125 
Q 41.21875 57.421875 37.46875 61 
Q 33.734375 64.59375 27.734375 64.59375 
Q 21.390625 64.59375 17.578125 60.78125 
Q 13.765625 56.984375 13.71875 50.25 
L 4.6875 51.171875 
Q 5.609375 61.28125 11.65625 66.578125 
Q 17.71875 71.875 27.9375 71.875 
Q 38.234375 71.875 44.234375 66.15625 
Q 50.25 60.453125 50.25 52 
Q 50.25 47.703125 48.484375 43.546875 
Q 46.734375 39.40625 42.65625 34.8125 
Q 38.578125 30.21875 29.109375 22.21875 
Q 21.1875 15.578125 18.9375 13.203125 
Q 16.703125 10.84375 15.234375 8.453125 
z
" id="ArialMT-50"/>
       </defs>
       <use xlink:href="#ArialMT-48"/>
       <use x="55.615234" xlink:href="#ArialMT-46"/>
       <use x="83.398438" xlink:href="#ArialMT-50"/>
      </g>
     </g>
    </g>
    <g id="xtick_3">
     <g id="line2d_5">
      <path clip-path="url(#pe5c05ba2ae)" d="M 266.01804 333.36 
L 266.01804 7.2 
" style="fill:none;stroke:#cccccc;stroke-linecap:round;stroke-width:0.8;"/>
     </g>
     <g id="line2d_6"/>
     <g id="text_3">
      <!-- 0.4 -->
      <g style="fill:#262626;" transform="translate(259.06804 344.017812)scale(0.1 -0.1)">
       <defs>
        <path d="M 32.328125 0 
L 32.328125 17.140625 
L 1.265625 17.140625 
L 1.265625 25.203125 
L 33.9375 71.578125 
L 41.109375 71.578125 
L 41.109375 25.203125 
L 50.78125 25.203125 
L 50.78125 17.140625 
L 41.109375 17.140625 
L 41.109375 0 
z
M 32.328125 25.203125 
L 32.328125 57.46875 
L 9.90625 25.203125 
z
" id="ArialMT-52"/>
       </defs>
       <use xlink:href="#ArialMT-48"/>
       <use x="55.615234" xlink:href="#ArialMT-46"/>
       <use x="83.398438" xlink:href="#ArialMT-52"/>
      </g>
     </g>
    </g>
    <g id="xtick_4">
     <g id="line2d_7">
      <path clip-path="url(#pe5c05ba2ae)" d="M 367.472585 333.36 
L 367.472585 7.2 
" style="fill:none;stroke:#cccccc;stroke-linecap:round;stroke-width:0.8;"/>
     </g>
     <g id="line2d_8"/>
     <g id="text_4">
      <!-- 0.6 -->
      <g style="fill:#262626;" transform="translate(360.522585 344.017812)scale(0.1 -0.1)">
       <defs>
        <path d="M 49.75 54.046875 
L 41.015625 53.375 
Q 39.84375 58.546875 37.703125 60.890625 
Q 34.125 64.65625 28.90625 64.65625 
Q 24.703125 64.65625 21.53125 62.3125 
Q 17.390625 59.28125 14.984375 53.46875 
Q 12.59375 47.65625 12.5 36.921875 
Q 15.671875 41.75 20.265625 44.09375 
Q 24.859375 46.4375 29.890625 46.4375 
Q 38.671875 46.4375 44.84375 39.96875 
Q 51.03125 33.5 51.03125 23.25 
Q 51.03125 16.5 48.125 10.71875 
Q 45.21875 4.9375 40.140625 1.859375 
Q 35.0625 -1.21875 28.609375 -1.21875 
Q 17.625 -1.21875 10.6875 6.859375 
Q 3.765625 14.9375 3.765625 33.5 
Q 3.765625 54.25 11.421875 63.671875 
Q 18.109375 71.875 29.4375 71.875 
Q 37.890625 71.875 43.28125 67.140625 
Q 48.6875 62.40625 49.75 54.046875 
z
M 13.875 23.1875 
Q 13.875 18.65625 15.796875 14.5 
Q 17.71875 10.359375 21.1875 8.171875 
Q 24.65625 6 28.46875 6 
Q 34.03125 6 38.03125 10.484375 
Q 42.046875 14.984375 42.046875 22.703125 
Q 42.046875 30.125 38.078125 34.390625 
Q 34.125 38.671875 28.125 38.671875 
Q 22.171875 38.671875 18.015625 34.390625 
Q 13.875 30.125 13.875 23.1875 
z
" id="ArialMT-54"/>
       </defs>
       <use xlink:href="#ArialMT-48"/>
       <use x="55.615234" xlink:href="#ArialMT-46"/>
       <use x="83.398438" xlink:href="#ArialMT-54"/>
      </g>
     </g>
    </g>
    <g id="xtick_5">
     <g id="line2d_9">
      <path clip-path="url(#pe5c05ba2ae)" d="M 468.927131 333.36 
L 468.927131 7.2 
" style="fill:none;stroke:#cccccc;stroke-linecap:round;stroke-width:0.8;"/>
     </g>
     <g id="line2d_10"/>
     <g id="text_5">
      <!-- 0.8 -->
      <g style="fill:#262626;" transform="translate(461.977131 344.017812)scale(0.1 -0.1)">
       <defs>
        <path d="M 17.671875 38.8125 
Q 12.203125 40.828125 9.5625 44.53125 
Q 6.9375 48.25 6.9375 53.421875 
Q 6.9375 61.234375 12.546875 66.546875 
Q 18.171875 71.875 27.484375 71.875 
Q 36.859375 71.875 42.578125 66.421875 
Q 48.296875 60.984375 48.296875 53.171875 
Q 48.296875 48.1875 45.671875 44.5 
Q 43.0625 40.828125 37.75 38.8125 
Q 44.34375 36.671875 47.78125 31.875 
Q 51.21875 27.09375 51.21875 20.453125 
Q 51.21875 11.28125 44.71875 5.03125 
Q 38.234375 -1.21875 27.640625 -1.21875 
Q 17.046875 -1.21875 10.546875 5.046875 
Q 4.046875 11.328125 4.046875 20.703125 
Q 4.046875 27.6875 7.59375 32.390625 
Q 11.140625 37.109375 17.671875 38.8125 
z
M 15.921875 53.71875 
Q 15.921875 48.640625 19.1875 45.40625 
Q 22.46875 42.1875 27.6875 42.1875 
Q 32.765625 42.1875 36.015625 45.375 
Q 39.265625 48.578125 39.265625 53.21875 
Q 39.265625 58.0625 35.90625 61.359375 
Q 32.5625 64.65625 27.59375 64.65625 
Q 22.5625 64.65625 19.234375 61.421875 
Q 15.921875 58.203125 15.921875 53.71875 
z
M 13.09375 20.65625 
Q 13.09375 16.890625 14.875 13.375 
Q 16.65625 9.859375 20.171875 7.921875 
Q 23.6875 6 27.734375 6 
Q 34.03125 6 38.125 10.046875 
Q 42.234375 14.109375 42.234375 20.359375 
Q 42.234375 26.703125 38.015625 30.859375 
Q 33.796875 35.015625 27.4375 35.015625 
Q 21.234375 35.015625 17.15625 30.90625 
Q 13.09375 26.8125 13.09375 20.65625 
z
" id="ArialMT-56"/>
       </defs>
       <use xlink:href="#ArialMT-48"/>
       <use x="55.615234" xlink:href="#ArialMT-46"/>
       <use x="83.398438" xlink:href="#ArialMT-56"/>
      </g>
     </g>
    </g>
    <g id="xtick_6">
     <g id="line2d_11">
      <path clip-path="url(#pe5c05ba2ae)" d="M 570.381676 333.36 
L 570.381676 7.2 
" style="fill:none;stroke:#cccccc;stroke-linecap:round;stroke-width:0.8;"/>
     </g>
     <g id="line2d_12"/>
     <g id="text_6">
      <!-- 1.0 -->
      <g style="fill:#262626;" transform="translate(563.431676 344.017812)scale(0.1 -0.1)">
       <defs>
        <path d="M 37.25 0 
L 28.46875 0 
L 28.46875 56 
Q 25.296875 52.984375 20.140625 49.953125 
Q 14.984375 46.921875 10.890625 45.40625 
L 10.890625 53.90625 
Q 18.265625 57.375 23.78125 62.296875 
Q 29.296875 67.234375 31.59375 71.875 
L 37.25 71.875 
z
" id="ArialMT-49"/>
       </defs>
       <use xlink:href="#ArialMT-49"/>
       <use x="55.615234" xlink:href="#ArialMT-46"/>
       <use x="83.398438" xlink:href="#ArialMT-48"/>
      </g>
     </g>
    </g>
    <g id="text_7">
     <!-- Enjoyment -->
     <g style="fill:#262626;" transform="translate(293.123438 357.163125)scale(0.1 -0.1)">
      <defs>
       <path d="M 7.90625 0 
L 7.90625 71.578125 
L 59.671875 71.578125 
L 59.671875 63.140625 
L 17.390625 63.140625 
L 17.390625 41.21875 
L 56.984375 41.21875 
L 56.984375 32.8125 
L 17.390625 32.8125 
L 17.390625 8.453125 
L 61.328125 8.453125 
L 61.328125 0 
z
" id="ArialMT-69"/>
       <path d="M 6.59375 0 
L 6.59375 51.859375 
L 14.5 51.859375 
L 14.5 44.484375 
Q 20.21875 53.03125 31 53.03125 
Q 35.6875 53.03125 39.625 51.34375 
Q 43.5625 49.65625 45.515625 46.921875 
Q 47.46875 44.1875 48.25 40.4375 
Q 48.734375 37.984375 48.734375 31.890625 
L 48.734375 0 
L 39.9375 0 
L 39.9375 31.546875 
Q 39.9375 36.921875 38.90625 39.578125 
Q 37.890625 42.234375 35.28125 43.8125 
Q 32.671875 45.40625 29.15625 45.40625 
Q 23.53125 45.40625 19.453125 41.84375 
Q 15.375 38.28125 15.375 28.328125 
L 15.375 0 
z
" id="ArialMT-110"/>
       <path d="M 6.546875 61.375 
L 6.546875 71.578125 
L 15.328125 71.578125 
L 15.328125 61.375 
z
M -4.59375 -20.125 
L -2.9375 -12.640625 
Q -0.296875 -13.328125 1.21875 -13.328125 
Q 3.90625 -13.328125 5.21875 -11.546875 
Q 6.546875 -9.765625 6.546875 -2.640625 
L 6.546875 51.859375 
L 15.328125 51.859375 
L 15.328125 -2.828125 
Q 15.328125 -12.40625 12.84375 -16.15625 
Q 9.671875 -21.046875 2.296875 -21.046875 
Q -1.265625 -21.046875 -4.59375 -20.125 
z
" id="ArialMT-106"/>
       <path d="M 3.328125 25.921875 
Q 3.328125 40.328125 11.328125 47.265625 
Q 18.015625 53.03125 27.640625 53.03125 
Q 38.328125 53.03125 45.109375 46.015625 
Q 51.90625 39.015625 51.90625 26.65625 
Q 51.90625 16.65625 48.90625 10.90625 
Q 45.90625 5.171875 40.15625 2 
Q 34.421875 -1.171875 27.640625 -1.171875 
Q 16.75 -1.171875 10.03125 5.8125 
Q 3.328125 12.796875 3.328125 25.921875 
z
M 12.359375 25.921875 
Q 12.359375 15.96875 16.703125 11.015625 
Q 21.046875 6.0625 27.640625 6.0625 
Q 34.1875 6.0625 38.53125 11.03125 
Q 42.875 16.015625 42.875 26.21875 
Q 42.875 35.84375 38.5 40.796875 
Q 34.125 45.75 27.640625 45.75 
Q 21.046875 45.75 16.703125 40.8125 
Q 12.359375 35.890625 12.359375 25.921875 
z
" id="ArialMT-111"/>
       <path d="M 6.203125 -19.96875 
L 5.21875 -11.71875 
Q 8.109375 -12.5 10.25 -12.5 
Q 13.1875 -12.5 14.9375 -11.515625 
Q 16.703125 -10.546875 17.828125 -8.796875 
Q 18.65625 -7.46875 20.515625 -2.25 
Q 20.75 -1.515625 21.296875 -0.09375 
L 1.609375 51.859375 
L 11.078125 51.859375 
L 21.875 21.828125 
Q 23.96875 16.109375 25.640625 9.8125 
Q 27.15625 15.875 29.25 21.625 
L 40.328125 51.859375 
L 49.125 51.859375 
L 29.390625 -0.875 
Q 26.21875 -9.421875 24.46875 -12.640625 
Q 22.125 -17 19.09375 -19.015625 
Q 16.0625 -21.046875 11.859375 -21.046875 
Q 9.328125 -21.046875 6.203125 -19.96875 
z
" id="ArialMT-121"/>
       <path d="M 6.59375 0 
L 6.59375 51.859375 
L 14.453125 51.859375 
L 14.453125 44.578125 
Q 16.890625 48.390625 20.9375 50.703125 
Q 25 53.03125 30.171875 53.03125 
Q 35.9375 53.03125 39.625 50.640625 
Q 43.3125 48.25 44.828125 43.953125 
Q 50.984375 53.03125 60.84375 53.03125 
Q 68.5625 53.03125 72.703125 48.75 
Q 76.859375 44.484375 76.859375 35.59375 
L 76.859375 0 
L 68.109375 0 
L 68.109375 32.671875 
Q 68.109375 37.9375 67.25 40.25 
Q 66.40625 42.578125 64.15625 43.984375 
Q 61.921875 45.40625 58.890625 45.40625 
Q 53.421875 45.40625 49.796875 41.765625 
Q 46.1875 38.140625 46.1875 30.125 
L 46.1875 0 
L 37.40625 0 
L 37.40625 33.6875 
Q 37.40625 39.546875 35.25 42.46875 
Q 33.109375 45.40625 28.21875 45.40625 
Q 24.515625 45.40625 21.359375 43.453125 
Q 18.21875 41.5 16.796875 37.734375 
Q 15.375 33.984375 15.375 26.90625 
L 15.375 0 
z
" id="ArialMT-109"/>
       <path d="M 42.09375 16.703125 
L 51.171875 15.578125 
Q 49.03125 7.625 43.21875 3.21875 
Q 37.40625 -1.171875 28.375 -1.171875 
Q 17 -1.171875 10.328125 5.828125 
Q 3.65625 12.84375 3.65625 25.484375 
Q 3.65625 38.578125 10.390625 45.796875 
Q 17.140625 53.03125 27.875 53.03125 
Q 38.28125 53.03125 44.875 45.953125 
Q 51.46875 38.875 51.46875 26.03125 
Q 51.46875 25.25 51.421875 23.6875 
L 12.75 23.6875 
Q 13.234375 15.140625 17.578125 10.59375 
Q 21.921875 6.0625 28.421875 6.0625 
Q 33.25 6.0625 36.671875 8.59375 
Q 40.09375 11.140625 42.09375 16.703125 
z
M 13.234375 30.90625 
L 42.1875 30.90625 
Q 41.609375 37.453125 38.875 40.71875 
Q 34.671875 45.796875 27.984375 45.796875 
Q 21.921875 45.796875 17.796875 41.75 
Q 13.671875 37.703125 13.234375 30.90625 
z
" id="ArialMT-101"/>
       <path d="M 25.78125 7.859375 
L 27.046875 0.09375 
Q 23.34375 -0.6875 20.40625 -0.6875 
Q 15.625 -0.6875 12.984375 0.828125 
Q 10.359375 2.34375 9.28125 4.8125 
Q 8.203125 7.28125 8.203125 15.1875 
L 8.203125 45.015625 
L 1.765625 45.015625 
L 1.765625 51.859375 
L 8.203125 51.859375 
L 8.203125 64.703125 
L 16.9375 69.96875 
L 16.9375 51.859375 
L 25.78125 51.859375 
L 25.78125 45.015625 
L 16.9375 45.015625 
L 16.9375 14.703125 
Q 16.9375 10.9375 17.40625 9.859375 
Q 17.875 8.796875 18.921875 8.15625 
Q 19.96875 7.515625 21.921875 7.515625 
Q 23.390625 7.515625 25.78125 7.859375 
z
" id="ArialMT-116"/>
      </defs>
      <use xlink:href="#ArialMT-69"/>
      <use x="66.699219" xlink:href="#ArialMT-110"/>
      <use x="122.314453" xlink:href="#ArialMT-106"/>
      <use x="144.53125" xlink:href="#ArialMT-111"/>
      <use x="200.146484" xlink:href="#ArialMT-121"/>
      <use x="250.146484" xlink:href="#ArialMT-109"/>
      <use x="333.447266" xlink:href="#ArialMT-101"/>
      <use x="389.0625" xlink:href="#ArialMT-110"/>
      <use x="444.677734" xlink:href="#ArialMT-116"/>
     </g>
    </g>
   </g>
   <g id="matplotlib.axis_2">
    <g id="ytick_1">
     <g id="line2d_13">
      <path clip-path="url(#pe5c05ba2ae)" d="M 37.745313 318.534545 
L 595.745312 318.534545 
" style="fill:none;stroke:#cccccc;stroke-linecap:round;stroke-width:0.8;"/>
     </g>
     <g id="line2d_14"/>
     <g id="text_8">
      <!-- 0.0 -->
      <g style="fill:#262626;" transform="translate(20.345313 322.113452)scale(0.1 -0.1)">
       <use xlink:href="#ArialMT-48"/>
       <use x="55.615234" xlink:href="#ArialMT-46"/>
       <use x="83.398438" xlink:href="#ArialMT-48"/>
      </g>
     </g>
    </g>
    <g id="ytick_2">
     <g id="line2d_15">
      <path clip-path="url(#pe5c05ba2ae)" d="M 37.745313 248.790488 
L 595.745312 248.790488 
" style="fill:none;stroke:#cccccc;stroke-linecap:round;stroke-width:0.8;"/>
     </g>
     <g id="line2d_16"/>
     <g id="text_9">
      <!-- 0.5 -->
      <g style="fill:#262626;" transform="translate(20.345313 252.369394)scale(0.1 -0.1)">
       <defs>
        <path d="M 4.15625 18.75 
L 13.375 19.53125 
Q 14.40625 12.796875 18.140625 9.390625 
Q 21.875 6 27.15625 6 
Q 33.5 6 37.890625 10.78125 
Q 42.28125 15.578125 42.28125 23.484375 
Q 42.28125 31 38.0625 35.34375 
Q 33.84375 39.703125 27 39.703125 
Q 22.75 39.703125 19.328125 37.765625 
Q 15.921875 35.84375 13.96875 32.765625 
L 5.71875 33.84375 
L 12.640625 70.609375 
L 48.25 70.609375 
L 48.25 62.203125 
L 19.671875 62.203125 
L 15.828125 42.96875 
Q 22.265625 47.46875 29.34375 47.46875 
Q 38.71875 47.46875 45.15625 40.96875 
Q 51.609375 34.46875 51.609375 24.265625 
Q 51.609375 14.546875 45.953125 7.46875 
Q 39.0625 -1.21875 27.15625 -1.21875 
Q 17.390625 -1.21875 11.203125 4.25 
Q 5.03125 9.71875 4.15625 18.75 
z
" id="ArialMT-53"/>
       </defs>
       <use xlink:href="#ArialMT-48"/>
       <use x="55.615234" xlink:href="#ArialMT-46"/>
       <use x="83.398438" xlink:href="#ArialMT-53"/>
      </g>
     </g>
    </g>
    <g id="ytick_3">
     <g id="line2d_17">
      <path clip-path="url(#pe5c05ba2ae)" d="M 37.745313 179.046431 
L 595.745312 179.046431 
" style="fill:none;stroke:#cccccc;stroke-linecap:round;stroke-width:0.8;"/>
     </g>
     <g id="line2d_18"/>
     <g id="text_10">
      <!-- 1.0 -->
      <g style="fill:#262626;" transform="translate(20.345313 182.625337)scale(0.1 -0.1)">
       <use xlink:href="#ArialMT-49"/>
       <use x="55.615234" xlink:href="#ArialMT-46"/>
       <use x="83.398438" xlink:href="#ArialMT-48"/>
      </g>
     </g>
    </g>
    <g id="ytick_4">
     <g id="line2d_19">
      <path clip-path="url(#pe5c05ba2ae)" d="M 37.745313 109.302373 
L 595.745312 109.302373 
" style="fill:none;stroke:#cccccc;stroke-linecap:round;stroke-width:0.8;"/>
     </g>
     <g id="line2d_20"/>
     <g id="text_11">
      <!-- 1.5 -->
      <g style="fill:#262626;" transform="translate(20.345313 112.881279)scale(0.1 -0.1)">
       <use xlink:href="#ArialMT-49"/>
       <use x="55.615234" xlink:href="#ArialMT-46"/>
       <use x="83.398438" xlink:href="#ArialMT-53"/>
      </g>
     </g>
    </g>
    <g id="ytick_5">
     <g id="line2d_21">
      <path clip-path="url(#pe5c05ba2ae)" d="M 37.745313 39.558316 
L 595.745312 39.558316 
" style="fill:none;stroke:#cccccc;stroke-linecap:round;stroke-width:0.8;"/>
     </g>
     <g id="line2d_22"/>
     <g id="text_12">
      <!-- 2.0 -->
      <g style="fill:#262626;" transform="translate(20.345313 43.137222)scale(0.1 -0.1)">
       <use xlink:href="#ArialMT-50"/>
       <use x="55.615234" xlink:href="#ArialMT-46"/>
       <use x="83.398438" xlink:href="#ArialMT-48"/>
      </g>
     </g>
    </g>
    <g id="text_13">
     <!-- PDF -->
     <g style="fill:#262626;" transform="translate(14.357813 180.28)rotate(-90)scale(0.1 -0.1)">
      <defs>
       <path d="M 7.71875 0 
L 7.71875 71.578125 
L 34.71875 71.578125 
Q 41.84375 71.578125 45.609375 70.90625 
Q 50.875 70.015625 54.4375 67.546875 
Q 58.015625 65.09375 60.1875 60.640625 
Q 62.359375 56.203125 62.359375 50.875 
Q 62.359375 41.75 56.546875 35.421875 
Q 50.734375 29.109375 35.546875 29.109375 
L 17.1875 29.109375 
L 17.1875 0 
z
M 17.1875 37.546875 
L 35.6875 37.546875 
Q 44.875 37.546875 48.734375 40.96875 
Q 52.59375 44.390625 52.59375 50.59375 
Q 52.59375 55.078125 50.3125 58.265625 
Q 48.046875 61.46875 44.34375 62.5 
Q 41.9375 63.140625 35.5 63.140625 
L 17.1875 63.140625 
z
" id="ArialMT-80"/>
       <path d="M 7.71875 0 
L 7.71875 71.578125 
L 32.375 71.578125 
Q 40.71875 71.578125 45.125 70.5625 
Q 51.265625 69.140625 55.609375 65.4375 
Q 61.28125 60.640625 64.078125 53.1875 
Q 66.890625 45.75 66.890625 36.1875 
Q 66.890625 28.03125 64.984375 21.734375 
Q 63.09375 15.4375 60.109375 11.296875 
Q 57.125 7.171875 53.578125 4.796875 
Q 50.046875 2.4375 45.046875 1.21875 
Q 40.046875 0 33.546875 0 
z
M 17.1875 8.453125 
L 32.46875 8.453125 
Q 39.546875 8.453125 43.578125 9.765625 
Q 47.609375 11.078125 50 13.484375 
Q 53.375 16.84375 55.25 22.53125 
Q 57.125 28.21875 57.125 36.328125 
Q 57.125 47.5625 53.4375 53.59375 
Q 49.75 59.625 44.484375 61.671875 
Q 40.671875 63.140625 32.234375 63.140625 
L 17.1875 63.140625 
z
" id="ArialMT-68"/>
       <path d="M 8.203125 0 
L 8.203125 71.578125 
L 56.5 71.578125 
L 56.5 63.140625 
L 17.671875 63.140625 
L 17.671875 40.96875 
L 51.265625 40.96875 
L 51.265625 32.515625 
L 17.671875 32.515625 
L 17.671875 0 
z
" id="ArialMT-70"/>
      </defs>
      <use xlink:href="#ArialMT-80"/>
      <use x="66.699219" xlink:href="#ArialMT-68"/>
      <use x="138.916016" xlink:href="#ArialMT-70"/>
     </g>
    </g>
   </g>
   <g id="line2d_23">
    <path clip-path="url(#pe5c05ba2ae)" d="M 63.108949 318.534545 
L 68.232916 318.137131 
L 73.356883 316.875467 
L 78.48085 314.747481 
L 83.604817 311.784214 
L 88.728784 308.028561 
L 93.852751 303.529386 
L 98.976717 298.338838 
L 104.100684 292.510853 
L 109.224651 286.100231 
L 114.348618 279.162003 
L 119.472585 271.750994 
L 124.596552 263.921486 
L 129.720519 255.726976 
L 134.844486 247.219973 
L 139.968453 238.451851 
L 145.09242 229.472716 
L 150.216387 220.331307 
L 155.340354 211.074914 
L 160.464321 201.749306 
L 165.588288 192.398673 
L 170.712255 183.065578 
L 175.836222 173.790921 
L 180.960189 164.6139 
L 186.084155 155.571989 
L 191.208122 146.700913 
L 196.332089 138.034633 
L 201.456056 129.605329 
L 206.580023 121.443395 
L 211.70399 113.577426 
L 216.827957 106.034222 
L 221.951924 98.838777 
L 227.075891 92.014289 
L 232.199858 85.582155 
L 237.323825 79.561984 
L 242.447792 73.971596 
L 247.571759 68.827039 
L 252.695726 64.142593 
L 257.819693 59.930785 
L 262.94366 56.202402 
L 268.067627 52.966505 
L 273.191593 50.230449 
L 278.31556 47.999898 
L 283.439527 46.278843 
L 288.563494 45.069625 
L 293.687461 44.372959 
L 298.811428 44.187951 
L 303.935395 44.512128 
L 309.059362 45.341461 
L 314.183329 46.670392 
L 319.307296 48.491866 
L 324.431263 50.797355 
L 329.55523 53.576893 
L 334.679197 56.819108 
L 339.803164 60.511256 
L 344.927131 64.639253 
L 350.051098 69.187716 
L 355.175065 74.140001 
L 360.299032 79.478238 
L 365.422998 85.183381 
L 370.546965 91.235242 
L 375.670932 97.612543 
L 380.794899 104.292962 
L 385.918866 111.253177 
L 391.042833 118.468925 
L 396.1668 125.915049 
L 401.290767 133.565557 
L 406.414734 141.393682 
L 411.538701 149.37194 
L 416.662668 157.472194 
L 421.786635 165.665727 
L 426.910602 173.923306 
L 432.034569 182.215262 
L 437.158536 190.511568 
L 442.282503 198.781921 
L 447.40647 206.995832 
L 452.530436 215.122722 
L 457.654403 223.132022 
L 462.77837 230.993278 
L 467.902337 238.676274 
L 473.026304 246.151151 
L 478.150271 253.388545 
L 483.274238 260.359739 
L 488.398205 267.036817 
L 493.522172 273.392855 
L 498.646139 279.402109 
L 503.770106 285.040249 
L 508.894073 290.284604 
L 514.01804 295.114462 
L 519.142007 299.511401 
L 524.265974 303.459695 
L 529.389941 306.946791 
L 534.513908 309.963908 
L 539.637874 312.506789 
L 544.761841 314.576703 
L 549.885808 316.181823 
L 555.009775 317.339288 
L 560.133742 318.078578 
L 565.257709 318.448116 
L 570.381676 318.534545 
" style="fill:none;stroke:#1f77b4;stroke-linecap:round;stroke-width:1.5;"/>
   </g>
   <g id="line2d_24">
    <path clip-path="url(#pe5c05ba2ae)" d="M 63.108949 318.534545 
L 68.232916 318.330072 
L 73.356883 317.611426 
L 78.48085 316.325386 
L 83.604817 314.458122 
L 88.728784 312.012064 
L 93.852751 308.999069 
L 98.976717 305.437189 
L 104.100684 301.348835 
L 109.224651 296.759593 
L 114.348618 291.697421 
L 119.472585 286.192054 
L 124.596552 280.274563 
L 129.720519 273.977004 
L 134.844486 267.332138 
L 139.968453 260.373202 
L 145.09242 253.133717 
L 150.216387 245.647324 
L 155.340354 237.947645 
L 160.464321 230.06816 
L 165.588288 222.042105 
L 170.712255 213.902371 
L 175.836222 205.681427 
L 180.960189 197.411239 
L 186.084155 189.123203 
L 191.208122 180.848088 
L 196.332089 172.615972 
L 201.456056 164.456196 
L 206.580023 156.397317 
L 211.70399 148.467059 
L 216.827957 140.692278 
L 221.951924 133.098924 
L 227.075891 125.712001 
L 232.199858 118.555543 
L 237.323825 111.652577 
L 242.447792 105.025096 
L 247.571759 98.694036 
L 252.695726 92.679247 
L 257.819693 86.999472 
L 262.94366 81.672327 
L 268.067627 76.714274 
L 273.191593 72.140611 
L 278.31556 67.965446 
L 283.439527 64.201683 
L 288.563494 60.861009 
L 293.687461 57.953874 
L 298.811428 55.48948 
L 303.935395 53.475768 
L 309.059362 51.919405 
L 314.183329 50.825772 
L 319.307296 50.198956 
L 324.431263 50.041738 
L 329.55523 50.355583 
L 334.679197 51.140636 
L 339.803164 52.395711 
L 344.927131 54.118285 
L 350.051098 56.304494 
L 355.175065 58.949123 
L 360.299032 62.04561 
L 365.422998 65.586031 
L 370.546965 69.561108 
L 375.670932 73.9602 
L 380.794899 78.771304 
L 385.918866 83.981055 
L 391.042833 89.574723 
L 396.1668 95.536221 
L 401.290767 101.8481 
L 406.414734 108.491556 
L 411.538701 115.446435 
L 416.662668 122.691236 
L 421.786635 130.203118 
L 426.910602 137.957911 
L 432.034569 145.930122 
L 437.158536 154.092947 
L 442.282503 162.418286 
L 447.40647 170.876753 
L 452.530436 179.437698 
L 457.654403 188.069223 
L 462.77837 196.738206 
L 467.902337 205.410324 
L 473.026304 214.050085 
L 478.150271 222.620858 
L 483.274238 231.084914 
L 488.398205 239.403469 
L 493.522172 247.536734 
L 498.646139 255.443977 
L 503.770106 263.083594 
L 508.894073 270.413192 
L 514.01804 277.389692 
L 519.142007 283.969452 
L 524.265974 290.108425 
L 529.389941 295.762353 
L 534.513908 300.887028 
L 539.637874 305.438636 
L 544.761841 309.374243 
L 549.885808 312.652524 
L 555.009775 315.234927 
L 560.133742 317.087773 
L 565.257709 318.186896 
L 570.381676 318.534545 
" style="fill:none;stroke:#ff7f0e;stroke-linecap:round;stroke-width:1.5;"/>
   </g>
   <g id="line2d_25">
    <path clip-path="url(#pe5c05ba2ae)" d="M 63.108949 318.534545 
L 68.232916 317.614108 
L 73.356883 315.29949 
L 78.48085 311.853221 
L 83.604817 307.436644 
L 88.728784 302.176509 
L 93.852751 296.180387 
L 98.976717 289.543122 
L 104.100684 282.350193 
L 109.224651 274.679726 
L 114.348618 266.603787 
L 119.472585 258.18928 
L 124.596552 249.498602 
L 129.720519 240.590127 
L 134.844486 231.518588 
L 139.968453 222.335384 
L 145.09242 213.08882 
L 150.216387 203.824313 
L 155.340354 194.58457 
L 160.464321 185.409727 
L 165.588288 176.337482 
L 170.712255 167.403207 
L 175.836222 158.640041 
L 180.960189 150.078985 
L 186.084155 141.748979 
L 191.208122 133.676973 
L 196.332089 125.887993 
L 201.456056 118.405202 
L 206.580023 111.249958 
L 211.70399 104.441862 
L 216.827957 97.998811 
L 221.951924 91.93704 
L 227.075891 86.271168 
L 232.199858 81.014238 
L 237.323825 76.177756 
L 242.447792 71.771728 
L 247.571759 67.804698 
L 252.695726 64.283779 
L 257.819693 61.21469 
L 262.94366 58.601783 
L 268.067627 56.448081 
L 273.191593 54.755304 
L 278.31556 53.523901 
L 283.439527 52.753077 
L 288.563494 52.440824 
L 293.687461 52.583949 
L 298.811428 53.1781 
L 303.935395 54.217797 
L 309.059362 55.696456 
L 314.183329 57.606418 
L 319.307296 59.938979 
L 324.431263 62.68441 
L 329.55523 65.83199 
L 334.679197 69.370033 
L 339.803164 73.285911 
L 344.927131 77.566088 
L 350.051098 82.196141 
L 355.175065 87.160794 
L 360.299032 92.443941 
L 365.422998 98.02868 
L 370.546965 103.897339 
L 375.670932 110.031506 
L 380.794899 116.412064 
L 385.918866 123.019214 
L 391.042833 129.832517 
L 396.1668 136.830918 
L 401.290767 143.992787 
L 406.414734 151.29595 
L 411.538701 158.717728 
L 416.662668 166.234975 
L 421.786635 173.824115 
L 426.910602 181.461186 
L 432.034569 189.121883 
L 437.158536 196.781603 
L 442.282503 204.415494 
L 447.40647 211.998507 
L 452.530436 219.505447 
L 457.654403 226.911036 
L 462.77837 234.189974 
L 467.902337 241.317004 
L 473.026304 248.266989 
L 478.150271 255.014991 
L 483.274238 261.536357 
L 488.398205 267.806821 
L 493.522172 273.802609 
L 498.646139 279.500565 
L 503.770106 284.878288 
L 508.894073 289.914296 
L 514.01804 294.588213 
L 519.142007 298.880991 
L 524.265974 302.775181 
L 529.389941 306.255264 
L 534.513908 309.30807 
L 539.637874 311.92333 
L 544.761841 314.09442 
L 549.885808 315.819433 
L 555.009775 317.102834 
L 560.133742 317.958303 
L 565.257709 318.414613 
L 570.381676 318.534545 
" style="fill:none;stroke:#2ca02c;stroke-linecap:round;stroke-width:1.5;"/>
   </g>
   <g id="line2d_26">
    <path clip-path="url(#pe5c05ba2ae)" d="M 63.108949 318.534545 
L 68.232916 317.390541 
L 73.356883 314.455933 
L 78.48085 310.058625 
L 83.604817 304.415339 
L 88.728784 297.702065 
L 93.852751 290.070913 
L 98.976717 281.657328 
L 104.100684 272.58394 
L 109.224651 262.962904 
L 114.348618 252.897453 
L 119.472585 242.482999 
L 124.596552 231.807952 
L 129.720519 220.954354 
L 134.844486 209.998381 
L 139.968453 199.010766 
L 145.09242 188.057144 
L 150.216387 177.198349 
L 155.340354 166.490683 
L 160.464321 155.986136 
L 165.588288 145.732599 
L 170.712255 135.774051 
L 175.836222 126.150724 
L 180.960189 116.899267 
L 186.084155 108.052887 
L 191.208122 99.64149 
L 196.332089 91.691806 
L 201.456056 84.227515 
L 206.580023 77.269361 
L 211.70399 70.835263 
L 216.827957 64.940422 
L 221.951924 59.597424 
L 227.075891 54.816339 
L 232.199858 50.604818 
L 237.323825 46.968183 
L 242.447792 43.909524 
L 247.571759 41.429782 
L 252.695726 39.527841 
L 257.819693 38.20061 
L 262.94366 37.443109 
L 268.067627 37.248549 
L 273.191593 37.608417 
L 278.31556 38.512553 
L 283.439527 39.949232 
L 288.563494 41.905241 
L 293.687461 44.365954 
L 298.811428 47.315417 
L 303.935395 50.736417 
L 309.059362 54.610561 
L 314.183329 58.918353 
L 319.307296 63.639265 
L 324.431263 68.75182 
L 329.55523 74.233659 
L 334.679197 80.061621 
L 339.803164 86.211813 
L 344.927131 92.659692 
L 350.051098 99.380133 
L 355.175065 106.347509 
L 360.299032 113.535763 
L 365.422998 120.918485 
L 370.546965 128.468987 
L 375.670932 136.160382 
L 380.794899 143.965657 
L 385.918866 151.857753 
L 391.042833 159.80964 
L 396.1668 167.7944 
L 401.290767 175.785304 
L 406.414734 183.755889 
L 411.538701 191.680045 
L 416.662668 199.532096 
L 421.786635 207.28688 
L 426.910602 214.919836 
L 432.034569 222.407094 
L 437.158536 229.725556 
L 442.282503 236.852992 
L 447.40647 243.76813 
L 452.530436 250.450748 
L 457.654403 256.881775 
L 462.77837 263.043387 
L 467.902337 268.919113 
L 473.026304 274.493938 
L 478.150271 279.75442 
L 483.274238 284.688797 
L 488.398205 289.287118 
L 493.522172 293.541362 
L 498.646139 297.445579 
L 503.770106 300.996034 
L 508.894073 304.191357 
L 514.01804 307.03272 
L 519.142007 309.524013 
L 524.265974 311.672057 
L 529.389941 313.486829 
L 534.513908 314.981734 
L 539.637874 316.173921 
L 544.761841 317.084665 
L 549.885808 317.739858 
L 555.009775 318.170671 
L 560.133742 318.414531 
L 565.257709 318.516777 
L 570.381676 318.534545 
" style="fill:none;stroke:#d62728;stroke-linecap:round;stroke-width:1.5;"/>
   </g>
   <g id="line2d_27">
    <path clip-path="url(#pe5c05ba2ae)" d="M 63.108949 318.534545 
L 68.232916 318.525521 
L 73.356883 318.467131 
L 78.48085 318.317635 
L 83.604817 318.040256 
L 88.728784 317.602261 
L 93.852751 316.974524 
L 98.976717 316.131235 
L 104.100684 315.04969 
L 109.224651 313.710118 
L 114.348618 312.095536 
L 119.472585 310.191623 
L 124.596552 307.9866 
L 129.720519 305.471131 
L 134.844486 302.638218 
L 139.968453 299.483107 
L 145.09242 296.003203 
L 150.216387 292.197979 
L 155.340354 288.068896 
L 160.464321 283.61932 
L 165.588288 278.85444 
L 170.712255 273.781197 
L 175.836222 268.408202 
L 180.960189 262.745662 
L 186.084155 256.805307 
L 191.208122 250.600313 
L 196.332089 244.145235 
L 201.456056 237.455926 
L 206.580023 230.549472 
L 211.70399 223.444118 
L 216.827957 216.159195 
L 221.951924 208.715049 
L 227.075891 201.13297 
L 232.199858 193.43512 
L 237.323825 185.644465 
L 242.447792 177.784696 
L 247.571759 169.880165 
L 252.695726 161.955807 
L 257.819693 154.037073 
L 262.94366 146.149853 
L 268.067627 138.320404 
L 273.191593 130.575279 
L 278.31556 122.941251 
L 283.439527 115.445239 
L 288.563494 108.114231 
L 293.687461 100.975212 
L 298.811428 94.055085 
L 303.935395 87.380595 
L 309.059362 80.978248 
L 314.183329 74.874237 
L 319.307296 69.094358 
L 324.431263 63.66393 
L 329.55523 58.607715 
L 334.679197 53.949829 
L 339.803164 49.713664 
L 344.927131 45.921797 
L 350.051098 42.595905 
L 355.175065 39.756672 
L 360.299032 37.423703 
L 365.422998 35.615425 
L 370.546965 34.348997 
L 375.670932 33.640208 
L 380.794899 33.503379 
L 385.918866 33.95126 
L 391.042833 34.994923 
L 396.1668 36.643653 
L 401.290767 38.904838 
L 406.414734 41.783847 
L 411.538701 45.283914 
L 416.662668 49.406009 
L 421.786635 54.148709 
L 426.910602 59.508058 
L 432.034569 65.477426 
L 437.158536 72.047354 
L 442.282503 79.205398 
L 447.40647 86.935957 
L 452.530436 95.220093 
L 457.654403 104.035336 
L 462.77837 113.355479 
L 467.902337 123.15035 
L 473.026304 133.385566 
L 478.150271 144.022268 
L 483.274238 155.016816 
L 488.398205 166.320462 
L 493.522172 177.878972 
L 498.646139 189.632196 
L 503.770106 201.513577 
L 508.894073 213.449569 
L 514.01804 225.358943 
L 519.142007 237.151949 
L 524.265974 248.729267 
L 529.389941 259.980672 
L 534.513908 270.783267 
L 539.637874 280.999063 
L 544.761841 290.471477 
L 549.885808 299.019941 
L 555.009775 306.430794 
L 560.133742 312.439713 
L 565.257709 316.689036 
L 570.381676 318.534545 
" style="fill:none;stroke:#9467bd;stroke-linecap:round;stroke-width:1.5;"/>
   </g>
   <g id="line2d_28">
    <path clip-path="url(#pe5c05ba2ae)" d="M 63.108949 318.534545 
L 68.232916 318.488496 
L 73.356883 318.264302 
L 78.48085 317.780466 
L 83.604817 316.982759 
L 88.728784 315.832224 
L 93.852751 314.300656 
L 98.976717 312.368146 
L 104.100684 310.021522 
L 109.224651 307.253257 
L 114.348618 304.060649 
L 119.472585 300.445188 
L 124.596552 296.412039 
L 129.720519 291.969612 
L 134.844486 287.129194 
L 139.968453 281.904635 
L 145.09242 276.312069 
L 150.216387 270.369663 
L 155.340354 264.097397 
L 160.464321 257.516855 
L 165.588288 250.651045 
L 170.712255 243.524224 
L 175.836222 236.161739 
L 180.960189 228.589877 
L 186.084155 220.835731 
L 191.208122 212.92706 
L 196.332089 204.892172 
L 201.456056 196.759807 
L 206.580023 188.559018 
L 211.70399 180.319074 
L 216.827957 172.06935 
L 221.951924 163.839237 
L 227.075891 155.65804 
L 232.199858 147.554898 
L 237.323825 139.558688 
L 242.447792 131.697949 
L 247.571759 124.000797 
L 252.695726 116.494847 
L 257.819693 109.207141 
L 262.94366 102.164071 
L 268.067627 95.391311 
L 273.191593 88.913745 
L 278.31556 82.755404 
L 283.439527 76.939398 
L 288.563494 71.487853 
L 293.687461 66.421852 
L 298.811428 61.761369 
L 303.935395 57.52522 
L 309.059362 53.730996 
L 314.183329 50.395014 
L 319.307296 47.532263 
L 324.431263 45.156346 
L 329.55523 43.279434 
L 334.679197 41.912213 
L 339.803164 41.063836 
L 344.927131 40.741875 
L 350.051098 40.952275 
L 355.175065 41.699309 
L 360.299032 42.985533 
L 365.422998 44.811743 
L 370.546965 47.176935 
L 375.670932 50.078262 
L 380.794899 53.510999 
L 385.918866 57.468498 
L 391.042833 61.942159 
L 396.1668 66.921389 
L 401.290767 72.39357 
L 406.414734 78.344026 
L 411.538701 84.755989 
L 416.662668 91.610575 
L 421.786635 98.886747 
L 426.910602 106.561297 
L 432.034569 114.608813 
L 437.158536 123.001662 
L 442.282503 131.709965 
L 447.40647 140.701578 
L 452.530436 149.942079 
L 457.654403 159.394748 
L 462.77837 169.02056 
L 467.902337 178.778179 
L 473.026304 188.623948 
L 478.150271 198.511894 
L 483.274238 208.393734 
L 488.398205 218.218882 
L 493.522172 227.934471 
L 498.646139 237.485382 
L 503.770106 246.814274 
L 508.894073 255.861643 
L 514.01804 264.565885 
L 519.142007 272.863386 
L 524.265974 280.688636 
L 529.389941 287.974396 
L 534.513908 294.651901 
L 539.637874 300.651166 
L 544.761841 305.901411 
L 549.885808 310.331718 
L 555.009775 313.872092 
L 560.133742 316.455411 
L 565.257709 318.021762 
L 570.381676 318.534545 
" style="fill:none;stroke:#8c564b;stroke-linecap:round;stroke-width:1.5;"/>
   </g>
   <g id="line2d_29">
    <path clip-path="url(#pe5c05ba2ae)" d="M 63.108949 318.534545 
L 68.232916 318.076807 
L 73.356883 316.580456 
L 78.48085 314.023685 
L 83.604817 310.440354 
L 88.728784 305.884895 
L 93.852751 300.422263 
L 98.976717 294.123251 
L 104.100684 287.061863 
L 109.224651 279.313644 
L 114.348618 270.954569 
L 119.472585 262.060236 
L 124.596552 252.705282 
L 129.720519 242.962935 
L 134.844486 232.904669 
L 139.968453 222.599932 
L 145.09242 212.115938 
L 150.216387 201.51749 
L 155.340354 190.86685 
L 160.464321 180.223631 
L 165.588288 169.644711 
L 170.712255 159.184173 
L 175.836222 148.89325 
L 180.960189 138.820298 
L 186.084155 129.010766 
L 191.208122 119.507187 
L 196.332089 110.349174 
L 201.456056 101.573425 
L 206.580023 93.213734 
L 211.70399 85.301006 
L 216.827957 77.863286 
L 221.951924 70.925786 
L 227.075891 64.510916 
L 232.199858 58.638324 
L 237.323825 53.324939 
L 242.447792 48.585017 
L 247.571759 44.430187 
L 252.695726 40.869507 
L 257.819693 37.909519 
L 262.94366 35.554305 
L 268.067627 33.805553 
L 273.191593 32.662616 
L 278.31556 32.122581 
L 283.439527 32.180337 
L 288.563494 32.828648 
L 293.687461 34.05822 
L 298.811428 35.857785 
L 303.935395 38.214172 
L 309.059362 41.112387 
L 314.183329 44.535698 
L 319.307296 48.465714 
L 324.431263 52.882471 
L 329.55523 57.764521 
L 334.679197 63.08902 
L 339.803164 68.831815 
L 344.927131 74.967542 
L 350.051098 81.469716 
L 355.175065 88.310827 
L 360.299032 95.462441 
L 365.422998 102.895294 
L 370.546965 110.579398 
L 375.670932 118.484142 
L 380.794899 126.578398 
L 385.918866 134.830626 
L 391.042833 143.208982 
L 396.1668 151.681433 
L 401.290767 160.215864 
L 406.414734 168.780197 
L 411.538701 177.342506 
L 416.662668 185.871137 
L 421.786635 194.334826 
L 426.910602 202.702829 
L 432.034569 210.945042 
L 437.158536 219.032133 
L 442.282503 226.935675 
L 447.40647 234.628278 
L 452.530436 242.083729 
L 457.654403 249.277133 
L 462.77837 256.185059 
L 467.902337 262.785686 
L 473.026304 269.058964 
L 478.150271 274.986764 
L 483.274238 280.55305 
L 488.398205 285.744044 
L 493.522172 290.548408 
L 498.646139 294.957426 
L 503.770106 298.965199 
L 508.894073 302.568855 
L 514.01804 305.76876 
L 519.142007 308.568761 
L 524.265974 310.976432 
L 529.389941 313.003356 
L 534.513908 314.665435 
L 539.637874 315.983242 
L 544.761841 316.982434 
L 549.885808 317.694253 
L 555.009775 318.156172 
L 560.133742 318.412797 
L 565.257709 318.5173 
L 570.381676 318.534545 
" style="fill:none;stroke:#e377c2;stroke-linecap:round;stroke-width:1.5;"/>
   </g>
   <g id="line2d_30">
    <path clip-path="url(#pe5c05ba2ae)" d="M 63.108949 318.534545 
L 68.232916 312.885499 
L 73.356883 306.216478 
L 78.48085 299.198542 
L 83.604817 292.005863 
L 88.728784 284.728272 
L 93.852751 277.422065 
L 98.976717 270.126399 
L 104.100684 262.870355 
L 109.224651 255.676534 
L 114.348618 248.563092 
L 119.472585 241.544983 
L 124.596552 234.634775 
L 129.720519 227.843191 
L 134.844486 221.179505 
L 139.968453 214.65182 
L 145.09242 208.267278 
L 150.216387 202.032224 
L 155.340354 195.952328 
L 160.464321 190.032685 
L 165.588288 184.277893 
L 170.712255 178.69212 
L 175.836222 173.27915 
L 180.960189 168.042436 
L 186.084155 162.985128 
L 191.208122 158.110107 
L 196.332089 153.420012 
L 201.456056 148.917262 
L 206.580023 144.604074 
L 211.70399 140.482478 
L 216.827957 136.554337 
L 221.951924 132.821352 
L 227.075891 129.285079 
L 232.199858 125.946935 
L 237.323825 122.808208 
L 242.447792 119.870064 
L 247.571759 117.133553 
L 252.695726 114.599615 
L 257.819693 112.269085 
L 262.94366 110.142699 
L 268.067627 108.221094 
L 273.191593 106.504815 
L 278.31556 104.994316 
L 283.439527 103.689965 
L 288.563494 102.592041 
L 293.687461 101.700742 
L 298.811428 101.016182 
L 303.935395 100.538395 
L 309.059362 100.267332 
L 314.183329 100.202866 
L 319.307296 100.344791 
L 324.431263 100.69282 
L 329.55523 101.246586 
L 334.679197 102.005642 
L 339.803164 102.96946 
L 344.927131 104.137428 
L 350.051098 105.508854 
L 355.175065 107.082956 
L 360.299032 108.858867 
L 365.422998 110.83563 
L 370.546965 113.012193 
L 375.670932 115.387411 
L 380.794899 117.960039 
L 385.918866 120.728725 
L 391.042833 123.692012 
L 396.1668 126.848329 
L 401.290767 130.195984 
L 406.414734 133.73316 
L 411.538701 137.457905 
L 416.662668 141.368125 
L 421.786635 145.461574 
L 426.910602 149.735842 
L 432.034569 154.188345 
L 437.158536 158.816309 
L 442.282503 163.616751 
L 447.40647 168.586466 
L 452.530436 173.722001 
L 457.654403 179.019632 
L 462.77837 184.475332 
L 467.902337 190.08474 
L 473.026304 195.843117 
L 478.150271 201.745298 
L 483.274238 207.785634 
L 488.398205 213.957919 
L 493.522172 220.255304 
L 498.646139 226.670184 
L 503.770106 233.194061 
L 508.894073 239.817367 
L 514.01804 246.52923 
L 519.142007 253.317162 
L 524.265974 260.166634 
L 529.389941 267.060472 
L 534.513908 273.977974 
L 539.637874 280.893551 
L 544.761841 287.774523 
L 549.885808 294.577243 
L 555.009775 301.239519 
L 560.133742 307.663171 
L 565.257709 313.660556 
L 570.381676 318.534545 
" style="fill:none;stroke:#7f7f7f;stroke-linecap:round;stroke-width:1.5;"/>
   </g>
   <g id="line2d_31">
    <path clip-path="url(#pe5c05ba2ae)" d="M 63.108949 318.534545 
L 68.232916 298.083816 
L 73.356883 277.604748 
L 78.48085 257.825066 
L 83.604817 238.895353 
L 88.728784 220.876774 
L 93.852751 203.795797 
L 98.976717 187.661446 
L 104.100684 172.472642 
L 109.224651 158.221912 
L 114.348618 144.897478 
L 119.472585 132.484538 
L 124.596552 120.966093 
L 129.720519 110.323515 
L 134.844486 100.536947 
L 139.968453 91.585595 
L 145.09242 83.447951 
L 150.216387 76.101956 
L 155.340354 69.52514 
L 160.464321 63.694722 
L 165.588288 58.587701 
L 170.712255 54.180922 
L 175.836222 50.451137 
L 180.960189 47.375054 
L 186.084155 44.929381 
L 191.208122 43.09086 
L 196.332089 41.836299 
L 201.456056 41.142602 
L 206.580023 40.986789 
L 211.70399 41.346023 
L 216.827957 42.197624 
L 221.951924 43.519093 
L 227.075891 45.288119 
L 232.199858 47.482605 
L 237.323825 50.08067 
L 242.447792 53.060669 
L 247.571759 56.401204 
L 252.695726 60.08113 
L 257.819693 64.07957 
L 262.94366 68.375923 
L 268.067627 72.949872 
L 273.191593 77.781397 
L 278.31556 82.850776 
L 283.439527 88.138601 
L 288.563494 93.625781 
L 293.687461 99.293549 
L 298.811428 105.123476 
L 303.935395 111.097468 
L 309.059362 117.197783 
L 314.183329 123.407032 
L 319.307296 129.708189 
L 324.431263 136.084597 
L 329.55523 142.519973 
L 334.679197 148.998419 
L 339.803164 155.504425 
L 344.927131 162.022881 
L 350.051098 168.539077 
L 355.175065 175.038718 
L 360.299032 181.507925 
L 365.422998 187.933247 
L 370.546965 194.301664 
L 375.670932 200.600601 
L 380.794899 206.81793 
L 385.918866 212.941981 
L 391.042833 218.961551 
L 396.1668 224.865912 
L 401.290767 230.644819 
L 406.414734 236.288523 
L 411.538701 241.787775 
L 416.662668 247.133844 
L 421.786635 252.31852 
L 426.910602 257.334132 
L 432.034569 262.173555 
L 437.158536 266.830227 
L 442.282503 271.298157 
L 447.40647 275.571947 
L 452.530436 279.6468 
L 457.654403 283.51854 
L 462.77837 287.183631 
L 467.902337 290.639193 
L 473.026304 293.883024 
L 478.150271 296.913626 
L 483.274238 299.730223 
L 488.398205 302.332798 
L 493.522172 304.722115 
L 498.646139 306.899759 
L 503.770106 308.868175 
L 508.894073 310.63071 
L 514.01804 312.191666 
L 519.142007 313.556363 
L 524.265974 314.731208 
L 529.389941 315.723784 
L 534.513908 316.542955 
L 539.637874 317.199009 
L 544.761841 317.703832 
L 549.885808 318.071158 
L 555.009775 318.316933 
L 560.133742 318.459893 
L 565.257709 318.522651 
L 570.381676 318.534545 
" style="fill:none;stroke:#bcbd22;stroke-linecap:round;stroke-width:1.5;"/>
   </g>
   <g id="line2d_32">
    <path clip-path="url(#pe5c05ba2ae)" d="M 63.108949 318.534545 
L 68.232916 318.446876 
L 73.356883 318.033164 
L 78.48085 317.160562 
L 83.604817 315.749044 
L 88.728784 313.747768 
L 93.852751 311.126081 
L 98.976717 307.868574 
L 104.100684 303.971886 
L 109.224651 299.442454 
L 114.348618 294.294801 
L 119.472585 288.550206 
L 124.596552 282.2356 
L 129.720519 275.382664 
L 134.844486 268.027048 
L 139.968453 260.207697 
L 145.09242 251.966269 
L 150.216387 243.346605 
L 155.340354 234.394272 
L 160.464321 225.156142 
L 165.588288 215.680015 
L 170.712255 206.014276 
L 175.836222 196.207583 
L 180.960189 186.308583 
L 186.084155 176.365647 
L 191.208122 166.426638 
L 196.332089 156.538681 
L 201.456056 146.747967 
L 206.580023 137.099568 
L 211.70399 127.637261 
L 216.827957 118.403373 
L 221.951924 109.438642 
L 227.075891 100.782078 
L 232.199858 92.470849 
L 237.323825 84.540167 
L 242.447792 77.023194 
L 247.571759 69.950951 
L 252.695726 63.352236 
L 257.819693 57.253558 
L 262.94366 51.679074 
L 268.067627 46.650534 
L 273.191593 42.187235 
L 278.31556 38.305989 
L 283.439527 35.021085 
L 288.563494 32.344274 
L 293.687461 30.284749 
L 298.811428 28.849139 
L 303.935395 28.041506 
L 309.059362 27.863354 
L 314.183329 28.313637 
L 319.307296 29.388783 
L 324.431263 31.082714 
L 329.55523 33.386881 
L 334.679197 36.290304 
L 339.803164 39.779614 
L 344.927131 43.839105 
L 350.051098 48.450793 
L 355.175065 53.594479 
L 360.299032 59.247817 
L 365.422998 65.386398 
L 370.546965 71.983825 
L 375.670932 79.011808 
L 380.794899 86.44026 
L 385.918866 94.237398 
L 391.042833 102.369854 
L 396.1668 110.802796 
L 401.290767 119.500044 
L 406.414734 128.424209 
L 411.538701 137.536828 
L 416.662668 146.798511 
L 421.786635 156.169095 
L 426.910602 165.607808 
L 432.034569 175.07344 
L 437.158536 184.524522 
L 442.282503 193.919518 
L 447.40647 203.217022 
L 452.530436 212.37597 
L 457.654403 221.35586 
L 462.77837 230.116987 
L 467.902337 238.620687 
L 473.026304 246.8296 
L 478.150271 254.707943 
L 483.274238 262.221803 
L 488.398205 269.339452 
L 493.522172 276.031672 
L 498.646139 282.272119 
L 503.770106 288.037701 
L 508.894073 293.308996 
L 514.01804 298.070706 
L 519.142007 302.312156 
L 524.265974 306.027846 
L 529.389941 309.218084 
L 534.513908 311.889698 
L 539.637874 314.056882 
L 544.761841 315.742216 
L 549.885808 316.977938 
L 555.009775 317.807655 
L 560.133742 318.288803 
L 565.257709 318.496785 
L 570.381676 318.534545 
" style="fill:none;stroke:#17becf;stroke-linecap:round;stroke-width:1.5;"/>
   </g>
   <g id="line2d_33">
    <path clip-path="url(#pe5c05ba2ae)" d="M 63.108949 318.534545 
L 68.232916 318.517703 
L 73.356883 318.407179 
L 78.48085 318.123297 
L 83.604817 317.597499 
L 88.728784 316.770923 
L 93.852751 315.59355 
L 98.976717 314.023549 
L 104.100684 312.026724 
L 109.224651 309.576016 
L 114.348618 306.651052 
L 119.472585 303.237721 
L 124.596552 299.32777 
L 129.720519 294.918422 
L 134.844486 290.012011 
L 139.968453 284.615623 
L 145.09242 278.740759 
L 150.216387 272.403 
L 155.340354 265.621688 
L 160.464321 258.419612 
L 165.588288 250.822707 
L 170.712255 242.859756 
L 175.836222 234.562107 
L 180.960189 225.96339 
L 186.084155 217.099246 
L 191.208122 208.007064 
L 196.332089 198.725723 
L 201.456056 189.295342 
L 206.580023 179.757033 
L 211.70399 170.152672 
L 216.827957 160.524662 
L 221.951924 150.915714 
L 227.075891 141.36863 
L 232.199858 131.926095 
L 237.323825 122.630473 
L 242.447792 113.523608 
L 247.571759 104.646644 
L 252.695726 96.039831 
L 257.819693 87.742361 
L 262.94366 79.792188 
L 268.067627 72.225878 
L 273.191593 65.078445 
L 278.31556 58.383206 
L 283.439527 52.171644 
L 288.563494 46.473268 
L 293.687461 41.315493 
L 298.811428 36.723516 
L 303.935395 32.720209 
L 309.059362 29.326013 
L 314.183329 26.558839 
L 319.307296 24.433986 
L 324.431263 22.964054 
L 329.55523 22.158877 
L 334.679197 22.025455 
L 339.803164 22.567898 
L 344.927131 23.787384 
L 350.051098 25.682114 
L 355.175065 28.247287 
L 360.299032 31.475078 
L 365.422998 35.354628 
L 370.546965 39.872043 
L 375.670932 45.010404 
L 380.794899 50.749783 
L 385.918866 57.067278 
L 391.042833 63.937049 
L 396.1668 71.330377 
L 401.290767 79.215723 
L 406.414734 87.558805 
L 411.538701 96.322694 
L 416.662668 105.46791 
L 421.786635 114.952544 
L 426.910602 124.732389 
L 432.034569 134.76109 
L 437.158536 144.990304 
L 442.282503 155.369891 
L 447.40647 165.848106 
L 452.530436 176.371828 
L 457.654403 186.8868 
L 462.77837 197.337896 
L 467.902337 207.669415 
L 473.026304 217.8254 
L 478.150271 227.749992 
L 483.274238 237.387812 
L 488.398205 246.68439 
L 493.522172 255.586629 
L 498.646139 264.043325 
L 503.770106 272.005742 
L 508.894073 279.428257 
L 514.01804 286.269079 
L 519.142007 292.49108 
L 524.265974 298.062733 
L 529.389941 302.959215 
L 534.513908 307.163717 
L 539.637874 310.66902 
L 544.761841 313.479491 
L 549.885808 315.613666 
L 555.009775 317.107849 
L 560.133742 318.021566 
L 565.257709 318.447228 
L 570.381676 318.534545 
" style="fill:none;stroke:#1f77b4;stroke-linecap:round;stroke-width:1.5;"/>
   </g>
   <g id="line2d_34">
    <path clip-path="url(#pe5c05ba2ae)" d="M 63.108949 318.534545 
L 68.232916 317.701361 
L 73.356883 315.457022 
L 78.48085 311.998854 
L 83.604817 307.470937 
L 88.728784 301.99663 
L 93.852751 295.686599 
L 98.976717 288.642296 
L 104.100684 280.957829 
L 109.224651 272.721117 
L 114.348618 264.014649 
L 119.472585 254.916038 
L 124.596552 245.498422 
L 129.720519 235.830788 
L 134.844486 225.978221 
L 139.968453 216.002122 
L 145.09242 205.960379 
L 150.216387 195.907525 
L 155.340354 185.89487 
L 160.464321 175.970622 
L 165.588288 166.179995 
L 170.712255 156.565303 
L 175.836222 147.166055 
L 180.960189 138.019037 
L 186.084155 129.15839 
L 191.208122 120.615685 
L 196.332089 112.419993 
L 201.456056 104.597951 
L 206.580023 97.173827 
L 211.70399 90.169583 
L 216.827957 83.604932 
L 221.951924 77.4974 
L 227.075891 71.86238 
L 232.199858 66.713188 
L 237.323825 62.061117 
L 242.447792 57.915492 
L 247.571759 54.28372 
L 252.695726 51.171345 
L 257.819693 48.582095 
L 262.94366 46.51794 
L 268.067627 44.979134 
L 273.191593 43.964271 
L 278.31556 43.470334 
L 283.439527 43.492744 
L 288.563494 44.02541 
L 293.687461 45.060779 
L 298.811428 46.589886 
L 303.935395 48.602405 
L 309.059362 51.086699 
L 314.183329 54.029868 
L 319.307296 57.417804 
L 324.431263 61.235237 
L 329.55523 65.465793 
L 334.679197 70.092042 
L 339.803164 75.095549 
L 344.927131 80.456933 
L 350.051098 86.155915 
L 355.175065 92.171377 
L 360.299032 98.481416 
L 365.422998 105.063398 
L 370.546965 111.894019 
L 375.670932 118.949363 
L 380.794899 126.204959 
L 385.918866 133.635843 
L 391.042833 141.216621 
L 396.1668 148.921534 
L 401.290767 156.724518 
L 406.414734 164.599277 
L 411.538701 172.519348 
L 416.662668 180.458174 
L 421.786635 188.389177 
L 426.910602 196.285833 
L 432.034569 204.121752 
L 437.158536 211.870758 
L 442.282503 219.506977 
L 447.40647 227.004921 
L 452.530436 234.339586 
L 457.654403 241.486548 
L 462.77837 248.422065 
L 467.902337 255.123189 
L 473.026304 261.567877 
L 478.150271 267.735121 
L 483.274238 273.605078 
L 488.398205 279.159213 
L 493.522172 284.380455 
L 498.646139 289.253372 
L 503.770106 293.764355 
L 508.894073 297.901832 
L 514.01804 301.656502 
L 519.142007 305.021613 
L 524.265974 307.99327 
L 529.389941 310.570814 
L 534.513908 312.75727 
L 539.637874 314.559913 
L 544.761841 315.99099 
L 549.885808 317.068706 
L 555.009775 317.81864 
L 560.133742 318.276004 
L 565.257709 318.489863 
L 570.381676 318.534545 
" style="fill:none;stroke:#ff7f0e;stroke-linecap:round;stroke-width:1.5;"/>
   </g>
   <g id="line2d_35">
    <path clip-path="url(#pe5c05ba2ae)" d="M 63.108949 318.534545 
L 68.232916 310.090514 
L 73.356883 299.097379 
L 78.48085 287.193176 
L 83.604817 274.858537 
L 88.728784 262.35227 
L 93.852751 249.840174 
L 98.976717 237.438441 
L 104.100684 225.233019 
L 109.224651 213.289746 
L 114.348618 201.660231 
L 119.472585 190.38555 
L 124.596552 179.498695 
L 129.720519 169.026279 
L 134.844486 158.989757 
L 139.968453 149.406338 
L 145.09242 140.289679 
L 150.216387 131.650419 
L 155.340354 123.496611 
L 160.464321 115.834059 
L 165.588288 108.666604 
L 170.712255 101.996354 
L 175.836222 95.823876 
L 180.960189 90.148363 
L 186.084155 84.967774 
L 191.208122 80.278952 
L 196.332089 76.077731 
L 201.456056 72.359026 
L 206.580023 69.116915 
L 211.70399 66.344709 
L 216.827957 64.035012 
L 221.951924 62.179787 
L 227.075891 60.770395 
L 232.199858 59.79765 
L 237.323825 59.251859 
L 242.447792 59.122857 
L 247.571759 59.400046 
L 252.695726 60.072425 
L 257.819693 61.128619 
L 262.94366 62.55691 
L 268.067627 64.345259 
L 273.191593 66.481333 
L 278.31556 68.952526 
L 283.439527 71.745978 
L 288.563494 74.848601 
L 293.687461 78.247092 
L 298.811428 81.927954 
L 303.935395 85.877512 
L 309.059362 90.081932 
L 314.183329 94.527232 
L 319.307296 99.199301 
L 324.431263 104.083914 
L 329.55523 109.166745 
L 334.679197 114.433378 
L 339.803164 119.869327 
L 344.927131 125.460043 
L 350.051098 131.190934 
L 355.175065 137.047368 
L 360.299032 143.014697 
L 365.422998 149.078262 
L 370.546965 155.223409 
L 375.670932 161.435498 
L 380.794899 167.699924 
L 385.918866 174.002119 
L 391.042833 180.327575 
L 396.1668 186.66185 
L 401.290767 192.990587 
L 406.414734 199.299524 
L 411.538701 205.574512 
L 416.662668 211.801525 
L 421.786635 217.96668 
L 426.910602 224.056252 
L 432.034569 230.056691 
L 437.158536 235.954636 
L 442.282503 241.736941 
L 447.40647 247.390689 
L 452.530436 252.903218 
L 457.654403 258.262138 
L 462.77837 263.455364 
L 467.902337 268.471137 
L 473.026304 273.298056 
L 478.150271 277.925113 
L 483.274238 282.341724 
L 488.398205 286.537778 
L 493.522172 290.503676 
L 498.646139 294.230388 
L 503.770106 297.709514 
L 508.894073 300.933356 
L 514.01804 303.895001 
L 519.142007 306.588423 
L 524.265974 309.008614 
L 529.389941 311.151733 
L 534.513908 313.015315 
L 539.637874 314.598535 
L 544.761841 315.902586 
L 549.885808 316.931217 
L 555.009775 317.691589 
L 560.133742 318.195771 
L 565.257709 318.463895 
L 570.381676 318.534545 
" style="fill:none;stroke:#2ca02c;stroke-linecap:round;stroke-width:1.5;"/>
   </g>
   <g id="line2d_36">
    <path clip-path="url(#pe5c05ba2ae)" d="M 63.108949 318.534545 
L 68.232916 308.699741 
L 73.356883 295.241145 
L 78.48085 280.444876 
L 83.604817 265.025517 
L 88.728784 249.376431 
L 93.852751 233.752191 
L 98.976717 218.331585 
L 104.100684 203.246276 
L 109.224651 188.596056 
L 114.348618 174.457844 
L 119.472585 160.891415 
L 124.596552 147.943259 
L 129.720519 135.649295 
L 134.844486 124.03685 
L 139.968453 113.126154 
L 145.09242 102.931486 
L 150.216387 93.462079 
L 155.340354 84.722846 
L 160.464321 76.714973 
L 165.588288 69.436407 
L 170.712255 62.88227 
L 175.836222 57.0452 
L 180.960189 51.915657 
L 186.084155 47.482174 
L 191.208122 43.731583 
L 196.332089 40.64921 
L 201.456056 38.219053 
L 206.580023 36.423933 
L 211.70399 35.245634 
L 216.827957 34.665027 
L 221.951924 34.662183 
L 227.075891 35.216478 
L 232.199858 36.306683 
L 237.323825 37.911053 
L 242.447792 40.007405 
L 247.571759 42.573191 
L 252.695726 45.585567 
L 257.819693 49.021457 
L 262.94366 52.857609 
L 268.067627 57.070653 
L 273.191593 61.637154 
L 278.31556 66.533659 
L 283.439527 71.736741 
L 288.563494 77.223051 
L 293.687461 82.969349 
L 298.811428 88.952552 
L 303.935395 95.149769 
L 309.059362 101.538335 
L 314.183329 108.095849 
L 319.307296 114.800205 
L 324.431263 121.629625 
L 329.55523 128.562688 
L 334.679197 135.578362 
L 339.803164 142.656032 
L 344.927131 149.775526 
L 350.051098 156.917144 
L 355.175065 164.061684 
L 360.299032 171.190466 
L 365.422998 178.285358 
L 370.546965 185.328801 
L 375.670932 192.303833 
L 380.794899 199.194108 
L 385.918866 205.983925 
L 391.042833 212.658247 
L 396.1668 219.202725 
L 401.290767 225.603718 
L 406.414734 231.848316 
L 411.538701 237.924361 
L 416.662668 243.82047 
L 421.786635 249.526055 
L 426.910602 255.031344 
L 432.034569 260.327401 
L 437.158536 265.406152 
L 442.282503 270.260401 
L 447.40647 274.883857 
L 452.530436 279.27115 
L 457.654403 283.417858 
L 462.77837 287.320527 
L 467.902337 290.976696 
L 473.026304 294.384918 
L 478.150271 297.544787 
L 483.274238 300.456962 
L 488.398205 303.123195 
L 493.522172 305.546355 
L 498.646139 307.73046 
L 503.770106 309.68071 
L 508.894073 311.403516 
L 514.01804 312.906536 
L 519.142007 314.198721 
L 524.265974 315.290353 
L 529.389941 316.193098 
L 534.513908 316.920063 
L 539.637874 317.485866 
L 544.761841 317.906721 
L 549.885808 318.200546 
L 555.009775 318.387108 
L 560.133742 318.488242 
L 565.257709 318.528213 
L 570.381676 318.534545 
" style="fill:none;stroke:#d62728;stroke-linecap:round;stroke-width:1.5;"/>
   </g>
   <g id="line2d_37">
    <path clip-path="url(#pe5c05ba2ae)" d="M 63.108949 318.534545 
L 68.232916 318.225628 
L 73.356883 317.284549 
L 78.48085 315.725538 
L 83.604817 313.573528 
L 88.728784 310.857073 
L 93.852751 307.60647 
L 98.976717 303.852935 
L 104.100684 299.628143 
L 109.224651 294.963958 
L 114.348618 289.892235 
L 119.472585 284.4447 
L 124.596552 278.652843 
L 129.720519 272.547849 
L 134.844486 266.160533 
L 139.968453 259.521297 
L 145.09242 252.660087 
L 150.216387 245.606357 
L 155.340354 238.389047 
L 160.464321 231.036548 
L 165.588288 223.576689 
L 170.712255 216.036712 
L 175.836222 208.443253 
L 180.960189 200.822329 
L 186.084155 193.199322 
L 191.208122 185.598965 
L 196.332089 178.045327 
L 201.456056 170.561804 
L 206.580023 163.171106 
L 211.70399 155.895245 
L 216.827957 148.755528 
L 221.951924 141.772543 
L 227.075891 134.966149 
L 232.199858 128.355473 
L 237.323825 121.958891 
L 242.447792 115.794029 
L 247.571759 109.877745 
L 252.695726 104.226127 
L 257.819693 98.854481 
L 262.94366 93.777325 
L 268.067627 89.008375 
L 273.191593 84.560542 
L 278.31556 80.445923 
L 283.439527 76.675789 
L 288.563494 73.260577 
L 293.687461 70.209884 
L 298.811428 67.532457 
L 303.935395 65.236181 
L 309.059362 63.328073 
L 314.183329 61.814271 
L 319.307296 60.700028 
L 324.431263 59.989695 
L 329.55523 59.686717 
L 334.679197 59.79362 
L 339.803164 60.312002 
L 344.927131 61.24252 
L 350.051098 62.584879 
L 355.175065 64.337821 
L 360.299032 66.49911 
L 365.422998 69.065524 
L 370.546965 72.032837 
L 375.670932 75.395806 
L 380.794899 79.148156 
L 385.918866 83.282568 
L 391.042833 87.790656 
L 396.1668 92.662956 
L 401.290767 97.888902 
L 406.414734 103.45681 
L 411.538701 109.353858 
L 416.662668 115.56606 
L 421.786635 122.078244 
L 426.910602 128.874028 
L 432.034569 135.935789 
L 437.158536 143.244634 
L 442.282503 150.780368 
L 447.40647 158.521458 
L 452.530436 166.444992 
L 457.654403 174.526637 
L 462.77837 182.740592 
L 467.902337 191.059531 
L 473.026304 199.454545 
L 478.150271 207.89507 
L 483.274238 216.348815 
L 488.398205 224.781668 
L 493.522172 233.157592 
L 498.646139 241.438504 
L 503.770106 249.584131 
L 508.894073 257.551835 
L 514.01804 265.296399 
L 519.142007 272.769763 
L 524.265974 279.920689 
L 529.389941 286.694322 
L 534.513908 293.031601 
L 539.637874 298.86844 
L 544.761841 304.134528 
L 549.885808 308.751467 
L 555.009775 312.629597 
L 560.133742 315.661875 
L 565.257709 317.709063 
L 570.381676 318.534545 
" style="fill:none;stroke:#9467bd;stroke-linecap:round;stroke-width:1.5;"/>
   </g>
   <g id="line2d_38">
    <path clip-path="url(#pe5c05ba2ae)" d="M 63.108949 318.534545 
L 68.232916 315.058609 
L 73.356883 308.761533 
L 78.48085 300.840701 
L 83.604817 291.787368 
L 88.728784 281.911706 
L 93.852751 271.437728 
L 98.976717 260.538914 
L 104.100684 249.355385 
L 109.224651 238.003491 
L 114.348618 226.581687 
L 119.472585 215.17441 
L 124.596552 203.85476 
L 129.720519 192.686449 
L 134.844486 181.72525 
L 139.968453 171.020116 
L 145.09242 160.614062 
L 150.216387 150.544867 
L 155.340354 140.845661 
L 160.464321 131.545397 
L 165.588288 122.669256 
L 170.712255 114.238996 
L 175.836222 106.27324 
L 180.960189 98.787738 
L 186.084155 91.795594 
L 191.208122 85.307458 
L 196.332089 79.33171 
L 201.456056 73.874616 
L 206.580023 68.940471 
L 211.70399 64.531731 
L 216.827957 60.64913 
L 221.951924 57.291787 
L 227.075891 54.457312 
L 232.199858 52.141892 
L 237.323825 50.340383 
L 242.447792 49.046384 
L 247.571759 48.252321 
L 252.695726 47.949508 
L 257.819693 48.128222 
L 262.94366 48.777762 
L 268.067627 49.88651 
L 273.191593 51.44199 
L 278.31556 53.430918 
L 283.439527 55.83926 
L 288.563494 58.652279 
L 293.687461 61.854585 
L 298.811428 65.430178 
L 303.935395 69.362501 
L 309.059362 73.634477 
L 314.183329 78.228553 
L 319.307296 83.126747 
L 324.431263 88.31068 
L 329.55523 93.761625 
L 334.679197 99.46054 
L 339.803164 105.38811 
L 344.927131 111.524783 
L 350.051098 117.85081 
L 355.175065 124.346279 
L 360.299032 130.991158 
L 365.422998 137.765326 
L 370.546965 144.648611 
L 375.670932 151.620832 
L 380.794899 158.661828 
L 385.918866 165.751503 
L 391.042833 172.869858 
L 396.1668 179.997031 
L 401.290767 187.113335 
L 406.414734 194.199297 
L 411.538701 201.235698 
L 416.662668 208.203614 
L 421.786635 215.084453 
L 426.910602 221.860003 
L 432.034569 228.512475 
L 437.158536 235.024545 
L 442.282503 241.379402 
L 447.40647 247.560801 
L 452.530436 253.553108 
L 457.654403 259.341359 
L 462.77837 264.911311 
L 467.902337 270.24951 
L 473.026304 275.343346 
L 478.150271 280.181128 
L 483.274238 284.752157 
L 488.398205 289.046804 
L 493.522172 293.056598 
L 498.646139 296.774329 
L 503.770106 300.194147 
L 508.894073 303.311693 
L 514.01804 306.124232 
L 519.142007 308.630818 
L 524.265974 310.83248 
L 529.389941 312.732452 
L 534.513908 314.336453 
L 539.637874 315.653039 
L 544.761841 316.694064 
L 549.885808 317.475324 
L 555.009775 318.017489 
L 560.133742 318.347625 
L 565.257709 318.502089 
L 570.381676 318.534545 
" style="fill:none;stroke:#8c564b;stroke-linecap:round;stroke-width:1.5;"/>
   </g>
   <g id="line2d_39">
    <path clip-path="url(#pe5c05ba2ae)" d="M 63.108949 318.534545 
L 68.232916 317.888061 
L 73.356883 316.153872 
L 78.48085 313.478368 
L 83.604817 309.963673 
L 88.728784 305.695711 
L 93.852751 300.750999 
L 98.976717 295.199539 
L 104.100684 289.106362 
L 109.224651 282.532442 
L 114.348618 275.535303 
L 119.472585 268.169441 
L 124.596552 260.486627 
L 129.720519 252.536137 
L 134.844486 244.364938 
L 139.968453 236.017828 
L 145.09242 227.537556 
L 150.216387 218.964917 
L 155.340354 210.338839 
L 160.464321 201.696449 
L 165.588288 193.073139 
L 170.712255 184.502618 
L 175.836222 176.016956 
L 180.960189 167.646635 
L 186.084155 159.420577 
L 191.208122 151.366188 
L 196.332089 143.509383 
L 201.456056 135.87462 
L 206.580023 128.484922 
L 211.70399 121.361908 
L 216.827957 114.525812 
L 221.951924 107.995505 
L 227.075891 101.788521 
L 232.199858 95.921068 
L 237.323825 90.408056 
L 242.447792 85.263109 
L 247.571759 80.498582 
L 252.695726 76.125583 
L 257.819693 72.153981 
L 262.94366 68.592429 
L 268.067627 65.448375 
L 273.191593 62.728077 
L 278.31556 60.436616 
L 283.439527 58.577915 
L 288.563494 57.154747 
L 293.687461 56.168752 
L 298.811428 55.620449 
L 303.935395 55.509251 
L 309.059362 55.833476 
L 314.183329 56.590361 
L 319.307296 57.776075 
L 324.431263 59.385733 
L 329.55523 61.413408 
L 334.679197 63.852144 
L 339.803164 66.693972 
L 344.927131 69.929919 
L 350.051098 73.550026 
L 355.175065 77.543356 
L 360.299032 81.898017 
L 365.422998 86.601166 
L 370.546965 91.63903 
L 375.670932 96.996921 
L 380.794899 102.659246 
L 385.918866 108.60953 
L 391.042833 114.830425 
L 396.1668 121.303733 
L 401.290767 128.010419 
L 406.414734 134.930629 
L 411.538701 142.043713 
L 416.662668 149.328241 
L 421.786635 156.762023 
L 426.910602 164.322136 
L 432.034569 171.984939 
L 437.158536 179.726103 
L 442.282503 187.520638 
L 447.40647 195.342914 
L 452.530436 203.166697 
L 457.654403 210.965179 
L 462.77837 218.711011 
L 467.902337 226.376344 
L 473.026304 233.932867 
L 478.150271 241.351857 
L 483.274238 248.604226 
L 488.398205 255.660579 
L 493.522172 262.491281 
L 498.646139 269.066527 
L 503.770106 275.356431 
L 508.894073 281.33112 
L 514.01804 286.960857 
L 519.142007 292.21618 
L 524.265974 297.068075 
L 529.389941 301.488197 
L 534.513908 305.44915 
L 539.637874 308.924866 
L 544.761841 311.891129 
L 549.885808 314.326349 
L 555.009775 316.212798 
L 560.133742 317.538825 
L 565.257709 318.303661 
L 570.381676 318.534545 
" style="fill:none;stroke:#e377c2;stroke-linecap:round;stroke-width:1.5;"/>
   </g>
   <g id="line2d_40">
    <path clip-path="url(#pe5c05ba2ae)" d="M 63.108949 318.534545 
L 68.232916 301.96844 
L 73.356883 285.298729 
L 78.48085 269.07442 
L 83.604817 253.413118 
L 88.728784 238.366182 
L 93.852751 223.959352 
L 98.976717 210.20548 
L 104.100684 197.109944 
L 109.224651 184.67335 
L 114.348618 172.893067 
L 119.472585 161.764147 
L 124.596552 151.279929 
L 129.720519 141.432444 
L 134.844486 132.212704 
L 139.968453 123.610906 
L 145.09242 115.616596 
L 150.216387 108.218779 
L 155.340354 101.406017 
L 160.464321 95.166504 
L 165.588288 89.488121 
L 170.712255 84.358488 
L 175.836222 79.765003 
L 180.960189 75.694877 
L 186.084155 72.135159 
L 191.208122 69.072764 
L 196.332089 66.494492 
L 201.456056 64.387048 
L 206.580023 62.737054 
L 211.70399 61.531068 
L 216.827957 60.755592 
L 221.951924 60.397088 
L 227.075891 60.441981 
L 232.199858 60.876678 
L 237.323825 61.687566 
L 242.447792 62.861026 
L 247.571759 64.383439 
L 252.695726 66.241191 
L 257.819693 68.42068 
L 262.94366 70.908323 
L 268.067627 73.690559 
L 273.191593 76.753855 
L 278.31556 80.084712 
L 283.439527 83.669668 
L 288.563494 87.495304 
L 293.687461 91.548248 
L 298.811428 95.815179 
L 303.935395 100.28283 
L 309.059362 104.937994 
L 314.183329 109.76753 
L 319.307296 114.758359 
L 324.431263 119.897479 
L 329.55523 125.17196 
L 334.679197 130.568953 
L 339.803164 136.075691 
L 344.927131 141.679497 
L 350.051098 147.367784 
L 355.175065 153.128063 
L 360.299032 158.947944 
L 365.422998 164.815142 
L 370.546965 170.717482 
L 375.670932 176.642906 
L 380.794899 182.579472 
L 385.918866 188.515365 
L 391.042833 194.438898 
L 396.1668 200.338524 
L 401.290767 206.202835 
L 406.414734 212.020571 
L 411.538701 217.780628 
L 416.662668 223.472065 
L 421.786635 229.084111 
L 426.910602 234.606172 
L 432.034569 240.02784 
L 437.158536 245.338906 
L 442.282503 250.529366 
L 447.40647 255.589433 
L 452.530436 260.509554 
L 457.654403 265.280413 
L 462.77837 269.892958 
L 467.902337 274.338409 
L 473.026304 278.608277 
L 478.150271 282.69439 
L 483.274238 286.58891 
L 488.398205 290.284361 
L 493.522172 293.773661 
L 498.646139 297.050156 
L 503.770106 300.10766 
L 508.894073 302.940504 
L 514.01804 305.543594 
L 519.142007 307.912483 
L 524.265974 310.043458 
L 529.389941 311.933651 
L 534.513908 313.581186 
L 539.637874 314.985372 
L 544.761841 316.146981 
L 549.885808 317.068648 
L 555.009775 317.755523 
L 560.133742 318.216413 
L 565.257709 318.466257 
L 570.381676 318.534545 
" style="fill:none;stroke:#7f7f7f;stroke-linecap:round;stroke-width:1.5;"/>
   </g>
   <g id="line2d_41">
    <path clip-path="url(#pe5c05ba2ae)" d="M 63.108949 318.534545 
L 68.232916 318.321602 
L 73.356883 317.562109 
L 78.48085 316.193184 
L 83.604817 314.197467 
L 88.728784 311.576658 
L 93.852751 308.343574 
L 98.976717 304.518362 
L 104.100684 300.126315 
L 109.224651 295.196473 
L 114.348618 289.760657 
L 119.472585 283.852758 
L 124.596552 277.508199 
L 129.720519 270.763515 
L 134.844486 263.656009 
L 139.968453 256.223479 
L 145.09242 248.503977 
L 150.216387 240.535617 
L 155.340354 232.356403 
L 160.464321 224.004081 
L 165.588288 215.51601 
L 170.712255 206.92905 
L 175.836222 198.279459 
L 180.960189 189.602803 
L 186.084155 180.933878 
L 191.208122 172.306633 
L 196.332089 163.754106 
L 201.456056 155.308365 
L 206.580023 147.000454 
L 211.70399 138.860339 
L 216.827957 130.916871 
L 221.951924 123.197736 
L 227.075891 115.729422 
L 232.199858 108.537185 
L 237.323825 101.645014 
L 242.447792 95.075607 
L 247.571759 88.850339 
L 252.695726 82.989243 
L 257.819693 77.510984 
L 262.94366 72.432845 
L 268.067627 67.770701 
L 273.191593 63.539012 
L 278.31556 59.750804 
L 283.439527 56.417655 
L 288.563494 53.549689 
L 293.687461 51.155564 
L 298.811428 49.242464 
L 303.935395 47.816093 
L 309.059362 46.880672 
L 314.183329 46.438933 
L 319.307296 46.492121 
L 324.431263 47.039987 
L 329.55523 48.080797 
L 334.679197 49.611326 
L 339.803164 51.62687 
L 344.927131 54.121243 
L 350.051098 57.08679 
L 355.175065 60.514392 
L 360.299032 64.393474 
L 365.422998 68.71202 
L 370.546965 73.456582 
L 375.670932 78.612298 
L 380.794899 84.162903 
L 385.918866 90.090752 
L 391.042833 96.376834 
L 396.1668 103.0008 
L 401.290767 109.940981 
L 406.414734 117.174418 
L 411.538701 124.676887 
L 416.662668 132.422933 
L 421.786635 140.385902 
L 426.910602 148.537978 
L 432.034569 156.850223 
L 437.158536 165.29262 
L 442.282503 173.834121 
L 447.40647 182.442701 
L 452.530436 191.08541 
L 457.654403 199.728441 
L 462.77837 208.337195 
L 467.902337 216.876356 
L 473.026304 225.309979 
L 478.150271 233.60158 
L 483.274238 241.714241 
L 488.398205 249.610727 
L 493.522172 257.253621 
L 498.646139 264.605471 
L 503.770106 271.62897 
L 508.894073 278.287154 
L 514.01804 284.543645 
L 519.142007 290.362931 
L 524.265974 295.71072 
L 529.389941 300.554363 
L 534.513908 304.863406 
L 539.637874 308.610305 
L 544.761841 311.771412 
L 549.885808 314.328387 
L 555.009775 316.270403 
L 560.133742 317.597956 
L 565.257709 318.330844 
L 570.381676 318.534545 
" style="fill:none;stroke:#bcbd22;stroke-linecap:round;stroke-width:1.5;"/>
   </g>
   <g id="line2d_42">
    <path clip-path="url(#pe5c05ba2ae)" d="M 63.108949 318.534545 
L 68.232916 318.516339 
L 73.356883 318.403047 
L 78.48085 318.120786 
L 83.604817 317.60823 
L 88.728784 316.813774 
L 93.852751 315.694143 
L 98.976717 314.213479 
L 104.100684 312.34265 
L 109.224651 310.058691 
L 114.348618 307.344329 
L 119.472585 304.187564 
L 124.596552 300.581294 
L 129.720519 296.522966 
L 134.844486 292.014261 
L 139.968453 287.060787 
L 145.09242 281.671799 
L 150.216387 275.859929 
L 155.340354 269.640926 
L 160.464321 263.033413 
L 165.588288 256.058645 
L 170.712255 248.740282 
L 175.836222 241.104168 
L 180.960189 233.178117 
L 186.084155 224.991704 
L 191.208122 216.576064 
L 196.332089 207.963697 
L 201.456056 199.188279 
L 206.580023 190.284472 
L 211.70399 181.28775 
L 216.827957 172.234221 
L 221.951924 163.160455 
L 227.075891 154.10332 
L 232.199858 145.099819 
L 237.323825 136.186935 
L 242.447792 127.401475 
L 247.571759 118.779922 
L 252.695726 110.358289 
L 257.819693 102.171981 
L 262.94366 94.255654 
L 268.067627 86.643086 
L 273.191593 79.367046 
L 278.31556 72.459168 
L 283.439527 65.949834 
L 288.563494 59.868053 
L 293.687461 54.241351 
L 298.811428 49.095659 
L 303.935395 44.455214 
L 309.059362 40.342452 
L 314.183329 36.777918 
L 319.307296 33.780168 
L 324.431263 31.365686 
L 329.55523 29.548802 
L 334.679197 28.341607 
L 339.803164 27.753886 
L 344.927131 27.793048 
L 350.051098 28.464058 
L 355.175065 29.769382 
L 360.299032 31.708931 
L 365.422998 34.280017 
L 370.546965 37.477304 
L 375.670932 41.292777 
L 380.794899 45.715708 
L 385.918866 50.732634 
L 391.042833 56.327337 
L 396.1668 62.480836 
L 401.290767 69.171384 
L 406.414734 76.374467 
L 411.538701 84.062827 
L 416.662668 92.206472 
L 421.786635 100.772716 
L 426.910602 109.726215 
L 432.034569 119.029021 
L 437.158536 128.64064 
L 442.282503 138.518116 
L 447.40647 148.616112 
L 452.530436 158.887019 
L 457.654403 169.281073 
L 462.77837 179.746495 
L 467.902337 190.22965 
L 473.026304 200.675226 
L 478.150271 211.026445 
L 483.274238 221.225291 
L 488.398205 231.212787 
L 493.522172 240.929302 
L 498.646139 250.314899 
L 503.770106 259.309752 
L 508.894073 267.854619 
L 514.01804 275.891398 
L 519.142007 283.363787 
L 524.265974 290.21808 
L 529.389941 296.404127 
L 534.513908 301.876547 
L 539.637874 306.596264 
L 544.761841 310.532556 
L 549.885808 313.665905 
L 555.009775 315.992234 
L 560.133742 317.529912 
L 565.257709 318.333478 
L 570.381676 318.534545 
" style="fill:none;stroke:#17becf;stroke-linecap:round;stroke-width:1.5;"/>
   </g>
   <g id="patch_3">
    <path d="M 37.745313 333.36 
L 37.745313 7.2 
" style="fill:none;stroke:#cccccc;stroke-linecap:square;stroke-linejoin:miter;"/>
   </g>
   <g id="patch_4">
    <path d="M 595.745312 333.36 
L 595.745312 7.2 
" style="fill:none;stroke:#cccccc;stroke-linecap:square;stroke-linejoin:miter;"/>
   </g>
   <g id="patch_5">
    <path d="M 37.745313 333.36 
L 595.745312 333.36 
" style="fill:none;stroke:#cccccc;stroke-linecap:square;stroke-linejoin:miter;"/>
   </g>
   <g id="patch_6">
    <path d="M 37.745313 7.2 
L 595.745312 7.2 
" style="fill:none;stroke:#cccccc;stroke-linecap:square;stroke-linejoin:miter;"/>
   </g>
  </g>
 </g>
 <defs>
  <clipPath id="pe5c05ba2ae">
   <rect height="326.16" width="558" x="37.745313" y="7.2"/>
  </clipPath>
 </defs>
</svg>
