<?xml version="1.0" encoding="utf-8" standalone="no"?>
<!DOCTYPE svg PUBLIC "-//W3C//DTD SVG 1.1//EN"
  "http://www.w3.org/Graphics/SVG/1.1/DTD/svg11.dtd">
<!-- Created with matplotlib (https://matplotlib.org/) -->
<svg height="353.205312pt" version="1.1" viewBox="0 0 603.2 353.205312" width="603.2pt" xmlns="http://www.w3.org/2000/svg" xmlns:xlink="http://www.w3.org/1999/xlink">
 <metadata>
  <rdf:RDF xmlns:cc="http://creativecommons.org/ns#" xmlns:dc="http://purl.org/dc/elements/1.1/" xmlns:rdf="http://www.w3.org/1999/02/22-rdf-syntax-ns#">
   <cc:Work>
    <dc:type rdf:resource="http://purl.org/dc/dcmitype/StillImage"/>
    <dc:date>2021-06-07T23:10:34.105486</dc:date>
    <dc:format>image/svg+xml</dc:format>
    <dc:creator>
     <cc:Agent>
      <dc:title>Matplotlib v3.3.1, https://matplotlib.org/</dc:title>
     </cc:Agent>
    </dc:creator>
   </cc:Work>
  </rdf:RDF>
 </metadata>
 <defs>
  <style type="text/css">*{stroke-linecap:butt;stroke-linejoin:round;}</style>
 </defs>
 <g id="figure_1">
  <g id="patch_1">
   <path d="M 0 353.205312 
L 603.2 353.205312 
L 603.2 0 
L 0 0 
z
" style="fill:#ffffff;"/>
  </g>
  <g id="axes_1">
   <g id="patch_2">
    <path d="M 38 103.129412 
L 596 103.129412 
L 596 7.2 
L 38 7.2 
z
" style="fill:#ffffff;"/>
   </g>
   <g id="matplotlib.axis_1">
    <g id="xtick_1">
     <g id="line2d_1">
      <path clip-path="url(#p06ab754f7b)" d="M 63.363636 103.129412 
L 63.363636 7.2 
" style="fill:none;stroke:#cccccc;stroke-linecap:round;stroke-width:0.8;"/>
     </g>
     <g id="line2d_2"/>
     <g id="text_1">
      <!-- −3 -->
      <g style="fill:#262626;" transform="translate(57.662855 113.787224)scale(0.1 -0.1)">
       <defs>
        <path d="M 52.828125 31.203125 
L 5.5625 31.203125 
L 5.5625 39.40625 
L 52.828125 39.40625 
z
" id="ArialMT-8722"/>
        <path d="M 4.203125 18.890625 
L 12.984375 20.0625 
Q 14.5 12.59375 18.140625 9.296875 
Q 21.78125 6 27 6 
Q 33.203125 6 37.46875 10.296875 
Q 41.75 14.59375 41.75 20.953125 
Q 41.75 27 37.796875 30.921875 
Q 33.84375 34.859375 27.734375 34.859375 
Q 25.25 34.859375 21.53125 33.890625 
L 22.515625 41.609375 
Q 23.390625 41.5 23.921875 41.5 
Q 29.546875 41.5 34.03125 44.421875 
Q 38.53125 47.359375 38.53125 53.46875 
Q 38.53125 58.296875 35.25 61.46875 
Q 31.984375 64.65625 26.8125 64.65625 
Q 21.6875 64.65625 18.265625 61.421875 
Q 14.84375 58.203125 13.875 51.765625 
L 5.078125 53.328125 
Q 6.6875 62.15625 12.390625 67.015625 
Q 18.109375 71.875 26.609375 71.875 
Q 32.46875 71.875 37.390625 69.359375 
Q 42.328125 66.84375 44.9375 62.5 
Q 47.5625 58.15625 47.5625 53.265625 
Q 47.5625 48.640625 45.0625 44.828125 
Q 42.578125 41.015625 37.703125 38.765625 
Q 44.046875 37.3125 47.5625 32.6875 
Q 51.078125 28.078125 51.078125 21.140625 
Q 51.078125 11.765625 44.234375 5.25 
Q 37.40625 -1.265625 26.953125 -1.265625 
Q 17.53125 -1.265625 11.296875 4.34375 
Q 5.078125 9.96875 4.203125 18.890625 
z
" id="ArialMT-51"/>
       </defs>
       <use xlink:href="#ArialMT-8722"/>
       <use x="58.398438" xlink:href="#ArialMT-51"/>
      </g>
     </g>
    </g>
    <g id="xtick_2">
     <g id="line2d_3">
      <path clip-path="url(#p06ab754f7b)" d="M 147.909091 103.129412 
L 147.909091 7.2 
" style="fill:none;stroke:#cccccc;stroke-linecap:round;stroke-width:0.8;"/>
     </g>
     <g id="line2d_4"/>
     <g id="text_2">
      <!-- −2 -->
      <g style="fill:#262626;" transform="translate(142.20831 113.787224)scale(0.1 -0.1)">
       <defs>
        <path d="M 50.34375 8.453125 
L 50.34375 0 
L 3.03125 0 
Q 2.9375 3.171875 4.046875 6.109375 
Q 5.859375 10.9375 9.828125 15.625 
Q 13.8125 20.3125 21.34375 26.46875 
Q 33.015625 36.03125 37.109375 41.625 
Q 41.21875 47.21875 41.21875 52.203125 
Q 41.21875 57.421875 37.46875 61 
Q 33.734375 64.59375 27.734375 64.59375 
Q 21.390625 64.59375 17.578125 60.78125 
Q 13.765625 56.984375 13.71875 50.25 
L 4.6875 51.171875 
Q 5.609375 61.28125 11.65625 66.578125 
Q 17.71875 71.875 27.9375 71.875 
Q 38.234375 71.875 44.234375 66.15625 
Q 50.25 60.453125 50.25 52 
Q 50.25 47.703125 48.484375 43.546875 
Q 46.734375 39.40625 42.65625 34.8125 
Q 38.578125 30.21875 29.109375 22.21875 
Q 21.1875 15.578125 18.9375 13.203125 
Q 16.703125 10.84375 15.234375 8.453125 
z
" id="ArialMT-50"/>
       </defs>
       <use xlink:href="#ArialMT-8722"/>
       <use x="58.398438" xlink:href="#ArialMT-50"/>
      </g>
     </g>
    </g>
    <g id="xtick_3">
     <g id="line2d_5">
      <path clip-path="url(#p06ab754f7b)" d="M 232.454545 103.129412 
L 232.454545 7.2 
" style="fill:none;stroke:#cccccc;stroke-linecap:round;stroke-width:0.8;"/>
     </g>
     <g id="line2d_6"/>
     <g id="text_3">
      <!-- −1 -->
      <g style="fill:#262626;" transform="translate(226.753764 113.787224)scale(0.1 -0.1)">
       <defs>
        <path d="M 37.25 0 
L 28.46875 0 
L 28.46875 56 
Q 25.296875 52.984375 20.140625 49.953125 
Q 14.984375 46.921875 10.890625 45.40625 
L 10.890625 53.90625 
Q 18.265625 57.375 23.78125 62.296875 
Q 29.296875 67.234375 31.59375 71.875 
L 37.25 71.875 
z
" id="ArialMT-49"/>
       </defs>
       <use xlink:href="#ArialMT-8722"/>
       <use x="58.398438" xlink:href="#ArialMT-49"/>
      </g>
     </g>
    </g>
    <g id="xtick_4">
     <g id="line2d_7">
      <path clip-path="url(#p06ab754f7b)" d="M 317 103.129412 
L 317 7.2 
" style="fill:none;stroke:#cccccc;stroke-linecap:round;stroke-width:0.8;"/>
     </g>
     <g id="line2d_8"/>
     <g id="text_4">
      <!-- 0 -->
      <g style="fill:#262626;" transform="translate(314.219531 113.787224)scale(0.1 -0.1)">
       <defs>
        <path d="M 4.15625 35.296875 
Q 4.15625 48 6.765625 55.734375 
Q 9.375 63.484375 14.515625 67.671875 
Q 19.671875 71.875 27.484375 71.875 
Q 33.25 71.875 37.59375 69.546875 
Q 41.9375 67.234375 44.765625 62.859375 
Q 47.609375 58.5 49.21875 52.21875 
Q 50.828125 45.953125 50.828125 35.296875 
Q 50.828125 22.703125 48.234375 14.96875 
Q 45.65625 7.234375 40.5 3 
Q 35.359375 -1.21875 27.484375 -1.21875 
Q 17.140625 -1.21875 11.234375 6.203125 
Q 4.15625 15.140625 4.15625 35.296875 
z
M 13.1875 35.296875 
Q 13.1875 17.671875 17.3125 11.828125 
Q 21.4375 6 27.484375 6 
Q 33.546875 6 37.671875 11.859375 
Q 41.796875 17.71875 41.796875 35.296875 
Q 41.796875 52.984375 37.671875 58.78125 
Q 33.546875 64.59375 27.390625 64.59375 
Q 21.34375 64.59375 17.71875 59.46875 
Q 13.1875 52.9375 13.1875 35.296875 
z
" id="ArialMT-48"/>
       </defs>
       <use xlink:href="#ArialMT-48"/>
      </g>
     </g>
    </g>
    <g id="xtick_5">
     <g id="line2d_9">
      <path clip-path="url(#p06ab754f7b)" d="M 401.545455 103.129412 
L 401.545455 7.2 
" style="fill:none;stroke:#cccccc;stroke-linecap:round;stroke-width:0.8;"/>
     </g>
     <g id="line2d_10"/>
     <g id="text_5">
      <!-- 1 -->
      <g style="fill:#262626;" transform="translate(398.764986 113.787224)scale(0.1 -0.1)">
       <use xlink:href="#ArialMT-49"/>
      </g>
     </g>
    </g>
    <g id="xtick_6">
     <g id="line2d_11">
      <path clip-path="url(#p06ab754f7b)" d="M 486.090909 103.129412 
L 486.090909 7.2 
" style="fill:none;stroke:#cccccc;stroke-linecap:round;stroke-width:0.8;"/>
     </g>
     <g id="line2d_12"/>
     <g id="text_6">
      <!-- 2 -->
      <g style="fill:#262626;" transform="translate(483.31044 113.787224)scale(0.1 -0.1)">
       <use xlink:href="#ArialMT-50"/>
      </g>
     </g>
    </g>
    <g id="xtick_7">
     <g id="line2d_13">
      <path clip-path="url(#p06ab754f7b)" d="M 570.636364 103.129412 
L 570.636364 7.2 
" style="fill:none;stroke:#cccccc;stroke-linecap:round;stroke-width:0.8;"/>
     </g>
     <g id="line2d_14"/>
     <g id="text_7">
      <!-- 3 -->
      <g style="fill:#262626;" transform="translate(567.855895 113.787224)scale(0.1 -0.1)">
       <use xlink:href="#ArialMT-51"/>
      </g>
     </g>
    </g>
   </g>
   <g id="matplotlib.axis_2">
    <g id="ytick_1">
     <g id="line2d_15">
      <path clip-path="url(#p06ab754f7b)" d="M 38 98.768984 
L 596 98.768984 
" style="fill:none;stroke:#cccccc;stroke-linecap:round;stroke-width:0.8;"/>
     </g>
     <g id="line2d_16"/>
     <g id="text_8">
      <!-- 0.0 -->
      <g style="fill:#262626;" transform="translate(20.6 102.34789)scale(0.1 -0.1)">
       <defs>
        <path d="M 9.078125 0 
L 9.078125 10.015625 
L 19.09375 10.015625 
L 19.09375 0 
z
" id="ArialMT-46"/>
       </defs>
       <use xlink:href="#ArialMT-48"/>
       <use x="55.615234" xlink:href="#ArialMT-46"/>
       <use x="83.398438" xlink:href="#ArialMT-48"/>
      </g>
     </g>
    </g>
    <g id="ytick_2">
     <g id="line2d_17">
      <path clip-path="url(#p06ab754f7b)" d="M 38 55.164706 
L 596 55.164706 
" style="fill:none;stroke:#cccccc;stroke-linecap:round;stroke-width:0.8;"/>
     </g>
     <g id="line2d_18"/>
     <g id="text_9">
      <!-- 0.5 -->
      <g style="fill:#262626;" transform="translate(20.6 58.743612)scale(0.1 -0.1)">
       <defs>
        <path d="M 4.15625 18.75 
L 13.375 19.53125 
Q 14.40625 12.796875 18.140625 9.390625 
Q 21.875 6 27.15625 6 
Q 33.5 6 37.890625 10.78125 
Q 42.28125 15.578125 42.28125 23.484375 
Q 42.28125 31 38.0625 35.34375 
Q 33.84375 39.703125 27 39.703125 
Q 22.75 39.703125 19.328125 37.765625 
Q 15.921875 35.84375 13.96875 32.765625 
L 5.71875 33.84375 
L 12.640625 70.609375 
L 48.25 70.609375 
L 48.25 62.203125 
L 19.671875 62.203125 
L 15.828125 42.96875 
Q 22.265625 47.46875 29.34375 47.46875 
Q 38.71875 47.46875 45.15625 40.96875 
Q 51.609375 34.46875 51.609375 24.265625 
Q 51.609375 14.546875 45.953125 7.46875 
Q 39.0625 -1.21875 27.15625 -1.21875 
Q 17.390625 -1.21875 11.203125 4.25 
Q 5.03125 9.71875 4.15625 18.75 
z
" id="ArialMT-53"/>
       </defs>
       <use xlink:href="#ArialMT-48"/>
       <use x="55.615234" xlink:href="#ArialMT-46"/>
       <use x="83.398438" xlink:href="#ArialMT-53"/>
      </g>
     </g>
    </g>
    <g id="ytick_3">
     <g id="line2d_19">
      <path clip-path="url(#p06ab754f7b)" d="M 38 11.560428 
L 596 11.560428 
" style="fill:none;stroke:#cccccc;stroke-linecap:round;stroke-width:0.8;"/>
     </g>
     <g id="line2d_20"/>
     <g id="text_10">
      <!-- 1.0 -->
      <g style="fill:#262626;" transform="translate(20.6 15.139334)scale(0.1 -0.1)">
       <use xlink:href="#ArialMT-49"/>
       <use x="55.615234" xlink:href="#ArialMT-46"/>
       <use x="83.398438" xlink:href="#ArialMT-48"/>
      </g>
     </g>
    </g>
    <g id="text_11">
     <!-- $~P(z_0)$ -->
     <g style="fill:#262626;" transform="translate(14.6125 68.714706)rotate(-90)scale(0.1 -0.1)">
      <defs>
       <path d="M 16.890625 72.90625 
L 39.703125 72.90625 
Q 49.65625 72.90625 54.875 68.265625 
Q 60.109375 63.625 60.109375 54.6875 
Q 60.109375 42.671875 52.390625 35.984375 
Q 44.671875 29.296875 30.71875 29.296875 
L 18.3125 29.296875 
L 12.59375 0 
L 2.6875 0 
z
M 25.203125 64.796875 
L 19.921875 37.40625 
L 32.328125 37.40625 
Q 40.71875 37.40625 45.203125 41.703125 
Q 49.703125 46 49.703125 54 
Q 49.703125 59.125 46.65625 61.953125 
Q 43.609375 64.796875 38.09375 64.796875 
z
" id="DejaVuSans-Oblique-80"/>
       <path d="M 31 75.875 
Q 24.46875 64.65625 21.28125 53.65625 
Q 18.109375 42.671875 18.109375 31.390625 
Q 18.109375 20.125 21.3125 9.0625 
Q 24.515625 -2 31 -13.1875 
L 23.1875 -13.1875 
Q 15.875 -1.703125 12.234375 9.375 
Q 8.59375 20.453125 8.59375 31.390625 
Q 8.59375 42.28125 12.203125 53.3125 
Q 15.828125 64.359375 23.1875 75.875 
z
" id="DejaVuSans-40"/>
       <path d="M 11.625 54.6875 
L 54.296875 54.6875 
L 52.6875 46.484375 
L 11.53125 7.171875 
L 45.515625 7.171875 
L 44.09375 0 
L -0.296875 0 
L 1.3125 8.203125 
L 42.484375 47.515625 
L 10.203125 47.515625 
z
" id="DejaVuSans-Oblique-122"/>
       <path d="M 31.78125 66.40625 
Q 24.171875 66.40625 20.328125 58.90625 
Q 16.5 51.421875 16.5 36.375 
Q 16.5 21.390625 20.328125 13.890625 
Q 24.171875 6.390625 31.78125 6.390625 
Q 39.453125 6.390625 43.28125 13.890625 
Q 47.125 21.390625 47.125 36.375 
Q 47.125 51.421875 43.28125 58.90625 
Q 39.453125 66.40625 31.78125 66.40625 
z
M 31.78125 74.21875 
Q 44.046875 74.21875 50.515625 64.515625 
Q 56.984375 54.828125 56.984375 36.375 
Q 56.984375 17.96875 50.515625 8.265625 
Q 44.046875 -1.421875 31.78125 -1.421875 
Q 19.53125 -1.421875 13.0625 8.265625 
Q 6.59375 17.96875 6.59375 36.375 
Q 6.59375 54.828125 13.0625 64.515625 
Q 19.53125 74.21875 31.78125 74.21875 
z
" id="DejaVuSans-48"/>
       <path d="M 8.015625 75.875 
L 15.828125 75.875 
Q 23.140625 64.359375 26.78125 53.3125 
Q 30.421875 42.28125 30.421875 31.390625 
Q 30.421875 20.453125 26.78125 9.375 
Q 23.140625 -1.703125 15.828125 -13.1875 
L 8.015625 -13.1875 
Q 14.5 -2 17.703125 9.0625 
Q 20.90625 20.125 20.90625 31.390625 
Q 20.90625 42.671875 17.703125 53.65625 
Q 14.5 64.65625 8.015625 75.875 
z
" id="DejaVuSans-41"/>
      </defs>
      <use transform="translate(32.470378 0.125)" xlink:href="#DejaVuSans-Oblique-80"/>
      <use transform="translate(92.773113 0.125)" xlink:href="#DejaVuSans-40"/>
      <use transform="translate(131.786785 0.125)" xlink:href="#DejaVuSans-Oblique-122"/>
      <use transform="translate(184.277019 -16.28125)scale(0.7)" xlink:href="#DejaVuSans-48"/>
      <use transform="translate(231.547527 0.125)" xlink:href="#DejaVuSans-41"/>
     </g>
    </g>
   </g>
   <g id="line2d_21">
    <path clip-path="url(#p06ab754f7b)" d="M 63.363636 98.758221 
L 103.986077 98.616343 
L 121.758395 98.347763 
L 134.452907 97.945043 
L 144.608518 97.404698 
L 153.240786 96.721551 
L 160.857494 95.889911 
L 167.45864 94.950824 
L 173.552007 93.867531 
L 179.137592 92.662475 
L 184.723178 91.227272 
L 189.800983 89.700749 
L 194.878788 87.943622 
L 199.956593 85.938918 
L 205.034398 83.672278 
L 209.604423 81.399326 
L 214.174447 78.900603 
L 219.252252 75.858047 
L 224.330057 72.539482 
L 229.407862 68.956096 
L 234.993448 64.73125 
L 241.086814 59.826304 
L 248.195741 53.797952 
L 259.366912 43.972746 
L 269.522523 35.146936 
L 275.615889 30.140237 
L 280.693694 26.246123 
L 285.263718 23.021533 
L 289.325962 20.420369 
L 293.388206 18.103196 
L 296.94267 16.332347 
L 300.497133 14.819914 
L 303.543817 13.741051 
L 306.5905 12.871704 
L 309.637183 12.218549 
L 312.683866 11.786631 
L 315.730549 11.579301 
L 318.777232 11.598169 
L 321.823915 11.84309 
L 324.870598 12.31216 
L 327.917281 13.001742 
L 330.963964 13.906515 
L 334.010647 15.019539 
L 337.565111 16.569897 
L 341.119574 18.376252 
L 344.674038 20.420369 
L 348.736282 23.021533 
L 353.306306 26.246123 
L 358.384111 30.140237 
L 363.969697 34.718634 
L 371.586405 41.288058 
L 391.389844 58.558697 
L 397.990991 63.933796 
L 403.576577 68.209158 
L 409.162162 72.192811 
L 414.239967 75.538483 
L 419.317772 78.608938 
L 424.395577 81.399326 
L 429.473382 83.91107 
L 434.551188 86.150963 
L 439.628993 88.130213 
L 444.706798 89.86348 
L 449.784603 91.367951 
L 455.370188 92.781137 
L 460.955774 93.966588 
L 467.04914 95.031226 
L 473.650287 95.95318 
L 480.759214 96.721551 
L 488.883702 97.37092 
L 498.023751 97.878664 
L 509.194922 98.27213 
L 523.920557 98.550641 
L 545.247338 98.709382 
L 570.636364 98.758221 
L 570.636364 98.758221 
" style="fill:none;stroke:#1f77b4;stroke-linecap:round;stroke-width:1.5;"/>
   </g>
   <g id="line2d_22">
    <path clip-path="url(#p06ab754f7b)" d="M 63.363636 98.768984 
L 292.372645 98.728907 
L 292.880426 98.41447 
L 293.388206 96.582582 
L 293.895987 89.367793 
L 294.403767 70.585662 
L 295.419328 12.930843 
L 295.927109 11.560428 
L 296.434889 36.996598 
L 296.94267 68.262922 
L 297.45045 88.265475 
L 297.958231 96.247599 
L 298.466011 98.346996 
L 298.973792 98.719744 
L 300.497133 98.768975 
L 570.636364 98.768984 
L 570.636364 98.768984 
" style="fill:none;stroke:#ff7f0e;stroke-linecap:round;stroke-width:1.5;"/>
   </g>
   <g id="patch_3">
    <path d="M 38 103.129412 
L 38 7.2 
" style="fill:none;stroke:#cccccc;stroke-linecap:square;stroke-linejoin:miter;"/>
   </g>
   <g id="patch_4">
    <path d="M 596 103.129412 
L 596 7.2 
" style="fill:none;stroke:#cccccc;stroke-linecap:square;stroke-linejoin:miter;"/>
   </g>
   <g id="patch_5">
    <path d="M 38 103.129412 
L 596 103.129412 
" style="fill:none;stroke:#cccccc;stroke-linecap:square;stroke-linejoin:miter;"/>
   </g>
   <g id="patch_6">
    <path d="M 38 7.2 
L 596 7.2 
" style="fill:none;stroke:#cccccc;stroke-linecap:square;stroke-linejoin:miter;"/>
   </g>
  </g>
  <g id="axes_2">
   <g id="patch_7">
    <path d="M 38 218.244706 
L 596 218.244706 
L 596 122.315294 
L 38 122.315294 
z
" style="fill:#ffffff;"/>
   </g>
   <g id="matplotlib.axis_3">
    <g id="xtick_8">
     <g id="line2d_23">
      <path clip-path="url(#p547b14dbd4)" d="M 63.363636 218.244706 
L 63.363636 122.315294 
" style="fill:none;stroke:#cccccc;stroke-linecap:round;stroke-width:0.8;"/>
     </g>
     <g id="line2d_24"/>
     <g id="text_12">
      <!-- −3 -->
      <g style="fill:#262626;" transform="translate(57.662855 228.902518)scale(0.1 -0.1)">
       <use xlink:href="#ArialMT-8722"/>
       <use x="58.398438" xlink:href="#ArialMT-51"/>
      </g>
     </g>
    </g>
    <g id="xtick_9">
     <g id="line2d_25">
      <path clip-path="url(#p547b14dbd4)" d="M 147.909091 218.244706 
L 147.909091 122.315294 
" style="fill:none;stroke:#cccccc;stroke-linecap:round;stroke-width:0.8;"/>
     </g>
     <g id="line2d_26"/>
     <g id="text_13">
      <!-- −2 -->
      <g style="fill:#262626;" transform="translate(142.20831 228.902518)scale(0.1 -0.1)">
       <use xlink:href="#ArialMT-8722"/>
       <use x="58.398438" xlink:href="#ArialMT-50"/>
      </g>
     </g>
    </g>
    <g id="xtick_10">
     <g id="line2d_27">
      <path clip-path="url(#p547b14dbd4)" d="M 232.454545 218.244706 
L 232.454545 122.315294 
" style="fill:none;stroke:#cccccc;stroke-linecap:round;stroke-width:0.8;"/>
     </g>
     <g id="line2d_28"/>
     <g id="text_14">
      <!-- −1 -->
      <g style="fill:#262626;" transform="translate(226.753764 228.902518)scale(0.1 -0.1)">
       <use xlink:href="#ArialMT-8722"/>
       <use x="58.398438" xlink:href="#ArialMT-49"/>
      </g>
     </g>
    </g>
    <g id="xtick_11">
     <g id="line2d_29">
      <path clip-path="url(#p547b14dbd4)" d="M 317 218.244706 
L 317 122.315294 
" style="fill:none;stroke:#cccccc;stroke-linecap:round;stroke-width:0.8;"/>
     </g>
     <g id="line2d_30"/>
     <g id="text_15">
      <!-- 0 -->
      <g style="fill:#262626;" transform="translate(314.219531 228.902518)scale(0.1 -0.1)">
       <use xlink:href="#ArialMT-48"/>
      </g>
     </g>
    </g>
    <g id="xtick_12">
     <g id="line2d_31">
      <path clip-path="url(#p547b14dbd4)" d="M 401.545455 218.244706 
L 401.545455 122.315294 
" style="fill:none;stroke:#cccccc;stroke-linecap:round;stroke-width:0.8;"/>
     </g>
     <g id="line2d_32"/>
     <g id="text_16">
      <!-- 1 -->
      <g style="fill:#262626;" transform="translate(398.764986 228.902518)scale(0.1 -0.1)">
       <use xlink:href="#ArialMT-49"/>
      </g>
     </g>
    </g>
    <g id="xtick_13">
     <g id="line2d_33">
      <path clip-path="url(#p547b14dbd4)" d="M 486.090909 218.244706 
L 486.090909 122.315294 
" style="fill:none;stroke:#cccccc;stroke-linecap:round;stroke-width:0.8;"/>
     </g>
     <g id="line2d_34"/>
     <g id="text_17">
      <!-- 2 -->
      <g style="fill:#262626;" transform="translate(483.31044 228.902518)scale(0.1 -0.1)">
       <use xlink:href="#ArialMT-50"/>
      </g>
     </g>
    </g>
    <g id="xtick_14">
     <g id="line2d_35">
      <path clip-path="url(#p547b14dbd4)" d="M 570.636364 218.244706 
L 570.636364 122.315294 
" style="fill:none;stroke:#cccccc;stroke-linecap:round;stroke-width:0.8;"/>
     </g>
     <g id="line2d_36"/>
     <g id="text_18">
      <!-- 3 -->
      <g style="fill:#262626;" transform="translate(567.855895 228.902518)scale(0.1 -0.1)">
       <use xlink:href="#ArialMT-51"/>
      </g>
     </g>
    </g>
   </g>
   <g id="matplotlib.axis_4">
    <g id="ytick_4">
     <g id="line2d_37">
      <path clip-path="url(#p547b14dbd4)" d="M 38 213.884278 
L 596 213.884278 
" style="fill:none;stroke:#cccccc;stroke-linecap:round;stroke-width:0.8;"/>
     </g>
     <g id="line2d_38"/>
     <g id="text_19">
      <!-- 0.0 -->
      <g style="fill:#262626;" transform="translate(20.6 217.463184)scale(0.1 -0.1)">
       <use xlink:href="#ArialMT-48"/>
       <use x="55.615234" xlink:href="#ArialMT-46"/>
       <use x="83.398438" xlink:href="#ArialMT-48"/>
      </g>
     </g>
    </g>
    <g id="ytick_5">
     <g id="line2d_39">
      <path clip-path="url(#p547b14dbd4)" d="M 38 170.28 
L 596 170.28 
" style="fill:none;stroke:#cccccc;stroke-linecap:round;stroke-width:0.8;"/>
     </g>
     <g id="line2d_40"/>
     <g id="text_20">
      <!-- 0.5 -->
      <g style="fill:#262626;" transform="translate(20.6 173.858906)scale(0.1 -0.1)">
       <use xlink:href="#ArialMT-48"/>
       <use x="55.615234" xlink:href="#ArialMT-46"/>
       <use x="83.398438" xlink:href="#ArialMT-53"/>
      </g>
     </g>
    </g>
    <g id="ytick_6">
     <g id="line2d_41">
      <path clip-path="url(#p547b14dbd4)" d="M 38 126.675722 
L 596 126.675722 
" style="fill:none;stroke:#cccccc;stroke-linecap:round;stroke-width:0.8;"/>
     </g>
     <g id="line2d_42"/>
     <g id="text_21">
      <!-- 1.0 -->
      <g style="fill:#262626;" transform="translate(20.6 130.254628)scale(0.1 -0.1)">
       <use xlink:href="#ArialMT-49"/>
       <use x="55.615234" xlink:href="#ArialMT-46"/>
       <use x="83.398438" xlink:href="#ArialMT-48"/>
      </g>
     </g>
    </g>
    <g id="text_22">
     <!-- $~P(z_1)$ -->
     <g style="fill:#262626;" transform="translate(14.6125 183.83)rotate(-90)scale(0.1 -0.1)">
      <defs>
       <path d="M 12.40625 8.296875 
L 28.515625 8.296875 
L 28.515625 63.921875 
L 10.984375 60.40625 
L 10.984375 69.390625 
L 28.421875 72.90625 
L 38.28125 72.90625 
L 38.28125 8.296875 
L 54.390625 8.296875 
L 54.390625 0 
L 12.40625 0 
z
" id="DejaVuSans-49"/>
      </defs>
      <use transform="translate(32.470378 0.125)" xlink:href="#DejaVuSans-Oblique-80"/>
      <use transform="translate(92.773113 0.125)" xlink:href="#DejaVuSans-40"/>
      <use transform="translate(131.786785 0.125)" xlink:href="#DejaVuSans-Oblique-122"/>
      <use transform="translate(184.277019 -16.28125)scale(0.7)" xlink:href="#DejaVuSans-49"/>
      <use transform="translate(231.547527 0.125)" xlink:href="#DejaVuSans-41"/>
     </g>
    </g>
   </g>
   <g id="line2d_43">
    <path clip-path="url(#p547b14dbd4)" d="M 63.363636 213.873516 
L 103.986077 213.731637 
L 121.758395 213.463057 
L 134.452907 213.060337 
L 144.608518 212.519992 
L 153.240786 211.836845 
L 160.857494 211.005206 
L 167.45864 210.066119 
L 173.552007 208.982825 
L 179.137592 207.777769 
L 184.723178 206.342566 
L 189.800983 204.816043 
L 194.878788 203.058916 
L 199.956593 201.054212 
L 205.034398 198.787572 
L 209.604423 196.51462 
L 214.174447 194.015897 
L 219.252252 190.973341 
L 224.330057 187.654776 
L 229.407862 184.07139 
L 234.993448 179.846544 
L 241.086814 174.941598 
L 248.195741 168.913246 
L 259.366912 159.08804 
L 269.522523 150.26223 
L 275.615889 145.255531 
L 280.693694 141.361418 
L 285.263718 138.136827 
L 289.325962 135.535664 
L 293.388206 133.21849 
L 296.94267 131.447641 
L 300.497133 129.935208 
L 303.543817 128.856345 
L 306.5905 127.986998 
L 309.637183 127.333843 
L 312.683866 126.901925 
L 315.730549 126.694595 
L 318.777232 126.713463 
L 321.823915 126.958385 
L 324.870598 127.427454 
L 327.917281 128.117037 
L 330.963964 129.021809 
L 334.010647 130.134833 
L 337.565111 131.685192 
L 341.119574 133.491546 
L 344.674038 135.535664 
L 348.736282 138.136827 
L 353.306306 141.361418 
L 358.384111 145.255531 
L 363.969697 149.833928 
L 371.586405 156.403352 
L 391.389844 173.673991 
L 397.990991 179.04909 
L 403.576577 183.324452 
L 409.162162 187.308105 
L 414.239967 190.653777 
L 419.317772 193.724232 
L 424.395577 196.51462 
L 429.473382 199.026364 
L 434.551188 201.266257 
L 439.628993 203.245507 
L 444.706798 204.978775 
L 449.784603 206.483245 
L 455.370188 207.896431 
L 460.955774 209.081882 
L 467.04914 210.14652 
L 473.650287 211.068474 
L 480.759214 211.836845 
L 488.883702 212.486214 
L 498.023751 212.993958 
L 509.194922 213.387424 
L 523.920557 213.665935 
L 545.247338 213.824676 
L 570.636364 213.873516 
L 570.636364 213.873516 
" style="fill:none;stroke:#1f77b4;stroke-linecap:round;stroke-width:1.5;"/>
   </g>
   <g id="line2d_44">
    <path clip-path="url(#p547b14dbd4)" d="M 63.363636 213.884278 
L 395.452088 213.851667 
L 395.959869 213.761787 
L 396.467649 213.476696 
L 396.97543 212.682876 
L 397.48321 210.747203 
L 397.990991 206.627813 
L 398.498771 199.015038 
L 399.006552 186.893469 
L 400.529894 135.869282 
L 401.037674 126.675722 
L 401.545455 127.52608 
L 402.053235 138.129241 
L 403.576577 189.171808 
L 404.084357 200.534379 
L 404.592138 207.495714 
L 405.099918 211.176008 
L 405.607699 212.867223 
L 406.115479 213.545933 
L 406.62326 213.784568 
L 407.638821 213.878258 
L 419.825553 213.884278 
L 570.636364 213.884278 
L 570.636364 213.884278 
" style="fill:none;stroke:#ff7f0e;stroke-linecap:round;stroke-width:1.5;"/>
   </g>
   <g id="patch_8">
    <path d="M 38 218.244706 
L 38 122.315294 
" style="fill:none;stroke:#cccccc;stroke-linecap:square;stroke-linejoin:miter;"/>
   </g>
   <g id="patch_9">
    <path d="M 596 218.244706 
L 596 122.315294 
" style="fill:none;stroke:#cccccc;stroke-linecap:square;stroke-linejoin:miter;"/>
   </g>
   <g id="patch_10">
    <path d="M 38 218.244706 
L 596 218.244706 
" style="fill:none;stroke:#cccccc;stroke-linecap:square;stroke-linejoin:miter;"/>
   </g>
   <g id="patch_11">
    <path d="M 38 122.315294 
L 596 122.315294 
" style="fill:none;stroke:#cccccc;stroke-linecap:square;stroke-linejoin:miter;"/>
   </g>
  </g>
  <g id="axes_3">
   <g id="patch_12">
    <path d="M 38 333.36 
L 596 333.36 
L 596 237.430588 
L 38 237.430588 
z
" style="fill:#ffffff;"/>
   </g>
   <g id="matplotlib.axis_5">
    <g id="xtick_15">
     <g id="line2d_45">
      <path clip-path="url(#p9264e2c1b3)" d="M 63.363636 333.36 
L 63.363636 237.430588 
" style="fill:none;stroke:#cccccc;stroke-linecap:round;stroke-width:0.8;"/>
     </g>
     <g id="line2d_46"/>
     <g id="text_23">
      <!-- −3 -->
      <g style="fill:#262626;" transform="translate(57.662855 344.017812)scale(0.1 -0.1)">
       <use xlink:href="#ArialMT-8722"/>
       <use x="58.398438" xlink:href="#ArialMT-51"/>
      </g>
     </g>
    </g>
    <g id="xtick_16">
     <g id="line2d_47">
      <path clip-path="url(#p9264e2c1b3)" d="M 147.909091 333.36 
L 147.909091 237.430588 
" style="fill:none;stroke:#cccccc;stroke-linecap:round;stroke-width:0.8;"/>
     </g>
     <g id="line2d_48"/>
     <g id="text_24">
      <!-- −2 -->
      <g style="fill:#262626;" transform="translate(142.20831 344.017812)scale(0.1 -0.1)">
       <use xlink:href="#ArialMT-8722"/>
       <use x="58.398438" xlink:href="#ArialMT-50"/>
      </g>
     </g>
    </g>
    <g id="xtick_17">
     <g id="line2d_49">
      <path clip-path="url(#p9264e2c1b3)" d="M 232.454545 333.36 
L 232.454545 237.430588 
" style="fill:none;stroke:#cccccc;stroke-linecap:round;stroke-width:0.8;"/>
     </g>
     <g id="line2d_50"/>
     <g id="text_25">
      <!-- −1 -->
      <g style="fill:#262626;" transform="translate(226.753764 344.017812)scale(0.1 -0.1)">
       <use xlink:href="#ArialMT-8722"/>
       <use x="58.398438" xlink:href="#ArialMT-49"/>
      </g>
     </g>
    </g>
    <g id="xtick_18">
     <g id="line2d_51">
      <path clip-path="url(#p9264e2c1b3)" d="M 317 333.36 
L 317 237.430588 
" style="fill:none;stroke:#cccccc;stroke-linecap:round;stroke-width:0.8;"/>
     </g>
     <g id="line2d_52"/>
     <g id="text_26">
      <!-- 0 -->
      <g style="fill:#262626;" transform="translate(314.219531 344.017812)scale(0.1 -0.1)">
       <use xlink:href="#ArialMT-48"/>
      </g>
     </g>
    </g>
    <g id="xtick_19">
     <g id="line2d_53">
      <path clip-path="url(#p9264e2c1b3)" d="M 401.545455 333.36 
L 401.545455 237.430588 
" style="fill:none;stroke:#cccccc;stroke-linecap:round;stroke-width:0.8;"/>
     </g>
     <g id="line2d_54"/>
     <g id="text_27">
      <!-- 1 -->
      <g style="fill:#262626;" transform="translate(398.764986 344.017812)scale(0.1 -0.1)">
       <use xlink:href="#ArialMT-49"/>
      </g>
     </g>
    </g>
    <g id="xtick_20">
     <g id="line2d_55">
      <path clip-path="url(#p9264e2c1b3)" d="M 486.090909 333.36 
L 486.090909 237.430588 
" style="fill:none;stroke:#cccccc;stroke-linecap:round;stroke-width:0.8;"/>
     </g>
     <g id="line2d_56"/>
     <g id="text_28">
      <!-- 2 -->
      <g style="fill:#262626;" transform="translate(483.31044 344.017812)scale(0.1 -0.1)">
       <use xlink:href="#ArialMT-50"/>
      </g>
     </g>
    </g>
    <g id="xtick_21">
     <g id="line2d_57">
      <path clip-path="url(#p9264e2c1b3)" d="M 570.636364 333.36 
L 570.636364 237.430588 
" style="fill:none;stroke:#cccccc;stroke-linecap:round;stroke-width:0.8;"/>
     </g>
     <g id="line2d_58"/>
     <g id="text_29">
      <!-- 3 -->
      <g style="fill:#262626;" transform="translate(567.855895 344.017812)scale(0.1 -0.1)">
       <use xlink:href="#ArialMT-51"/>
      </g>
     </g>
    </g>
   </g>
   <g id="matplotlib.axis_6">
    <g id="ytick_7">
     <g id="line2d_59">
      <path clip-path="url(#p9264e2c1b3)" d="M 38 328.999572 
L 596 328.999572 
" style="fill:none;stroke:#cccccc;stroke-linecap:round;stroke-width:0.8;"/>
     </g>
     <g id="line2d_60"/>
     <g id="text_30">
      <!-- 0.0 -->
      <g style="fill:#262626;" transform="translate(20.6 332.578478)scale(0.1 -0.1)">
       <use xlink:href="#ArialMT-48"/>
       <use x="55.615234" xlink:href="#ArialMT-46"/>
       <use x="83.398438" xlink:href="#ArialMT-48"/>
      </g>
     </g>
    </g>
    <g id="ytick_8">
     <g id="line2d_61">
      <path clip-path="url(#p9264e2c1b3)" d="M 38 285.395294 
L 596 285.395294 
" style="fill:none;stroke:#cccccc;stroke-linecap:round;stroke-width:0.8;"/>
     </g>
     <g id="line2d_62"/>
     <g id="text_31">
      <!-- 0.5 -->
      <g style="fill:#262626;" transform="translate(20.6 288.9742)scale(0.1 -0.1)">
       <use xlink:href="#ArialMT-48"/>
       <use x="55.615234" xlink:href="#ArialMT-46"/>
       <use x="83.398438" xlink:href="#ArialMT-53"/>
      </g>
     </g>
    </g>
    <g id="ytick_9">
     <g id="line2d_63">
      <path clip-path="url(#p9264e2c1b3)" d="M 38 241.791016 
L 596 241.791016 
" style="fill:none;stroke:#cccccc;stroke-linecap:round;stroke-width:0.8;"/>
     </g>
     <g id="line2d_64"/>
     <g id="text_32">
      <!-- 1.0 -->
      <g style="fill:#262626;" transform="translate(20.6 245.369922)scale(0.1 -0.1)">
       <use xlink:href="#ArialMT-49"/>
       <use x="55.615234" xlink:href="#ArialMT-46"/>
       <use x="83.398438" xlink:href="#ArialMT-48"/>
      </g>
     </g>
    </g>
    <g id="text_33">
     <!-- $~P(z_2)$ -->
     <g style="fill:#262626;" transform="translate(14.6125 298.945294)rotate(-90)scale(0.1 -0.1)">
      <defs>
       <path d="M 19.1875 8.296875 
L 53.609375 8.296875 
L 53.609375 0 
L 7.328125 0 
L 7.328125 8.296875 
Q 12.9375 14.109375 22.625 23.890625 
Q 32.328125 33.6875 34.8125 36.53125 
Q 39.546875 41.84375 41.421875 45.53125 
Q 43.3125 49.21875 43.3125 52.78125 
Q 43.3125 58.59375 39.234375 62.25 
Q 35.15625 65.921875 28.609375 65.921875 
Q 23.96875 65.921875 18.8125 64.3125 
Q 13.671875 62.703125 7.8125 59.421875 
L 7.8125 69.390625 
Q 13.765625 71.78125 18.9375 73 
Q 24.125 74.21875 28.421875 74.21875 
Q 39.75 74.21875 46.484375 68.546875 
Q 53.21875 62.890625 53.21875 53.421875 
Q 53.21875 48.921875 51.53125 44.890625 
Q 49.859375 40.875 45.40625 35.40625 
Q 44.1875 33.984375 37.640625 27.21875 
Q 31.109375 20.453125 19.1875 8.296875 
z
" id="DejaVuSans-50"/>
      </defs>
      <use transform="translate(32.470378 0.125)" xlink:href="#DejaVuSans-Oblique-80"/>
      <use transform="translate(92.773113 0.125)" xlink:href="#DejaVuSans-40"/>
      <use transform="translate(131.786785 0.125)" xlink:href="#DejaVuSans-Oblique-122"/>
      <use transform="translate(184.277019 -16.28125)scale(0.7)" xlink:href="#DejaVuSans-50"/>
      <use transform="translate(231.547527 0.125)" xlink:href="#DejaVuSans-41"/>
     </g>
    </g>
   </g>
   <g id="line2d_65">
    <path clip-path="url(#p9264e2c1b3)" d="M 63.363636 328.98881 
L 103.986077 328.846931 
L 121.758395 328.578351 
L 134.452907 328.175632 
L 144.608518 327.635286 
L 153.240786 326.952139 
L 160.857494 326.1205 
L 167.45864 325.181413 
L 173.552007 324.098119 
L 179.137592 322.893063 
L 184.723178 321.45786 
L 189.800983 319.931337 
L 194.878788 318.17421 
L 199.956593 316.169506 
L 205.034398 313.902867 
L 209.604423 311.629914 
L 214.174447 309.131191 
L 219.252252 306.088635 
L 224.330057 302.77007 
L 229.407862 299.186684 
L 234.993448 294.961839 
L 241.086814 290.056892 
L 248.195741 284.028541 
L 259.366912 274.203334 
L 269.522523 265.377524 
L 275.615889 260.370825 
L 280.693694 256.476712 
L 285.263718 253.252121 
L 289.325962 250.650958 
L 293.388206 248.333784 
L 296.94267 246.562935 
L 300.497133 245.050503 
L 303.543817 243.971639 
L 306.5905 243.102292 
L 309.637183 242.449137 
L 312.683866 242.01722 
L 315.730549 241.809889 
L 318.777232 241.828757 
L 321.823915 242.073679 
L 324.870598 242.542749 
L 327.917281 243.232331 
L 330.963964 244.137103 
L 334.010647 245.250127 
L 337.565111 246.800486 
L 341.119574 248.60684 
L 344.674038 250.650958 
L 348.736282 253.252121 
L 353.306306 256.476712 
L 358.384111 260.370825 
L 363.969697 264.949222 
L 371.586405 271.518647 
L 391.389844 288.789285 
L 397.990991 294.164385 
L 403.576577 298.439746 
L 409.162162 302.423399 
L 414.239967 305.769072 
L 419.317772 308.839526 
L 424.395577 311.629914 
L 429.473382 314.141658 
L 434.551188 316.381551 
L 439.628993 318.360801 
L 444.706798 320.094069 
L 449.784603 321.598539 
L 455.370188 323.011725 
L 460.955774 324.197176 
L 467.04914 325.261814 
L 473.650287 326.183768 
L 480.759214 326.952139 
L 488.883702 327.601509 
L 498.023751 328.109252 
L 509.194922 328.502719 
L 523.920557 328.781229 
L 545.247338 328.93997 
L 570.636364 328.98881 
L 570.636364 328.98881 
" style="fill:none;stroke:#1f77b4;stroke-linecap:round;stroke-width:1.5;"/>
   </g>
   <g id="line2d_66">
    <path clip-path="url(#p9264e2c1b3)" d="M 63.363636 328.999572 
L 233.470106 328.917919 
L 233.977887 328.719868 
L 234.485667 328.149325 
L 234.993448 326.70601 
L 235.501229 323.509269 
L 236.009009 317.33679 
L 236.51679 307.01449 
L 237.532351 274.406163 
L 238.040131 257.083424 
L 238.547912 244.931186 
L 239.055692 241.791016 
L 239.563473 248.719903 
L 240.071253 263.419462 
L 241.086814 298.417595 
L 241.594595 311.541656 
L 242.102375 320.155763 
L 242.610156 325.023938 
L 243.117936 327.413607 
L 243.625717 328.438136 
L 244.133497 328.823201 
L 245.149058 328.987409 
L 251.242424 328.999572 
L 570.636364 328.999572 
L 570.636364 328.999572 
" style="fill:none;stroke:#ff7f0e;stroke-linecap:round;stroke-width:1.5;"/>
   </g>
   <g id="patch_13">
    <path d="M 38 333.36 
L 38 237.430588 
" style="fill:none;stroke:#cccccc;stroke-linecap:square;stroke-linejoin:miter;"/>
   </g>
   <g id="patch_14">
    <path d="M 596 333.36 
L 596 237.430588 
" style="fill:none;stroke:#cccccc;stroke-linecap:square;stroke-linejoin:miter;"/>
   </g>
   <g id="patch_15">
    <path d="M 38 333.36 
L 596 333.36 
" style="fill:none;stroke:#cccccc;stroke-linecap:square;stroke-linejoin:miter;"/>
   </g>
   <g id="patch_16">
    <path d="M 38 237.430588 
L 596 237.430588 
" style="fill:none;stroke:#cccccc;stroke-linecap:square;stroke-linejoin:miter;"/>
   </g>
  </g>
 </g>
 <defs>
  <clipPath id="p06ab754f7b">
   <rect height="95.929412" width="558" x="38" y="7.2"/>
  </clipPath>
  <clipPath id="p547b14dbd4">
   <rect height="95.929412" width="558" x="38" y="122.315294"/>
  </clipPath>
  <clipPath id="p9264e2c1b3">
   <rect height="95.929412" width="558" x="38" y="237.430588"/>
  </clipPath>
 </defs>
</svg>
