<?xml version="1.0" encoding="utf-8" standalone="no"?>
<!DOCTYPE svg PUBLIC "-//W3C//DTD SVG 1.1//EN"
  "http://www.w3.org/Graphics/SVG/1.1/DTD/svg11.dtd">
<!-- Created with matplotlib (https://matplotlib.org/) -->
<svg height="354.948685pt" version="1.1" viewBox="0 0 595.640625 354.948685" width="595.640625pt" xmlns="http://www.w3.org/2000/svg" xmlns:xlink="http://www.w3.org/1999/xlink">
 <metadata>
  <rdf:RDF xmlns:cc="http://creativecommons.org/ns#" xmlns:dc="http://purl.org/dc/elements/1.1/" xmlns:rdf="http://www.w3.org/1999/02/22-rdf-syntax-ns#">
   <cc:Work>
    <dc:type rdf:resource="http://purl.org/dc/dcmitype/StillImage"/>
    <dc:date>2021-06-07T23:10:34.730387</dc:date>
    <dc:format>image/svg+xml</dc:format>
    <dc:creator>
     <cc:Agent>
      <dc:title>Matplotlib v3.3.1, https://matplotlib.org/</dc:title>
     </cc:Agent>
    </dc:creator>
   </cc:Work>
  </rdf:RDF>
 </metadata>
 <defs>
  <style type="text/css">*{stroke-linecap:butt;stroke-linejoin:round;}</style>
 </defs>
 <g id="figure_1">
  <g id="patch_1">
   <path d="M 0 354.948685 
L 595.640625 354.948685 
L 595.640625 0 
L 0 0 
z
" style="fill:#ffffff;"/>
  </g>
  <g id="axes_1">
   <g id="patch_2">
    <path d="M 30.440625 335.103372 
L 588.440625 335.103372 
L 588.440625 8.943372 
L 30.440625 8.943372 
z
" style="fill:#ffffff;"/>
   </g>
   <g id="matplotlib.axis_1">
    <g id="xtick_1">
     <g id="line2d_1">
      <path clip-path="url(#pb9407fce6c)" d="M 55.804261 335.103372 
L 55.804261 8.943372 
" style="fill:none;stroke:#cccccc;stroke-linecap:round;stroke-width:0.8;"/>
     </g>
     <g id="line2d_2"/>
     <g id="text_1">
      <!-- 0 -->
      <g style="fill:#262626;" transform="translate(53.023793 345.761185)scale(0.1 -0.1)">
       <defs>
        <path d="M 4.15625 35.296875 
Q 4.15625 48 6.765625 55.734375 
Q 9.375 63.484375 14.515625 67.671875 
Q 19.671875 71.875 27.484375 71.875 
Q 33.25 71.875 37.59375 69.546875 
Q 41.9375 67.234375 44.765625 62.859375 
Q 47.609375 58.5 49.21875 52.21875 
Q 50.828125 45.953125 50.828125 35.296875 
Q 50.828125 22.703125 48.234375 14.96875 
Q 45.65625 7.234375 40.5 3 
Q 35.359375 -1.21875 27.484375 -1.21875 
Q 17.140625 -1.21875 11.234375 6.203125 
Q 4.15625 15.140625 4.15625 35.296875 
z
M 13.1875 35.296875 
Q 13.1875 17.671875 17.3125 11.828125 
Q 21.4375 6 27.484375 6 
Q 33.546875 6 37.671875 11.859375 
Q 41.796875 17.71875 41.796875 35.296875 
Q 41.796875 52.984375 37.671875 58.78125 
Q 33.546875 64.59375 27.390625 64.59375 
Q 21.34375 64.59375 17.71875 59.46875 
Q 13.1875 52.9375 13.1875 35.296875 
z
" id="ArialMT-48"/>
       </defs>
       <use xlink:href="#ArialMT-48"/>
      </g>
     </g>
    </g>
    <g id="xtick_2">
     <g id="line2d_3">
      <path clip-path="url(#pb9407fce6c)" d="M 158.2836 335.103372 
L 158.2836 8.943372 
" style="fill:none;stroke:#cccccc;stroke-linecap:round;stroke-width:0.8;"/>
     </g>
     <g id="line2d_4"/>
     <g id="text_2">
      <!-- 20 -->
      <g style="fill:#262626;" transform="translate(152.722663 345.761185)scale(0.1 -0.1)">
       <defs>
        <path d="M 50.34375 8.453125 
L 50.34375 0 
L 3.03125 0 
Q 2.9375 3.171875 4.046875 6.109375 
Q 5.859375 10.9375 9.828125 15.625 
Q 13.8125 20.3125 21.34375 26.46875 
Q 33.015625 36.03125 37.109375 41.625 
Q 41.21875 47.21875 41.21875 52.203125 
Q 41.21875 57.421875 37.46875 61 
Q 33.734375 64.59375 27.734375 64.59375 
Q 21.390625 64.59375 17.578125 60.78125 
Q 13.765625 56.984375 13.71875 50.25 
L 4.6875 51.171875 
Q 5.609375 61.28125 11.65625 66.578125 
Q 17.71875 71.875 27.9375 71.875 
Q 38.234375 71.875 44.234375 66.15625 
Q 50.25 60.453125 50.25 52 
Q 50.25 47.703125 48.484375 43.546875 
Q 46.734375 39.40625 42.65625 34.8125 
Q 38.578125 30.21875 29.109375 22.21875 
Q 21.1875 15.578125 18.9375 13.203125 
Q 16.703125 10.84375 15.234375 8.453125 
z
" id="ArialMT-50"/>
       </defs>
       <use xlink:href="#ArialMT-50"/>
       <use x="55.615234" xlink:href="#ArialMT-48"/>
      </g>
     </g>
    </g>
    <g id="xtick_3">
     <g id="line2d_5">
      <path clip-path="url(#pb9407fce6c)" d="M 260.762939 335.103372 
L 260.762939 8.943372 
" style="fill:none;stroke:#cccccc;stroke-linecap:round;stroke-width:0.8;"/>
     </g>
     <g id="line2d_6"/>
     <g id="text_3">
      <!-- 40 -->
      <g style="fill:#262626;" transform="translate(255.202002 345.761185)scale(0.1 -0.1)">
       <defs>
        <path d="M 32.328125 0 
L 32.328125 17.140625 
L 1.265625 17.140625 
L 1.265625 25.203125 
L 33.9375 71.578125 
L 41.109375 71.578125 
L 41.109375 25.203125 
L 50.78125 25.203125 
L 50.78125 17.140625 
L 41.109375 17.140625 
L 41.109375 0 
z
M 32.328125 25.203125 
L 32.328125 57.46875 
L 9.90625 25.203125 
z
" id="ArialMT-52"/>
       </defs>
       <use xlink:href="#ArialMT-52"/>
       <use x="55.615234" xlink:href="#ArialMT-48"/>
      </g>
     </g>
    </g>
    <g id="xtick_4">
     <g id="line2d_7">
      <path clip-path="url(#pb9407fce6c)" d="M 363.242278 335.103372 
L 363.242278 8.943372 
" style="fill:none;stroke:#cccccc;stroke-linecap:round;stroke-width:0.8;"/>
     </g>
     <g id="line2d_8"/>
     <g id="text_4">
      <!-- 60 -->
      <g style="fill:#262626;" transform="translate(357.68134 345.761185)scale(0.1 -0.1)">
       <defs>
        <path d="M 49.75 54.046875 
L 41.015625 53.375 
Q 39.84375 58.546875 37.703125 60.890625 
Q 34.125 64.65625 28.90625 64.65625 
Q 24.703125 64.65625 21.53125 62.3125 
Q 17.390625 59.28125 14.984375 53.46875 
Q 12.59375 47.65625 12.5 36.921875 
Q 15.671875 41.75 20.265625 44.09375 
Q 24.859375 46.4375 29.890625 46.4375 
Q 38.671875 46.4375 44.84375 39.96875 
Q 51.03125 33.5 51.03125 23.25 
Q 51.03125 16.5 48.125 10.71875 
Q 45.21875 4.9375 40.140625 1.859375 
Q 35.0625 -1.21875 28.609375 -1.21875 
Q 17.625 -1.21875 10.6875 6.859375 
Q 3.765625 14.9375 3.765625 33.5 
Q 3.765625 54.25 11.421875 63.671875 
Q 18.109375 71.875 29.4375 71.875 
Q 37.890625 71.875 43.28125 67.140625 
Q 48.6875 62.40625 49.75 54.046875 
z
M 13.875 23.1875 
Q 13.875 18.65625 15.796875 14.5 
Q 17.71875 10.359375 21.1875 8.171875 
Q 24.65625 6 28.46875 6 
Q 34.03125 6 38.03125 10.484375 
Q 42.046875 14.984375 42.046875 22.703125 
Q 42.046875 30.125 38.078125 34.390625 
Q 34.125 38.671875 28.125 38.671875 
Q 22.171875 38.671875 18.015625 34.390625 
Q 13.875 30.125 13.875 23.1875 
z
" id="ArialMT-54"/>
       </defs>
       <use xlink:href="#ArialMT-54"/>
       <use x="55.615234" xlink:href="#ArialMT-48"/>
      </g>
     </g>
    </g>
    <g id="xtick_5">
     <g id="line2d_9">
      <path clip-path="url(#pb9407fce6c)" d="M 465.721617 335.103372 
L 465.721617 8.943372 
" style="fill:none;stroke:#cccccc;stroke-linecap:round;stroke-width:0.8;"/>
     </g>
     <g id="line2d_10"/>
     <g id="text_5">
      <!-- 80 -->
      <g style="fill:#262626;" transform="translate(460.160679 345.761185)scale(0.1 -0.1)">
       <defs>
        <path d="M 17.671875 38.8125 
Q 12.203125 40.828125 9.5625 44.53125 
Q 6.9375 48.25 6.9375 53.421875 
Q 6.9375 61.234375 12.546875 66.546875 
Q 18.171875 71.875 27.484375 71.875 
Q 36.859375 71.875 42.578125 66.421875 
Q 48.296875 60.984375 48.296875 53.171875 
Q 48.296875 48.1875 45.671875 44.5 
Q 43.0625 40.828125 37.75 38.8125 
Q 44.34375 36.671875 47.78125 31.875 
Q 51.21875 27.09375 51.21875 20.453125 
Q 51.21875 11.28125 44.71875 5.03125 
Q 38.234375 -1.21875 27.640625 -1.21875 
Q 17.046875 -1.21875 10.546875 5.046875 
Q 4.046875 11.328125 4.046875 20.703125 
Q 4.046875 27.6875 7.59375 32.390625 
Q 11.140625 37.109375 17.671875 38.8125 
z
M 15.921875 53.71875 
Q 15.921875 48.640625 19.1875 45.40625 
Q 22.46875 42.1875 27.6875 42.1875 
Q 32.765625 42.1875 36.015625 45.375 
Q 39.265625 48.578125 39.265625 53.21875 
Q 39.265625 58.0625 35.90625 61.359375 
Q 32.5625 64.65625 27.59375 64.65625 
Q 22.5625 64.65625 19.234375 61.421875 
Q 15.921875 58.203125 15.921875 53.71875 
z
M 13.09375 20.65625 
Q 13.09375 16.890625 14.875 13.375 
Q 16.65625 9.859375 20.171875 7.921875 
Q 23.6875 6 27.734375 6 
Q 34.03125 6 38.125 10.046875 
Q 42.234375 14.109375 42.234375 20.359375 
Q 42.234375 26.703125 38.015625 30.859375 
Q 33.796875 35.015625 27.4375 35.015625 
Q 21.234375 35.015625 17.15625 30.90625 
Q 13.09375 26.8125 13.09375 20.65625 
z
" id="ArialMT-56"/>
       </defs>
       <use xlink:href="#ArialMT-56"/>
       <use x="55.615234" xlink:href="#ArialMT-48"/>
      </g>
     </g>
    </g>
    <g id="xtick_6">
     <g id="line2d_11">
      <path clip-path="url(#pb9407fce6c)" d="M 568.200956 335.103372 
L 568.200956 8.943372 
" style="fill:none;stroke:#cccccc;stroke-linecap:round;stroke-width:0.8;"/>
     </g>
     <g id="line2d_12"/>
     <g id="text_6">
      <!-- 100 -->
      <g style="fill:#262626;" transform="translate(559.859549 345.761185)scale(0.1 -0.1)">
       <defs>
        <path d="M 37.25 0 
L 28.46875 0 
L 28.46875 56 
Q 25.296875 52.984375 20.140625 49.953125 
Q 14.984375 46.921875 10.890625 45.40625 
L 10.890625 53.90625 
Q 18.265625 57.375 23.78125 62.296875 
Q 29.296875 67.234375 31.59375 71.875 
L 37.25 71.875 
z
" id="ArialMT-49"/>
       </defs>
       <use xlink:href="#ArialMT-49"/>
       <use x="55.615234" xlink:href="#ArialMT-48"/>
       <use x="111.230469" xlink:href="#ArialMT-48"/>
      </g>
     </g>
    </g>
   </g>
   <g id="matplotlib.axis_2">
    <g id="ytick_1">
     <g id="line2d_13">
      <path clip-path="url(#pb9407fce6c)" d="M 30.440625 318.513303 
L 588.440625 318.513303 
" style="fill:none;stroke:#cccccc;stroke-linecap:round;stroke-width:0.8;"/>
     </g>
     <g id="line2d_14"/>
     <g id="text_7">
      <!-- −2.0 -->
      <g style="fill:#262626;" transform="translate(7.2 322.092209)scale(0.1 -0.1)">
       <defs>
        <path d="M 52.828125 31.203125 
L 5.5625 31.203125 
L 5.5625 39.40625 
L 52.828125 39.40625 
z
" id="ArialMT-8722"/>
        <path d="M 9.078125 0 
L 9.078125 10.015625 
L 19.09375 10.015625 
L 19.09375 0 
z
" id="ArialMT-46"/>
       </defs>
       <use xlink:href="#ArialMT-8722"/>
       <use x="58.398438" xlink:href="#ArialMT-50"/>
       <use x="114.013672" xlink:href="#ArialMT-46"/>
       <use x="141.796875" xlink:href="#ArialMT-48"/>
      </g>
     </g>
    </g>
    <g id="ytick_2">
     <g id="line2d_15">
      <path clip-path="url(#pb9407fce6c)" d="M 30.440625 274.551246 
L 588.440625 274.551246 
" style="fill:none;stroke:#cccccc;stroke-linecap:round;stroke-width:0.8;"/>
     </g>
     <g id="line2d_16"/>
     <g id="text_8">
      <!-- −1.5 -->
      <g style="fill:#262626;" transform="translate(7.2 278.130152)scale(0.1 -0.1)">
       <defs>
        <path d="M 4.15625 18.75 
L 13.375 19.53125 
Q 14.40625 12.796875 18.140625 9.390625 
Q 21.875 6 27.15625 6 
Q 33.5 6 37.890625 10.78125 
Q 42.28125 15.578125 42.28125 23.484375 
Q 42.28125 31 38.0625 35.34375 
Q 33.84375 39.703125 27 39.703125 
Q 22.75 39.703125 19.328125 37.765625 
Q 15.921875 35.84375 13.96875 32.765625 
L 5.71875 33.84375 
L 12.640625 70.609375 
L 48.25 70.609375 
L 48.25 62.203125 
L 19.671875 62.203125 
L 15.828125 42.96875 
Q 22.265625 47.46875 29.34375 47.46875 
Q 38.71875 47.46875 45.15625 40.96875 
Q 51.609375 34.46875 51.609375 24.265625 
Q 51.609375 14.546875 45.953125 7.46875 
Q 39.0625 -1.21875 27.15625 -1.21875 
Q 17.390625 -1.21875 11.203125 4.25 
Q 5.03125 9.71875 4.15625 18.75 
z
" id="ArialMT-53"/>
       </defs>
       <use xlink:href="#ArialMT-8722"/>
       <use x="58.398438" xlink:href="#ArialMT-49"/>
       <use x="114.013672" xlink:href="#ArialMT-46"/>
       <use x="141.796875" xlink:href="#ArialMT-53"/>
      </g>
     </g>
    </g>
    <g id="ytick_3">
     <g id="line2d_17">
      <path clip-path="url(#pb9407fce6c)" d="M 30.440625 230.589189 
L 588.440625 230.589189 
" style="fill:none;stroke:#cccccc;stroke-linecap:round;stroke-width:0.8;"/>
     </g>
     <g id="line2d_18"/>
     <g id="text_9">
      <!-- −1.0 -->
      <g style="fill:#262626;" transform="translate(7.2 234.168096)scale(0.1 -0.1)">
       <use xlink:href="#ArialMT-8722"/>
       <use x="58.398438" xlink:href="#ArialMT-49"/>
       <use x="114.013672" xlink:href="#ArialMT-46"/>
       <use x="141.796875" xlink:href="#ArialMT-48"/>
      </g>
     </g>
    </g>
    <g id="ytick_4">
     <g id="line2d_19">
      <path clip-path="url(#pb9407fce6c)" d="M 30.440625 186.627133 
L 588.440625 186.627133 
" style="fill:none;stroke:#cccccc;stroke-linecap:round;stroke-width:0.8;"/>
     </g>
     <g id="line2d_20"/>
     <g id="text_10">
      <!-- −0.5 -->
      <g style="fill:#262626;" transform="translate(7.2 190.206039)scale(0.1 -0.1)">
       <use xlink:href="#ArialMT-8722"/>
       <use x="58.398438" xlink:href="#ArialMT-48"/>
       <use x="114.013672" xlink:href="#ArialMT-46"/>
       <use x="141.796875" xlink:href="#ArialMT-53"/>
      </g>
     </g>
    </g>
    <g id="ytick_5">
     <g id="line2d_21">
      <path clip-path="url(#pb9407fce6c)" d="M 30.440625 142.665076 
L 588.440625 142.665076 
" style="fill:none;stroke:#cccccc;stroke-linecap:round;stroke-width:0.8;"/>
     </g>
     <g id="line2d_22"/>
     <g id="text_11">
      <!-- 0.0 -->
      <g style="fill:#262626;" transform="translate(13.040625 146.243982)scale(0.1 -0.1)">
       <use xlink:href="#ArialMT-48"/>
       <use x="55.615234" xlink:href="#ArialMT-46"/>
       <use x="83.398438" xlink:href="#ArialMT-48"/>
      </g>
     </g>
    </g>
    <g id="ytick_6">
     <g id="line2d_23">
      <path clip-path="url(#pb9407fce6c)" d="M 30.440625 98.703019 
L 588.440625 98.703019 
" style="fill:none;stroke:#cccccc;stroke-linecap:round;stroke-width:0.8;"/>
     </g>
     <g id="line2d_24"/>
     <g id="text_12">
      <!-- 0.5 -->
      <g style="fill:#262626;" transform="translate(13.040625 102.281926)scale(0.1 -0.1)">
       <use xlink:href="#ArialMT-48"/>
       <use x="55.615234" xlink:href="#ArialMT-46"/>
       <use x="83.398438" xlink:href="#ArialMT-53"/>
      </g>
     </g>
    </g>
    <g id="ytick_7">
     <g id="line2d_25">
      <path clip-path="url(#pb9407fce6c)" d="M 30.440625 54.740963 
L 588.440625 54.740963 
" style="fill:none;stroke:#cccccc;stroke-linecap:round;stroke-width:0.8;"/>
     </g>
     <g id="line2d_26"/>
     <g id="text_13">
      <!-- 1.0 -->
      <g style="fill:#262626;" transform="translate(13.040625 58.319869)scale(0.1 -0.1)">
       <use xlink:href="#ArialMT-49"/>
       <use x="55.615234" xlink:href="#ArialMT-46"/>
       <use x="83.398438" xlink:href="#ArialMT-48"/>
      </g>
     </g>
    </g>
    <g id="ytick_8">
     <g id="line2d_27">
      <path clip-path="url(#pb9407fce6c)" d="M 30.440625 10.778906 
L 588.440625 10.778906 
" style="fill:none;stroke:#cccccc;stroke-linecap:round;stroke-width:0.8;"/>
     </g>
     <g id="line2d_28"/>
     <g id="text_14">
      <!-- 1.5 -->
      <g style="fill:#262626;" transform="translate(13.040625 14.357812)scale(0.1 -0.1)">
       <use xlink:href="#ArialMT-49"/>
       <use x="55.615234" xlink:href="#ArialMT-46"/>
       <use x="83.398438" xlink:href="#ArialMT-53"/>
      </g>
     </g>
    </g>
   </g>
   <g id="PolyCollection_1">
    <path clip-path="url(#pb9407fce6c)" d="M 55.804261 304.796317 
L 55.804261 320.277918 
L 60.928228 311.04785 
L 66.052195 300.792891 
L 71.176162 276.515462 
L 76.300129 273.194755 
L 81.424096 265.967835 
L 86.548063 264.451125 
L 91.67203 263.582341 
L 96.795997 263.427955 
L 101.919964 261.382623 
L 107.043931 248.506698 
L 112.167898 246.738356 
L 117.291865 243.238846 
L 122.415832 242.422868 
L 127.539799 242.166679 
L 132.663765 239.074232 
L 137.787732 237.353349 
L 142.911699 222.713761 
L 148.035666 220.895141 
L 153.159633 213.227464 
L 158.2836 212.407725 
L 163.407567 211.763758 
L 168.531534 211.010057 
L 173.655501 208.489608 
L 178.779468 204.957419 
L 183.903435 203.93144 
L 189.027402 201.849029 
L 194.151369 200.891634 
L 199.275336 200.078286 
L 204.399303 199.526316 
L 209.52327 198.310451 
L 214.647237 195.102218 
L 219.771204 194.685544 
L 224.89517 193.581141 
L 230.019137 193.070093 
L 235.143104 192.444258 
L 240.267071 191.625911 
L 245.391038 191.497257 
L 250.515005 184.882877 
L 255.638972 183.179019 
L 260.762939 181.138694 
L 265.886906 180.23833 
L 271.010873 177.212942 
L 276.13484 177.185544 
L 281.258807 176.7805 
L 286.382774 170.824719 
L 291.506741 170.695677 
L 296.630708 169.782567 
L 301.754675 169.055 
L 306.878642 168.998549 
L 312.002608 164.519748 
L 317.126575 162.516886 
L 322.250542 159.187211 
L 327.374509 157.562105 
L 332.498476 156.217745 
L 337.622443 155.600895 
L 342.74641 154.254622 
L 347.870377 153.969616 
L 352.994344 153.484253 
L 358.118311 153.402489 
L 363.242278 148.595108 
L 368.366245 145.445642 
L 373.490212 143.904355 
L 378.614179 136.166192 
L 383.738146 133.041299 
L 388.862113 131.184558 
L 393.98608 131.011057 
L 399.110046 130.595217 
L 404.234013 129.127207 
L 409.35798 128.722843 
L 414.481947 128.670702 
L 419.605914 123.688632 
L 424.729881 120.533834 
L 429.853848 119.513289 
L 434.977815 118.49949 
L 440.101782 115.883671 
L 445.225749 115.464488 
L 450.349716 115.277729 
L 455.473683 111.927906 
L 460.59765 111.337788 
L 465.721617 106.721584 
L 470.845584 104.62665 
L 475.969551 101.54436 
L 481.093518 99.848865 
L 486.217485 99.464441 
L 491.341451 97.953179 
L 496.465418 91.698782 
L 501.589385 90.809852 
L 506.713352 86.966037 
L 511.837319 83.715588 
L 516.961286 83.066145 
L 522.085253 82.326837 
L 527.20922 76.476419 
L 532.333187 76.490798 
L 537.457154 76.004325 
L 542.581121 70.136734 
L 547.705088 52.082018 
L 552.829055 48.028897 
L 557.953022 47.628362 
L 563.076989 43.023295 
L 563.076989 23.768827 
L 563.076989 23.768827 
L 557.953022 28.422435 
L 552.829055 28.866319 
L 547.705088 32.947246 
L 542.581121 51.265721 
L 537.457154 57.144739 
L 532.333187 57.641598 
L 527.20922 57.660531 
L 522.085253 63.564713 
L 516.961286 64.333974 
L 511.837319 65.021759 
L 506.713352 68.2172 
L 501.589385 72.217385 
L 496.465418 73.025313 
L 491.341451 79.431369 
L 486.217485 80.914091 
L 481.093518 81.31355 
L 475.969551 82.97577 
L 470.845584 86.092711 
L 465.721617 88.206288 
L 460.59765 92.954264 
L 455.473683 93.530676 
L 450.349716 96.889276 
L 445.225749 97.088646 
L 440.101782 97.474862 
L 434.977815 100.28389 
L 429.853848 101.276459 
L 424.729881 102.30709 
L 419.605914 105.43479 
L 414.481947 110.444382 
L 409.35798 110.551698 
L 404.234013 110.889596 
L 399.110046 112.475478 
L 393.98608 112.897751 
L 388.862113 112.964763 
L 383.738146 115.024044 
L 378.614179 118.116608 
L 373.490212 125.949025 
L 368.366245 127.591219 
L 363.242278 130.714187 
L 358.118311 135.49722 
L 352.994344 135.718352 
L 347.870377 136.235034 
L 342.74641 136.396316 
L 337.622443 137.875915 
L 332.498476 138.435969 
L 327.374509 139.805908 
L 322.250542 141.519665 
L 317.126575 144.723872 
L 312.002608 146.866567 
L 306.878642 151.349051 
L 301.754675 151.525269 
L 296.630708 152.047557 
L 291.506741 152.992744 
L 286.382774 153.261275 
L 281.258807 159.160362 
L 276.13484 159.531817 
L 271.010873 159.745881 
L 265.886906 162.68615 
L 260.762939 163.534065 
L 255.638972 165.650101 
L 250.515005 167.437555 
L 245.391038 174.272404 
L 240.267071 174.194963 
L 235.143104 175.038193 
L 230.019137 175.715513 
L 224.89517 176.348713 
L 219.771204 177.467554 
L 214.647237 177.780599 
L 209.52327 181.102335 
L 204.399303 182.193778 
L 199.275336 182.966041 
L 194.151369 183.640257 
L 189.027402 184.60562 
L 183.903435 186.847856 
L 178.779468 187.764898 
L 173.655501 191.284051 
L 168.531534 193.986317 
L 163.407567 194.674766 
L 158.2836 195.439554 
L 153.159633 196.174704 
L 148.035666 204.016592 
L 142.911699 205.811447 
L 137.787732 220.639488 
L 132.663765 222.442586 
L 127.539799 225.456534 
L 122.415832 225.788018 
L 117.291865 226.556602 
L 112.167898 230.121051 
L 107.043931 231.8854 
L 101.919964 245.013142 
L 96.795997 247.146086 
L 91.67203 247.241196 
L 86.548063 248.153222 
L 81.424096 249.610546 
L 76.300129 257.049925 
L 71.176162 260.38185 
L 66.052195 285.03251 
L 60.928228 295.414188 
L 55.804261 304.796317 
z
" style="fill:#1f77b4;fill-opacity:0.3;"/>
   </g>
   <g id="line2d_29">
    <defs>
     <path d="M 0 1.5 
C 0.397805 1.5 0.77937 1.341951 1.06066 1.06066 
C 1.341951 0.77937 1.5 0.397805 1.5 0 
C 1.5 -0.397805 1.341951 -0.77937 1.06066 -1.06066 
C 0.77937 -1.341951 0.397805 -1.5 0 -1.5 
C -0.397805 -1.5 -0.77937 -1.341951 -1.06066 -1.06066 
C -1.341951 -0.77937 -1.5 -0.397805 -1.5 0 
C -1.5 0.397805 -1.341951 0.77937 -1.06066 1.06066 
C -0.77937 1.341951 -0.397805 1.5 0 1.5 
z
" id="m3664d74790" style="stroke:#1f77b4;"/>
    </defs>
    <g clip-path="url(#pb9407fce6c)">
     <use style="fill:#1f77b4;stroke:#1f77b4;" x="55.804261" xlink:href="#m3664d74790" y="312.537118"/>
     <use style="fill:#1f77b4;stroke:#1f77b4;" x="60.928228" xlink:href="#m3664d74790" y="303.231019"/>
     <use style="fill:#1f77b4;stroke:#1f77b4;" x="66.052195" xlink:href="#m3664d74790" y="292.912701"/>
     <use style="fill:#1f77b4;stroke:#1f77b4;" x="71.176162" xlink:href="#m3664d74790" y="268.448656"/>
     <use style="fill:#1f77b4;stroke:#1f77b4;" x="76.300129" xlink:href="#m3664d74790" y="265.12234"/>
     <use style="fill:#1f77b4;stroke:#1f77b4;" x="81.424096" xlink:href="#m3664d74790" y="257.78919"/>
     <use style="fill:#1f77b4;stroke:#1f77b4;" x="86.548063" xlink:href="#m3664d74790" y="256.302174"/>
     <use style="fill:#1f77b4;stroke:#1f77b4;" x="91.67203" xlink:href="#m3664d74790" y="255.411768"/>
     <use style="fill:#1f77b4;stroke:#1f77b4;" x="96.795997" xlink:href="#m3664d74790" y="255.287021"/>
     <use style="fill:#1f77b4;stroke:#1f77b4;" x="101.919964" xlink:href="#m3664d74790" y="253.197883"/>
     <use style="fill:#1f77b4;stroke:#1f77b4;" x="107.043931" xlink:href="#m3664d74790" y="240.196049"/>
     <use style="fill:#1f77b4;stroke:#1f77b4;" x="112.167898" xlink:href="#m3664d74790" y="238.429703"/>
     <use style="fill:#1f77b4;stroke:#1f77b4;" x="117.291865" xlink:href="#m3664d74790" y="234.897724"/>
     <use style="fill:#1f77b4;stroke:#1f77b4;" x="122.415832" xlink:href="#m3664d74790" y="234.105443"/>
     <use style="fill:#1f77b4;stroke:#1f77b4;" x="127.539799" xlink:href="#m3664d74790" y="233.811607"/>
     <use style="fill:#1f77b4;stroke:#1f77b4;" x="132.663765" xlink:href="#m3664d74790" y="230.758409"/>
     <use style="fill:#1f77b4;stroke:#1f77b4;" x="137.787732" xlink:href="#m3664d74790" y="228.996418"/>
     <use style="fill:#1f77b4;stroke:#1f77b4;" x="142.911699" xlink:href="#m3664d74790" y="214.262604"/>
     <use style="fill:#1f77b4;stroke:#1f77b4;" x="148.035666" xlink:href="#m3664d74790" y="212.455866"/>
     <use style="fill:#1f77b4;stroke:#1f77b4;" x="153.159633" xlink:href="#m3664d74790" y="204.701084"/>
     <use style="fill:#1f77b4;stroke:#1f77b4;" x="158.2836" xlink:href="#m3664d74790" y="203.92364"/>
     <use style="fill:#1f77b4;stroke:#1f77b4;" x="163.407567" xlink:href="#m3664d74790" y="203.219262"/>
     <use style="fill:#1f77b4;stroke:#1f77b4;" x="168.531534" xlink:href="#m3664d74790" y="202.498187"/>
     <use style="fill:#1f77b4;stroke:#1f77b4;" x="173.655501" xlink:href="#m3664d74790" y="199.88683"/>
     <use style="fill:#1f77b4;stroke:#1f77b4;" x="178.779468" xlink:href="#m3664d74790" y="196.361158"/>
     <use style="fill:#1f77b4;stroke:#1f77b4;" x="183.903435" xlink:href="#m3664d74790" y="195.389648"/>
     <use style="fill:#1f77b4;stroke:#1f77b4;" x="189.027402" xlink:href="#m3664d74790" y="193.227324"/>
     <use style="fill:#1f77b4;stroke:#1f77b4;" x="194.151369" xlink:href="#m3664d74790" y="192.265945"/>
     <use style="fill:#1f77b4;stroke:#1f77b4;" x="199.275336" xlink:href="#m3664d74790" y="191.522164"/>
     <use style="fill:#1f77b4;stroke:#1f77b4;" x="204.399303" xlink:href="#m3664d74790" y="190.860047"/>
     <use style="fill:#1f77b4;stroke:#1f77b4;" x="209.52327" xlink:href="#m3664d74790" y="189.706393"/>
     <use style="fill:#1f77b4;stroke:#1f77b4;" x="214.647237" xlink:href="#m3664d74790" y="186.441409"/>
     <use style="fill:#1f77b4;stroke:#1f77b4;" x="219.771204" xlink:href="#m3664d74790" y="186.076549"/>
     <use style="fill:#1f77b4;stroke:#1f77b4;" x="224.89517" xlink:href="#m3664d74790" y="184.964927"/>
     <use style="fill:#1f77b4;stroke:#1f77b4;" x="230.019137" xlink:href="#m3664d74790" y="184.392803"/>
     <use style="fill:#1f77b4;stroke:#1f77b4;" x="235.143104" xlink:href="#m3664d74790" y="183.741225"/>
     <use style="fill:#1f77b4;stroke:#1f77b4;" x="240.267071" xlink:href="#m3664d74790" y="182.910437"/>
     <use style="fill:#1f77b4;stroke:#1f77b4;" x="245.391038" xlink:href="#m3664d74790" y="182.884831"/>
     <use style="fill:#1f77b4;stroke:#1f77b4;" x="250.515005" xlink:href="#m3664d74790" y="176.160216"/>
     <use style="fill:#1f77b4;stroke:#1f77b4;" x="255.638972" xlink:href="#m3664d74790" y="174.41456"/>
     <use style="fill:#1f77b4;stroke:#1f77b4;" x="260.762939" xlink:href="#m3664d74790" y="172.336379"/>
     <use style="fill:#1f77b4;stroke:#1f77b4;" x="265.886906" xlink:href="#m3664d74790" y="171.46224"/>
     <use style="fill:#1f77b4;stroke:#1f77b4;" x="271.010873" xlink:href="#m3664d74790" y="168.479412"/>
     <use style="fill:#1f77b4;stroke:#1f77b4;" x="276.13484" xlink:href="#m3664d74790" y="168.358681"/>
     <use style="fill:#1f77b4;stroke:#1f77b4;" x="281.258807" xlink:href="#m3664d74790" y="167.970431"/>
     <use style="fill:#1f77b4;stroke:#1f77b4;" x="286.382774" xlink:href="#m3664d74790" y="162.042997"/>
     <use style="fill:#1f77b4;stroke:#1f77b4;" x="291.506741" xlink:href="#m3664d74790" y="161.844211"/>
     <use style="fill:#1f77b4;stroke:#1f77b4;" x="296.630708" xlink:href="#m3664d74790" y="160.915062"/>
     <use style="fill:#1f77b4;stroke:#1f77b4;" x="301.754675" xlink:href="#m3664d74790" y="160.290135"/>
     <use style="fill:#1f77b4;stroke:#1f77b4;" x="306.878642" xlink:href="#m3664d74790" y="160.1738"/>
     <use style="fill:#1f77b4;stroke:#1f77b4;" x="312.002608" xlink:href="#m3664d74790" y="155.693158"/>
     <use style="fill:#1f77b4;stroke:#1f77b4;" x="317.126575" xlink:href="#m3664d74790" y="153.620379"/>
     <use style="fill:#1f77b4;stroke:#1f77b4;" x="322.250542" xlink:href="#m3664d74790" y="150.353438"/>
     <use style="fill:#1f77b4;stroke:#1f77b4;" x="327.374509" xlink:href="#m3664d74790" y="148.684007"/>
     <use style="fill:#1f77b4;stroke:#1f77b4;" x="332.498476" xlink:href="#m3664d74790" y="147.326857"/>
     <use style="fill:#1f77b4;stroke:#1f77b4;" x="337.622443" xlink:href="#m3664d74790" y="146.738405"/>
     <use style="fill:#1f77b4;stroke:#1f77b4;" x="342.74641" xlink:href="#m3664d74790" y="145.325469"/>
     <use style="fill:#1f77b4;stroke:#1f77b4;" x="347.870377" xlink:href="#m3664d74790" y="145.102325"/>
     <use style="fill:#1f77b4;stroke:#1f77b4;" x="352.994344" xlink:href="#m3664d74790" y="144.601302"/>
     <use style="fill:#1f77b4;stroke:#1f77b4;" x="358.118311" xlink:href="#m3664d74790" y="144.449855"/>
     <use style="fill:#1f77b4;stroke:#1f77b4;" x="363.242278" xlink:href="#m3664d74790" y="139.654647"/>
     <use style="fill:#1f77b4;stroke:#1f77b4;" x="368.366245" xlink:href="#m3664d74790" y="136.518431"/>
     <use style="fill:#1f77b4;stroke:#1f77b4;" x="373.490212" xlink:href="#m3664d74790" y="134.92669"/>
     <use style="fill:#1f77b4;stroke:#1f77b4;" x="378.614179" xlink:href="#m3664d74790" y="127.1414"/>
     <use style="fill:#1f77b4;stroke:#1f77b4;" x="383.738146" xlink:href="#m3664d74790" y="124.032671"/>
     <use style="fill:#1f77b4;stroke:#1f77b4;" x="388.862113" xlink:href="#m3664d74790" y="122.07466"/>
     <use style="fill:#1f77b4;stroke:#1f77b4;" x="393.98608" xlink:href="#m3664d74790" y="121.954404"/>
     <use style="fill:#1f77b4;stroke:#1f77b4;" x="399.110046" xlink:href="#m3664d74790" y="121.535348"/>
     <use style="fill:#1f77b4;stroke:#1f77b4;" x="404.234013" xlink:href="#m3664d74790" y="120.008401"/>
     <use style="fill:#1f77b4;stroke:#1f77b4;" x="409.35798" xlink:href="#m3664d74790" y="119.637271"/>
     <use style="fill:#1f77b4;stroke:#1f77b4;" x="414.481947" xlink:href="#m3664d74790" y="119.557542"/>
     <use style="fill:#1f77b4;stroke:#1f77b4;" x="419.605914" xlink:href="#m3664d74790" y="114.561711"/>
     <use style="fill:#1f77b4;stroke:#1f77b4;" x="424.729881" xlink:href="#m3664d74790" y="111.420462"/>
     <use style="fill:#1f77b4;stroke:#1f77b4;" x="429.853848" xlink:href="#m3664d74790" y="110.394874"/>
     <use style="fill:#1f77b4;stroke:#1f77b4;" x="434.977815" xlink:href="#m3664d74790" y="109.39169"/>
     <use style="fill:#1f77b4;stroke:#1f77b4;" x="440.101782" xlink:href="#m3664d74790" y="106.679266"/>
     <use style="fill:#1f77b4;stroke:#1f77b4;" x="445.225749" xlink:href="#m3664d74790" y="106.276567"/>
     <use style="fill:#1f77b4;stroke:#1f77b4;" x="450.349716" xlink:href="#m3664d74790" y="106.083503"/>
     <use style="fill:#1f77b4;stroke:#1f77b4;" x="455.473683" xlink:href="#m3664d74790" y="102.729291"/>
     <use style="fill:#1f77b4;stroke:#1f77b4;" x="460.59765" xlink:href="#m3664d74790" y="102.146026"/>
     <use style="fill:#1f77b4;stroke:#1f77b4;" x="465.721617" xlink:href="#m3664d74790" y="97.463936"/>
     <use style="fill:#1f77b4;stroke:#1f77b4;" x="470.845584" xlink:href="#m3664d74790" y="95.35968"/>
     <use style="fill:#1f77b4;stroke:#1f77b4;" x="475.969551" xlink:href="#m3664d74790" y="92.260065"/>
     <use style="fill:#1f77b4;stroke:#1f77b4;" x="481.093518" xlink:href="#m3664d74790" y="90.581207"/>
     <use style="fill:#1f77b4;stroke:#1f77b4;" x="486.217485" xlink:href="#m3664d74790" y="90.189266"/>
     <use style="fill:#1f77b4;stroke:#1f77b4;" x="491.341451" xlink:href="#m3664d74790" y="88.692274"/>
     <use style="fill:#1f77b4;stroke:#1f77b4;" x="496.465418" xlink:href="#m3664d74790" y="82.362047"/>
     <use style="fill:#1f77b4;stroke:#1f77b4;" x="501.589385" xlink:href="#m3664d74790" y="81.513619"/>
     <use style="fill:#1f77b4;stroke:#1f77b4;" x="506.713352" xlink:href="#m3664d74790" y="77.591618"/>
     <use style="fill:#1f77b4;stroke:#1f77b4;" x="511.837319" xlink:href="#m3664d74790" y="74.368674"/>
     <use style="fill:#1f77b4;stroke:#1f77b4;" x="516.961286" xlink:href="#m3664d74790" y="73.700059"/>
     <use style="fill:#1f77b4;stroke:#1f77b4;" x="522.085253" xlink:href="#m3664d74790" y="72.945775"/>
     <use style="fill:#1f77b4;stroke:#1f77b4;" x="527.20922" xlink:href="#m3664d74790" y="67.068475"/>
     <use style="fill:#1f77b4;stroke:#1f77b4;" x="532.333187" xlink:href="#m3664d74790" y="67.066198"/>
     <use style="fill:#1f77b4;stroke:#1f77b4;" x="537.457154" xlink:href="#m3664d74790" y="66.574532"/>
     <use style="fill:#1f77b4;stroke:#1f77b4;" x="542.581121" xlink:href="#m3664d74790" y="60.701227"/>
     <use style="fill:#1f77b4;stroke:#1f77b4;" x="547.705088" xlink:href="#m3664d74790" y="42.514632"/>
     <use style="fill:#1f77b4;stroke:#1f77b4;" x="552.829055" xlink:href="#m3664d74790" y="38.447608"/>
     <use style="fill:#1f77b4;stroke:#1f77b4;" x="557.953022" xlink:href="#m3664d74790" y="38.025399"/>
     <use style="fill:#1f77b4;stroke:#1f77b4;" x="563.076989" xlink:href="#m3664d74790" y="33.396061"/>
    </g>
   </g>
   <g id="patch_3">
    <path d="M 30.440625 335.103372 
L 30.440625 8.943372 
" style="fill:none;stroke:#cccccc;stroke-linecap:square;stroke-linejoin:miter;"/>
   </g>
   <g id="patch_4">
    <path d="M 588.440625 335.103372 
L 588.440625 8.943372 
" style="fill:none;stroke:#cccccc;stroke-linecap:square;stroke-linejoin:miter;"/>
   </g>
   <g id="patch_5">
    <path d="M 30.440625 335.103372 
L 588.440625 335.103372 
" style="fill:none;stroke:#cccccc;stroke-linecap:square;stroke-linejoin:miter;"/>
   </g>
   <g id="patch_6">
    <path d="M 30.440625 8.943372 
L 588.440625 8.943372 
" style="fill:none;stroke:#cccccc;stroke-linecap:square;stroke-linejoin:miter;"/>
   </g>
  </g>
 </g>
 <defs>
  <clipPath id="pb9407fce6c">
   <rect height="326.16" width="558" x="30.440625" y="8.943372"/>
  </clipPath>
 </defs>
</svg>
