<?xml version="1.0" encoding="utf-8" standalone="no"?>
<!DOCTYPE svg PUBLIC "-//W3C//DTD SVG 1.1//EN"
  "http://www.w3.org/Graphics/SVG/1.1/DTD/svg11.dtd">
<!-- Created with matplotlib (https://matplotlib.org/) -->
<svg height="423.7675pt" version="1.1" viewBox="0 0 667.685938 423.7675" width="667.685938pt" xmlns="http://www.w3.org/2000/svg" xmlns:xlink="http://www.w3.org/1999/xlink">
 <metadata>
  <rdf:RDF xmlns:cc="http://creativecommons.org/ns#" xmlns:dc="http://purl.org/dc/elements/1.1/" xmlns:rdf="http://www.w3.org/1999/02/22-rdf-syntax-ns#">
   <cc:Work>
    <dc:type rdf:resource="http://purl.org/dc/dcmitype/StillImage"/>
    <dc:date>2021-04-23T13:01:22.351635</dc:date>
    <dc:format>image/svg+xml</dc:format>
    <dc:creator>
     <cc:Agent>
      <dc:title>Matplotlib v3.3.4, https://matplotlib.org/</dc:title>
     </cc:Agent>
    </dc:creator>
   </cc:Work>
  </rdf:RDF>
 </metadata>
 <defs>
  <style type="text/css">*{stroke-linecap:butt;stroke-linejoin:round;}</style>
 </defs>
 <g id="figure_1">
  <g id="patch_1">
   <path d="M 0 423.7675 
L 667.685938 423.7675 
L 667.685938 -0 
L 0 -0 
z
" style="fill:#ffffff;"/>
  </g>
  <g id="axes_1">
   <g id="patch_2">
    <path d="M 35.485938 380.2 
L 593.485937 380.2 
L 593.485937 54.04 
L 35.485938 54.04 
z
" style="fill:#ffffff;"/>
   </g>
   <g id="matplotlib.axis_1">
    <g id="xtick_1">
     <g id="line2d_1">
      <path clip-path="url(#p67bdd0b944)" d="M 35.485938 380.2 
L 35.485938 54.04 
" style="fill:none;stroke:#cccccc;stroke-linecap:round;stroke-width:0.8;"/>
     </g>
     <g id="line2d_2"/>
    </g>
    <g id="xtick_2">
     <g id="line2d_3">
      <path clip-path="url(#p67bdd0b944)" d="M 76.542794 380.2 
L 76.542794 54.04 
" style="fill:none;stroke:#cccccc;stroke-linecap:round;stroke-width:0.8;"/>
     </g>
     <g id="line2d_4"/>
     <g id="text_1">
      <!-- Dec -->
      <g style="fill:#262626;" transform="translate(67.651387 390.857812)scale(0.1 -0.1)">
       <defs>
        <path d="M 7.71875 0 
L 7.71875 71.578125 
L 32.375 71.578125 
Q 40.71875 71.578125 45.125 70.5625 
Q 51.265625 69.140625 55.609375 65.4375 
Q 61.28125 60.640625 64.078125 53.1875 
Q 66.890625 45.75 66.890625 36.1875 
Q 66.890625 28.03125 64.984375 21.734375 
Q 63.09375 15.4375 60.109375 11.296875 
Q 57.125 7.171875 53.578125 4.796875 
Q 50.046875 2.4375 45.046875 1.21875 
Q 40.046875 0 33.546875 0 
z
M 17.1875 8.453125 
L 32.46875 8.453125 
Q 39.546875 8.453125 43.578125 9.765625 
Q 47.609375 11.078125 50 13.484375 
Q 53.375 16.84375 55.25 22.53125 
Q 57.125 28.21875 57.125 36.328125 
Q 57.125 47.5625 53.4375 53.59375 
Q 49.75 59.625 44.484375 61.671875 
Q 40.671875 63.140625 32.234375 63.140625 
L 17.1875 63.140625 
z
" id="ArialMT-68"/>
        <path d="M 42.09375 16.703125 
L 51.171875 15.578125 
Q 49.03125 7.625 43.21875 3.21875 
Q 37.40625 -1.171875 28.375 -1.171875 
Q 17 -1.171875 10.328125 5.828125 
Q 3.65625 12.84375 3.65625 25.484375 
Q 3.65625 38.578125 10.390625 45.796875 
Q 17.140625 53.03125 27.875 53.03125 
Q 38.28125 53.03125 44.875 45.953125 
Q 51.46875 38.875 51.46875 26.03125 
Q 51.46875 25.25 51.421875 23.6875 
L 12.75 23.6875 
Q 13.234375 15.140625 17.578125 10.59375 
Q 21.921875 6.0625 28.421875 6.0625 
Q 33.25 6.0625 36.671875 8.59375 
Q 40.09375 11.140625 42.09375 16.703125 
z
M 13.234375 30.90625 
L 42.1875 30.90625 
Q 41.609375 37.453125 38.875 40.71875 
Q 34.671875 45.796875 27.984375 45.796875 
Q 21.921875 45.796875 17.796875 41.75 
Q 13.671875 37.703125 13.234375 30.90625 
z
" id="ArialMT-101"/>
        <path d="M 40.4375 19 
L 49.078125 17.875 
Q 47.65625 8.9375 41.8125 3.875 
Q 35.984375 -1.171875 27.484375 -1.171875 
Q 16.84375 -1.171875 10.375 5.78125 
Q 3.90625 12.75 3.90625 25.734375 
Q 3.90625 34.125 6.6875 40.421875 
Q 9.46875 46.734375 15.15625 49.875 
Q 20.84375 53.03125 27.546875 53.03125 
Q 35.984375 53.03125 41.359375 48.75 
Q 46.734375 44.484375 48.25 36.625 
L 39.703125 35.296875 
Q 38.484375 40.53125 35.375 43.15625 
Q 32.28125 45.796875 27.875 45.796875 
Q 21.234375 45.796875 17.078125 41.03125 
Q 12.9375 36.28125 12.9375 25.984375 
Q 12.9375 15.53125 16.9375 10.796875 
Q 20.953125 6.0625 27.390625 6.0625 
Q 32.5625 6.0625 36.03125 9.234375 
Q 39.5 12.40625 40.4375 19 
z
" id="ArialMT-99"/>
       </defs>
       <use xlink:href="#ArialMT-68"/>
       <use x="72.216797" xlink:href="#ArialMT-101"/>
       <use x="127.832031" xlink:href="#ArialMT-99"/>
      </g>
     </g>
    </g>
    <g id="xtick_3">
     <g id="line2d_5">
      <path clip-path="url(#p67bdd0b944)" d="M 134.395636 380.2 
L 134.395636 54.04 
" style="fill:none;stroke:#cccccc;stroke-linecap:round;stroke-width:0.8;"/>
     </g>
     <g id="line2d_6"/>
     <g id="text_2">
      <!-- Jan -->
      <g style="fill:#262626;" transform="translate(126.334699 390.857812)scale(0.1 -0.1)">
       <defs>
        <path d="M 2.875 20.3125 
L 11.421875 21.484375 
Q 11.765625 13.28125 14.5 10.25 
Q 17.234375 7.234375 22.078125 7.234375 
Q 25.640625 7.234375 28.21875 8.859375 
Q 30.8125 10.5 31.78125 13.296875 
Q 32.765625 16.109375 32.765625 22.265625 
L 32.765625 71.578125 
L 42.234375 71.578125 
L 42.234375 22.796875 
Q 42.234375 13.8125 40.0625 8.875 
Q 37.890625 3.953125 33.171875 1.359375 
Q 28.46875 -1.21875 22.125 -1.21875 
Q 12.703125 -1.21875 7.6875 4.203125 
Q 2.6875 9.625 2.875 20.3125 
z
" id="ArialMT-74"/>
        <path d="M 40.4375 6.390625 
Q 35.546875 2.25 31.03125 0.53125 
Q 26.515625 -1.171875 21.34375 -1.171875 
Q 12.796875 -1.171875 8.203125 3 
Q 3.609375 7.171875 3.609375 13.671875 
Q 3.609375 17.484375 5.34375 20.625 
Q 7.078125 23.78125 9.890625 25.6875 
Q 12.703125 27.59375 16.21875 28.5625 
Q 18.796875 29.25 24.03125 29.890625 
Q 34.671875 31.15625 39.703125 32.90625 
Q 39.75 34.71875 39.75 35.203125 
Q 39.75 40.578125 37.25 42.78125 
Q 33.890625 45.75 27.25 45.75 
Q 21.046875 45.75 18.09375 43.578125 
Q 15.140625 41.40625 13.71875 35.890625 
L 5.125 37.0625 
Q 6.296875 42.578125 8.984375 45.96875 
Q 11.671875 49.359375 16.75 51.1875 
Q 21.828125 53.03125 28.515625 53.03125 
Q 35.15625 53.03125 39.296875 51.46875 
Q 43.453125 49.90625 45.40625 47.53125 
Q 47.359375 45.171875 48.140625 41.546875 
Q 48.578125 39.3125 48.578125 33.453125 
L 48.578125 21.734375 
Q 48.578125 9.46875 49.140625 6.21875 
Q 49.703125 2.984375 51.375 0 
L 42.1875 0 
Q 40.828125 2.734375 40.4375 6.390625 
z
M 39.703125 26.03125 
Q 34.90625 24.078125 25.34375 22.703125 
Q 19.921875 21.921875 17.671875 20.9375 
Q 15.4375 19.96875 14.203125 18.09375 
Q 12.984375 16.21875 12.984375 13.921875 
Q 12.984375 10.40625 15.640625 8.0625 
Q 18.3125 5.71875 23.4375 5.71875 
Q 28.515625 5.71875 32.46875 7.9375 
Q 36.421875 10.15625 38.28125 14.015625 
Q 39.703125 17 39.703125 22.796875 
z
" id="ArialMT-97"/>
        <path d="M 6.59375 0 
L 6.59375 51.859375 
L 14.5 51.859375 
L 14.5 44.484375 
Q 20.21875 53.03125 31 53.03125 
Q 35.6875 53.03125 39.625 51.34375 
Q 43.5625 49.65625 45.515625 46.921875 
Q 47.46875 44.1875 48.25 40.4375 
Q 48.734375 37.984375 48.734375 31.890625 
L 48.734375 0 
L 39.9375 0 
L 39.9375 31.546875 
Q 39.9375 36.921875 38.90625 39.578125 
Q 37.890625 42.234375 35.28125 43.8125 
Q 32.671875 45.40625 29.15625 45.40625 
Q 23.53125 45.40625 19.453125 41.84375 
Q 15.375 38.28125 15.375 28.328125 
L 15.375 0 
z
" id="ArialMT-110"/>
       </defs>
       <use xlink:href="#ArialMT-74"/>
       <use x="50" xlink:href="#ArialMT-97"/>
       <use x="105.615234" xlink:href="#ArialMT-110"/>
      </g>
      <!-- 2015 -->
      <g style="fill:#262626;" transform="translate(123.273761 401.434687)scale(0.1 -0.1)">
       <defs>
        <path d="M 50.34375 8.453125 
L 50.34375 0 
L 3.03125 0 
Q 2.9375 3.171875 4.046875 6.109375 
Q 5.859375 10.9375 9.828125 15.625 
Q 13.8125 20.3125 21.34375 26.46875 
Q 33.015625 36.03125 37.109375 41.625 
Q 41.21875 47.21875 41.21875 52.203125 
Q 41.21875 57.421875 37.46875 61 
Q 33.734375 64.59375 27.734375 64.59375 
Q 21.390625 64.59375 17.578125 60.78125 
Q 13.765625 56.984375 13.71875 50.25 
L 4.6875 51.171875 
Q 5.609375 61.28125 11.65625 66.578125 
Q 17.71875 71.875 27.9375 71.875 
Q 38.234375 71.875 44.234375 66.15625 
Q 50.25 60.453125 50.25 52 
Q 50.25 47.703125 48.484375 43.546875 
Q 46.734375 39.40625 42.65625 34.8125 
Q 38.578125 30.21875 29.109375 22.21875 
Q 21.1875 15.578125 18.9375 13.203125 
Q 16.703125 10.84375 15.234375 8.453125 
z
" id="ArialMT-50"/>
        <path d="M 4.15625 35.296875 
Q 4.15625 48 6.765625 55.734375 
Q 9.375 63.484375 14.515625 67.671875 
Q 19.671875 71.875 27.484375 71.875 
Q 33.25 71.875 37.59375 69.546875 
Q 41.9375 67.234375 44.765625 62.859375 
Q 47.609375 58.5 49.21875 52.21875 
Q 50.828125 45.953125 50.828125 35.296875 
Q 50.828125 22.703125 48.234375 14.96875 
Q 45.65625 7.234375 40.5 3 
Q 35.359375 -1.21875 27.484375 -1.21875 
Q 17.140625 -1.21875 11.234375 6.203125 
Q 4.15625 15.140625 4.15625 35.296875 
z
M 13.1875 35.296875 
Q 13.1875 17.671875 17.3125 11.828125 
Q 21.4375 6 27.484375 6 
Q 33.546875 6 37.671875 11.859375 
Q 41.796875 17.71875 41.796875 35.296875 
Q 41.796875 52.984375 37.671875 58.78125 
Q 33.546875 64.59375 27.390625 64.59375 
Q 21.34375 64.59375 17.71875 59.46875 
Q 13.1875 52.9375 13.1875 35.296875 
z
" id="ArialMT-48"/>
        <path d="M 37.25 0 
L 28.46875 0 
L 28.46875 56 
Q 25.296875 52.984375 20.140625 49.953125 
Q 14.984375 46.921875 10.890625 45.40625 
L 10.890625 53.90625 
Q 18.265625 57.375 23.78125 62.296875 
Q 29.296875 67.234375 31.59375 71.875 
L 37.25 71.875 
z
" id="ArialMT-49"/>
        <path d="M 4.15625 18.75 
L 13.375 19.53125 
Q 14.40625 12.796875 18.140625 9.390625 
Q 21.875 6 27.15625 6 
Q 33.5 6 37.890625 10.78125 
Q 42.28125 15.578125 42.28125 23.484375 
Q 42.28125 31 38.0625 35.34375 
Q 33.84375 39.703125 27 39.703125 
Q 22.75 39.703125 19.328125 37.765625 
Q 15.921875 35.84375 13.96875 32.765625 
L 5.71875 33.84375 
L 12.640625 70.609375 
L 48.25 70.609375 
L 48.25 62.203125 
L 19.671875 62.203125 
L 15.828125 42.96875 
Q 22.265625 47.46875 29.34375 47.46875 
Q 38.71875 47.46875 45.15625 40.96875 
Q 51.609375 34.46875 51.609375 24.265625 
Q 51.609375 14.546875 45.953125 7.46875 
Q 39.0625 -1.21875 27.15625 -1.21875 
Q 17.390625 -1.21875 11.203125 4.25 
Q 5.03125 9.71875 4.15625 18.75 
z
" id="ArialMT-53"/>
       </defs>
       <use xlink:href="#ArialMT-50"/>
       <use x="55.615234" xlink:href="#ArialMT-48"/>
       <use x="111.230469" xlink:href="#ArialMT-49"/>
       <use x="166.845703" xlink:href="#ArialMT-53"/>
      </g>
     </g>
    </g>
    <g id="xtick_4">
     <g id="line2d_7">
      <path clip-path="url(#p67bdd0b944)" d="M 192.248479 380.2 
L 192.248479 54.04 
" style="fill:none;stroke:#cccccc;stroke-linecap:round;stroke-width:0.8;"/>
     </g>
     <g id="line2d_8"/>
     <g id="text_3">
      <!-- Feb -->
      <g style="fill:#262626;" transform="translate(183.633636 390.857812)scale(0.1 -0.1)">
       <defs>
        <path d="M 8.203125 0 
L 8.203125 71.578125 
L 56.5 71.578125 
L 56.5 63.140625 
L 17.671875 63.140625 
L 17.671875 40.96875 
L 51.265625 40.96875 
L 51.265625 32.515625 
L 17.671875 32.515625 
L 17.671875 0 
z
" id="ArialMT-70"/>
        <path d="M 14.703125 0 
L 6.546875 0 
L 6.546875 71.578125 
L 15.328125 71.578125 
L 15.328125 46.046875 
Q 20.90625 53.03125 29.546875 53.03125 
Q 34.328125 53.03125 38.59375 51.09375 
Q 42.875 49.171875 45.625 45.671875 
Q 48.390625 42.1875 49.953125 37.25 
Q 51.515625 32.328125 51.515625 26.703125 
Q 51.515625 13.375 44.921875 6.09375 
Q 38.328125 -1.171875 29.109375 -1.171875 
Q 19.921875 -1.171875 14.703125 6.5 
z
M 14.59375 26.3125 
Q 14.59375 17 17.140625 12.84375 
Q 21.296875 6.0625 28.375 6.0625 
Q 34.125 6.0625 38.328125 11.0625 
Q 42.53125 16.0625 42.53125 25.984375 
Q 42.53125 36.140625 38.5 40.96875 
Q 34.46875 45.796875 28.765625 45.796875 
Q 23 45.796875 18.796875 40.796875 
Q 14.59375 35.796875 14.59375 26.3125 
z
" id="ArialMT-98"/>
       </defs>
       <use xlink:href="#ArialMT-70"/>
       <use x="61.083984" xlink:href="#ArialMT-101"/>
       <use x="116.699219" xlink:href="#ArialMT-98"/>
      </g>
     </g>
    </g>
    <g id="xtick_5">
     <g id="line2d_9">
      <path clip-path="url(#p67bdd0b944)" d="M 244.50266 380.2 
L 244.50266 54.04 
" style="fill:none;stroke:#cccccc;stroke-linecap:round;stroke-width:0.8;"/>
     </g>
     <g id="line2d_10"/>
     <g id="text_4">
      <!-- Mar -->
      <g style="fill:#262626;" transform="translate(235.892504 390.857812)scale(0.1 -0.1)">
       <defs>
        <path d="M 7.421875 0 
L 7.421875 71.578125 
L 21.6875 71.578125 
L 38.625 20.90625 
Q 40.96875 13.8125 42.046875 10.296875 
Q 43.265625 14.203125 45.84375 21.78125 
L 62.984375 71.578125 
L 75.734375 71.578125 
L 75.734375 0 
L 66.609375 0 
L 66.609375 59.90625 
L 45.796875 0 
L 37.25 0 
L 16.546875 60.9375 
L 16.546875 0 
z
" id="ArialMT-77"/>
        <path d="M 6.5 0 
L 6.5 51.859375 
L 14.40625 51.859375 
L 14.40625 44 
Q 17.4375 49.515625 20 51.265625 
Q 22.5625 53.03125 25.640625 53.03125 
Q 30.078125 53.03125 34.671875 50.203125 
L 31.640625 42.046875 
Q 28.421875 43.953125 25.203125 43.953125 
Q 22.3125 43.953125 20.015625 42.21875 
Q 17.71875 40.484375 16.75 37.40625 
Q 15.28125 32.71875 15.28125 27.15625 
L 15.28125 0 
z
" id="ArialMT-114"/>
       </defs>
       <use xlink:href="#ArialMT-77"/>
       <use x="83.300781" xlink:href="#ArialMT-97"/>
       <use x="138.916016" xlink:href="#ArialMT-114"/>
      </g>
     </g>
    </g>
    <g id="xtick_6">
     <g id="line2d_11">
      <path clip-path="url(#p67bdd0b944)" d="M 302.355503 380.2 
L 302.355503 54.04 
" style="fill:none;stroke:#cccccc;stroke-linecap:round;stroke-width:0.8;"/>
     </g>
     <g id="line2d_12"/>
     <g id="text_5">
      <!-- Apr -->
      <g style="fill:#262626;" transform="translate(294.575034 390.857812)scale(0.1 -0.1)">
       <defs>
        <path d="M -0.140625 0 
L 27.34375 71.578125 
L 37.546875 71.578125 
L 66.84375 0 
L 56.0625 0 
L 47.703125 21.6875 
L 17.78125 21.6875 
L 9.90625 0 
z
M 20.515625 29.390625 
L 44.78125 29.390625 
L 37.3125 49.21875 
Q 33.890625 58.25 32.234375 64.0625 
Q 30.859375 57.171875 28.375 50.390625 
z
" id="ArialMT-65"/>
        <path d="M 6.59375 -19.875 
L 6.59375 51.859375 
L 14.59375 51.859375 
L 14.59375 45.125 
Q 17.4375 49.078125 21 51.046875 
Q 24.5625 53.03125 29.640625 53.03125 
Q 36.28125 53.03125 41.359375 49.609375 
Q 46.4375 46.1875 49.015625 39.953125 
Q 51.609375 33.734375 51.609375 26.3125 
Q 51.609375 18.359375 48.75 11.984375 
Q 45.90625 5.609375 40.453125 2.21875 
Q 35.015625 -1.171875 29 -1.171875 
Q 24.609375 -1.171875 21.109375 0.6875 
Q 17.625 2.546875 15.375 5.375 
L 15.375 -19.875 
z
M 14.546875 25.640625 
Q 14.546875 15.625 18.59375 10.84375 
Q 22.65625 6.0625 28.421875 6.0625 
Q 34.28125 6.0625 38.453125 11.015625 
Q 42.625 15.96875 42.625 26.375 
Q 42.625 36.28125 38.546875 41.203125 
Q 34.46875 46.140625 28.8125 46.140625 
Q 23.1875 46.140625 18.859375 40.890625 
Q 14.546875 35.640625 14.546875 25.640625 
z
" id="ArialMT-112"/>
       </defs>
       <use xlink:href="#ArialMT-65"/>
       <use x="66.699219" xlink:href="#ArialMT-112"/>
       <use x="122.314453" xlink:href="#ArialMT-114"/>
      </g>
     </g>
    </g>
    <g id="xtick_7">
     <g id="line2d_13">
      <path clip-path="url(#p67bdd0b944)" d="M 358.342125 380.2 
L 358.342125 54.04 
" style="fill:none;stroke:#cccccc;stroke-linecap:round;stroke-width:0.8;"/>
     </g>
     <g id="line2d_14"/>
     <g id="text_6">
      <!-- May -->
      <g style="fill:#262626;" transform="translate(348.896812 390.857812)scale(0.1 -0.1)">
       <defs>
        <path d="M 6.203125 -19.96875 
L 5.21875 -11.71875 
Q 8.109375 -12.5 10.25 -12.5 
Q 13.1875 -12.5 14.9375 -11.515625 
Q 16.703125 -10.546875 17.828125 -8.796875 
Q 18.65625 -7.46875 20.515625 -2.25 
Q 20.75 -1.515625 21.296875 -0.09375 
L 1.609375 51.859375 
L 11.078125 51.859375 
L 21.875 21.828125 
Q 23.96875 16.109375 25.640625 9.8125 
Q 27.15625 15.875 29.25 21.625 
L 40.328125 51.859375 
L 49.125 51.859375 
L 29.390625 -0.875 
Q 26.21875 -9.421875 24.46875 -12.640625 
Q 22.125 -17 19.09375 -19.015625 
Q 16.0625 -21.046875 11.859375 -21.046875 
Q 9.328125 -21.046875 6.203125 -19.96875 
z
" id="ArialMT-121"/>
       </defs>
       <use xlink:href="#ArialMT-77"/>
       <use x="83.300781" xlink:href="#ArialMT-97"/>
       <use x="138.916016" xlink:href="#ArialMT-121"/>
      </g>
     </g>
    </g>
    <g id="xtick_8">
     <g id="line2d_15">
      <path clip-path="url(#p67bdd0b944)" d="M 416.194968 380.2 
L 416.194968 54.04 
" style="fill:none;stroke:#cccccc;stroke-linecap:round;stroke-width:0.8;"/>
     </g>
     <g id="line2d_16"/>
     <g id="text_7">
      <!-- Jun -->
      <g style="fill:#262626;" transform="translate(408.13403 390.857812)scale(0.1 -0.1)">
       <defs>
        <path d="M 40.578125 0 
L 40.578125 7.625 
Q 34.515625 -1.171875 24.125 -1.171875 
Q 19.53125 -1.171875 15.546875 0.578125 
Q 11.578125 2.34375 9.640625 5 
Q 7.71875 7.671875 6.9375 11.53125 
Q 6.390625 14.109375 6.390625 19.734375 
L 6.390625 51.859375 
L 15.1875 51.859375 
L 15.1875 23.09375 
Q 15.1875 16.21875 15.71875 13.8125 
Q 16.546875 10.359375 19.234375 8.375 
Q 21.921875 6.390625 25.875 6.390625 
Q 29.828125 6.390625 33.296875 8.421875 
Q 36.765625 10.453125 38.203125 13.9375 
Q 39.65625 17.4375 39.65625 24.078125 
L 39.65625 51.859375 
L 48.4375 51.859375 
L 48.4375 0 
z
" id="ArialMT-117"/>
       </defs>
       <use xlink:href="#ArialMT-74"/>
       <use x="50" xlink:href="#ArialMT-117"/>
       <use x="105.615234" xlink:href="#ArialMT-110"/>
      </g>
     </g>
    </g>
    <g id="xtick_9">
     <g id="line2d_17">
      <path clip-path="url(#p67bdd0b944)" d="M 472.18159 380.2 
L 472.18159 54.04 
" style="fill:none;stroke:#cccccc;stroke-linecap:round;stroke-width:0.8;"/>
     </g>
     <g id="line2d_18"/>
     <g id="text_8">
      <!-- Jul -->
      <g style="fill:#262626;" transform="translate(465.790183 390.857812)scale(0.1 -0.1)">
       <defs>
        <path d="M 6.390625 0 
L 6.390625 71.578125 
L 15.1875 71.578125 
L 15.1875 0 
z
" id="ArialMT-108"/>
       </defs>
       <use xlink:href="#ArialMT-74"/>
       <use x="50" xlink:href="#ArialMT-117"/>
       <use x="105.615234" xlink:href="#ArialMT-108"/>
      </g>
     </g>
    </g>
    <g id="xtick_10">
     <g id="line2d_19">
      <path clip-path="url(#p67bdd0b944)" d="M 530.034432 380.2 
L 530.034432 54.04 
" style="fill:none;stroke:#cccccc;stroke-linecap:round;stroke-width:0.8;"/>
     </g>
     <g id="line2d_20"/>
     <g id="text_9">
      <!-- Aug -->
      <g style="fill:#262626;" transform="translate(521.138339 390.857812)scale(0.1 -0.1)">
       <defs>
        <path d="M 4.984375 -4.296875 
L 13.53125 -5.5625 
Q 14.0625 -9.515625 16.5 -11.328125 
Q 19.78125 -13.765625 25.4375 -13.765625 
Q 31.546875 -13.765625 34.859375 -11.328125 
Q 38.1875 -8.890625 39.359375 -4.5 
Q 40.046875 -1.8125 39.984375 6.78125 
Q 34.234375 0 25.640625 0 
Q 14.9375 0 9.078125 7.71875 
Q 3.21875 15.4375 3.21875 26.21875 
Q 3.21875 33.640625 5.90625 39.90625 
Q 8.59375 46.1875 13.6875 49.609375 
Q 18.796875 53.03125 25.6875 53.03125 
Q 34.859375 53.03125 40.828125 45.609375 
L 40.828125 51.859375 
L 48.921875 51.859375 
L 48.921875 7.03125 
Q 48.921875 -5.078125 46.453125 -10.125 
Q 44 -15.1875 38.640625 -18.109375 
Q 33.296875 -21.046875 25.484375 -21.046875 
Q 16.21875 -21.046875 10.5 -16.875 
Q 4.78125 -12.703125 4.984375 -4.296875 
z
M 12.25 26.859375 
Q 12.25 16.65625 16.296875 11.96875 
Q 20.359375 7.28125 26.46875 7.28125 
Q 32.515625 7.28125 36.609375 11.9375 
Q 40.71875 16.609375 40.71875 26.5625 
Q 40.71875 36.078125 36.5 40.90625 
Q 32.28125 45.75 26.3125 45.75 
Q 20.453125 45.75 16.34375 40.984375 
Q 12.25 36.234375 12.25 26.859375 
z
" id="ArialMT-103"/>
       </defs>
       <use xlink:href="#ArialMT-65"/>
       <use x="66.699219" xlink:href="#ArialMT-117"/>
       <use x="122.314453" xlink:href="#ArialMT-103"/>
      </g>
     </g>
    </g>
    <g id="xtick_11">
     <g id="line2d_21">
      <path clip-path="url(#p67bdd0b944)" d="M 587.887275 380.2 
L 587.887275 54.04 
" style="fill:none;stroke:#cccccc;stroke-linecap:round;stroke-width:0.8;"/>
     </g>
     <g id="line2d_22"/>
     <g id="text_10">
      <!-- Sep -->
      <g style="fill:#262626;" transform="translate(578.991182 390.979687)scale(0.1 -0.1)">
       <defs>
        <path d="M 4.5 23 
L 13.421875 23.78125 
Q 14.0625 18.40625 16.375 14.96875 
Q 18.703125 11.53125 23.578125 9.40625 
Q 28.46875 7.28125 34.578125 7.28125 
Q 39.984375 7.28125 44.140625 8.890625 
Q 48.296875 10.5 50.3125 13.296875 
Q 52.34375 16.109375 52.34375 19.4375 
Q 52.34375 22.796875 50.390625 25.3125 
Q 48.4375 27.828125 43.953125 29.546875 
Q 41.0625 30.671875 31.203125 33.03125 
Q 21.34375 35.40625 17.390625 37.5 
Q 12.25 40.1875 9.734375 44.15625 
Q 7.234375 48.140625 7.234375 53.078125 
Q 7.234375 58.5 10.296875 63.203125 
Q 13.375 67.921875 19.28125 70.359375 
Q 25.203125 72.796875 32.421875 72.796875 
Q 40.375 72.796875 46.453125 70.234375 
Q 52.546875 67.671875 55.8125 62.6875 
Q 59.078125 57.71875 59.328125 51.421875 
L 50.25 50.734375 
Q 49.515625 57.515625 45.28125 60.984375 
Q 41.0625 64.453125 32.8125 64.453125 
Q 24.21875 64.453125 20.28125 61.296875 
Q 16.359375 58.15625 16.359375 53.71875 
Q 16.359375 49.859375 19.140625 47.359375 
Q 21.875 44.875 33.421875 42.265625 
Q 44.96875 39.65625 49.265625 37.703125 
Q 55.515625 34.8125 58.484375 30.390625 
Q 61.46875 25.984375 61.46875 20.21875 
Q 61.46875 14.5 58.203125 9.4375 
Q 54.9375 4.390625 48.796875 1.578125 
Q 42.671875 -1.21875 35.015625 -1.21875 
Q 25.296875 -1.21875 18.71875 1.609375 
Q 12.15625 4.4375 8.421875 10.125 
Q 4.6875 15.828125 4.5 23 
z
" id="ArialMT-83"/>
       </defs>
       <use xlink:href="#ArialMT-83"/>
       <use x="66.699219" xlink:href="#ArialMT-101"/>
       <use x="122.314453" xlink:href="#ArialMT-112"/>
      </g>
     </g>
    </g>
    <g id="xtick_12">
     <g id="line2d_23">
      <path clip-path="url(#p67bdd0b944)" d="M 593.485938 380.2 
L 593.485938 54.04 
" style="fill:none;stroke:#cccccc;stroke-linecap:round;stroke-width:0.8;"/>
     </g>
     <g id="line2d_24"/>
    </g>
    <g id="xtick_13">
     <g id="line2d_25"/>
    </g>
    <g id="xtick_14">
     <g id="line2d_26"/>
    </g>
    <g id="xtick_15">
     <g id="line2d_27"/>
    </g>
    <g id="xtick_16">
     <g id="line2d_28"/>
    </g>
    <g id="xtick_17">
     <g id="line2d_29"/>
    </g>
    <g id="xtick_18">
     <g id="line2d_30"/>
    </g>
    <g id="xtick_19">
     <g id="line2d_31"/>
    </g>
    <g id="xtick_20">
     <g id="line2d_32"/>
    </g>
    <g id="xtick_21">
     <g id="line2d_33"/>
    </g>
    <g id="xtick_22">
     <g id="line2d_34"/>
    </g>
    <g id="xtick_23">
     <g id="line2d_35"/>
    </g>
    <g id="xtick_24">
     <g id="line2d_36"/>
    </g>
    <g id="xtick_25">
     <g id="line2d_37"/>
    </g>
    <g id="xtick_26">
     <g id="line2d_38"/>
    </g>
    <g id="xtick_27">
     <g id="line2d_39"/>
    </g>
    <g id="xtick_28">
     <g id="line2d_40"/>
    </g>
    <g id="xtick_29">
     <g id="line2d_41"/>
    </g>
    <g id="xtick_30">
     <g id="line2d_42"/>
    </g>
    <g id="xtick_31">
     <g id="line2d_43"/>
    </g>
    <g id="xtick_32">
     <g id="line2d_44"/>
    </g>
    <g id="xtick_33">
     <g id="line2d_45"/>
    </g>
    <g id="xtick_34">
     <g id="line2d_46"/>
    </g>
    <g id="xtick_35">
     <g id="line2d_47"/>
    </g>
    <g id="xtick_36">
     <g id="line2d_48"/>
    </g>
    <g id="xtick_37">
     <g id="line2d_49"/>
    </g>
    <g id="xtick_38">
     <g id="line2d_50"/>
    </g>
    <g id="xtick_39">
     <g id="line2d_51"/>
    </g>
    <g id="xtick_40">
     <g id="line2d_52"/>
    </g>
    <g id="xtick_41">
     <g id="line2d_53"/>
    </g>
    <g id="xtick_42">
     <g id="line2d_54"/>
    </g>
    <g id="xtick_43">
     <g id="line2d_55"/>
    </g>
    <g id="xtick_44">
     <g id="line2d_56"/>
    </g>
    <g id="xtick_45">
     <g id="line2d_57"/>
    </g>
    <g id="xtick_46">
     <g id="line2d_58"/>
    </g>
    <g id="xtick_47">
     <g id="line2d_59"/>
    </g>
    <g id="xtick_48">
     <g id="line2d_60"/>
    </g>
    <g id="xtick_49">
     <g id="line2d_61"/>
    </g>
    <g id="xtick_50">
     <g id="line2d_62"/>
    </g>
    <g id="xtick_51">
     <g id="line2d_63"/>
    </g>
    <g id="xtick_52">
     <g id="line2d_64"/>
    </g>
    <g id="xtick_53">
     <g id="line2d_65"/>
    </g>
    <g id="text_11">
     <!-- ds -->
     <g style="fill:#262626;" transform="translate(309.205469 414.58)scale(0.1 -0.1)">
      <defs>
       <path d="M 40.234375 0 
L 40.234375 6.546875 
Q 35.296875 -1.171875 25.734375 -1.171875 
Q 19.53125 -1.171875 14.328125 2.25 
Q 9.125 5.671875 6.265625 11.796875 
Q 3.421875 17.921875 3.421875 25.875 
Q 3.421875 33.640625 6 39.96875 
Q 8.59375 46.296875 13.765625 49.65625 
Q 18.953125 53.03125 25.34375 53.03125 
Q 30.03125 53.03125 33.6875 51.046875 
Q 37.359375 49.078125 39.65625 45.90625 
L 39.65625 71.578125 
L 48.390625 71.578125 
L 48.390625 0 
z
M 12.453125 25.875 
Q 12.453125 15.921875 16.640625 10.984375 
Q 20.84375 6.0625 26.5625 6.0625 
Q 32.328125 6.0625 36.34375 10.765625 
Q 40.375 15.484375 40.375 25.140625 
Q 40.375 35.796875 36.265625 40.765625 
Q 32.171875 45.75 26.171875 45.75 
Q 20.3125 45.75 16.375 40.96875 
Q 12.453125 36.1875 12.453125 25.875 
z
" id="ArialMT-100"/>
       <path d="M 3.078125 15.484375 
L 11.765625 16.84375 
Q 12.5 11.625 15.84375 8.84375 
Q 19.1875 6.0625 25.203125 6.0625 
Q 31.25 6.0625 34.171875 8.515625 
Q 37.109375 10.984375 37.109375 14.3125 
Q 37.109375 17.28125 34.515625 19 
Q 32.71875 20.171875 25.53125 21.96875 
Q 15.875 24.421875 12.140625 26.203125 
Q 8.40625 27.984375 6.46875 31.125 
Q 4.546875 34.28125 4.546875 38.09375 
Q 4.546875 41.546875 6.125 44.5 
Q 7.71875 47.46875 10.453125 49.421875 
Q 12.5 50.921875 16.03125 51.96875 
Q 19.578125 53.03125 23.640625 53.03125 
Q 29.734375 53.03125 34.34375 51.265625 
Q 38.96875 49.515625 41.15625 46.5 
Q 43.359375 43.5 44.1875 38.484375 
L 35.59375 37.3125 
Q 35.015625 41.3125 32.203125 43.546875 
Q 29.390625 45.796875 24.265625 45.796875 
Q 18.21875 45.796875 15.625 43.796875 
Q 13.03125 41.796875 13.03125 39.109375 
Q 13.03125 37.40625 14.109375 36.03125 
Q 15.1875 34.625 17.484375 33.6875 
Q 18.796875 33.203125 25.25 31.453125 
Q 34.578125 28.953125 38.25 27.359375 
Q 41.9375 25.78125 44.03125 22.75 
Q 46.140625 19.734375 46.140625 15.234375 
Q 46.140625 10.84375 43.578125 6.953125 
Q 41.015625 3.078125 36.171875 0.953125 
Q 31.34375 -1.171875 25.25 -1.171875 
Q 15.140625 -1.171875 9.84375 3.03125 
Q 4.546875 7.234375 3.078125 15.484375 
z
" id="ArialMT-115"/>
      </defs>
      <use xlink:href="#ArialMT-100"/>
      <use x="55.615234" xlink:href="#ArialMT-115"/>
     </g>
    </g>
   </g>
   <g id="matplotlib.axis_2">
    <g id="ytick_1">
     <g id="line2d_66">
      <path clip-path="url(#p67bdd0b944)" d="M 35.485938 364.36699 
L 593.485937 364.36699 
" style="fill:none;stroke:#cccccc;stroke-linecap:round;stroke-width:0.8;"/>
     </g>
     <g id="line2d_67"/>
     <g id="text_12">
      <!-- −5 -->
      <g style="fill:#262626;" transform="translate(20.584375 367.945897)scale(0.1 -0.1)">
       <defs>
        <path d="M 52.828125 31.203125 
L 5.5625 31.203125 
L 5.5625 39.40625 
L 52.828125 39.40625 
z
" id="ArialMT-8722"/>
       </defs>
       <use xlink:href="#ArialMT-8722"/>
       <use x="58.398438" xlink:href="#ArialMT-53"/>
      </g>
     </g>
    </g>
    <g id="ytick_2">
     <g id="line2d_68">
      <path clip-path="url(#p67bdd0b944)" d="M 35.485938 292.398764 
L 593.485937 292.398764 
" style="fill:none;stroke:#cccccc;stroke-linecap:round;stroke-width:0.8;"/>
     </g>
     <g id="line2d_69"/>
     <g id="text_13">
      <!-- 0 -->
      <g style="fill:#262626;" transform="translate(26.425 295.977671)scale(0.1 -0.1)">
       <use xlink:href="#ArialMT-48"/>
      </g>
     </g>
    </g>
    <g id="ytick_3">
     <g id="line2d_70">
      <path clip-path="url(#p67bdd0b944)" d="M 35.485938 220.430538 
L 593.485937 220.430538 
" style="fill:none;stroke:#cccccc;stroke-linecap:round;stroke-width:0.8;"/>
     </g>
     <g id="line2d_71"/>
     <g id="text_14">
      <!-- 5 -->
      <g style="fill:#262626;" transform="translate(26.425 224.009445)scale(0.1 -0.1)">
       <use xlink:href="#ArialMT-53"/>
      </g>
     </g>
    </g>
    <g id="ytick_4">
     <g id="line2d_72">
      <path clip-path="url(#p67bdd0b944)" d="M 35.485938 148.462312 
L 593.485937 148.462312 
" style="fill:none;stroke:#cccccc;stroke-linecap:round;stroke-width:0.8;"/>
     </g>
     <g id="line2d_73"/>
     <g id="text_15">
      <!-- 10 -->
      <g style="fill:#262626;" transform="translate(20.864063 152.041219)scale(0.1 -0.1)">
       <use xlink:href="#ArialMT-49"/>
       <use x="55.615234" xlink:href="#ArialMT-48"/>
      </g>
     </g>
    </g>
    <g id="ytick_5">
     <g id="line2d_74">
      <path clip-path="url(#p67bdd0b944)" d="M 35.485938 76.494086 
L 593.485937 76.494086 
" style="fill:none;stroke:#cccccc;stroke-linecap:round;stroke-width:0.8;"/>
     </g>
     <g id="line2d_75"/>
     <g id="text_16">
      <!-- 15 -->
      <g style="fill:#262626;" transform="translate(20.864063 80.072993)scale(0.1 -0.1)">
       <use xlink:href="#ArialMT-49"/>
       <use x="55.615234" xlink:href="#ArialMT-53"/>
      </g>
     </g>
    </g>
    <g id="text_17">
     <!-- Temp (°C) -->
     <g style="fill:#262626;" transform="translate(14.479688 239.672344)rotate(-90)scale(0.1 -0.1)">
      <defs>
       <path d="M 25.921875 0 
L 25.921875 63.140625 
L 2.34375 63.140625 
L 2.34375 71.578125 
L 59.078125 71.578125 
L 59.078125 63.140625 
L 35.40625 63.140625 
L 35.40625 0 
z
" id="ArialMT-84"/>
       <path d="M 6.59375 0 
L 6.59375 51.859375 
L 14.453125 51.859375 
L 14.453125 44.578125 
Q 16.890625 48.390625 20.9375 50.703125 
Q 25 53.03125 30.171875 53.03125 
Q 35.9375 53.03125 39.625 50.640625 
Q 43.3125 48.25 44.828125 43.953125 
Q 50.984375 53.03125 60.84375 53.03125 
Q 68.5625 53.03125 72.703125 48.75 
Q 76.859375 44.484375 76.859375 35.59375 
L 76.859375 0 
L 68.109375 0 
L 68.109375 32.671875 
Q 68.109375 37.9375 67.25 40.25 
Q 66.40625 42.578125 64.15625 43.984375 
Q 61.921875 45.40625 58.890625 45.40625 
Q 53.421875 45.40625 49.796875 41.765625 
Q 46.1875 38.140625 46.1875 30.125 
L 46.1875 0 
L 37.40625 0 
L 37.40625 33.6875 
Q 37.40625 39.546875 35.25 42.46875 
Q 33.109375 45.40625 28.21875 45.40625 
Q 24.515625 45.40625 21.359375 43.453125 
Q 18.21875 41.5 16.796875 37.734375 
Q 15.375 33.984375 15.375 26.90625 
L 15.375 0 
z
" id="ArialMT-109"/>
       <path id="ArialMT-32"/>
       <path d="M 23.390625 -21.046875 
Q 16.109375 -11.859375 11.078125 0.4375 
Q 6.0625 12.75 6.0625 25.921875 
Q 6.0625 37.546875 9.8125 48.1875 
Q 14.203125 60.546875 23.390625 72.796875 
L 29.6875 72.796875 
Q 23.78125 62.640625 21.875 58.296875 
Q 18.890625 51.5625 17.1875 44.234375 
Q 15.09375 35.109375 15.09375 25.875 
Q 15.09375 2.390625 29.6875 -21.046875 
z
" id="ArialMT-40"/>
       <path d="M 6.25 59.28125 
Q 6.25 64.890625 10.21875 68.84375 
Q 14.203125 72.796875 19.78125 72.796875 
Q 25.4375 72.796875 29.390625 68.84375 
Q 33.34375 64.890625 33.34375 59.28125 
Q 33.34375 53.65625 29.359375 49.671875 
Q 25.390625 45.703125 19.78125 45.703125 
Q 14.203125 45.703125 10.21875 49.65625 
Q 6.25 53.609375 6.25 59.28125 
z
M 11.578125 59.28125 
Q 11.578125 55.859375 13.984375 53.4375 
Q 16.40625 51.03125 19.828125 51.03125 
Q 23.1875 51.03125 25.609375 53.4375 
Q 28.03125 55.859375 28.03125 59.28125 
Q 28.03125 62.703125 25.609375 65.109375 
Q 23.1875 67.53125 19.828125 67.53125 
Q 16.40625 67.53125 13.984375 65.109375 
Q 11.578125 62.703125 11.578125 59.28125 
z
" id="ArialMT-176"/>
       <path d="M 58.796875 25.09375 
L 68.265625 22.703125 
Q 65.28125 11.03125 57.546875 4.90625 
Q 49.8125 -1.21875 38.625 -1.21875 
Q 27.046875 -1.21875 19.796875 3.484375 
Q 12.546875 8.203125 8.765625 17.140625 
Q 4.984375 26.078125 4.984375 36.328125 
Q 4.984375 47.515625 9.25 55.828125 
Q 13.53125 64.15625 21.40625 68.46875 
Q 29.296875 72.796875 38.765625 72.796875 
Q 49.515625 72.796875 56.828125 67.328125 
Q 64.15625 61.859375 67.046875 51.953125 
L 57.71875 49.75 
Q 55.21875 57.5625 50.484375 61.125 
Q 45.75 64.703125 38.578125 64.703125 
Q 30.328125 64.703125 24.78125 60.734375 
Q 19.234375 56.78125 16.984375 50.109375 
Q 14.75 43.453125 14.75 36.375 
Q 14.75 27.25 17.40625 20.4375 
Q 20.0625 13.625 25.671875 10.25 
Q 31.296875 6.890625 37.84375 6.890625 
Q 45.796875 6.890625 51.3125 11.46875 
Q 56.84375 16.0625 58.796875 25.09375 
z
" id="ArialMT-67"/>
       <path d="M 12.359375 -21.046875 
L 6.0625 -21.046875 
Q 20.65625 2.390625 20.65625 25.875 
Q 20.65625 35.0625 18.5625 44.09375 
Q 16.890625 51.421875 13.921875 58.15625 
Q 12.015625 62.546875 6.0625 72.796875 
L 12.359375 72.796875 
Q 21.53125 60.546875 25.921875 48.1875 
Q 29.6875 37.546875 29.6875 25.921875 
Q 29.6875 12.75 24.625 0.4375 
Q 19.578125 -11.859375 12.359375 -21.046875 
z
" id="ArialMT-41"/>
      </defs>
      <use xlink:href="#ArialMT-84"/>
      <use x="49.958984" xlink:href="#ArialMT-101"/>
      <use x="105.574219" xlink:href="#ArialMT-109"/>
      <use x="188.875" xlink:href="#ArialMT-112"/>
      <use x="244.490234" xlink:href="#ArialMT-32"/>
      <use x="272.273438" xlink:href="#ArialMT-40"/>
      <use x="305.574219" xlink:href="#ArialMT-176"/>
      <use x="345.564453" xlink:href="#ArialMT-67"/>
      <use x="417.78125" xlink:href="#ArialMT-41"/>
     </g>
    </g>
   </g>
   <g id="line2d_76">
    <path clip-path="url(#p67bdd0b944)" d="M 406.863864 144.677712 
L 408.730085 156.932406 
L 410.596305 150.651611 
L 412.462526 146.160845 
L 414.328747 147.462466 
L 416.194968 151.364147 
L 418.061188 153.679042 
L 419.927409 154.64255 
L 421.79363 154.942275 
L 423.659851 155.466467 
L 425.526071 156.448185 
L 427.392292 157.527925 
L 429.258513 158.507868 
L 431.124733 159.341979 
L 432.990954 160.101501 
L 434.857175 160.862206 
L 436.723396 161.63013 
L 438.589616 162.386242 
L 440.455837 163.113286 
L 442.322058 163.808338 
L 444.188279 164.478646 
L 446.054499 165.129699 
L 447.92072 165.762924 
L 449.786941 166.377375 
L 451.653162 166.972202 
L 453.519382 167.547827 
L 455.385603 168.10528 
L 457.251824 168.645499 
L 459.118045 169.169087 
L 460.984265 169.676436 
L 462.850486 170.16795 
L 464.716707 170.644105 
L 466.582927 171.105412 
L 468.449148 171.552364 
L 470.315369 171.985412 
L 472.18159 172.404979 
L 474.04781 172.811477 
L 475.914031 173.205312 
L 477.780252 173.586882 
L 479.646473 173.956569 
L 481.512693 174.314744 
L 483.378914 174.661766 
L 485.245135 174.997981 
L 487.111356 175.323725 
L 488.977576 175.639325 
L 490.843797 175.945097 
L 492.710018 176.241347 
L 494.576239 176.52837 
L 496.442459 176.806456 
L 498.30868 177.075881 
L 500.174901 177.336916 
L 502.041121 177.589822 
L 503.907342 177.834852 
L 505.773563 178.072252 
L 507.639784 178.302258 
L 509.506004 178.525102 
L 511.372225 178.741006 
L 513.238446 178.950186 
L 515.104667 179.152852 
L 516.970887 179.349207 
L 518.837108 179.539447 
L 520.703329 179.723763 
L 522.56955 179.902339 
L 524.43577 180.075353 
L 526.301991 180.24298 
L 528.168212 180.405386 
L 530.034432 180.562735 
L 531.900653 180.715184 
L 533.766874 180.862885 
L 535.633095 181.005987 
L 537.499315 181.144632 
L 539.365536 181.278959 
L 541.231757 181.409104 
L 543.097978 181.535195 
L 544.964198 181.65736 
L 546.830419 181.77572 
L 548.69664 181.890395 
L 550.562861 182.001498 
L 552.429081 182.109141 
L 554.295302 182.213432 
L 556.161523 182.314476 
L 558.027744 182.412372 
L 559.893964 182.50722 
L 561.760185 182.599115 
L 563.626406 182.688147 
L 565.492626 182.774407 
L 567.358847 182.857981 
L 569.225068 182.938952 
L 571.091289 183.017401 
L 572.957509 183.093408 
L 574.82373 183.167047 
L 576.689951 183.238394 
L 578.556172 183.307518 
L 580.422392 183.37449 
L 582.288613 183.439376 
L 584.154834 183.502241 
L 586.021055 183.563149 
L 587.887275 183.62216 
L 589.753496 183.679333 
L 591.619717 183.734726 
L 593.485938 183.788394 
" style="fill:none;stroke:#1f77b4;stroke-linecap:round;stroke-width:1.5;"/>
   </g>
   <g id="line2d_77">
    <path clip-path="url(#p67bdd0b944)" d="M 406.863864 160.121165 
L 408.730085 156.466123 
L 410.596305 149.99589 
L 412.462526 145.44511 
L 414.328747 146.731343 
L 416.194968 150.558608 
L 418.061188 152.714602 
L 419.927409 153.527904 
L 421.79363 153.708948 
L 423.659851 154.144034 
L 425.526071 155.041029 
L 427.392292 156.024873 
L 429.258513 156.904147 
L 431.124733 157.640235 
L 432.990954 158.308856 
L 434.857175 158.984231 
L 436.723396 159.668995 
L 438.589616 160.343011 
L 440.455837 160.989408 
L 442.322058 161.606224 
L 444.188279 162.201036 
L 446.054499 162.779046 
L 447.92072 163.341325 
L 449.786941 163.886734 
L 451.653162 164.414422 
L 453.519382 164.924868 
L 455.385603 165.419076 
L 457.251824 165.897924 
L 459.118045 166.361905 
L 460.984265 166.811363 
L 462.850486 167.246655 
L 464.716707 167.668221 
L 466.582927 168.076539 
L 468.449148 168.472037 
L 470.315369 168.855113 
L 472.18159 169.226163 
L 474.04781 169.585546 
L 475.914031 169.933645 
L 477.780252 170.270804 
L 479.646473 170.597366 
L 481.512693 170.913673 
L 483.378914 171.220043 
L 485.245135 171.51679 
L 487.111356 171.804216 
L 488.977576 172.082597 
L 490.843797 172.352247 
L 492.710018 172.613414 
L 494.576239 172.866386 
L 496.442459 173.111411 
L 498.30868 173.348734 
L 500.174901 173.578604 
L 502.041121 173.801253 
L 503.907342 174.016902 
L 505.773563 174.225784 
L 507.639784 174.428104 
L 509.506004 174.624055 
L 511.372225 174.813856 
L 513.238446 174.997686 
L 515.104667 175.17575 
L 516.970887 175.348215 
L 518.837108 175.51527 
L 520.703329 175.677069 
L 522.56955 175.833788 
L 524.43577 175.98558 
L 526.301991 176.132608 
L 528.168212 176.27501 
L 530.034432 176.412938 
L 531.900653 176.546541 
L 533.766874 176.675944 
L 535.633095 176.801284 
L 537.499315 176.922684 
L 539.365536 177.040268 
L 541.231757 177.15416 
L 543.097978 177.264469 
L 544.964198 177.371312 
L 546.830419 177.474806 
L 548.69664 177.575032 
L 550.562861 177.672115 
L 552.429081 177.766151 
L 554.295302 177.857236 
L 556.161523 177.945451 
L 558.027744 178.030901 
L 559.893964 178.11366 
L 561.760185 178.193832 
L 563.626406 178.271478 
L 565.492626 178.34668 
L 567.358847 178.419522 
L 569.225068 178.490078 
L 571.091289 178.558424 
L 572.957509 178.624614 
L 574.82373 178.688726 
L 576.689951 178.750826 
L 578.556172 178.81097 
L 580.422392 178.869227 
L 582.288613 178.925651 
L 584.154834 178.980305 
L 586.021055 179.033249 
L 587.887275 179.084519 
L 589.753496 179.134183 
L 591.619717 179.182288 
L 593.485938 179.228877 
" style="fill:none;stroke:#ff7f0e;stroke-linecap:round;stroke-width:1.5;"/>
   </g>
   <g id="line2d_78">
    <path clip-path="url(#p67bdd0b944)" d="M 35.485938 257.997952 
L 37.352158 251.808685 
L 39.218379 197.544643 
L 41.0846 208.19594 
L 42.95082 200.567308 
L 44.817041 174.083001 
L 46.683262 202.870291 
L 48.549483 187.037282 
L 50.415703 210.067114 
L 52.281924 176.817793 
L 54.148145 223.309267 
L 56.014366 221.725966 
L 57.880586 229.930344 
L 59.746807 226.907679 
L 61.613028 246.3391 
L 63.479249 209.347432 
L 65.345469 281.459594 
L 67.21169 267.785631 
L 69.077911 284.482259 
L 70.944131 250.225384 
L 74.676573 276.133945 
L 76.542794 285.777688 
L 78.409014 326.511703 
L 80.275235 339.178111 
L 82.141456 324.352657 
L 84.007677 291.535146 
L 85.873897 261.884237 
L 89.606339 249.793575 
L 91.47256 332.557034 
L 93.33878 302.33038 
L 95.205001 255.694969 
L 97.071222 246.3391 
L 98.937443 157.386372 
L 100.803663 258.861571 
L 102.669884 271.096169 
L 104.536105 219.279047 
L 106.402325 245.90729 
L 108.268546 209.779241 
L 110.134767 105.56925 
L 112.000988 214.097335 
L 113.867208 244.467926 
L 115.733429 197.544643 
L 117.59965 155.515199 
L 119.465871 156.954563 
L 121.332091 217.983619 
L 123.198312 257.566143 
L 125.064533 355.586867 
L 126.930754 358.033786 
L 128.796974 337.306937 
L 130.663195 365.374545 
L 132.529416 270.376487 
L 134.395636 262.747855 
L 136.261857 266.922012 
L 138.128078 238.710468 
L 139.994299 268.505313 
L 141.860519 255.982842 
L 143.72674 290.239718 
L 145.592961 278.292992 
L 147.459182 290.9594 
L 149.325402 226.619806 
L 151.191623 180.416205 
L 153.057844 235.975675 
L 154.924065 232.809073 
L 156.790285 194.521977 
L 158.656506 148.318376 
L 160.522727 276.565755 
L 162.388948 189.916011 
L 164.255168 224.316823 
L 166.121389 302.33038 
L 167.98761 318.019453 
L 169.85383 282.898959 
L 171.720051 297.86835 
L 173.586272 318.883071 
L 175.452493 311.25444 
L 177.318713 319.170944 
L 179.184934 289.088226 
L 181.051155 278.005119 
L 182.917376 264.619029 
L 184.783596 261.020618 
L 186.649817 251.808685 
L 188.516038 267.065949 
L 190.382259 300.315269 
L 192.248479 310.246884 
L 194.1147 317.299771 
L 195.980921 292.254828 
L 197.847142 302.042507 
L 199.713362 325.216275 
L 201.579583 329.390432 
L 203.445804 352.996011 
L 205.312024 266.778076 
L 207.178245 293.40632 
L 209.044466 235.831739 
L 210.910687 233.384819 
L 212.776907 326.367767 
L 214.643128 321.473928 
L 216.509349 318.739135 
L 218.37557 317.875516 
L 220.24179 264.331156 
L 222.108011 302.618252 
L 223.974232 273.11128 
L 225.840453 318.163389 
L 227.706673 335.435763 
L 229.572894 211.794351 
L 231.439115 285.633751 
L 233.305335 314.852851 
L 235.171556 262.316046 
L 237.037777 259.437317 
L 238.903998 312.549868 
L 240.770218 276.565755 
L 242.636439 274.262771 
L 244.50266 289.663972 
L 246.368881 210.21105 
L 248.235101 253.823795 
L 250.101322 259.72519 
L 251.967543 250.513257 
L 253.833764 239.861959 
L 255.699984 232.5212 
L 257.566205 227.627361 
L 259.432426 194.378041 
L 261.298647 271.959788 
L 263.164867 224.748632 
L 265.031088 217.983619 
L 266.897309 270.376487 
L 268.763529 278.005119 
L 270.62975 255.982842 
L 272.495971 252.81624 
L 274.362192 192.075057 
L 276.228412 175.522365 
L 278.094633 217.695746 
L 279.960854 264.619029 
L 281.827075 278.868738 
L 283.693295 241.87707 
L 285.559516 319.170944 
L 287.425737 247.778464 
L 289.291958 257.422207 
L 291.158178 148.750185 
L 293.024399 204.597529 
L 294.89062 209.923177 
L 296.756841 177.249603 
L 298.623061 178.688967 
L 300.489282 239.718023 
L 302.355503 235.975675 
L 304.221723 270.66436 
L 306.087944 257.854016 
L 307.954165 298.588032 
L 309.820386 276.565755 
L 311.686606 261.7403 
L 313.552827 233.960565 
L 315.419048 187.325154 
L 317.285269 177.681412 
L 319.151489 176.673857 
L 321.01771 154.939453 
L 322.883931 108.016169 
L 324.750152 141.26549 
L 326.616372 244.323989 
L 328.482593 109.887343 
L 330.348814 76.35015 
L 332.215034 168.325543 
L 334.081255 208.052004 
L 335.947476 266.058394 
L 337.813697 215.248826 
L 339.679917 135.364095 
L 341.546138 144.000282 
L 343.412359 244.323989 
L 345.27858 185.597917 
L 347.1448 144.000282 
L 349.011021 98.6603 
L 350.877242 150.621359 
L 352.743463 213.665525 
L 354.609683 230.074281 
L 356.475904 174.226937 
L 360.208346 189.628138 
L 362.074566 173.939064 
L 363.940787 104.273822 
L 365.807008 87.72113 
L 367.673228 75.054722 
L 369.539449 138.674634 
L 371.40567 175.666302 
L 373.271891 86.281765 
L 375.138111 125.864289 
L 377.004332 170.628526 
L 378.870553 68.865455 
L 380.736774 105.857123 
L 382.602994 106.288932 
L 384.469215 162.424148 
L 386.335436 169.333098 
L 388.201657 121.978005 
L 390.067877 171.348208 
L 391.934098 84.266655 
L 393.800319 136.515587 
L 395.66654 172.931509 
L 397.53276 188.188773 
L 401.265202 107.440424 
L 403.131422 101.539029 
L 404.997643 136.515587 
L 406.863864 160.121165 
L 406.863864 160.121165 
" style="fill:none;stroke:#2ca02c;stroke-linecap:round;stroke-width:1.5;"/>
   </g>
   <g id="patch_3">
    <path d="M 35.485938 380.2 
L 35.485938 54.04 
" style="fill:none;stroke:#cccccc;stroke-linecap:square;stroke-linejoin:miter;"/>
   </g>
   <g id="patch_4">
    <path d="M 593.485937 380.2 
L 593.485937 54.04 
" style="fill:none;stroke:#cccccc;stroke-linecap:square;stroke-linejoin:miter;"/>
   </g>
   <g id="patch_5">
    <path d="M 35.485938 380.2 
L 593.485938 380.2 
" style="fill:none;stroke:#cccccc;stroke-linecap:square;stroke-linejoin:miter;"/>
   </g>
   <g id="patch_6">
    <path d="M 35.485938 54.04 
L 593.485938 54.04 
" style="fill:none;stroke:#cccccc;stroke-linecap:square;stroke-linejoin:miter;"/>
   </g>
  </g>
  <g id="legend_1">
   <g id="line2d_79">
    <path d="M 599.015625 12.657813 
L 619.015625 12.657813 
" style="fill:none;stroke:#1f77b4;stroke-linecap:round;stroke-width:1.5;"/>
   </g>
   <g id="line2d_80"/>
   <g id="text_18">
    <!-- ARIMA -->
    <g style="fill:#262626;" transform="translate(627.015625 16.157813)scale(0.1 -0.1)">
     <defs>
      <path d="M 7.859375 0 
L 7.859375 71.578125 
L 39.59375 71.578125 
Q 49.171875 71.578125 54.140625 69.640625 
Q 59.125 67.71875 62.109375 62.828125 
Q 65.09375 57.953125 65.09375 52.046875 
Q 65.09375 44.4375 60.15625 39.203125 
Q 55.21875 33.984375 44.921875 32.5625 
Q 48.6875 30.765625 50.640625 29 
Q 54.78125 25.203125 58.5 19.484375 
L 70.953125 0 
L 59.03125 0 
L 49.5625 14.890625 
Q 45.40625 21.34375 42.71875 24.75 
Q 40.046875 28.171875 37.921875 29.53125 
Q 35.796875 30.90625 33.59375 31.453125 
Q 31.984375 31.78125 28.328125 31.78125 
L 17.328125 31.78125 
L 17.328125 0 
z
M 17.328125 39.984375 
L 37.703125 39.984375 
Q 44.1875 39.984375 47.84375 41.328125 
Q 51.515625 42.671875 53.421875 45.625 
Q 55.328125 48.578125 55.328125 52.046875 
Q 55.328125 57.125 51.640625 60.390625 
Q 47.953125 63.671875 39.984375 63.671875 
L 17.328125 63.671875 
z
" id="ArialMT-82"/>
      <path d="M 9.328125 0 
L 9.328125 71.578125 
L 18.796875 71.578125 
L 18.796875 0 
z
" id="ArialMT-73"/>
     </defs>
     <use xlink:href="#ArialMT-65"/>
     <use x="66.699219" xlink:href="#ArialMT-82"/>
     <use x="138.916016" xlink:href="#ArialMT-73"/>
     <use x="166.699219" xlink:href="#ArialMT-77"/>
     <use x="250" xlink:href="#ArialMT-65"/>
    </g>
   </g>
   <g id="line2d_81">
    <path d="M 599.015625 26.803125 
L 619.015625 26.803125 
" style="fill:none;stroke:#ff7f0e;stroke-linecap:round;stroke-width:1.5;"/>
   </g>
   <g id="line2d_82"/>
   <g id="text_19">
    <!-- np -->
    <g style="fill:#262626;" transform="translate(627.015625 30.303125)scale(0.1 -0.1)">
     <use xlink:href="#ArialMT-110"/>
     <use x="55.615234" xlink:href="#ArialMT-112"/>
    </g>
   </g>
   <g id="line2d_83">
    <path d="M 599.015625 40.948438 
L 619.015625 40.948438 
" style="fill:none;stroke:#2ca02c;stroke-linecap:round;stroke-width:1.5;"/>
   </g>
   <g id="line2d_84"/>
   <g id="text_20">
    <!-- actual -->
    <g style="fill:#262626;" transform="translate(627.015625 44.448438)scale(0.1 -0.1)">
     <defs>
      <path d="M 25.78125 7.859375 
L 27.046875 0.09375 
Q 23.34375 -0.6875 20.40625 -0.6875 
Q 15.625 -0.6875 12.984375 0.828125 
Q 10.359375 2.34375 9.28125 4.8125 
Q 8.203125 7.28125 8.203125 15.1875 
L 8.203125 45.015625 
L 1.765625 45.015625 
L 1.765625 51.859375 
L 8.203125 51.859375 
L 8.203125 64.703125 
L 16.9375 69.96875 
L 16.9375 51.859375 
L 25.78125 51.859375 
L 25.78125 45.015625 
L 16.9375 45.015625 
L 16.9375 14.703125 
Q 16.9375 10.9375 17.40625 9.859375 
Q 17.875 8.796875 18.921875 8.15625 
Q 19.96875 7.515625 21.921875 7.515625 
Q 23.390625 7.515625 25.78125 7.859375 
z
" id="ArialMT-116"/>
     </defs>
     <use xlink:href="#ArialMT-97"/>
     <use x="55.615234" xlink:href="#ArialMT-99"/>
     <use x="105.615234" xlink:href="#ArialMT-116"/>
     <use x="133.398438" xlink:href="#ArialMT-117"/>
     <use x="189.013672" xlink:href="#ArialMT-97"/>
     <use x="244.628906" xlink:href="#ArialMT-108"/>
    </g>
   </g>
  </g>
 </g>
 <defs>
  <clipPath id="p67bdd0b944">
   <rect height="326.16" width="558" x="35.485938" y="54.04"/>
  </clipPath>
 </defs>
</svg>
