<?xml version="1.0" encoding="utf-8" standalone="no"?>
<!DOCTYPE svg PUBLIC "-//W3C//DTD SVG 1.1//EN"
  "http://www.w3.org/Graphics/SVG/1.1/DTD/svg11.dtd">
<!-- Created with matplotlib (https://matplotlib.org/) -->
<svg height="353.205312pt" version="1.1" viewBox="0 0 587.021875 353.205312" width="587.021875pt" xmlns="http://www.w3.org/2000/svg" xmlns:xlink="http://www.w3.org/1999/xlink">
 <defs>
  <style type="text/css">
*{stroke-linecap:butt;stroke-linejoin:round;}
  </style>
 </defs>
 <g id="figure_1">
  <g id="patch_1">
   <path d="M 0 353.205312 
L 587.021875 353.205312 
L 587.021875 0 
L 0 0 
z
" style="fill:#ffffff;"/>
  </g>
  <g id="axes_1">
   <g id="patch_2">
    <path d="M 21.821875 333.36 
L 579.821875 333.36 
L 579.821875 7.2 
L 21.821875 7.2 
z
" style="fill:#ffffff;"/>
   </g>
   <g id="matplotlib.axis_1">
    <g id="xtick_1">
     <g id="line2d_1">
      <path clip-path="url(#p7224f80bb0)" d="M 43.533006 333.36 
L 43.533006 7.2 
" style="fill:none;stroke:#cccccc;stroke-linecap:round;stroke-width:0.8;"/>
     </g>
     <g id="line2d_2"/>
     <g id="text_1">
      <!-- 0.0 -->
      <defs>
       <path d="M 4.15625 35.296875 
Q 4.15625 48 6.765625 55.734375 
Q 9.375 63.484375 14.515625 67.671875 
Q 19.671875 71.875 27.484375 71.875 
Q 33.25 71.875 37.59375 69.546875 
Q 41.9375 67.234375 44.765625 62.859375 
Q 47.609375 58.5 49.21875 52.21875 
Q 50.828125 45.953125 50.828125 35.296875 
Q 50.828125 22.703125 48.234375 14.96875 
Q 45.65625 7.234375 40.5 3 
Q 35.359375 -1.21875 27.484375 -1.21875 
Q 17.140625 -1.21875 11.234375 6.203125 
Q 4.15625 15.140625 4.15625 35.296875 
z
M 13.1875 35.296875 
Q 13.1875 17.671875 17.3125 11.828125 
Q 21.4375 6 27.484375 6 
Q 33.546875 6 37.671875 11.859375 
Q 41.796875 17.71875 41.796875 35.296875 
Q 41.796875 52.984375 37.671875 58.78125 
Q 33.546875 64.59375 27.390625 64.59375 
Q 21.34375 64.59375 17.71875 59.46875 
Q 13.1875 52.9375 13.1875 35.296875 
z
" id="ArialMT-48"/>
       <path d="M 9.078125 0 
L 9.078125 10.015625 
L 19.09375 10.015625 
L 19.09375 0 
z
" id="ArialMT-46"/>
      </defs>
      <g style="fill:#262626;" transform="translate(36.583006 344.017812)scale(0.1 -0.1)">
       <use xlink:href="#ArialMT-48"/>
       <use x="55.615234" xlink:href="#ArialMT-46"/>
       <use x="83.398438" xlink:href="#ArialMT-48"/>
      </g>
     </g>
    </g>
    <g id="xtick_2">
     <g id="line2d_3">
      <path clip-path="url(#p7224f80bb0)" d="M 107.610611 333.36 
L 107.610611 7.2 
" style="fill:none;stroke:#cccccc;stroke-linecap:round;stroke-width:0.8;"/>
     </g>
     <g id="line2d_4"/>
     <g id="text_2">
      <!-- 2.5 -->
      <defs>
       <path d="M 50.34375 8.453125 
L 50.34375 0 
L 3.03125 0 
Q 2.9375 3.171875 4.046875 6.109375 
Q 5.859375 10.9375 9.828125 15.625 
Q 13.8125 20.3125 21.34375 26.46875 
Q 33.015625 36.03125 37.109375 41.625 
Q 41.21875 47.21875 41.21875 52.203125 
Q 41.21875 57.421875 37.46875 61 
Q 33.734375 64.59375 27.734375 64.59375 
Q 21.390625 64.59375 17.578125 60.78125 
Q 13.765625 56.984375 13.71875 50.25 
L 4.6875 51.171875 
Q 5.609375 61.28125 11.65625 66.578125 
Q 17.71875 71.875 27.9375 71.875 
Q 38.234375 71.875 44.234375 66.15625 
Q 50.25 60.453125 50.25 52 
Q 50.25 47.703125 48.484375 43.546875 
Q 46.734375 39.40625 42.65625 34.8125 
Q 38.578125 30.21875 29.109375 22.21875 
Q 21.1875 15.578125 18.9375 13.203125 
Q 16.703125 10.84375 15.234375 8.453125 
z
" id="ArialMT-50"/>
       <path d="M 4.15625 18.75 
L 13.375 19.53125 
Q 14.40625 12.796875 18.140625 9.390625 
Q 21.875 6 27.15625 6 
Q 33.5 6 37.890625 10.78125 
Q 42.28125 15.578125 42.28125 23.484375 
Q 42.28125 31 38.0625 35.34375 
Q 33.84375 39.703125 27 39.703125 
Q 22.75 39.703125 19.328125 37.765625 
Q 15.921875 35.84375 13.96875 32.765625 
L 5.71875 33.84375 
L 12.640625 70.609375 
L 48.25 70.609375 
L 48.25 62.203125 
L 19.671875 62.203125 
L 15.828125 42.96875 
Q 22.265625 47.46875 29.34375 47.46875 
Q 38.71875 47.46875 45.15625 40.96875 
Q 51.609375 34.46875 51.609375 24.265625 
Q 51.609375 14.546875 45.953125 7.46875 
Q 39.0625 -1.21875 27.15625 -1.21875 
Q 17.390625 -1.21875 11.203125 4.25 
Q 5.03125 9.71875 4.15625 18.75 
z
" id="ArialMT-53"/>
      </defs>
      <g style="fill:#262626;" transform="translate(100.660611 344.017812)scale(0.1 -0.1)">
       <use xlink:href="#ArialMT-50"/>
       <use x="55.615234" xlink:href="#ArialMT-46"/>
       <use x="83.398438" xlink:href="#ArialMT-53"/>
      </g>
     </g>
    </g>
    <g id="xtick_3">
     <g id="line2d_5">
      <path clip-path="url(#p7224f80bb0)" d="M 171.688217 333.36 
L 171.688217 7.2 
" style="fill:none;stroke:#cccccc;stroke-linecap:round;stroke-width:0.8;"/>
     </g>
     <g id="line2d_6"/>
     <g id="text_3">
      <!-- 5.0 -->
      <g style="fill:#262626;" transform="translate(164.738217 344.017812)scale(0.1 -0.1)">
       <use xlink:href="#ArialMT-53"/>
       <use x="55.615234" xlink:href="#ArialMT-46"/>
       <use x="83.398438" xlink:href="#ArialMT-48"/>
      </g>
     </g>
    </g>
    <g id="xtick_4">
     <g id="line2d_7">
      <path clip-path="url(#p7224f80bb0)" d="M 235.765822 333.36 
L 235.765822 7.2 
" style="fill:none;stroke:#cccccc;stroke-linecap:round;stroke-width:0.8;"/>
     </g>
     <g id="line2d_8"/>
     <g id="text_4">
      <!-- 7.5 -->
      <defs>
       <path d="M 4.734375 62.203125 
L 4.734375 70.65625 
L 51.078125 70.65625 
L 51.078125 63.8125 
Q 44.234375 56.546875 37.515625 44.484375 
Q 30.8125 32.421875 27.15625 19.671875 
Q 24.515625 10.6875 23.78125 0 
L 14.75 0 
Q 14.890625 8.453125 18.0625 20.40625 
Q 21.234375 32.375 27.171875 43.484375 
Q 33.109375 54.59375 39.796875 62.203125 
z
" id="ArialMT-55"/>
      </defs>
      <g style="fill:#262626;" transform="translate(228.815822 344.017812)scale(0.1 -0.1)">
       <use xlink:href="#ArialMT-55"/>
       <use x="55.615234" xlink:href="#ArialMT-46"/>
       <use x="83.398438" xlink:href="#ArialMT-53"/>
      </g>
     </g>
    </g>
    <g id="xtick_5">
     <g id="line2d_9">
      <path clip-path="url(#p7224f80bb0)" d="M 299.843428 333.36 
L 299.843428 7.2 
" style="fill:none;stroke:#cccccc;stroke-linecap:round;stroke-width:0.8;"/>
     </g>
     <g id="line2d_10"/>
     <g id="text_5">
      <!-- 10.0 -->
      <defs>
       <path d="M 37.25 0 
L 28.46875 0 
L 28.46875 56 
Q 25.296875 52.984375 20.140625 49.953125 
Q 14.984375 46.921875 10.890625 45.40625 
L 10.890625 53.90625 
Q 18.265625 57.375 23.78125 62.296875 
Q 29.296875 67.234375 31.59375 71.875 
L 37.25 71.875 
z
" id="ArialMT-49"/>
      </defs>
      <g style="fill:#262626;" transform="translate(290.112959 344.017812)scale(0.1 -0.1)">
       <use xlink:href="#ArialMT-49"/>
       <use x="55.615234" xlink:href="#ArialMT-48"/>
       <use x="111.230469" xlink:href="#ArialMT-46"/>
       <use x="139.013672" xlink:href="#ArialMT-48"/>
      </g>
     </g>
    </g>
    <g id="xtick_6">
     <g id="line2d_11">
      <path clip-path="url(#p7224f80bb0)" d="M 363.921033 333.36 
L 363.921033 7.2 
" style="fill:none;stroke:#cccccc;stroke-linecap:round;stroke-width:0.8;"/>
     </g>
     <g id="line2d_12"/>
     <g id="text_6">
      <!-- 12.5 -->
      <g style="fill:#262626;" transform="translate(354.190564 344.017812)scale(0.1 -0.1)">
       <use xlink:href="#ArialMT-49"/>
       <use x="55.615234" xlink:href="#ArialMT-50"/>
       <use x="111.230469" xlink:href="#ArialMT-46"/>
       <use x="139.013672" xlink:href="#ArialMT-53"/>
      </g>
     </g>
    </g>
    <g id="xtick_7">
     <g id="line2d_13">
      <path clip-path="url(#p7224f80bb0)" d="M 427.998638 333.36 
L 427.998638 7.2 
" style="fill:none;stroke:#cccccc;stroke-linecap:round;stroke-width:0.8;"/>
     </g>
     <g id="line2d_14"/>
     <g id="text_7">
      <!-- 15.0 -->
      <g style="fill:#262626;" transform="translate(418.268169 344.017812)scale(0.1 -0.1)">
       <use xlink:href="#ArialMT-49"/>
       <use x="55.615234" xlink:href="#ArialMT-53"/>
       <use x="111.230469" xlink:href="#ArialMT-46"/>
       <use x="139.013672" xlink:href="#ArialMT-48"/>
      </g>
     </g>
    </g>
    <g id="xtick_8">
     <g id="line2d_15">
      <path clip-path="url(#p7224f80bb0)" d="M 492.076244 333.36 
L 492.076244 7.2 
" style="fill:none;stroke:#cccccc;stroke-linecap:round;stroke-width:0.8;"/>
     </g>
     <g id="line2d_16"/>
     <g id="text_8">
      <!-- 17.5 -->
      <g style="fill:#262626;" transform="translate(482.345775 344.017812)scale(0.1 -0.1)">
       <use xlink:href="#ArialMT-49"/>
       <use x="55.615234" xlink:href="#ArialMT-55"/>
       <use x="111.230469" xlink:href="#ArialMT-46"/>
       <use x="139.013672" xlink:href="#ArialMT-53"/>
      </g>
     </g>
    </g>
    <g id="xtick_9">
     <g id="line2d_17">
      <path clip-path="url(#p7224f80bb0)" d="M 556.153849 333.36 
L 556.153849 7.2 
" style="fill:none;stroke:#cccccc;stroke-linecap:round;stroke-width:0.8;"/>
     </g>
     <g id="line2d_18"/>
     <g id="text_9">
      <!-- 20.0 -->
      <g style="fill:#262626;" transform="translate(546.42338 344.017812)scale(0.1 -0.1)">
       <use xlink:href="#ArialMT-50"/>
       <use x="55.615234" xlink:href="#ArialMT-48"/>
       <use x="111.230469" xlink:href="#ArialMT-46"/>
       <use x="139.013672" xlink:href="#ArialMT-48"/>
      </g>
     </g>
    </g>
   </g>
   <g id="matplotlib.axis_2">
    <g id="ytick_1">
     <g id="line2d_19">
      <path clip-path="url(#p7224f80bb0)" d="M 21.821875 282.186694 
L 579.821875 282.186694 
" style="fill:none;stroke:#cccccc;stroke-linecap:round;stroke-width:0.8;"/>
     </g>
     <g id="line2d_20"/>
     <g id="text_10">
      <!-- 0 -->
      <g style="fill:#262626;" transform="translate(12.760938 285.7656)scale(0.1 -0.1)">
       <use xlink:href="#ArialMT-48"/>
      </g>
     </g>
    </g>
    <g id="ytick_2">
     <g id="line2d_21">
      <path clip-path="url(#p7224f80bb0)" d="M 21.821875 211.401339 
L 579.821875 211.401339 
" style="fill:none;stroke:#cccccc;stroke-linecap:round;stroke-width:0.8;"/>
     </g>
     <g id="line2d_22"/>
     <g id="text_11">
      <!-- 5 -->
      <g style="fill:#262626;" transform="translate(12.760938 214.980245)scale(0.1 -0.1)">
       <use xlink:href="#ArialMT-53"/>
      </g>
     </g>
    </g>
    <g id="ytick_3">
     <g id="line2d_23">
      <path clip-path="url(#p7224f80bb0)" d="M 21.821875 140.615985 
L 579.821875 140.615985 
" style="fill:none;stroke:#cccccc;stroke-linecap:round;stroke-width:0.8;"/>
     </g>
     <g id="line2d_24"/>
     <g id="text_12">
      <!-- 10 -->
      <g style="fill:#262626;" transform="translate(7.2 144.194891)scale(0.1 -0.1)">
       <use xlink:href="#ArialMT-49"/>
       <use x="55.615234" xlink:href="#ArialMT-48"/>
      </g>
     </g>
    </g>
    <g id="ytick_4">
     <g id="line2d_25">
      <path clip-path="url(#p7224f80bb0)" d="M 21.821875 69.830631 
L 579.821875 69.830631 
" style="fill:none;stroke:#cccccc;stroke-linecap:round;stroke-width:0.8;"/>
     </g>
     <g id="line2d_26"/>
     <g id="text_13">
      <!-- 15 -->
      <g style="fill:#262626;" transform="translate(7.2 73.409537)scale(0.1 -0.1)">
       <use xlink:href="#ArialMT-49"/>
       <use x="55.615234" xlink:href="#ArialMT-53"/>
      </g>
     </g>
    </g>
   </g>
   <g id="line2d_27">
    <defs>
     <path d="M 0 1.5 
C 0.397805 1.5 0.77937 1.341951 1.06066 1.06066 
C 1.341951 0.77937 1.5 0.397805 1.5 0 
C 1.5 -0.397805 1.341951 -0.77937 1.06066 -1.06066 
C 0.77937 -1.341951 0.397805 -1.5 0 -1.5 
C -0.397805 -1.5 -0.77937 -1.341951 -1.06066 -1.06066 
C -1.341951 -0.77937 -1.5 -0.397805 -1.5 0 
C -1.5 0.397805 -1.341951 0.77937 -1.06066 1.06066 
C -0.77937 1.341951 -0.397805 1.5 0 1.5 
z
" id="mdc4733ba57" style="stroke:#1f77b4;"/>
    </defs>
    <g clip-path="url(#p7224f80bb0)">
     <use style="fill:#1f77b4;stroke:#1f77b4;" x="125.705054" xlink:href="#mdc4733ba57" y="204.276221"/>
     <use style="fill:#1f77b4;stroke:#1f77b4;" x="545.070989" xlink:href="#mdc4733ba57" y="27.300885"/>
     <use style="fill:#1f77b4;stroke:#1f77b4;" x="554.458239" xlink:href="#mdc4733ba57" y="31.325088"/>
     <use style="fill:#1f77b4;stroke:#1f77b4;" x="235.144627" xlink:href="#mdc4733ba57" y="197.638706"/>
     <use style="fill:#1f77b4;stroke:#1f77b4;" x="174.275212" xlink:href="#mdc4733ba57" y="141.795065"/>
     <use style="fill:#1f77b4;stroke:#1f77b4;" x="321.025477" xlink:href="#mdc4733ba57" y="164.866545"/>
     <use style="fill:#1f77b4;stroke:#1f77b4;" x="213.328546" xlink:href="#mdc4733ba57" y="183.224646"/>
     <use style="fill:#1f77b4;stroke:#1f77b4;" x="252.350321" xlink:href="#mdc4733ba57" y="190.759821"/>
     <use style="fill:#1f77b4;stroke:#1f77b4;" x="240.112403" xlink:href="#mdc4733ba57" y="153.845823"/>
     <use style="fill:#1f77b4;stroke:#1f77b4;" x="235.962832" xlink:href="#mdc4733ba57" y="161.406786"/>
     <use style="fill:#1f77b4;stroke:#1f77b4;" x="313.848541" xlink:href="#mdc4733ba57" y="165.21034"/>
     <use style="fill:#1f77b4;stroke:#1f77b4;" x="352.629221" xlink:href="#mdc4733ba57" y="34.82033"/>
     <use style="fill:#1f77b4;stroke:#1f77b4;" x="124.233217" xlink:href="#mdc4733ba57" y="243.008763"/>
     <use style="fill:#1f77b4;stroke:#1f77b4;" x="201.780628" xlink:href="#mdc4733ba57" y="171.496667"/>
     <use style="fill:#1f77b4;stroke:#1f77b4;" x="120.121348" xlink:href="#mdc4733ba57" y="155.88568"/>
     <use style="fill:#1f77b4;stroke:#1f77b4;" x="459.480897" xlink:href="#mdc4733ba57" y="53.676846"/>
     <use style="fill:#1f77b4;stroke:#1f77b4;" x="108.937234" xlink:href="#mdc4733ba57" y="239.681026"/>
     <use style="fill:#1f77b4;stroke:#1f77b4;" x="261.145642" xlink:href="#mdc4733ba57" y="148.425838"/>
     <use style="fill:#1f77b4;stroke:#1f77b4;" x="57.85628" xlink:href="#mdc4733ba57" y="208.568774"/>
     <use style="fill:#1f77b4;stroke:#1f77b4;" x="235.702603" xlink:href="#mdc4733ba57" y="225.521364"/>
     <use style="fill:#1f77b4;stroke:#1f77b4;" x="399.234838" xlink:href="#mdc4733ba57" y="102.915601"/>
     <use style="fill:#1f77b4;stroke:#1f77b4;" x="433.14189" xlink:href="#mdc4733ba57" y="56.512895"/>
     <use style="fill:#1f77b4;stroke:#1f77b4;" x="228.54691" xlink:href="#mdc4733ba57" y="195.303151"/>
     <use style="fill:#1f77b4;stroke:#1f77b4;" x="408.092674" xlink:href="#mdc4733ba57" y="75.948214"/>
     <use style="fill:#1f77b4;stroke:#1f77b4;" x="166.395157" xlink:href="#mdc4733ba57" y="251.777637"/>
     <use style="fill:#1f77b4;stroke:#1f77b4;" x="141.190104" xlink:href="#mdc4733ba57" y="213.459709"/>
     <use style="fill:#1f77b4;stroke:#1f77b4;" x="359.586364" xlink:href="#mdc4733ba57" y="94.367615"/>
     <use style="fill:#1f77b4;stroke:#1f77b4;" x="235.028771" xlink:href="#mdc4733ba57" y="142.686981"/>
     <use style="fill:#1f77b4;stroke:#1f77b4;" x="62.42827" xlink:href="#mdc4733ba57" y="274.821691"/>
     <use style="fill:#1f77b4;stroke:#1f77b4;" x="117.413043" xlink:href="#mdc4733ba57" y="207.62435"/>
     <use style="fill:#1f77b4;stroke:#1f77b4;" x="470.341772" xlink:href="#mdc4733ba57" y="91.55187"/>
     <use style="fill:#1f77b4;stroke:#1f77b4;" x="54.997408" xlink:href="#mdc4733ba57" y="221.661943"/>
     <use style="fill:#1f77b4;stroke:#1f77b4;" x="415.343295" xlink:href="#mdc4733ba57" y="73.740651"/>
     <use style="fill:#1f77b4;stroke:#1f77b4;" x="463.440706" xlink:href="#mdc4733ba57" y="103.918113"/>
     <use style="fill:#1f77b4;stroke:#1f77b4;" x="265.750239" xlink:href="#mdc4733ba57" y="149.309559"/>
     <use style="fill:#1f77b4;stroke:#1f77b4;" x="177.835582" xlink:href="#mdc4733ba57" y="192.373853"/>
     <use style="fill:#1f77b4;stroke:#1f77b4;" x="446.826742" xlink:href="#mdc4733ba57" y="70.981959"/>
     <use style="fill:#1f77b4;stroke:#1f77b4;" x="358.647457" xlink:href="#mdc4733ba57" y="55.492885"/>
     <use style="fill:#1f77b4;stroke:#1f77b4;" x="183.283861" xlink:href="#mdc4733ba57" y="170.976461"/>
     <use style="fill:#1f77b4;stroke:#1f77b4;" x="405.83693" xlink:href="#mdc4733ba57" y="110.694424"/>
     <use style="fill:#1f77b4;stroke:#1f77b4;" x="520.367676" xlink:href="#mdc4733ba57" y="22.025455"/>
     <use style="fill:#1f77b4;stroke:#1f77b4;" x="317.815672" xlink:href="#mdc4733ba57" y="122.420253"/>
     <use style="fill:#1f77b4;stroke:#1f77b4;" x="158.714859" xlink:href="#mdc4733ba57" y="198.312068"/>
     <use style="fill:#1f77b4;stroke:#1f77b4;" x="207.635993" xlink:href="#mdc4733ba57" y="179.976158"/>
     <use style="fill:#1f77b4;stroke:#1f77b4;" x="500.940089" xlink:href="#mdc4733ba57" y="30.140823"/>
     <use style="fill:#1f77b4;stroke:#1f77b4;" x="47.185511" xlink:href="#mdc4733ba57" y="166.930213"/>
     <use style="fill:#1f77b4;stroke:#1f77b4;" x="168.974665" xlink:href="#mdc4733ba57" y="213.576181"/>
     <use style="fill:#1f77b4;stroke:#1f77b4;" x="64.56582" xlink:href="#mdc4733ba57" y="236.381228"/>
     <use style="fill:#1f77b4;stroke:#1f77b4;" x="80.835869" xlink:href="#mdc4733ba57" y="246.718006"/>
     <use style="fill:#1f77b4;stroke:#1f77b4;" x="454.321856" xlink:href="#mdc4733ba57" y="39.379881"/>
     <use style="fill:#1f77b4;stroke:#1f77b4;" x="217.667823" xlink:href="#mdc4733ba57" y="165.527734"/>
     <use style="fill:#1f77b4;stroke:#1f77b4;" x="163.811001" xlink:href="#mdc4733ba57" y="169.728798"/>
     <use style="fill:#1f77b4;stroke:#1f77b4;" x="484.381466" xlink:href="#mdc4733ba57" y="91.107052"/>
     <use style="fill:#1f77b4;stroke:#1f77b4;" x="83.953979" xlink:href="#mdc4733ba57" y="277.762311"/>
     <use style="fill:#1f77b4;stroke:#1f77b4;" x="244.952906" xlink:href="#mdc4733ba57" y="113.275214"/>
     <use style="fill:#1f77b4;stroke:#1f77b4;" x="65.642794" xlink:href="#mdc4733ba57" y="237.232834"/>
     <use style="fill:#1f77b4;stroke:#1f77b4;" x="402.868375" xlink:href="#mdc4733ba57" y="87.042351"/>
     <use style="fill:#1f77b4;stroke:#1f77b4;" x="396.118069" xlink:href="#mdc4733ba57" y="128.00762"/>
     <use style="fill:#1f77b4;stroke:#1f77b4;" x="207.782425" xlink:href="#mdc4733ba57" y="187.310707"/>
     <use style="fill:#1f77b4;stroke:#1f77b4;" x="423.21194" xlink:href="#mdc4733ba57" y="79.635688"/>
     <use style="fill:#1f77b4;stroke:#1f77b4;" x="212.644336" xlink:href="#mdc4733ba57" y="191.064266"/>
     <use style="fill:#1f77b4;stroke:#1f77b4;" x="118.768659" xlink:href="#mdc4733ba57" y="211.72918"/>
     <use style="fill:#1f77b4;stroke:#1f77b4;" x="399.700165" xlink:href="#mdc4733ba57" y="90.273076"/>
     <use style="fill:#1f77b4;stroke:#1f77b4;" x="244.299502" xlink:href="#mdc4733ba57" y="138.295681"/>
     <use style="fill:#1f77b4;stroke:#1f77b4;" x="366.406154" xlink:href="#mdc4733ba57" y="106.351556"/>
     <use style="fill:#1f77b4;stroke:#1f77b4;" x="83.066546" xlink:href="#mdc4733ba57" y="262.365243"/>
     <use style="fill:#1f77b4;stroke:#1f77b4;" x="312.788716" xlink:href="#mdc4733ba57" y="145.138281"/>
     <use style="fill:#1f77b4;stroke:#1f77b4;" x="554.187538" xlink:href="#mdc4733ba57" y="79.284903"/>
     <use style="fill:#1f77b4;stroke:#1f77b4;" x="255.889289" xlink:href="#mdc4733ba57" y="175.57597"/>
     <use style="fill:#1f77b4;stroke:#1f77b4;" x="242.171136" xlink:href="#mdc4733ba57" y="149.731658"/>
     <use style="fill:#1f77b4;stroke:#1f77b4;" x="211.264369" xlink:href="#mdc4733ba57" y="160.274606"/>
     <use style="fill:#1f77b4;stroke:#1f77b4;" x="353.209968" xlink:href="#mdc4733ba57" y="155.473251"/>
     <use style="fill:#1f77b4;stroke:#1f77b4;" x="252.245058" xlink:href="#mdc4733ba57" y="130.199067"/>
     <use style="fill:#1f77b4;stroke:#1f77b4;" x="514.021696" xlink:href="#mdc4733ba57" y="50.174894"/>
     <use style="fill:#1f77b4;stroke:#1f77b4;" x="337.113618" xlink:href="#mdc4733ba57" y="160.417045"/>
     <use style="fill:#1f77b4;stroke:#1f77b4;" x="334.359102" xlink:href="#mdc4733ba57" y="113.740621"/>
     <use style="fill:#1f77b4;stroke:#1f77b4;" x="191.146743" xlink:href="#mdc4733ba57" y="125.846763"/>
     <use style="fill:#1f77b4;stroke:#1f77b4;" x="192.18385" xlink:href="#mdc4733ba57" y="146.684571"/>
     <use style="fill:#1f77b4;stroke:#1f77b4;" x="271.900938" xlink:href="#mdc4733ba57" y="157.198651"/>
     <use style="fill:#1f77b4;stroke:#1f77b4;" x="134.360563" xlink:href="#mdc4733ba57" y="216.921622"/>
     <use style="fill:#1f77b4;stroke:#1f77b4;" x="293.88087" xlink:href="#mdc4733ba57" y="79.284102"/>
     <use style="fill:#1f77b4;stroke:#1f77b4;" x="495.909124" xlink:href="#mdc4733ba57" y="99.438861"/>
     <use style="fill:#1f77b4;stroke:#1f77b4;" x="470.054577" xlink:href="#mdc4733ba57" y="45.317477"/>
     <use style="fill:#1f77b4;stroke:#1f77b4;" x="453.20607" xlink:href="#mdc4733ba57" y="104.532504"/>
     <use style="fill:#1f77b4;stroke:#1f77b4;" x="524.201576" xlink:href="#mdc4733ba57" y="63.09445"/>
     <use style="fill:#1f77b4;stroke:#1f77b4;" x="527.607287" xlink:href="#mdc4733ba57" y="58.072476"/>
     <use style="fill:#1f77b4;stroke:#1f77b4;" x="159.100937" xlink:href="#mdc4733ba57" y="182.763741"/>
     <use style="fill:#1f77b4;stroke:#1f77b4;" x="60.9709" xlink:href="#mdc4733ba57" y="236.956302"/>
     <use style="fill:#1f77b4;stroke:#1f77b4;" x="488.839359" xlink:href="#mdc4733ba57" y="56.125639"/>
     <use style="fill:#1f77b4;stroke:#1f77b4;" x="424.85849" xlink:href="#mdc4733ba57" y="130.68387"/>
     <use style="fill:#1f77b4;stroke:#1f77b4;" x="428.756478" xlink:href="#mdc4733ba57" y="52.504608"/>
     <use style="fill:#1f77b4;stroke:#1f77b4;" x="404.612869" xlink:href="#mdc4733ba57" y="90.09983"/>
     <use style="fill:#1f77b4;stroke:#1f77b4;" x="389.630847" xlink:href="#mdc4733ba57" y="129.846121"/>
     <use style="fill:#1f77b4;stroke:#1f77b4;" x="509.663081" xlink:href="#mdc4733ba57" y="65.889432"/>
     <use style="fill:#1f77b4;stroke:#1f77b4;" x="69.362399" xlink:href="#mdc4733ba57" y="318.534545"/>
     <use style="fill:#1f77b4;stroke:#1f77b4;" x="47.335144" xlink:href="#mdc4733ba57" y="186.272563"/>
     <use style="fill:#1f77b4;stroke:#1f77b4;" x="183.767135" xlink:href="#mdc4733ba57" y="213.359825"/>
     <use style="fill:#1f77b4;stroke:#1f77b4;" x="249.925303" xlink:href="#mdc4733ba57" y="175.889525"/>
     <use style="fill:#1f77b4;stroke:#1f77b4;" x="549.44354" xlink:href="#mdc4733ba57" y="50.973833"/>
     <use style="fill:#1f77b4;stroke:#1f77b4;" x="208.238125" xlink:href="#mdc4733ba57" y="167.659762"/>
    </g>
   </g>
   <g id="patch_3">
    <path d="M 21.821875 333.36 
L 21.821875 7.2 
" style="fill:none;stroke:#cccccc;stroke-linecap:square;stroke-linejoin:miter;"/>
   </g>
   <g id="patch_4">
    <path d="M 579.821875 333.36 
L 579.821875 7.2 
" style="fill:none;stroke:#cccccc;stroke-linecap:square;stroke-linejoin:miter;"/>
   </g>
   <g id="patch_5">
    <path d="M 21.821875 333.36 
L 579.821875 333.36 
" style="fill:none;stroke:#cccccc;stroke-linecap:square;stroke-linejoin:miter;"/>
   </g>
   <g id="patch_6">
    <path d="M 21.821875 7.2 
L 579.821875 7.2 
" style="fill:none;stroke:#cccccc;stroke-linecap:square;stroke-linejoin:miter;"/>
   </g>
  </g>
 </g>
 <defs>
  <clipPath id="p7224f80bb0">
   <rect height="326.16" width="558" x="21.821875" y="7.2"/>
  </clipPath>
 </defs>
</svg>
