<?xml version="1.0" encoding="utf-8" standalone="no"?>
<!DOCTYPE svg PUBLIC "-//W3C//DTD SVG 1.1//EN"
  "http://www.w3.org/Graphics/SVG/1.1/DTD/svg11.dtd">
<!-- Created with matplotlib (https://matplotlib.org/) -->
<svg height="353.205313pt" version="1.1" viewBox="0 0 587.021875 353.205313" width="587.021875pt" xmlns="http://www.w3.org/2000/svg" xmlns:xlink="http://www.w3.org/1999/xlink">
 <defs>
  <style type="text/css">
*{stroke-linecap:butt;stroke-linejoin:round;}
  </style>
 </defs>
 <g id="figure_1">
  <g id="patch_1">
   <path d="M 0 353.205313 
L 587.021875 353.205313 
L 587.021875 0 
L 0 0 
z
" style="fill:#ffffff;"/>
  </g>
  <g id="axes_1">
   <g id="patch_2">
    <path d="M 21.821875 333.36 
L 579.821875 333.36 
L 579.821875 7.2 
L 21.821875 7.2 
z
" style="fill:#ffffff;"/>
   </g>
   <g id="matplotlib.axis_1">
    <g id="xtick_1">
     <g id="line2d_1">
      <path clip-path="url(#p883cdbbbae)" d="M 47.185511 333.36 
L 47.185511 7.2 
" style="fill:none;stroke:#cccccc;stroke-linecap:round;stroke-width:0.8;"/>
     </g>
     <g id="line2d_2"/>
     <g id="text_1">
      <!-- 0.0 -->
      <defs>
       <path d="M 4.15625 35.296875 
Q 4.15625 48 6.765625 55.734375 
Q 9.375 63.484375 14.515625 67.671875 
Q 19.671875 71.875 27.484375 71.875 
Q 33.25 71.875 37.59375 69.546875 
Q 41.9375 67.234375 44.765625 62.859375 
Q 47.609375 58.5 49.21875 52.21875 
Q 50.828125 45.953125 50.828125 35.296875 
Q 50.828125 22.703125 48.234375 14.96875 
Q 45.65625 7.234375 40.5 3 
Q 35.359375 -1.21875 27.484375 -1.21875 
Q 17.140625 -1.21875 11.234375 6.203125 
Q 4.15625 15.140625 4.15625 35.296875 
z
M 13.1875 35.296875 
Q 13.1875 17.671875 17.3125 11.828125 
Q 21.4375 6 27.484375 6 
Q 33.546875 6 37.671875 11.859375 
Q 41.796875 17.71875 41.796875 35.296875 
Q 41.796875 52.984375 37.671875 58.78125 
Q 33.546875 64.59375 27.390625 64.59375 
Q 21.34375 64.59375 17.71875 59.46875 
Q 13.1875 52.9375 13.1875 35.296875 
z
" id="ArialMT-48"/>
       <path d="M 9.078125 0 
L 9.078125 10.015625 
L 19.09375 10.015625 
L 19.09375 0 
z
" id="ArialMT-46"/>
      </defs>
      <g style="fill:#262626;" transform="translate(40.235511 344.017813)scale(0.1 -0.1)">
       <use xlink:href="#ArialMT-48"/>
       <use x="55.615234" xlink:href="#ArialMT-46"/>
       <use x="83.398438" xlink:href="#ArialMT-48"/>
      </g>
     </g>
    </g>
    <g id="xtick_2">
     <g id="line2d_3">
      <path clip-path="url(#p883cdbbbae)" d="M 110.594602 333.36 
L 110.594602 7.2 
" style="fill:none;stroke:#cccccc;stroke-linecap:round;stroke-width:0.8;"/>
     </g>
     <g id="line2d_4"/>
     <g id="text_2">
      <!-- 2.5 -->
      <defs>
       <path d="M 50.34375 8.453125 
L 50.34375 0 
L 3.03125 0 
Q 2.9375 3.171875 4.046875 6.109375 
Q 5.859375 10.9375 9.828125 15.625 
Q 13.8125 20.3125 21.34375 26.46875 
Q 33.015625 36.03125 37.109375 41.625 
Q 41.21875 47.21875 41.21875 52.203125 
Q 41.21875 57.421875 37.46875 61 
Q 33.734375 64.59375 27.734375 64.59375 
Q 21.390625 64.59375 17.578125 60.78125 
Q 13.765625 56.984375 13.71875 50.25 
L 4.6875 51.171875 
Q 5.609375 61.28125 11.65625 66.578125 
Q 17.71875 71.875 27.9375 71.875 
Q 38.234375 71.875 44.234375 66.15625 
Q 50.25 60.453125 50.25 52 
Q 50.25 47.703125 48.484375 43.546875 
Q 46.734375 39.40625 42.65625 34.8125 
Q 38.578125 30.21875 29.109375 22.21875 
Q 21.1875 15.578125 18.9375 13.203125 
Q 16.703125 10.84375 15.234375 8.453125 
z
" id="ArialMT-50"/>
       <path d="M 4.15625 18.75 
L 13.375 19.53125 
Q 14.40625 12.796875 18.140625 9.390625 
Q 21.875 6 27.15625 6 
Q 33.5 6 37.890625 10.78125 
Q 42.28125 15.578125 42.28125 23.484375 
Q 42.28125 31 38.0625 35.34375 
Q 33.84375 39.703125 27 39.703125 
Q 22.75 39.703125 19.328125 37.765625 
Q 15.921875 35.84375 13.96875 32.765625 
L 5.71875 33.84375 
L 12.640625 70.609375 
L 48.25 70.609375 
L 48.25 62.203125 
L 19.671875 62.203125 
L 15.828125 42.96875 
Q 22.265625 47.46875 29.34375 47.46875 
Q 38.71875 47.46875 45.15625 40.96875 
Q 51.609375 34.46875 51.609375 24.265625 
Q 51.609375 14.546875 45.953125 7.46875 
Q 39.0625 -1.21875 27.15625 -1.21875 
Q 17.390625 -1.21875 11.203125 4.25 
Q 5.03125 9.71875 4.15625 18.75 
z
" id="ArialMT-53"/>
      </defs>
      <g style="fill:#262626;" transform="translate(103.644602 344.017813)scale(0.1 -0.1)">
       <use xlink:href="#ArialMT-50"/>
       <use x="55.615234" xlink:href="#ArialMT-46"/>
       <use x="83.398438" xlink:href="#ArialMT-53"/>
      </g>
     </g>
    </g>
    <g id="xtick_3">
     <g id="line2d_5">
      <path clip-path="url(#p883cdbbbae)" d="M 174.003693 333.36 
L 174.003693 7.2 
" style="fill:none;stroke:#cccccc;stroke-linecap:round;stroke-width:0.8;"/>
     </g>
     <g id="line2d_6"/>
     <g id="text_3">
      <!-- 5.0 -->
      <g style="fill:#262626;" transform="translate(167.053693 344.017813)scale(0.1 -0.1)">
       <use xlink:href="#ArialMT-53"/>
       <use x="55.615234" xlink:href="#ArialMT-46"/>
       <use x="83.398438" xlink:href="#ArialMT-48"/>
      </g>
     </g>
    </g>
    <g id="xtick_4">
     <g id="line2d_7">
      <path clip-path="url(#p883cdbbbae)" d="M 237.412784 333.36 
L 237.412784 7.2 
" style="fill:none;stroke:#cccccc;stroke-linecap:round;stroke-width:0.8;"/>
     </g>
     <g id="line2d_8"/>
     <g id="text_4">
      <!-- 7.5 -->
      <defs>
       <path d="M 4.734375 62.203125 
L 4.734375 70.65625 
L 51.078125 70.65625 
L 51.078125 63.8125 
Q 44.234375 56.546875 37.515625 44.484375 
Q 30.8125 32.421875 27.15625 19.671875 
Q 24.515625 10.6875 23.78125 0 
L 14.75 0 
Q 14.890625 8.453125 18.0625 20.40625 
Q 21.234375 32.375 27.171875 43.484375 
Q 33.109375 54.59375 39.796875 62.203125 
z
" id="ArialMT-55"/>
      </defs>
      <g style="fill:#262626;" transform="translate(230.462784 344.017813)scale(0.1 -0.1)">
       <use xlink:href="#ArialMT-55"/>
       <use x="55.615234" xlink:href="#ArialMT-46"/>
       <use x="83.398438" xlink:href="#ArialMT-53"/>
      </g>
     </g>
    </g>
    <g id="xtick_5">
     <g id="line2d_9">
      <path clip-path="url(#p883cdbbbae)" d="M 300.821875 333.36 
L 300.821875 7.2 
" style="fill:none;stroke:#cccccc;stroke-linecap:round;stroke-width:0.8;"/>
     </g>
     <g id="line2d_10"/>
     <g id="text_5">
      <!-- 10.0 -->
      <defs>
       <path d="M 37.25 0 
L 28.46875 0 
L 28.46875 56 
Q 25.296875 52.984375 20.140625 49.953125 
Q 14.984375 46.921875 10.890625 45.40625 
L 10.890625 53.90625 
Q 18.265625 57.375 23.78125 62.296875 
Q 29.296875 67.234375 31.59375 71.875 
L 37.25 71.875 
z
" id="ArialMT-49"/>
      </defs>
      <g style="fill:#262626;" transform="translate(291.091406 344.017813)scale(0.1 -0.1)">
       <use xlink:href="#ArialMT-49"/>
       <use x="55.615234" xlink:href="#ArialMT-48"/>
       <use x="111.230469" xlink:href="#ArialMT-46"/>
       <use x="139.013672" xlink:href="#ArialMT-48"/>
      </g>
     </g>
    </g>
    <g id="xtick_6">
     <g id="line2d_11">
      <path clip-path="url(#p883cdbbbae)" d="M 364.230966 333.36 
L 364.230966 7.2 
" style="fill:none;stroke:#cccccc;stroke-linecap:round;stroke-width:0.8;"/>
     </g>
     <g id="line2d_12"/>
     <g id="text_6">
      <!-- 12.5 -->
      <g style="fill:#262626;" transform="translate(354.500497 344.017813)scale(0.1 -0.1)">
       <use xlink:href="#ArialMT-49"/>
       <use x="55.615234" xlink:href="#ArialMT-50"/>
       <use x="111.230469" xlink:href="#ArialMT-46"/>
       <use x="139.013672" xlink:href="#ArialMT-53"/>
      </g>
     </g>
    </g>
    <g id="xtick_7">
     <g id="line2d_13">
      <path clip-path="url(#p883cdbbbae)" d="M 427.640057 333.36 
L 427.640057 7.2 
" style="fill:none;stroke:#cccccc;stroke-linecap:round;stroke-width:0.8;"/>
     </g>
     <g id="line2d_14"/>
     <g id="text_7">
      <!-- 15.0 -->
      <g style="fill:#262626;" transform="translate(417.909588 344.017813)scale(0.1 -0.1)">
       <use xlink:href="#ArialMT-49"/>
       <use x="55.615234" xlink:href="#ArialMT-53"/>
       <use x="111.230469" xlink:href="#ArialMT-46"/>
       <use x="139.013672" xlink:href="#ArialMT-48"/>
      </g>
     </g>
    </g>
    <g id="xtick_8">
     <g id="line2d_15">
      <path clip-path="url(#p883cdbbbae)" d="M 491.049148 333.36 
L 491.049148 7.2 
" style="fill:none;stroke:#cccccc;stroke-linecap:round;stroke-width:0.8;"/>
     </g>
     <g id="line2d_16"/>
     <g id="text_8">
      <!-- 17.5 -->
      <g style="fill:#262626;" transform="translate(481.318679 344.017813)scale(0.1 -0.1)">
       <use xlink:href="#ArialMT-49"/>
       <use x="55.615234" xlink:href="#ArialMT-55"/>
       <use x="111.230469" xlink:href="#ArialMT-46"/>
       <use x="139.013672" xlink:href="#ArialMT-53"/>
      </g>
     </g>
    </g>
    <g id="xtick_9">
     <g id="line2d_17">
      <path clip-path="url(#p883cdbbbae)" d="M 554.458239 333.36 
L 554.458239 7.2 
" style="fill:none;stroke:#cccccc;stroke-linecap:round;stroke-width:0.8;"/>
     </g>
     <g id="line2d_18"/>
     <g id="text_9">
      <!-- 20.0 -->
      <g style="fill:#262626;" transform="translate(544.72777 344.017813)scale(0.1 -0.1)">
       <use xlink:href="#ArialMT-50"/>
       <use x="55.615234" xlink:href="#ArialMT-48"/>
       <use x="111.230469" xlink:href="#ArialMT-46"/>
       <use x="139.013672" xlink:href="#ArialMT-48"/>
      </g>
     </g>
    </g>
   </g>
   <g id="matplotlib.axis_2">
    <g id="ytick_1">
     <g id="line2d_19">
      <path clip-path="url(#p883cdbbbae)" d="M 21.821875 282.824678 
L 579.821875 282.824678 
" style="fill:none;stroke:#cccccc;stroke-linecap:round;stroke-width:0.8;"/>
     </g>
     <g id="line2d_20"/>
     <g id="text_10">
      <!-- 0 -->
      <g style="fill:#262626;" transform="translate(12.760938 286.403585)scale(0.1 -0.1)">
       <use xlink:href="#ArialMT-48"/>
      </g>
     </g>
    </g>
    <g id="ytick_2">
     <g id="line2d_21">
      <path clip-path="url(#p883cdbbbae)" d="M 21.821875 213.281763 
L 579.821875 213.281763 
" style="fill:none;stroke:#cccccc;stroke-linecap:round;stroke-width:0.8;"/>
     </g>
     <g id="line2d_22"/>
     <g id="text_11">
      <!-- 5 -->
      <g style="fill:#262626;" transform="translate(12.760938 216.860669)scale(0.1 -0.1)">
       <use xlink:href="#ArialMT-53"/>
      </g>
     </g>
    </g>
    <g id="ytick_3">
     <g id="line2d_23">
      <path clip-path="url(#p883cdbbbae)" d="M 21.821875 143.738847 
L 579.821875 143.738847 
" style="fill:none;stroke:#cccccc;stroke-linecap:round;stroke-width:0.8;"/>
     </g>
     <g id="line2d_24"/>
     <g id="text_12">
      <!-- 10 -->
      <g style="fill:#262626;" transform="translate(7.2 147.317754)scale(0.1 -0.1)">
       <use xlink:href="#ArialMT-49"/>
       <use x="55.615234" xlink:href="#ArialMT-48"/>
      </g>
     </g>
    </g>
    <g id="ytick_4">
     <g id="line2d_25">
      <path clip-path="url(#p883cdbbbae)" d="M 21.821875 74.195932 
L 579.821875 74.195932 
" style="fill:none;stroke:#cccccc;stroke-linecap:round;stroke-width:0.8;"/>
     </g>
     <g id="line2d_26"/>
     <g id="text_13">
      <!-- 15 -->
      <g style="fill:#262626;" transform="translate(7.2 77.774838)scale(0.1 -0.1)">
       <use xlink:href="#ArialMT-49"/>
       <use x="55.615234" xlink:href="#ArialMT-53"/>
      </g>
     </g>
    </g>
   </g>
   <g id="line2d_27">
    <defs>
     <path d="M 0 1.5 
C 0.397805 1.5 0.77937 1.341951 1.06066 1.06066 
C 1.341951 0.77937 1.5 0.397805 1.5 0 
C 1.5 -0.397805 1.341951 -0.77937 1.06066 -1.06066 
C 0.77937 -1.341951 0.397805 -1.5 0 -1.5 
C -0.397805 -1.5 -0.77937 -1.341951 -1.06066 -1.06066 
C -1.341951 -0.77937 -1.5 -0.397805 -1.5 0 
C -1.5 0.397805 -1.341951 0.77937 -1.06066 1.06066 
C -0.77937 1.341951 -0.397805 1.5 0 1.5 
z
" id="mb3153acf3c" style="stroke:#1f77b4;"/>
    </defs>
    <g clip-path="url(#p883cdbbbae)">
     <use style="fill:#1f77b4;stroke:#1f77b4;" x="128.500268" xlink:href="#mb3153acf3c" y="206.281706"/>
     <use style="fill:#1f77b4;stroke:#1f77b4;" x="543.491005" xlink:href="#mb3153acf3c" y="32.412677"/>
     <use style="fill:#1f77b4;stroke:#1f77b4;" x="552.780319" xlink:href="#mb3153acf3c" y="36.366247"/>
     <use style="fill:#1f77b4;stroke:#1f77b4;" x="236.79807" xlink:href="#mb3153acf3c" y="199.760695"/>
     <use style="fill:#1f77b4;stroke:#1f77b4;" x="176.563699" xlink:href="#mb3153acf3c" y="144.897232"/>
     <use style="fill:#1f77b4;stroke:#1f77b4;" x="321.782935" xlink:href="#mb3153acf3c" y="167.563756"/>
     <use style="fill:#1f77b4;stroke:#1f77b4;" x="215.209594" xlink:href="#mb3153acf3c" y="185.599633"/>
     <use style="fill:#1f77b4;stroke:#1f77b4;" x="253.824259" xlink:href="#mb3153acf3c" y="193.002549"/>
     <use style="fill:#1f77b4;stroke:#1f77b4;" x="241.714018" xlink:href="#mb3153acf3c" y="156.736473"/>
     <use style="fill:#1f77b4;stroke:#1f77b4;" x="237.607739" xlink:href="#mb3153acf3c" y="164.164725"/>
     <use style="fill:#1f77b4;stroke:#1f77b4;" x="314.680875" xlink:href="#mb3153acf3c" y="167.901517"/>
     <use style="fill:#1f77b4;stroke:#1f77b4;" x="353.05696" xlink:href="#mb3153acf3c" y="39.80014"/>
     <use style="fill:#1f77b4;stroke:#1f77b4;" x="127.043786" xlink:href="#mb3153acf3c" y="244.334407"/>
     <use style="fill:#1f77b4;stroke:#1f77b4;" x="203.782154" xlink:href="#mb3153acf3c" y="174.077505"/>
     <use style="fill:#1f77b4;stroke:#1f77b4;" x="122.974815" xlink:href="#mb3153acf3c" y="158.740526"/>
     <use style="fill:#1f77b4;stroke:#1f77b4;" x="458.793865" xlink:href="#mb3153acf3c" y="58.325682"/>
     <use style="fill:#1f77b4;stroke:#1f77b4;" x="111.907384" xlink:href="#mb3153acf3c" y="241.065079"/>
     <use style="fill:#1f77b4;stroke:#1f77b4;" x="262.527819" xlink:href="#mb3153acf3c" y="151.41162"/>
     <use style="fill:#1f77b4;stroke:#1f77b4;" x="61.359352" xlink:href="#mb3153acf3c" y="210.498915"/>
     <use style="fill:#1f77b4;stroke:#1f77b4;" x="237.350224" xlink:href="#mb3153acf3c" y="227.15395"/>
     <use style="fill:#1f77b4;stroke:#1f77b4;" x="399.176347" xlink:href="#mb3153acf3c" y="106.700188"/>
     <use style="fill:#1f77b4;stroke:#1f77b4;" x="432.72965" xlink:href="#mb3153acf3c" y="61.111952"/>
     <use style="fill:#1f77b4;stroke:#1f77b4;" x="230.269186" xlink:href="#mb3153acf3c" y="197.466134"/>
     <use style="fill:#1f77b4;stroke:#1f77b4;" x="407.941769" xlink:href="#mb3153acf3c" y="80.206138"/>
     <use style="fill:#1f77b4;stroke:#1f77b4;" x="168.765855" xlink:href="#mb3153acf3c" y="252.949367"/>
     <use style="fill:#1f77b4;stroke:#1f77b4;" x="143.823763" xlink:href="#mb3153acf3c" y="215.304004"/>
     <use style="fill:#1f77b4;stroke:#1f77b4;" x="359.94152" xlink:href="#mb3153acf3c" y="98.302238"/>
     <use style="fill:#1f77b4;stroke:#1f77b4;" x="236.683422" xlink:href="#mb3153acf3c" y="145.773493"/>
     <use style="fill:#1f77b4;stroke:#1f77b4;" x="65.883644" xlink:href="#mb3153acf3c" y="275.588948"/>
     <use style="fill:#1f77b4;stroke:#1f77b4;" x="120.294767" xlink:href="#mb3153acf3c" y="209.571068"/>
     <use style="fill:#1f77b4;stroke:#1f77b4;" x="469.54143" xlink:href="#mb3153acf3c" y="95.535916"/>
     <use style="fill:#1f77b4;stroke:#1f77b4;" x="58.530306" xlink:href="#mb3153acf3c" y="223.362271"/>
     <use style="fill:#1f77b4;stroke:#1f77b4;" x="415.116745" xlink:href="#mb3153acf3c" y="78.037323"/>
     <use style="fill:#1f77b4;stroke:#1f77b4;" x="462.712361" xlink:href="#mb3153acf3c" y="107.685104"/>
     <use style="fill:#1f77b4;stroke:#1f77b4;" x="267.084377" xlink:href="#mb3153acf3c" y="152.27983"/>
     <use style="fill:#1f77b4;stroke:#1f77b4;" x="180.086923" xlink:href="#mb3153acf3c" y="194.588251"/>
     <use style="fill:#1f77b4;stroke:#1f77b4;" x="446.271729" xlink:href="#mb3153acf3c" y="75.327053"/>
     <use style="fill:#1f77b4;stroke:#1f77b4;" x="359.012409" xlink:href="#mb3153acf3c" y="60.109845"/>
     <use style="fill:#1f77b4;stroke:#1f77b4;" x="185.478361" xlink:href="#mb3153acf3c" y="173.56643"/>
     <use style="fill:#1f77b4;stroke:#1f77b4;" x="405.709559" xlink:href="#mb3153acf3c" y="114.342476"/>
     <use style="fill:#1f77b4;stroke:#1f77b4;" x="519.045419" xlink:href="#mb3153acf3c" y="27.229842"/>
     <use style="fill:#1f77b4;stroke:#1f77b4;" x="318.606617" xlink:href="#mb3153acf3c" y="125.862491"/>
     <use style="fill:#1f77b4;stroke:#1f77b4;" x="161.165685" xlink:href="#mb3153acf3c" y="200.422237"/>
     <use style="fill:#1f77b4;stroke:#1f77b4;" x="209.57643" xlink:href="#mb3153acf3c" y="182.408163"/>
     <use style="fill:#1f77b4;stroke:#1f77b4;" x="499.820517" xlink:href="#mb3153acf3c" y="35.202768"/>
     <use style="fill:#1f77b4;stroke:#1f77b4;" x="50.79991" xlink:href="#mb3153acf3c" y="169.591203"/>
     <use style="fill:#1f77b4;stroke:#1f77b4;" x="171.318452" xlink:href="#mb3153acf3c" y="215.418432"/>
     <use style="fill:#1f77b4;stroke:#1f77b4;" x="67.998892" xlink:href="#mb3153acf3c" y="237.823199"/>
     <use style="fill:#1f77b4;stroke:#1f77b4;" x="84.099198" xlink:href="#mb3153acf3c" y="247.978544"/>
     <use style="fill:#1f77b4;stroke:#1f77b4;" x="453.688648" xlink:href="#mb3153acf3c" y="44.27966"/>
     <use style="fill:#1f77b4;stroke:#1f77b4;" x="219.503599" xlink:href="#mb3153acf3c" y="168.213341"/>
     <use style="fill:#1f77b4;stroke:#1f77b4;" x="166.208659" xlink:href="#mb3153acf3c" y="172.340667"/>
     <use style="fill:#1f77b4;stroke:#1f77b4;" x="483.434649" xlink:href="#mb3153acf3c" y="95.098906"/>
     <use style="fill:#1f77b4;stroke:#1f77b4;" x="87.184777" xlink:href="#mb3153acf3c" y="278.477953"/>
     <use style="fill:#1f77b4;stroke:#1f77b4;" x="246.50402" xlink:href="#mb3153acf3c" y="116.877967"/>
     <use style="fill:#1f77b4;stroke:#1f77b4;" x="69.06463" xlink:href="#mb3153acf3c" y="238.659858"/>
     <use style="fill:#1f77b4;stroke:#1f77b4;" x="402.771975" xlink:href="#mb3153acf3c" y="91.105549"/>
     <use style="fill:#1f77b4;stroke:#1f77b4;" x="396.092094" xlink:href="#mb3153acf3c" y="131.351787"/>
     <use style="fill:#1f77b4;stroke:#1f77b4;" x="209.721335" xlink:href="#mb3153acf3c" y="189.613975"/>
     <use style="fill:#1f77b4;stroke:#1f77b4;" x="422.903298" xlink:href="#mb3153acf3c" y="83.828889"/>
     <use style="fill:#1f77b4;stroke:#1f77b4;" x="214.532521" xlink:href="#mb3153acf3c" y="193.30165"/>
     <use style="fill:#1f77b4;stroke:#1f77b4;" x="121.636239" xlink:href="#mb3153acf3c" y="213.603849"/>
     <use style="fill:#1f77b4;stroke:#1f77b4;" x="399.636819" xlink:href="#mb3153acf3c" y="94.279567"/>
     <use style="fill:#1f77b4;stroke:#1f77b4;" x="245.857433" xlink:href="#mb3153acf3c" y="141.45927"/>
     <use style="fill:#1f77b4;stroke:#1f77b4;" x="366.690161" xlink:href="#mb3153acf3c" y="110.075835"/>
     <use style="fill:#1f77b4;stroke:#1f77b4;" x="86.306602" xlink:href="#mb3153acf3c" y="263.351138"/>
     <use style="fill:#1f77b4;stroke:#1f77b4;" x="313.632106" xlink:href="#mb3153acf3c" y="148.181767"/>
     <use style="fill:#1f77b4;stroke:#1f77b4;" x="552.512442" xlink:href="#mb3153acf3c" y="83.484261"/>
     <use style="fill:#1f77b4;stroke:#1f77b4;" x="257.326305" xlink:href="#mb3153acf3c" y="178.085208"/>
     <use style="fill:#1f77b4;stroke:#1f77b4;" x="243.751272" xlink:href="#mb3153acf3c" y="152.694521"/>
     <use style="fill:#1f77b4;stroke:#1f77b4;" x="213.166952" xlink:href="#mb3153acf3c" y="163.052416"/>
     <use style="fill:#1f77b4;stroke:#1f77b4;" x="353.631648" xlink:href="#mb3153acf3c" y="158.335335"/>
     <use style="fill:#1f77b4;stroke:#1f77b4;" x="253.720094" xlink:href="#mb3153acf3c" y="133.504769"/>
     <use style="fill:#1f77b4;stroke:#1f77b4;" x="512.765646" xlink:href="#mb3153acf3c" y="54.885197"/>
     <use style="fill:#1f77b4;stroke:#1f77b4;" x="337.70323" xlink:href="#mb3153acf3c" y="163.192356"/>
     <use style="fill:#1f77b4;stroke:#1f77b4;" x="334.977451" xlink:href="#mb3153acf3c" y="117.335205"/>
     <use style="fill:#1f77b4;stroke:#1f77b4;" x="193.259211" xlink:href="#mb3153acf3c" y="129.228858"/>
     <use style="fill:#1f77b4;stroke:#1f77b4;" x="194.285498" xlink:href="#mb3153acf3c" y="149.700917"/>
     <use style="fill:#1f77b4;stroke:#1f77b4;" x="273.170906" xlink:href="#mb3153acf3c" y="160.030451"/>
     <use style="fill:#1f77b4;stroke:#1f77b4;" x="137.065474" xlink:href="#mb3153acf3c" y="218.705153"/>
     <use style="fill:#1f77b4;stroke:#1f77b4;" x="294.921525" xlink:href="#mb3153acf3c" y="83.483474"/>
     <use style="fill:#1f77b4;stroke:#1f77b4;" x="494.842041" xlink:href="#mb3153acf3c" y="103.284473"/>
     <use style="fill:#1f77b4;stroke:#1f77b4;" x="469.257231" xlink:href="#mb3153acf3c" y="50.113038"/>
     <use style="fill:#1f77b4;stroke:#1f77b4;" x="452.584502" xlink:href="#mb3153acf3c" y="108.288712"/>
     <use style="fill:#1f77b4;stroke:#1f77b4;" x="522.83932" xlink:href="#mb3153acf3c" y="67.577986"/>
     <use style="fill:#1f77b4;stroke:#1f77b4;" x="526.2095" xlink:href="#mb3153acf3c" y="62.644159"/>
     <use style="fill:#1f77b4;stroke:#1f77b4;" x="161.547735" xlink:href="#mb3153acf3c" y="185.146818"/>
     <use style="fill:#1f77b4;stroke:#1f77b4;" x="64.441477" xlink:href="#mb3153acf3c" y="238.38818"/>
     <use style="fill:#1f77b4;stroke:#1f77b4;" x="487.846033" xlink:href="#mb3153acf3c" y="60.731493"/>
     <use style="fill:#1f77b4;stroke:#1f77b4;" x="424.53267" xlink:href="#mb3153acf3c" y="133.981063"/>
     <use style="fill:#1f77b4;stroke:#1f77b4;" x="428.38999" xlink:href="#mb3153acf3c" y="57.174019"/>
     <use style="fill:#1f77b4;stroke:#1f77b4;" x="404.498268" xlink:href="#mb3153acf3c" y="94.109363"/>
     <use style="fill:#1f77b4;stroke:#1f77b4;" x="389.672552" xlink:href="#mb3153acf3c" y="133.158019"/>
     <use style="fill:#1f77b4;stroke:#1f77b4;" x="508.452504" xlink:href="#mb3153acf3c" y="70.323911"/>
     <use style="fill:#1f77b4;stroke:#1f77b4;" x="72.745429" xlink:href="#mb3153acf3c" y="318.534545"/>
     <use style="fill:#1f77b4;stroke:#1f77b4;" x="50.947982" xlink:href="#mb3153acf3c" y="188.594052"/>
     <use style="fill:#1f77b4;stroke:#1f77b4;" x="185.956593" xlink:href="#mb3153acf3c" y="215.205873"/>
     <use style="fill:#1f77b4;stroke:#1f77b4;" x="251.42454" xlink:href="#mb3153acf3c" y="178.393259"/>
     <use style="fill:#1f77b4;stroke:#1f77b4;" x="547.817937" xlink:href="#mb3153acf3c" y="55.670112"/>
     <use style="fill:#1f77b4;stroke:#1f77b4;" x="210.17228" xlink:href="#mb3153acf3c" y="170.307947"/>
    </g>
   </g>
   <g id="line2d_28">
    <path clip-path="url(#p883cdbbbae)" d="M 47.185511 175.200886 
L 54.802219 177.611108 
L 55.309999 178.508296 
L 55.81778 179.887613 
L 56.833341 184.528027 
L 58.356683 192.430309 
L 66.988951 239.306092 
L 68.512293 245.701998 
L 70.035634 251.297453 
L 71.558976 256.105488 
L 74.605659 262.967691 
L 76.129 285.209015 
L 76.636781 288.10521 
L 77.144561 288.638968 
L 78.667903 287.677571 
L 80.191244 286.515239 
L 81.206805 285.490708 
L 82.222366 283.968869 
L 82.730147 283.013045 
L 84.253488 278.698559 
L 85.77683 274.18723 
L 87.807952 269.123143 
L 88.823513 266.620984 
L 89.839074 264.143312 
L 90.854635 260.43502 
L 93.393538 249.699362 
L 94.916879 242.937959 
L 95.93244 240.343205 
L 100.502465 229.669025 
L 106.08805 218.299937 
L 107.103611 216.587879 
L 108.119172 215.667207 
L 113.196977 211.691975 
L 120.813685 206.43405 
L 126.399271 204.015233 
L 162.451687 188.585664 
L 320.879205 121.265068 
L 554.458239 22.025455 
L 554.458239 22.025455 
" style="fill:none;stroke:#ff7f0e;stroke-linecap:round;stroke-width:1.5;"/>
   </g>
   <g id="line2d_29">
    <path clip-path="url(#p883cdbbbae)" d="M 47.185511 245.344152 
L 554.458239 37.353923 
L 554.458239 37.353923 
" style="fill:none;stroke:#2ca02c;stroke-linecap:round;stroke-width:1.5;"/>
   </g>
   <g id="patch_3">
    <path d="M 21.821875 333.36 
L 21.821875 7.2 
" style="fill:none;stroke:#cccccc;stroke-linecap:square;stroke-linejoin:miter;"/>
   </g>
   <g id="patch_4">
    <path d="M 579.821875 333.36 
L 579.821875 7.2 
" style="fill:none;stroke:#cccccc;stroke-linecap:square;stroke-linejoin:miter;"/>
   </g>
   <g id="patch_5">
    <path d="M 21.821875 333.36 
L 579.821875 333.36 
" style="fill:none;stroke:#cccccc;stroke-linecap:square;stroke-linejoin:miter;"/>
   </g>
   <g id="patch_6">
    <path d="M 21.821875 7.2 
L 579.821875 7.2 
" style="fill:none;stroke:#cccccc;stroke-linecap:square;stroke-linejoin:miter;"/>
   </g>
   <g id="legend_1">
    <g id="line2d_30"/>
    <g id="line2d_31">
     <g>
      <use style="fill:#1f77b4;stroke:#1f77b4;" x="40.821875" xlink:href="#mb3153acf3c" y="19.857813"/>
     </g>
    </g>
    <g id="text_14">
     <!-- data -->
     <defs>
      <path d="M 40.234375 0 
L 40.234375 6.546875 
Q 35.296875 -1.171875 25.734375 -1.171875 
Q 19.53125 -1.171875 14.328125 2.25 
Q 9.125 5.671875 6.265625 11.796875 
Q 3.421875 17.921875 3.421875 25.875 
Q 3.421875 33.640625 6 39.96875 
Q 8.59375 46.296875 13.765625 49.65625 
Q 18.953125 53.03125 25.34375 53.03125 
Q 30.03125 53.03125 33.6875 51.046875 
Q 37.359375 49.078125 39.65625 45.90625 
L 39.65625 71.578125 
L 48.390625 71.578125 
L 48.390625 0 
z
M 12.453125 25.875 
Q 12.453125 15.921875 16.640625 10.984375 
Q 20.84375 6.0625 26.5625 6.0625 
Q 32.328125 6.0625 36.34375 10.765625 
Q 40.375 15.484375 40.375 25.140625 
Q 40.375 35.796875 36.265625 40.765625 
Q 32.171875 45.75 26.171875 45.75 
Q 20.3125 45.75 16.375 40.96875 
Q 12.453125 36.1875 12.453125 25.875 
z
" id="ArialMT-100"/>
      <path d="M 40.4375 6.390625 
Q 35.546875 2.25 31.03125 0.53125 
Q 26.515625 -1.171875 21.34375 -1.171875 
Q 12.796875 -1.171875 8.203125 3 
Q 3.609375 7.171875 3.609375 13.671875 
Q 3.609375 17.484375 5.34375 20.625 
Q 7.078125 23.78125 9.890625 25.6875 
Q 12.703125 27.59375 16.21875 28.5625 
Q 18.796875 29.25 24.03125 29.890625 
Q 34.671875 31.15625 39.703125 32.90625 
Q 39.75 34.71875 39.75 35.203125 
Q 39.75 40.578125 37.25 42.78125 
Q 33.890625 45.75 27.25 45.75 
Q 21.046875 45.75 18.09375 43.578125 
Q 15.140625 41.40625 13.71875 35.890625 
L 5.125 37.0625 
Q 6.296875 42.578125 8.984375 45.96875 
Q 11.671875 49.359375 16.75 51.1875 
Q 21.828125 53.03125 28.515625 53.03125 
Q 35.15625 53.03125 39.296875 51.46875 
Q 43.453125 49.90625 45.40625 47.53125 
Q 47.359375 45.171875 48.140625 41.546875 
Q 48.578125 39.3125 48.578125 33.453125 
L 48.578125 21.734375 
Q 48.578125 9.46875 49.140625 6.21875 
Q 49.703125 2.984375 51.375 0 
L 42.1875 0 
Q 40.828125 2.734375 40.4375 6.390625 
z
M 39.703125 26.03125 
Q 34.90625 24.078125 25.34375 22.703125 
Q 19.921875 21.921875 17.671875 20.9375 
Q 15.4375 19.96875 14.203125 18.09375 
Q 12.984375 16.21875 12.984375 13.921875 
Q 12.984375 10.40625 15.640625 8.0625 
Q 18.3125 5.71875 23.4375 5.71875 
Q 28.515625 5.71875 32.46875 7.9375 
Q 36.421875 10.15625 38.28125 14.015625 
Q 39.703125 17 39.703125 22.796875 
z
" id="ArialMT-97"/>
      <path d="M 25.78125 7.859375 
L 27.046875 0.09375 
Q 23.34375 -0.6875 20.40625 -0.6875 
Q 15.625 -0.6875 12.984375 0.828125 
Q 10.359375 2.34375 9.28125 4.8125 
Q 8.203125 7.28125 8.203125 15.1875 
L 8.203125 45.015625 
L 1.765625 45.015625 
L 1.765625 51.859375 
L 8.203125 51.859375 
L 8.203125 64.703125 
L 16.9375 69.96875 
L 16.9375 51.859375 
L 25.78125 51.859375 
L 25.78125 45.015625 
L 16.9375 45.015625 
L 16.9375 14.703125 
Q 16.9375 10.9375 17.40625 9.859375 
Q 17.875 8.796875 18.921875 8.15625 
Q 19.96875 7.515625 21.921875 7.515625 
Q 23.390625 7.515625 25.78125 7.859375 
z
" id="ArialMT-116"/>
     </defs>
     <g style="fill:#262626;" transform="translate(58.821875 23.357813)scale(0.1 -0.1)">
      <use xlink:href="#ArialMT-100"/>
      <use x="55.615234" xlink:href="#ArialMT-97"/>
      <use x="111.230469" xlink:href="#ArialMT-116"/>
      <use x="139.013672" xlink:href="#ArialMT-97"/>
     </g>
    </g>
    <g id="line2d_32">
     <path d="M 30.821875 34.003125 
L 50.821875 34.003125 
" style="fill:none;stroke:#ff7f0e;stroke-linecap:round;stroke-width:1.5;"/>
    </g>
    <g id="line2d_33"/>
    <g id="text_15">
     <!-- NN -->
     <defs>
      <path d="M 7.625 0 
L 7.625 71.578125 
L 17.328125 71.578125 
L 54.9375 15.375 
L 54.9375 71.578125 
L 64.015625 71.578125 
L 64.015625 0 
L 54.296875 0 
L 16.703125 56.25 
L 16.703125 0 
z
" id="ArialMT-78"/>
     </defs>
     <g style="fill:#262626;" transform="translate(58.821875 37.503125)scale(0.1 -0.1)">
      <use xlink:href="#ArialMT-78"/>
      <use x="72.216797" xlink:href="#ArialMT-78"/>
     </g>
    </g>
    <g id="line2d_34">
     <path d="M 30.821875 48.148438 
L 50.821875 48.148438 
" style="fill:none;stroke:#2ca02c;stroke-linecap:round;stroke-width:1.5;"/>
    </g>
    <g id="line2d_35"/>
    <g id="text_16">
     <!-- linear regression -->
     <defs>
      <path d="M 6.390625 0 
L 6.390625 71.578125 
L 15.1875 71.578125 
L 15.1875 0 
z
" id="ArialMT-108"/>
      <path d="M 6.640625 61.46875 
L 6.640625 71.578125 
L 15.4375 71.578125 
L 15.4375 61.46875 
z
M 6.640625 0 
L 6.640625 51.859375 
L 15.4375 51.859375 
L 15.4375 0 
z
" id="ArialMT-105"/>
      <path d="M 6.59375 0 
L 6.59375 51.859375 
L 14.5 51.859375 
L 14.5 44.484375 
Q 20.21875 53.03125 31 53.03125 
Q 35.6875 53.03125 39.625 51.34375 
Q 43.5625 49.65625 45.515625 46.921875 
Q 47.46875 44.1875 48.25 40.4375 
Q 48.734375 37.984375 48.734375 31.890625 
L 48.734375 0 
L 39.9375 0 
L 39.9375 31.546875 
Q 39.9375 36.921875 38.90625 39.578125 
Q 37.890625 42.234375 35.28125 43.8125 
Q 32.671875 45.40625 29.15625 45.40625 
Q 23.53125 45.40625 19.453125 41.84375 
Q 15.375 38.28125 15.375 28.328125 
L 15.375 0 
z
" id="ArialMT-110"/>
      <path d="M 42.09375 16.703125 
L 51.171875 15.578125 
Q 49.03125 7.625 43.21875 3.21875 
Q 37.40625 -1.171875 28.375 -1.171875 
Q 17 -1.171875 10.328125 5.828125 
Q 3.65625 12.84375 3.65625 25.484375 
Q 3.65625 38.578125 10.390625 45.796875 
Q 17.140625 53.03125 27.875 53.03125 
Q 38.28125 53.03125 44.875 45.953125 
Q 51.46875 38.875 51.46875 26.03125 
Q 51.46875 25.25 51.421875 23.6875 
L 12.75 23.6875 
Q 13.234375 15.140625 17.578125 10.59375 
Q 21.921875 6.0625 28.421875 6.0625 
Q 33.25 6.0625 36.671875 8.59375 
Q 40.09375 11.140625 42.09375 16.703125 
z
M 13.234375 30.90625 
L 42.1875 30.90625 
Q 41.609375 37.453125 38.875 40.71875 
Q 34.671875 45.796875 27.984375 45.796875 
Q 21.921875 45.796875 17.796875 41.75 
Q 13.671875 37.703125 13.234375 30.90625 
z
" id="ArialMT-101"/>
      <path d="M 6.5 0 
L 6.5 51.859375 
L 14.40625 51.859375 
L 14.40625 44 
Q 17.4375 49.515625 20 51.265625 
Q 22.5625 53.03125 25.640625 53.03125 
Q 30.078125 53.03125 34.671875 50.203125 
L 31.640625 42.046875 
Q 28.421875 43.953125 25.203125 43.953125 
Q 22.3125 43.953125 20.015625 42.21875 
Q 17.71875 40.484375 16.75 37.40625 
Q 15.28125 32.71875 15.28125 27.15625 
L 15.28125 0 
z
" id="ArialMT-114"/>
      <path id="ArialMT-32"/>
      <path d="M 4.984375 -4.296875 
L 13.53125 -5.5625 
Q 14.0625 -9.515625 16.5 -11.328125 
Q 19.78125 -13.765625 25.4375 -13.765625 
Q 31.546875 -13.765625 34.859375 -11.328125 
Q 38.1875 -8.890625 39.359375 -4.5 
Q 40.046875 -1.8125 39.984375 6.78125 
Q 34.234375 0 25.640625 0 
Q 14.9375 0 9.078125 7.71875 
Q 3.21875 15.4375 3.21875 26.21875 
Q 3.21875 33.640625 5.90625 39.90625 
Q 8.59375 46.1875 13.6875 49.609375 
Q 18.796875 53.03125 25.6875 53.03125 
Q 34.859375 53.03125 40.828125 45.609375 
L 40.828125 51.859375 
L 48.921875 51.859375 
L 48.921875 7.03125 
Q 48.921875 -5.078125 46.453125 -10.125 
Q 44 -15.1875 38.640625 -18.109375 
Q 33.296875 -21.046875 25.484375 -21.046875 
Q 16.21875 -21.046875 10.5 -16.875 
Q 4.78125 -12.703125 4.984375 -4.296875 
z
M 12.25 26.859375 
Q 12.25 16.65625 16.296875 11.96875 
Q 20.359375 7.28125 26.46875 7.28125 
Q 32.515625 7.28125 36.609375 11.9375 
Q 40.71875 16.609375 40.71875 26.5625 
Q 40.71875 36.078125 36.5 40.90625 
Q 32.28125 45.75 26.3125 45.75 
Q 20.453125 45.75 16.34375 40.984375 
Q 12.25 36.234375 12.25 26.859375 
z
" id="ArialMT-103"/>
      <path d="M 3.078125 15.484375 
L 11.765625 16.84375 
Q 12.5 11.625 15.84375 8.84375 
Q 19.1875 6.0625 25.203125 6.0625 
Q 31.25 6.0625 34.171875 8.515625 
Q 37.109375 10.984375 37.109375 14.3125 
Q 37.109375 17.28125 34.515625 19 
Q 32.71875 20.171875 25.53125 21.96875 
Q 15.875 24.421875 12.140625 26.203125 
Q 8.40625 27.984375 6.46875 31.125 
Q 4.546875 34.28125 4.546875 38.09375 
Q 4.546875 41.546875 6.125 44.5 
Q 7.71875 47.46875 10.453125 49.421875 
Q 12.5 50.921875 16.03125 51.96875 
Q 19.578125 53.03125 23.640625 53.03125 
Q 29.734375 53.03125 34.34375 51.265625 
Q 38.96875 49.515625 41.15625 46.5 
Q 43.359375 43.5 44.1875 38.484375 
L 35.59375 37.3125 
Q 35.015625 41.3125 32.203125 43.546875 
Q 29.390625 45.796875 24.265625 45.796875 
Q 18.21875 45.796875 15.625 43.796875 
Q 13.03125 41.796875 13.03125 39.109375 
Q 13.03125 37.40625 14.109375 36.03125 
Q 15.1875 34.625 17.484375 33.6875 
Q 18.796875 33.203125 25.25 31.453125 
Q 34.578125 28.953125 38.25 27.359375 
Q 41.9375 25.78125 44.03125 22.75 
Q 46.140625 19.734375 46.140625 15.234375 
Q 46.140625 10.84375 43.578125 6.953125 
Q 41.015625 3.078125 36.171875 0.953125 
Q 31.34375 -1.171875 25.25 -1.171875 
Q 15.140625 -1.171875 9.84375 3.03125 
Q 4.546875 7.234375 3.078125 15.484375 
z
" id="ArialMT-115"/>
      <path d="M 3.328125 25.921875 
Q 3.328125 40.328125 11.328125 47.265625 
Q 18.015625 53.03125 27.640625 53.03125 
Q 38.328125 53.03125 45.109375 46.015625 
Q 51.90625 39.015625 51.90625 26.65625 
Q 51.90625 16.65625 48.90625 10.90625 
Q 45.90625 5.171875 40.15625 2 
Q 34.421875 -1.171875 27.640625 -1.171875 
Q 16.75 -1.171875 10.03125 5.8125 
Q 3.328125 12.796875 3.328125 25.921875 
z
M 12.359375 25.921875 
Q 12.359375 15.96875 16.703125 11.015625 
Q 21.046875 6.0625 27.640625 6.0625 
Q 34.1875 6.0625 38.53125 11.03125 
Q 42.875 16.015625 42.875 26.21875 
Q 42.875 35.84375 38.5 40.796875 
Q 34.125 45.75 27.640625 45.75 
Q 21.046875 45.75 16.703125 40.8125 
Q 12.359375 35.890625 12.359375 25.921875 
z
" id="ArialMT-111"/>
     </defs>
     <g style="fill:#262626;" transform="translate(58.821875 51.648438)scale(0.1 -0.1)">
      <use xlink:href="#ArialMT-108"/>
      <use x="22.216797" xlink:href="#ArialMT-105"/>
      <use x="44.433594" xlink:href="#ArialMT-110"/>
      <use x="100.048828" xlink:href="#ArialMT-101"/>
      <use x="155.664062" xlink:href="#ArialMT-97"/>
      <use x="211.279297" xlink:href="#ArialMT-114"/>
      <use x="244.580078" xlink:href="#ArialMT-32"/>
      <use x="272.363281" xlink:href="#ArialMT-114"/>
      <use x="305.664062" xlink:href="#ArialMT-101"/>
      <use x="361.279297" xlink:href="#ArialMT-103"/>
      <use x="416.894531" xlink:href="#ArialMT-114"/>
      <use x="450.195312" xlink:href="#ArialMT-101"/>
      <use x="505.810547" xlink:href="#ArialMT-115"/>
      <use x="555.810547" xlink:href="#ArialMT-115"/>
      <use x="605.810547" xlink:href="#ArialMT-105"/>
      <use x="628.027344" xlink:href="#ArialMT-111"/>
      <use x="683.642578" xlink:href="#ArialMT-110"/>
     </g>
    </g>
   </g>
  </g>
 </g>
 <defs>
  <clipPath id="p883cdbbbae">
   <rect height="326.16" width="558" x="21.821875" y="7.2"/>
  </clipPath>
 </defs>
</svg>
