<?xml version="1.0" encoding="utf-8" standalone="no"?>
<!DOCTYPE svg PUBLIC "-//W3C//DTD SVG 1.1//EN"
  "http://www.w3.org/Graphics/SVG/1.1/DTD/svg11.dtd">
<!-- Created with matplotlib (https://matplotlib.org/) -->
<svg height="354.244913pt" version="1.1" viewBox="0 0 595.360937 354.244913" width="595.360937pt" xmlns="http://www.w3.org/2000/svg" xmlns:xlink="http://www.w3.org/1999/xlink">
 <defs>
  <style type="text/css">
*{stroke-linecap:butt;stroke-linejoin:round;}
  </style>
 </defs>
 <g id="figure_1">
  <g id="patch_1">
   <path d="M 0 354.244913 
L 595.360937 354.244913 
L 595.360937 0 
L 0 0 
z
" style="fill:#ffffff;"/>
  </g>
  <g id="axes_1">
   <g id="patch_2">
    <path d="M 30.160938 334.399601 
L 588.160938 334.399601 
L 588.160938 8.239601 
L 30.160938 8.239601 
z
" style="fill:#ffffff;"/>
   </g>
   <g id="matplotlib.axis_1">
    <g id="xtick_1">
     <g id="line2d_1">
      <path clip-path="url(#p65637845b7)" d="M 55.524574 334.399601 
L 55.524574 8.239601 
" style="fill:none;stroke:#cccccc;stroke-linecap:round;stroke-width:0.8;"/>
     </g>
     <g id="line2d_2"/>
     <g id="text_1">
      <!-- 0.0 -->
      <defs>
       <path d="M 4.15625 35.296875 
Q 4.15625 48 6.765625 55.734375 
Q 9.375 63.484375 14.515625 67.671875 
Q 19.671875 71.875 27.484375 71.875 
Q 33.25 71.875 37.59375 69.546875 
Q 41.9375 67.234375 44.765625 62.859375 
Q 47.609375 58.5 49.21875 52.21875 
Q 50.828125 45.953125 50.828125 35.296875 
Q 50.828125 22.703125 48.234375 14.96875 
Q 45.65625 7.234375 40.5 3 
Q 35.359375 -1.21875 27.484375 -1.21875 
Q 17.140625 -1.21875 11.234375 6.203125 
Q 4.15625 15.140625 4.15625 35.296875 
z
M 13.1875 35.296875 
Q 13.1875 17.671875 17.3125 11.828125 
Q 21.4375 6 27.484375 6 
Q 33.546875 6 37.671875 11.859375 
Q 41.796875 17.71875 41.796875 35.296875 
Q 41.796875 52.984375 37.671875 58.78125 
Q 33.546875 64.59375 27.390625 64.59375 
Q 21.34375 64.59375 17.71875 59.46875 
Q 13.1875 52.9375 13.1875 35.296875 
z
" id="ArialMT-48"/>
       <path d="M 9.078125 0 
L 9.078125 10.015625 
L 19.09375 10.015625 
L 19.09375 0 
z
" id="ArialMT-46"/>
      </defs>
      <g style="fill:#262626;" transform="translate(48.574574 345.057413)scale(0.1 -0.1)">
       <use xlink:href="#ArialMT-48"/>
       <use x="55.615234" xlink:href="#ArialMT-46"/>
       <use x="83.398438" xlink:href="#ArialMT-48"/>
      </g>
     </g>
    </g>
    <g id="xtick_2">
     <g id="line2d_3">
      <path clip-path="url(#p65637845b7)" d="M 118.933665 334.399601 
L 118.933665 8.239601 
" style="fill:none;stroke:#cccccc;stroke-linecap:round;stroke-width:0.8;"/>
     </g>
     <g id="line2d_4"/>
     <g id="text_2">
      <!-- 2.5 -->
      <defs>
       <path d="M 50.34375 8.453125 
L 50.34375 0 
L 3.03125 0 
Q 2.9375 3.171875 4.046875 6.109375 
Q 5.859375 10.9375 9.828125 15.625 
Q 13.8125 20.3125 21.34375 26.46875 
Q 33.015625 36.03125 37.109375 41.625 
Q 41.21875 47.21875 41.21875 52.203125 
Q 41.21875 57.421875 37.46875 61 
Q 33.734375 64.59375 27.734375 64.59375 
Q 21.390625 64.59375 17.578125 60.78125 
Q 13.765625 56.984375 13.71875 50.25 
L 4.6875 51.171875 
Q 5.609375 61.28125 11.65625 66.578125 
Q 17.71875 71.875 27.9375 71.875 
Q 38.234375 71.875 44.234375 66.15625 
Q 50.25 60.453125 50.25 52 
Q 50.25 47.703125 48.484375 43.546875 
Q 46.734375 39.40625 42.65625 34.8125 
Q 38.578125 30.21875 29.109375 22.21875 
Q 21.1875 15.578125 18.9375 13.203125 
Q 16.703125 10.84375 15.234375 8.453125 
z
" id="ArialMT-50"/>
       <path d="M 4.15625 18.75 
L 13.375 19.53125 
Q 14.40625 12.796875 18.140625 9.390625 
Q 21.875 6 27.15625 6 
Q 33.5 6 37.890625 10.78125 
Q 42.28125 15.578125 42.28125 23.484375 
Q 42.28125 31 38.0625 35.34375 
Q 33.84375 39.703125 27 39.703125 
Q 22.75 39.703125 19.328125 37.765625 
Q 15.921875 35.84375 13.96875 32.765625 
L 5.71875 33.84375 
L 12.640625 70.609375 
L 48.25 70.609375 
L 48.25 62.203125 
L 19.671875 62.203125 
L 15.828125 42.96875 
Q 22.265625 47.46875 29.34375 47.46875 
Q 38.71875 47.46875 45.15625 40.96875 
Q 51.609375 34.46875 51.609375 24.265625 
Q 51.609375 14.546875 45.953125 7.46875 
Q 39.0625 -1.21875 27.15625 -1.21875 
Q 17.390625 -1.21875 11.203125 4.25 
Q 5.03125 9.71875 4.15625 18.75 
z
" id="ArialMT-53"/>
      </defs>
      <g style="fill:#262626;" transform="translate(111.983665 345.057413)scale(0.1 -0.1)">
       <use xlink:href="#ArialMT-50"/>
       <use x="55.615234" xlink:href="#ArialMT-46"/>
       <use x="83.398438" xlink:href="#ArialMT-53"/>
      </g>
     </g>
    </g>
    <g id="xtick_3">
     <g id="line2d_5">
      <path clip-path="url(#p65637845b7)" d="M 182.342756 334.399601 
L 182.342756 8.239601 
" style="fill:none;stroke:#cccccc;stroke-linecap:round;stroke-width:0.8;"/>
     </g>
     <g id="line2d_6"/>
     <g id="text_3">
      <!-- 5.0 -->
      <g style="fill:#262626;" transform="translate(175.392756 345.057413)scale(0.1 -0.1)">
       <use xlink:href="#ArialMT-53"/>
       <use x="55.615234" xlink:href="#ArialMT-46"/>
       <use x="83.398438" xlink:href="#ArialMT-48"/>
      </g>
     </g>
    </g>
    <g id="xtick_4">
     <g id="line2d_7">
      <path clip-path="url(#p65637845b7)" d="M 245.751847 334.399601 
L 245.751847 8.239601 
" style="fill:none;stroke:#cccccc;stroke-linecap:round;stroke-width:0.8;"/>
     </g>
     <g id="line2d_8"/>
     <g id="text_4">
      <!-- 7.5 -->
      <defs>
       <path d="M 4.734375 62.203125 
L 4.734375 70.65625 
L 51.078125 70.65625 
L 51.078125 63.8125 
Q 44.234375 56.546875 37.515625 44.484375 
Q 30.8125 32.421875 27.15625 19.671875 
Q 24.515625 10.6875 23.78125 0 
L 14.75 0 
Q 14.890625 8.453125 18.0625 20.40625 
Q 21.234375 32.375 27.171875 43.484375 
Q 33.109375 54.59375 39.796875 62.203125 
z
" id="ArialMT-55"/>
      </defs>
      <g style="fill:#262626;" transform="translate(238.801847 345.057413)scale(0.1 -0.1)">
       <use xlink:href="#ArialMT-55"/>
       <use x="55.615234" xlink:href="#ArialMT-46"/>
       <use x="83.398438" xlink:href="#ArialMT-53"/>
      </g>
     </g>
    </g>
    <g id="xtick_5">
     <g id="line2d_9">
      <path clip-path="url(#p65637845b7)" d="M 309.160937 334.399601 
L 309.160937 8.239601 
" style="fill:none;stroke:#cccccc;stroke-linecap:round;stroke-width:0.8;"/>
     </g>
     <g id="line2d_10"/>
     <g id="text_5">
      <!-- 10.0 -->
      <defs>
       <path d="M 37.25 0 
L 28.46875 0 
L 28.46875 56 
Q 25.296875 52.984375 20.140625 49.953125 
Q 14.984375 46.921875 10.890625 45.40625 
L 10.890625 53.90625 
Q 18.265625 57.375 23.78125 62.296875 
Q 29.296875 67.234375 31.59375 71.875 
L 37.25 71.875 
z
" id="ArialMT-49"/>
      </defs>
      <g style="fill:#262626;" transform="translate(299.430469 345.057413)scale(0.1 -0.1)">
       <use xlink:href="#ArialMT-49"/>
       <use x="55.615234" xlink:href="#ArialMT-48"/>
       <use x="111.230469" xlink:href="#ArialMT-46"/>
       <use x="139.013672" xlink:href="#ArialMT-48"/>
      </g>
     </g>
    </g>
    <g id="xtick_6">
     <g id="line2d_11">
      <path clip-path="url(#p65637845b7)" d="M 372.570028 334.399601 
L 372.570028 8.239601 
" style="fill:none;stroke:#cccccc;stroke-linecap:round;stroke-width:0.8;"/>
     </g>
     <g id="line2d_12"/>
     <g id="text_6">
      <!-- 12.5 -->
      <g style="fill:#262626;" transform="translate(362.83956 345.057413)scale(0.1 -0.1)">
       <use xlink:href="#ArialMT-49"/>
       <use x="55.615234" xlink:href="#ArialMT-50"/>
       <use x="111.230469" xlink:href="#ArialMT-46"/>
       <use x="139.013672" xlink:href="#ArialMT-53"/>
      </g>
     </g>
    </g>
    <g id="xtick_7">
     <g id="line2d_13">
      <path clip-path="url(#p65637845b7)" d="M 435.979119 334.399601 
L 435.979119 8.239601 
" style="fill:none;stroke:#cccccc;stroke-linecap:round;stroke-width:0.8;"/>
     </g>
     <g id="line2d_14"/>
     <g id="text_7">
      <!-- 15.0 -->
      <g style="fill:#262626;" transform="translate(426.248651 345.057413)scale(0.1 -0.1)">
       <use xlink:href="#ArialMT-49"/>
       <use x="55.615234" xlink:href="#ArialMT-53"/>
       <use x="111.230469" xlink:href="#ArialMT-46"/>
       <use x="139.013672" xlink:href="#ArialMT-48"/>
      </g>
     </g>
    </g>
    <g id="xtick_8">
     <g id="line2d_15">
      <path clip-path="url(#p65637845b7)" d="M 499.38821 334.399601 
L 499.38821 8.239601 
" style="fill:none;stroke:#cccccc;stroke-linecap:round;stroke-width:0.8;"/>
     </g>
     <g id="line2d_16"/>
     <g id="text_8">
      <!-- 17.5 -->
      <g style="fill:#262626;" transform="translate(489.657741 345.057413)scale(0.1 -0.1)">
       <use xlink:href="#ArialMT-49"/>
       <use x="55.615234" xlink:href="#ArialMT-55"/>
       <use x="111.230469" xlink:href="#ArialMT-46"/>
       <use x="139.013672" xlink:href="#ArialMT-53"/>
      </g>
     </g>
    </g>
    <g id="xtick_9">
     <g id="line2d_17">
      <path clip-path="url(#p65637845b7)" d="M 562.797301 334.399601 
L 562.797301 8.239601 
" style="fill:none;stroke:#cccccc;stroke-linecap:round;stroke-width:0.8;"/>
     </g>
     <g id="line2d_18"/>
     <g id="text_9">
      <!-- 20.0 -->
      <g style="fill:#262626;" transform="translate(553.066832 345.057413)scale(0.1 -0.1)">
       <use xlink:href="#ArialMT-50"/>
       <use x="55.615234" xlink:href="#ArialMT-48"/>
       <use x="111.230469" xlink:href="#ArialMT-46"/>
       <use x="139.013672" xlink:href="#ArialMT-48"/>
      </g>
     </g>
    </g>
   </g>
   <g id="matplotlib.axis_2">
    <g id="ytick_1">
     <g id="line2d_19">
      <path clip-path="url(#p65637845b7)" d="M 30.160938 296.972387 
L 588.160938 296.972387 
" style="fill:none;stroke:#cccccc;stroke-linecap:round;stroke-width:0.8;"/>
     </g>
     <g id="line2d_20"/>
     <g id="text_10">
      <!-- 2.5 -->
      <g style="fill:#262626;" transform="translate(12.760938 300.551293)scale(0.1 -0.1)">
       <use xlink:href="#ArialMT-50"/>
       <use x="55.615234" xlink:href="#ArialMT-46"/>
       <use x="83.398438" xlink:href="#ArialMT-53"/>
      </g>
     </g>
    </g>
    <g id="ytick_2">
     <g id="line2d_21">
      <path clip-path="url(#p65637845b7)" d="M 30.160938 256.087604 
L 588.160938 256.087604 
" style="fill:none;stroke:#cccccc;stroke-linecap:round;stroke-width:0.8;"/>
     </g>
     <g id="line2d_22"/>
     <g id="text_11">
      <!-- 5.0 -->
      <g style="fill:#262626;" transform="translate(12.760938 259.66651)scale(0.1 -0.1)">
       <use xlink:href="#ArialMT-53"/>
       <use x="55.615234" xlink:href="#ArialMT-46"/>
       <use x="83.398438" xlink:href="#ArialMT-48"/>
      </g>
     </g>
    </g>
    <g id="ytick_3">
     <g id="line2d_23">
      <path clip-path="url(#p65637845b7)" d="M 30.160938 215.202821 
L 588.160938 215.202821 
" style="fill:none;stroke:#cccccc;stroke-linecap:round;stroke-width:0.8;"/>
     </g>
     <g id="line2d_24"/>
     <g id="text_12">
      <!-- 7.5 -->
      <g style="fill:#262626;" transform="translate(12.760938 218.781727)scale(0.1 -0.1)">
       <use xlink:href="#ArialMT-55"/>
       <use x="55.615234" xlink:href="#ArialMT-46"/>
       <use x="83.398438" xlink:href="#ArialMT-53"/>
      </g>
     </g>
    </g>
    <g id="ytick_4">
     <g id="line2d_25">
      <path clip-path="url(#p65637845b7)" d="M 30.160938 174.318038 
L 588.160938 174.318038 
" style="fill:none;stroke:#cccccc;stroke-linecap:round;stroke-width:0.8;"/>
     </g>
     <g id="line2d_26"/>
     <g id="text_13">
      <!-- 10.0 -->
      <g style="fill:#262626;" transform="translate(7.2 177.896944)scale(0.1 -0.1)">
       <use xlink:href="#ArialMT-49"/>
       <use x="55.615234" xlink:href="#ArialMT-48"/>
       <use x="111.230469" xlink:href="#ArialMT-46"/>
       <use x="139.013672" xlink:href="#ArialMT-48"/>
      </g>
     </g>
    </g>
    <g id="ytick_5">
     <g id="line2d_27">
      <path clip-path="url(#p65637845b7)" d="M 30.160938 133.433255 
L 588.160938 133.433255 
" style="fill:none;stroke:#cccccc;stroke-linecap:round;stroke-width:0.8;"/>
     </g>
     <g id="line2d_28"/>
     <g id="text_14">
      <!-- 12.5 -->
      <g style="fill:#262626;" transform="translate(7.2 137.012161)scale(0.1 -0.1)">
       <use xlink:href="#ArialMT-49"/>
       <use x="55.615234" xlink:href="#ArialMT-50"/>
       <use x="111.230469" xlink:href="#ArialMT-46"/>
       <use x="139.013672" xlink:href="#ArialMT-53"/>
      </g>
     </g>
    </g>
    <g id="ytick_6">
     <g id="line2d_29">
      <path clip-path="url(#p65637845b7)" d="M 30.160938 92.548472 
L 588.160938 92.548472 
" style="fill:none;stroke:#cccccc;stroke-linecap:round;stroke-width:0.8;"/>
     </g>
     <g id="line2d_30"/>
     <g id="text_15">
      <!-- 15.0 -->
      <g style="fill:#262626;" transform="translate(7.2 96.127378)scale(0.1 -0.1)">
       <use xlink:href="#ArialMT-49"/>
       <use x="55.615234" xlink:href="#ArialMT-53"/>
       <use x="111.230469" xlink:href="#ArialMT-46"/>
       <use x="139.013672" xlink:href="#ArialMT-48"/>
      </g>
     </g>
    </g>
    <g id="ytick_7">
     <g id="line2d_31">
      <path clip-path="url(#p65637845b7)" d="M 30.160938 51.663689 
L 588.160938 51.663689 
" style="fill:none;stroke:#cccccc;stroke-linecap:round;stroke-width:0.8;"/>
     </g>
     <g id="line2d_32"/>
     <g id="text_16">
      <!-- 17.5 -->
      <g style="fill:#262626;" transform="translate(7.2 55.242595)scale(0.1 -0.1)">
       <use xlink:href="#ArialMT-49"/>
       <use x="55.615234" xlink:href="#ArialMT-55"/>
       <use x="111.230469" xlink:href="#ArialMT-46"/>
       <use x="139.013672" xlink:href="#ArialMT-53"/>
      </g>
     </g>
    </g>
    <g id="ytick_8">
     <g id="line2d_33">
      <path clip-path="url(#p65637845b7)" d="M 30.160938 10.778906 
L 588.160938 10.778906 
" style="fill:none;stroke:#cccccc;stroke-linecap:round;stroke-width:0.8;"/>
     </g>
     <g id="line2d_34"/>
     <g id="text_17">
      <!-- 20.0 -->
      <g style="fill:#262626;" transform="translate(7.2 14.357812)scale(0.1 -0.1)">
       <use xlink:href="#ArialMT-50"/>
       <use x="55.615234" xlink:href="#ArialMT-48"/>
       <use x="111.230469" xlink:href="#ArialMT-46"/>
       <use x="139.013672" xlink:href="#ArialMT-48"/>
      </g>
     </g>
    </g>
   </g>
   <g id="line2d_35">
    <defs>
     <path d="M 0 1.5 
C 0.397805 1.5 0.77937 1.341951 1.06066 1.06066 
C 1.341951 0.77937 1.5 0.397805 1.5 0 
C 1.5 -0.397805 1.341951 -0.77937 1.06066 -1.06066 
C 0.77937 -1.341951 0.397805 -1.5 0 -1.5 
C -0.397805 -1.5 -0.77937 -1.341951 -1.06066 -1.06066 
C -1.341951 -0.77937 -1.5 -0.397805 -1.5 0 
C -1.5 0.397805 -1.341951 0.77937 -1.06066 1.06066 
C -0.77937 1.341951 -0.397805 1.5 0 1.5 
z
" id="m077411af5b" style="stroke:#1f77b4;"/>
    </defs>
    <g clip-path="url(#p65637845b7)">
     <use style="fill:#1f77b4;stroke:#1f77b4;" x="56.518249" xlink:href="#m077411af5b" y="251.880526"/>
     <use style="fill:#1f77b4;stroke:#1f77b4;" x="64.681676" xlink:href="#m077411af5b" y="302.067324"/>
     <use style="fill:#1f77b4;stroke:#1f77b4;" x="201.013897" xlink:href="#m077411af5b" y="220.087108"/>
     <use style="fill:#1f77b4;stroke:#1f77b4;" x="404.366275" xlink:href="#m077411af5b" y="145.111883"/>
     <use style="fill:#1f77b4;stroke:#1f77b4;" x="58.599657" xlink:href="#m077411af5b" y="299.746869"/>
     <use style="fill:#1f77b4;stroke:#1f77b4;" x="72.151299" xlink:href="#m077411af5b" y="319.574146"/>
     <use style="fill:#1f77b4;stroke:#1f77b4;" x="129.601386" xlink:href="#m077411af5b" y="211.87692"/>
     <use style="fill:#1f77b4;stroke:#1f77b4;" x="192.303421" xlink:href="#m077411af5b" y="249.603564"/>
     <use style="fill:#1f77b4;stroke:#1f77b4;" x="274.556428" xlink:href="#m077411af5b" y="190.834967"/>
     <use style="fill:#1f77b4;stroke:#1f77b4;" x="348.652991" xlink:href="#m077411af5b" y="105.657181"/>
     <use style="fill:#1f77b4;stroke:#1f77b4;" x="251.763965" xlink:href="#m077411af5b" y="204.776777"/>
     <use style="fill:#1f77b4;stroke:#1f77b4;" x="327.345158" xlink:href="#m077411af5b" y="182.288345"/>
     <use style="fill:#1f77b4;stroke:#1f77b4;" x="265.232694" xlink:href="#m077411af5b" y="242.035515"/>
     <use style="fill:#1f77b4;stroke:#1f77b4;" x="255.079254" xlink:href="#m077411af5b" y="141.86845"/>
     <use style="fill:#1f77b4;stroke:#1f77b4;" x="502.49024" xlink:href="#m077411af5b" y="51.307404"/>
     <use style="fill:#1f77b4;stroke:#1f77b4;" x="118.109311" xlink:href="#m077411af5b" y="203.599307"/>
     <use style="fill:#1f77b4;stroke:#1f77b4;" x="282.521089" xlink:href="#m077411af5b" y="270.745617"/>
     <use style="fill:#1f77b4;stroke:#1f77b4;" x="266.926633" xlink:href="#m077411af5b" y="186.692168"/>
     <use style="fill:#1f77b4;stroke:#1f77b4;" x="172.444286" xlink:href="#m077411af5b" y="216.088364"/>
     <use style="fill:#1f77b4;stroke:#1f77b4;" x="295.894976" xlink:href="#m077411af5b" y="115.872325"/>
     <use style="fill:#1f77b4;stroke:#1f77b4;" x="373.090804" xlink:href="#m077411af5b" y="220.39576"/>
     <use style="fill:#1f77b4;stroke:#1f77b4;" x="394.543495" xlink:href="#m077411af5b" y="77.373326"/>
     <use style="fill:#1f77b4;stroke:#1f77b4;" x="69.180083" xlink:href="#m077411af5b" y="261.276457"/>
     <use style="fill:#1f77b4;stroke:#1f77b4;" x="327.161819" xlink:href="#m077411af5b" y="208.958337"/>
     <use style="fill:#1f77b4;stroke:#1f77b4;" x="191.878633" xlink:href="#m077411af5b" y="287.140479"/>
     <use style="fill:#1f77b4;stroke:#1f77b4;" x="273.767389" xlink:href="#m077411af5b" y="228.839435"/>
     <use style="fill:#1f77b4;stroke:#1f77b4;" x="544.131614" xlink:href="#m077411af5b" y="96.524489"/>
     <use style="fill:#1f77b4;stroke:#1f77b4;" x="103.504162" xlink:href="#m077411af5b" y="257.981178"/>
     <use style="fill:#1f77b4;stroke:#1f77b4;" x="113.74234" xlink:href="#m077411af5b" y="236.427295"/>
     <use style="fill:#1f77b4;stroke:#1f77b4;" x="89.329248" xlink:href="#m077411af5b" y="260.67635"/>
     <use style="fill:#1f77b4;stroke:#1f77b4;" x="551.453478" xlink:href="#m077411af5b" y="78.649727"/>
     <use style="fill:#1f77b4;stroke:#1f77b4;" x="458.295621" xlink:href="#m077411af5b" y="95.699111"/>
     <use style="fill:#1f77b4;stroke:#1f77b4;" x="336.240209" xlink:href="#m077411af5b" y="149.548439"/>
     <use style="fill:#1f77b4;stroke:#1f77b4;" x="279.473209" xlink:href="#m077411af5b" y="221.485564"/>
     <use style="fill:#1f77b4;stroke:#1f77b4;" x="263.645364" xlink:href="#m077411af5b" y="141.339265"/>
     <use style="fill:#1f77b4;stroke:#1f77b4;" x="202.384001" xlink:href="#m077411af5b" y="287.386049"/>
     <use style="fill:#1f77b4;stroke:#1f77b4;" x="469.717062" xlink:href="#m077411af5b" y="79.891911"/>
     <use style="fill:#1f77b4;stroke:#1f77b4;" x="241.354553" xlink:href="#m077411af5b" y="208.117225"/>
     <use style="fill:#1f77b4;stroke:#1f77b4;" x="428.863692" xlink:href="#m077411af5b" y="97.121419"/>
     <use style="fill:#1f77b4;stroke:#1f77b4;" x="71.07833" xlink:href="#m077411af5b" y="268.936818"/>
     <use style="fill:#1f77b4;stroke:#1f77b4;" x="515.478392" xlink:href="#m077411af5b" y="93.554987"/>
     <use style="fill:#1f77b4;stroke:#1f77b4;" x="130.496809" xlink:href="#m077411af5b" y="219.808034"/>
     <use style="fill:#1f77b4;stroke:#1f77b4;" x="208.688979" xlink:href="#m077411af5b" y="225.062504"/>
     <use style="fill:#1f77b4;stroke:#1f77b4;" x="77.959672" xlink:href="#m077411af5b" y="309.135603"/>
     <use style="fill:#1f77b4;stroke:#1f77b4;" x="532.453389" xlink:href="#m077411af5b" y="119.359385"/>
     <use style="fill:#1f77b4;stroke:#1f77b4;" x="485.792402" xlink:href="#m077411af5b" y="134.840349"/>
     <use style="fill:#1f77b4;stroke:#1f77b4;" x="349.735381" xlink:href="#m077411af5b" y="132.111405"/>
     <use style="fill:#1f77b4;stroke:#1f77b4;" x="329.400446" xlink:href="#m077411af5b" y="148.210237"/>
     <use style="fill:#1f77b4;stroke:#1f77b4;" x="558.080011" xlink:href="#m077411af5b" y="85.897265"/>
     <use style="fill:#1f77b4;stroke:#1f77b4;" x="229.754982" xlink:href="#m077411af5b" y="245.520763"/>
     <use style="fill:#1f77b4;stroke:#1f77b4;" x="483.322849" xlink:href="#m077411af5b" y="82.790902"/>
     <use style="fill:#1f77b4;stroke:#1f77b4;" x="487.189994" xlink:href="#m077411af5b" y="149.612509"/>
     <use style="fill:#1f77b4;stroke:#1f77b4;" x="496.263366" xlink:href="#m077411af5b" y="95.258247"/>
     <use style="fill:#1f77b4;stroke:#1f77b4;" x="168.07168" xlink:href="#m077411af5b" y="236.922133"/>
     <use style="fill:#1f77b4;stroke:#1f77b4;" x="320.487636" xlink:href="#m077411af5b" y="117.358493"/>
     <use style="fill:#1f77b4;stroke:#1f77b4;" x="348.475441" xlink:href="#m077411af5b" y="186.251688"/>
     <use style="fill:#1f77b4;stroke:#1f77b4;" x="441.511176" xlink:href="#m077411af5b" y="83.218528"/>
     <use style="fill:#1f77b4;stroke:#1f77b4;" x="407.336025" xlink:href="#m077411af5b" y="133.176939"/>
     <use style="fill:#1f77b4;stroke:#1f77b4;" x="330.120555" xlink:href="#m077411af5b" y="170.239371"/>
     <use style="fill:#1f77b4;stroke:#1f77b4;" x="467.059841" xlink:href="#m077411af5b" y="133.94238"/>
     <use style="fill:#1f77b4;stroke:#1f77b4;" x="82.002458" xlink:href="#m077411af5b" y="290.364543"/>
     <use style="fill:#1f77b4;stroke:#1f77b4;" x="188.029567" xlink:href="#m077411af5b" y="226.546834"/>
     <use style="fill:#1f77b4;stroke:#1f77b4;" x="110.466648" xlink:href="#m077411af5b" y="231.615898"/>
     <use style="fill:#1f77b4;stroke:#1f77b4;" x="58.460366" xlink:href="#m077411af5b" y="292.911605"/>
     <use style="fill:#1f77b4;stroke:#1f77b4;" x="520.335962" xlink:href="#m077411af5b" y="45.368235"/>
     <use style="fill:#1f77b4;stroke:#1f77b4;" x="361.570215" xlink:href="#m077411af5b" y="162.431735"/>
     <use style="fill:#1f77b4;stroke:#1f77b4;" x="93.206405" xlink:href="#m077411af5b" y="173.551792"/>
     <use style="fill:#1f77b4;stroke:#1f77b4;" x="110.921585" xlink:href="#m077411af5b" y="269.645259"/>
     <use style="fill:#1f77b4;stroke:#1f77b4;" x="502.081538" xlink:href="#m077411af5b" y="23.065055"/>
     <use style="fill:#1f77b4;stroke:#1f77b4;" x="231.958851" xlink:href="#m077411af5b" y="235.089189"/>
     <use style="fill:#1f77b4;stroke:#1f77b4;" x="486.38469" xlink:href="#m077411af5b" y="126.922956"/>
     <use style="fill:#1f77b4;stroke:#1f77b4;" x="399.980901" xlink:href="#m077411af5b" y="161.362231"/>
     <use style="fill:#1f77b4;stroke:#1f77b4;" x="155.586983" xlink:href="#m077411af5b" y="238.970444"/>
     <use style="fill:#1f77b4;stroke:#1f77b4;" x="317.763617" xlink:href="#m077411af5b" y="111.2928"/>
     <use style="fill:#1f77b4;stroke:#1f77b4;" x="144.731426" xlink:href="#m077411af5b" y="231.16062"/>
     <use style="fill:#1f77b4;stroke:#1f77b4;" x="424.916281" xlink:href="#m077411af5b" y="155.807394"/>
     <use style="fill:#1f77b4;stroke:#1f77b4;" x="277.387575" xlink:href="#m077411af5b" y="204.419537"/>
     <use style="fill:#1f77b4;stroke:#1f77b4;" x="84.484985" xlink:href="#m077411af5b" y="313.02828"/>
     <use style="fill:#1f77b4;stroke:#1f77b4;" x="342.3444" xlink:href="#m077411af5b" y="120.276589"/>
     <use style="fill:#1f77b4;stroke:#1f77b4;" x="247.399053" xlink:href="#m077411af5b" y="217.125985"/>
     <use style="fill:#1f77b4;stroke:#1f77b4;" x="415.864866" xlink:href="#m077411af5b" y="132.254121"/>
     <use style="fill:#1f77b4;stroke:#1f77b4;" x="511.921076" xlink:href="#m077411af5b" y="65.151324"/>
     <use style="fill:#1f77b4;stroke:#1f77b4;" x="348.452312" xlink:href="#m077411af5b" y="174.526615"/>
     <use style="fill:#1f77b4;stroke:#1f77b4;" x="257.802407" xlink:href="#m077411af5b" y="167.033239"/>
     <use style="fill:#1f77b4;stroke:#1f77b4;" x="135.762825" xlink:href="#m077411af5b" y="247.232832"/>
     <use style="fill:#1f77b4;stroke:#1f77b4;" x="195.890916" xlink:href="#m077411af5b" y="191.066594"/>
     <use style="fill:#1f77b4;stroke:#1f77b4;" x="201.831778" xlink:href="#m077411af5b" y="258.127595"/>
     <use style="fill:#1f77b4;stroke:#1f77b4;" x="402.539061" xlink:href="#m077411af5b" y="88.01837"/>
     <use style="fill:#1f77b4;stroke:#1f77b4;" x="256.605997" xlink:href="#m077411af5b" y="159.195898"/>
     <use style="fill:#1f77b4;stroke:#1f77b4;" x="121.319968" xlink:href="#m077411af5b" y="253.334293"/>
     <use style="fill:#1f77b4;stroke:#1f77b4;" x="445.552006" xlink:href="#m077411af5b" y="98.400049"/>
     <use style="fill:#1f77b4;stroke:#1f77b4;" x="471.257897" xlink:href="#m077411af5b" y="150.903275"/>
     <use style="fill:#1f77b4;stroke:#1f77b4;" x="326.228114" xlink:href="#m077411af5b" y="109.105829"/>
     <use style="fill:#1f77b4;stroke:#1f77b4;" x="126.310038" xlink:href="#m077411af5b" y="254.454732"/>
     <use style="fill:#1f77b4;stroke:#1f77b4;" x="522.69352" xlink:href="#m077411af5b" y="80.693828"/>
     <use style="fill:#1f77b4;stroke:#1f77b4;" x="246.881408" xlink:href="#m077411af5b" y="211.600062"/>
     <use style="fill:#1f77b4;stroke:#1f77b4;" x="181.981602" xlink:href="#m077411af5b" y="259.265244"/>
     <use style="fill:#1f77b4;stroke:#1f77b4;" x="61.184692" xlink:href="#m077411af5b" y="272.966948"/>
     <use style="fill:#1f77b4;stroke:#1f77b4;" x="143.593658" xlink:href="#m077411af5b" y="274.042154"/>
     <use style="fill:#1f77b4;stroke:#1f77b4;" x="319.533755" xlink:href="#m077411af5b" y="206.296259"/>
    </g>
   </g>
   <g id="line2d_36">
    <path clip-path="url(#p65637845b7)" d="M 55.524574 282.526549 
L 58.571257 281.350178 
L 62.633501 279.648738 
L 65.172404 278.384384 
L 67.711306 276.951345 
L 73.296892 273.215012 
L 98.685917 253.874612 
L 110.364869 250.194913 
L 130.168309 244.304266 
L 145.909504 240.148958 
L 198.718677 226.253303 
L 202.273141 225.078979 
L 214.459873 220.514533 
L 246.957825 206.761756 
L 494.754713 102.010362 
L 562.797301 73.273589 
L 562.797301 73.273589 
" style="fill:none;stroke:#ff7f0e;stroke-linecap:round;stroke-width:1.5;"/>
   </g>
   <g id="line2d_37">
    <path clip-path="url(#p65637845b7)" d="M 55.524574 285.020605 
L 562.797301 72.120336 
L 562.797301 72.120336 
" style="fill:none;stroke:#2ca02c;stroke-linecap:round;stroke-width:1.5;"/>
   </g>
   <g id="patch_3">
    <path d="M 30.160938 334.399601 
L 30.160938 8.239601 
" style="fill:none;stroke:#cccccc;stroke-linecap:square;stroke-linejoin:miter;"/>
   </g>
   <g id="patch_4">
    <path d="M 588.160938 334.399601 
L 588.160938 8.239601 
" style="fill:none;stroke:#cccccc;stroke-linecap:square;stroke-linejoin:miter;"/>
   </g>
   <g id="patch_5">
    <path d="M 30.160937 334.399601 
L 588.160938 334.399601 
" style="fill:none;stroke:#cccccc;stroke-linecap:square;stroke-linejoin:miter;"/>
   </g>
   <g id="patch_6">
    <path d="M 30.160937 8.239601 
L 588.160938 8.239601 
" style="fill:none;stroke:#cccccc;stroke-linecap:square;stroke-linejoin:miter;"/>
   </g>
   <g id="legend_1">
    <g id="line2d_38"/>
    <g id="line2d_39">
     <g>
      <use style="fill:#1f77b4;stroke:#1f77b4;" x="49.160938" xlink:href="#m077411af5b" y="20.897413"/>
     </g>
    </g>
    <g id="text_18">
     <!-- data -->
     <defs>
      <path d="M 40.234375 0 
L 40.234375 6.546875 
Q 35.296875 -1.171875 25.734375 -1.171875 
Q 19.53125 -1.171875 14.328125 2.25 
Q 9.125 5.671875 6.265625 11.796875 
Q 3.421875 17.921875 3.421875 25.875 
Q 3.421875 33.640625 6 39.96875 
Q 8.59375 46.296875 13.765625 49.65625 
Q 18.953125 53.03125 25.34375 53.03125 
Q 30.03125 53.03125 33.6875 51.046875 
Q 37.359375 49.078125 39.65625 45.90625 
L 39.65625 71.578125 
L 48.390625 71.578125 
L 48.390625 0 
z
M 12.453125 25.875 
Q 12.453125 15.921875 16.640625 10.984375 
Q 20.84375 6.0625 26.5625 6.0625 
Q 32.328125 6.0625 36.34375 10.765625 
Q 40.375 15.484375 40.375 25.140625 
Q 40.375 35.796875 36.265625 40.765625 
Q 32.171875 45.75 26.171875 45.75 
Q 20.3125 45.75 16.375 40.96875 
Q 12.453125 36.1875 12.453125 25.875 
z
" id="ArialMT-100"/>
      <path d="M 40.4375 6.390625 
Q 35.546875 2.25 31.03125 0.53125 
Q 26.515625 -1.171875 21.34375 -1.171875 
Q 12.796875 -1.171875 8.203125 3 
Q 3.609375 7.171875 3.609375 13.671875 
Q 3.609375 17.484375 5.34375 20.625 
Q 7.078125 23.78125 9.890625 25.6875 
Q 12.703125 27.59375 16.21875 28.5625 
Q 18.796875 29.25 24.03125 29.890625 
Q 34.671875 31.15625 39.703125 32.90625 
Q 39.75 34.71875 39.75 35.203125 
Q 39.75 40.578125 37.25 42.78125 
Q 33.890625 45.75 27.25 45.75 
Q 21.046875 45.75 18.09375 43.578125 
Q 15.140625 41.40625 13.71875 35.890625 
L 5.125 37.0625 
Q 6.296875 42.578125 8.984375 45.96875 
Q 11.671875 49.359375 16.75 51.1875 
Q 21.828125 53.03125 28.515625 53.03125 
Q 35.15625 53.03125 39.296875 51.46875 
Q 43.453125 49.90625 45.40625 47.53125 
Q 47.359375 45.171875 48.140625 41.546875 
Q 48.578125 39.3125 48.578125 33.453125 
L 48.578125 21.734375 
Q 48.578125 9.46875 49.140625 6.21875 
Q 49.703125 2.984375 51.375 0 
L 42.1875 0 
Q 40.828125 2.734375 40.4375 6.390625 
z
M 39.703125 26.03125 
Q 34.90625 24.078125 25.34375 22.703125 
Q 19.921875 21.921875 17.671875 20.9375 
Q 15.4375 19.96875 14.203125 18.09375 
Q 12.984375 16.21875 12.984375 13.921875 
Q 12.984375 10.40625 15.640625 8.0625 
Q 18.3125 5.71875 23.4375 5.71875 
Q 28.515625 5.71875 32.46875 7.9375 
Q 36.421875 10.15625 38.28125 14.015625 
Q 39.703125 17 39.703125 22.796875 
z
" id="ArialMT-97"/>
      <path d="M 25.78125 7.859375 
L 27.046875 0.09375 
Q 23.34375 -0.6875 20.40625 -0.6875 
Q 15.625 -0.6875 12.984375 0.828125 
Q 10.359375 2.34375 9.28125 4.8125 
Q 8.203125 7.28125 8.203125 15.1875 
L 8.203125 45.015625 
L 1.765625 45.015625 
L 1.765625 51.859375 
L 8.203125 51.859375 
L 8.203125 64.703125 
L 16.9375 69.96875 
L 16.9375 51.859375 
L 25.78125 51.859375 
L 25.78125 45.015625 
L 16.9375 45.015625 
L 16.9375 14.703125 
Q 16.9375 10.9375 17.40625 9.859375 
Q 17.875 8.796875 18.921875 8.15625 
Q 19.96875 7.515625 21.921875 7.515625 
Q 23.390625 7.515625 25.78125 7.859375 
z
" id="ArialMT-116"/>
     </defs>
     <g style="fill:#262626;" transform="translate(67.160938 24.397413)scale(0.1 -0.1)">
      <use xlink:href="#ArialMT-100"/>
      <use x="55.615234" xlink:href="#ArialMT-97"/>
      <use x="111.230469" xlink:href="#ArialMT-116"/>
      <use x="139.013672" xlink:href="#ArialMT-97"/>
     </g>
    </g>
    <g id="line2d_40">
     <path d="M 39.160938 35.042726 
L 59.160938 35.042726 
" style="fill:none;stroke:#ff7f0e;stroke-linecap:round;stroke-width:1.5;"/>
    </g>
    <g id="line2d_41"/>
    <g id="text_19">
     <!-- NN -->
     <defs>
      <path d="M 7.625 0 
L 7.625 71.578125 
L 17.328125 71.578125 
L 54.9375 15.375 
L 54.9375 71.578125 
L 64.015625 71.578125 
L 64.015625 0 
L 54.296875 0 
L 16.703125 56.25 
L 16.703125 0 
z
" id="ArialMT-78"/>
     </defs>
     <g style="fill:#262626;" transform="translate(67.160938 38.542726)scale(0.1 -0.1)">
      <use xlink:href="#ArialMT-78"/>
      <use x="72.216797" xlink:href="#ArialMT-78"/>
     </g>
    </g>
    <g id="line2d_42">
     <path d="M 39.160938 49.188038 
L 59.160938 49.188038 
" style="fill:none;stroke:#2ca02c;stroke-linecap:round;stroke-width:1.5;"/>
    </g>
    <g id="line2d_43"/>
    <g id="text_20">
     <!-- linear regression -->
     <defs>
      <path d="M 6.390625 0 
L 6.390625 71.578125 
L 15.1875 71.578125 
L 15.1875 0 
z
" id="ArialMT-108"/>
      <path d="M 6.640625 61.46875 
L 6.640625 71.578125 
L 15.4375 71.578125 
L 15.4375 61.46875 
z
M 6.640625 0 
L 6.640625 51.859375 
L 15.4375 51.859375 
L 15.4375 0 
z
" id="ArialMT-105"/>
      <path d="M 6.59375 0 
L 6.59375 51.859375 
L 14.5 51.859375 
L 14.5 44.484375 
Q 20.21875 53.03125 31 53.03125 
Q 35.6875 53.03125 39.625 51.34375 
Q 43.5625 49.65625 45.515625 46.921875 
Q 47.46875 44.1875 48.25 40.4375 
Q 48.734375 37.984375 48.734375 31.890625 
L 48.734375 0 
L 39.9375 0 
L 39.9375 31.546875 
Q 39.9375 36.921875 38.90625 39.578125 
Q 37.890625 42.234375 35.28125 43.8125 
Q 32.671875 45.40625 29.15625 45.40625 
Q 23.53125 45.40625 19.453125 41.84375 
Q 15.375 38.28125 15.375 28.328125 
L 15.375 0 
z
" id="ArialMT-110"/>
      <path d="M 42.09375 16.703125 
L 51.171875 15.578125 
Q 49.03125 7.625 43.21875 3.21875 
Q 37.40625 -1.171875 28.375 -1.171875 
Q 17 -1.171875 10.328125 5.828125 
Q 3.65625 12.84375 3.65625 25.484375 
Q 3.65625 38.578125 10.390625 45.796875 
Q 17.140625 53.03125 27.875 53.03125 
Q 38.28125 53.03125 44.875 45.953125 
Q 51.46875 38.875 51.46875 26.03125 
Q 51.46875 25.25 51.421875 23.6875 
L 12.75 23.6875 
Q 13.234375 15.140625 17.578125 10.59375 
Q 21.921875 6.0625 28.421875 6.0625 
Q 33.25 6.0625 36.671875 8.59375 
Q 40.09375 11.140625 42.09375 16.703125 
z
M 13.234375 30.90625 
L 42.1875 30.90625 
Q 41.609375 37.453125 38.875 40.71875 
Q 34.671875 45.796875 27.984375 45.796875 
Q 21.921875 45.796875 17.796875 41.75 
Q 13.671875 37.703125 13.234375 30.90625 
z
" id="ArialMT-101"/>
      <path d="M 6.5 0 
L 6.5 51.859375 
L 14.40625 51.859375 
L 14.40625 44 
Q 17.4375 49.515625 20 51.265625 
Q 22.5625 53.03125 25.640625 53.03125 
Q 30.078125 53.03125 34.671875 50.203125 
L 31.640625 42.046875 
Q 28.421875 43.953125 25.203125 43.953125 
Q 22.3125 43.953125 20.015625 42.21875 
Q 17.71875 40.484375 16.75 37.40625 
Q 15.28125 32.71875 15.28125 27.15625 
L 15.28125 0 
z
" id="ArialMT-114"/>
      <path id="ArialMT-32"/>
      <path d="M 4.984375 -4.296875 
L 13.53125 -5.5625 
Q 14.0625 -9.515625 16.5 -11.328125 
Q 19.78125 -13.765625 25.4375 -13.765625 
Q 31.546875 -13.765625 34.859375 -11.328125 
Q 38.1875 -8.890625 39.359375 -4.5 
Q 40.046875 -1.8125 39.984375 6.78125 
Q 34.234375 0 25.640625 0 
Q 14.9375 0 9.078125 7.71875 
Q 3.21875 15.4375 3.21875 26.21875 
Q 3.21875 33.640625 5.90625 39.90625 
Q 8.59375 46.1875 13.6875 49.609375 
Q 18.796875 53.03125 25.6875 53.03125 
Q 34.859375 53.03125 40.828125 45.609375 
L 40.828125 51.859375 
L 48.921875 51.859375 
L 48.921875 7.03125 
Q 48.921875 -5.078125 46.453125 -10.125 
Q 44 -15.1875 38.640625 -18.109375 
Q 33.296875 -21.046875 25.484375 -21.046875 
Q 16.21875 -21.046875 10.5 -16.875 
Q 4.78125 -12.703125 4.984375 -4.296875 
z
M 12.25 26.859375 
Q 12.25 16.65625 16.296875 11.96875 
Q 20.359375 7.28125 26.46875 7.28125 
Q 32.515625 7.28125 36.609375 11.9375 
Q 40.71875 16.609375 40.71875 26.5625 
Q 40.71875 36.078125 36.5 40.90625 
Q 32.28125 45.75 26.3125 45.75 
Q 20.453125 45.75 16.34375 40.984375 
Q 12.25 36.234375 12.25 26.859375 
z
" id="ArialMT-103"/>
      <path d="M 3.078125 15.484375 
L 11.765625 16.84375 
Q 12.5 11.625 15.84375 8.84375 
Q 19.1875 6.0625 25.203125 6.0625 
Q 31.25 6.0625 34.171875 8.515625 
Q 37.109375 10.984375 37.109375 14.3125 
Q 37.109375 17.28125 34.515625 19 
Q 32.71875 20.171875 25.53125 21.96875 
Q 15.875 24.421875 12.140625 26.203125 
Q 8.40625 27.984375 6.46875 31.125 
Q 4.546875 34.28125 4.546875 38.09375 
Q 4.546875 41.546875 6.125 44.5 
Q 7.71875 47.46875 10.453125 49.421875 
Q 12.5 50.921875 16.03125 51.96875 
Q 19.578125 53.03125 23.640625 53.03125 
Q 29.734375 53.03125 34.34375 51.265625 
Q 38.96875 49.515625 41.15625 46.5 
Q 43.359375 43.5 44.1875 38.484375 
L 35.59375 37.3125 
Q 35.015625 41.3125 32.203125 43.546875 
Q 29.390625 45.796875 24.265625 45.796875 
Q 18.21875 45.796875 15.625 43.796875 
Q 13.03125 41.796875 13.03125 39.109375 
Q 13.03125 37.40625 14.109375 36.03125 
Q 15.1875 34.625 17.484375 33.6875 
Q 18.796875 33.203125 25.25 31.453125 
Q 34.578125 28.953125 38.25 27.359375 
Q 41.9375 25.78125 44.03125 22.75 
Q 46.140625 19.734375 46.140625 15.234375 
Q 46.140625 10.84375 43.578125 6.953125 
Q 41.015625 3.078125 36.171875 0.953125 
Q 31.34375 -1.171875 25.25 -1.171875 
Q 15.140625 -1.171875 9.84375 3.03125 
Q 4.546875 7.234375 3.078125 15.484375 
z
" id="ArialMT-115"/>
      <path d="M 3.328125 25.921875 
Q 3.328125 40.328125 11.328125 47.265625 
Q 18.015625 53.03125 27.640625 53.03125 
Q 38.328125 53.03125 45.109375 46.015625 
Q 51.90625 39.015625 51.90625 26.65625 
Q 51.90625 16.65625 48.90625 10.90625 
Q 45.90625 5.171875 40.15625 2 
Q 34.421875 -1.171875 27.640625 -1.171875 
Q 16.75 -1.171875 10.03125 5.8125 
Q 3.328125 12.796875 3.328125 25.921875 
z
M 12.359375 25.921875 
Q 12.359375 15.96875 16.703125 11.015625 
Q 21.046875 6.0625 27.640625 6.0625 
Q 34.1875 6.0625 38.53125 11.03125 
Q 42.875 16.015625 42.875 26.21875 
Q 42.875 35.84375 38.5 40.796875 
Q 34.125 45.75 27.640625 45.75 
Q 21.046875 45.75 16.703125 40.8125 
Q 12.359375 35.890625 12.359375 25.921875 
z
" id="ArialMT-111"/>
     </defs>
     <g style="fill:#262626;" transform="translate(67.160938 52.688038)scale(0.1 -0.1)">
      <use xlink:href="#ArialMT-108"/>
      <use x="22.216797" xlink:href="#ArialMT-105"/>
      <use x="44.433594" xlink:href="#ArialMT-110"/>
      <use x="100.048828" xlink:href="#ArialMT-101"/>
      <use x="155.664062" xlink:href="#ArialMT-97"/>
      <use x="211.279297" xlink:href="#ArialMT-114"/>
      <use x="244.580078" xlink:href="#ArialMT-32"/>
      <use x="272.363281" xlink:href="#ArialMT-114"/>
      <use x="305.664062" xlink:href="#ArialMT-101"/>
      <use x="361.279297" xlink:href="#ArialMT-103"/>
      <use x="416.894531" xlink:href="#ArialMT-114"/>
      <use x="450.195312" xlink:href="#ArialMT-101"/>
      <use x="505.810547" xlink:href="#ArialMT-115"/>
      <use x="555.810547" xlink:href="#ArialMT-115"/>
      <use x="605.810547" xlink:href="#ArialMT-105"/>
      <use x="628.027344" xlink:href="#ArialMT-111"/>
      <use x="683.642578" xlink:href="#ArialMT-110"/>
     </g>
    </g>
   </g>
  </g>
 </g>
 <defs>
  <clipPath id="p65637845b7">
   <rect height="326.16" width="558" x="30.160938" y="8.239601"/>
  </clipPath>
 </defs>
</svg>
