<?xml version="1.0" encoding="utf-8" standalone="no"?>
<!DOCTYPE svg PUBLIC "-//W3C//DTD SVG 1.1//EN"
  "http://www.w3.org/Graphics/SVG/1.1/DTD/svg11.dtd">
<!-- Created with matplotlib (https://matplotlib.org/) -->
<svg height="354.244913pt" version="1.1" viewBox="0 0 595.360937 354.244913" width="595.360937pt" xmlns="http://www.w3.org/2000/svg" xmlns:xlink="http://www.w3.org/1999/xlink">
 <defs>
  <style type="text/css">
*{stroke-linecap:butt;stroke-linejoin:round;}
  </style>
 </defs>
 <g id="figure_1">
  <g id="patch_1">
   <path d="M 0 354.244913 
L 595.360937 354.244913 
L 595.360937 0 
L 0 0 
z
" style="fill:#ffffff;"/>
  </g>
  <g id="axes_1">
   <g id="patch_2">
    <path d="M 30.160938 334.399601 
L 588.160938 334.399601 
L 588.160938 8.239601 
L 30.160938 8.239601 
z
" style="fill:#ffffff;"/>
   </g>
   <g id="matplotlib.axis_1">
    <g id="xtick_1">
     <g id="line2d_1">
      <path clip-path="url(#p4b2204b323)" d="M 54.519584 334.399601 
L 54.519584 8.239601 
" style="fill:none;stroke:#cccccc;stroke-linecap:round;stroke-width:0.8;"/>
     </g>
     <g id="line2d_2"/>
     <g id="text_1">
      <!-- 0.0 -->
      <defs>
       <path d="M 4.15625 35.296875 
Q 4.15625 48 6.765625 55.734375 
Q 9.375 63.484375 14.515625 67.671875 
Q 19.671875 71.875 27.484375 71.875 
Q 33.25 71.875 37.59375 69.546875 
Q 41.9375 67.234375 44.765625 62.859375 
Q 47.609375 58.5 49.21875 52.21875 
Q 50.828125 45.953125 50.828125 35.296875 
Q 50.828125 22.703125 48.234375 14.96875 
Q 45.65625 7.234375 40.5 3 
Q 35.359375 -1.21875 27.484375 -1.21875 
Q 17.140625 -1.21875 11.234375 6.203125 
Q 4.15625 15.140625 4.15625 35.296875 
z
M 13.1875 35.296875 
Q 13.1875 17.671875 17.3125 11.828125 
Q 21.4375 6 27.484375 6 
Q 33.546875 6 37.671875 11.859375 
Q 41.796875 17.71875 41.796875 35.296875 
Q 41.796875 52.984375 37.671875 58.78125 
Q 33.546875 64.59375 27.390625 64.59375 
Q 21.34375 64.59375 17.71875 59.46875 
Q 13.1875 52.9375 13.1875 35.296875 
z
" id="ArialMT-48"/>
       <path d="M 9.078125 0 
L 9.078125 10.015625 
L 19.09375 10.015625 
L 19.09375 0 
z
" id="ArialMT-46"/>
      </defs>
      <g style="fill:#262626;" transform="translate(47.569584 345.057413)scale(0.1 -0.1)">
       <use xlink:href="#ArialMT-48"/>
       <use x="55.615234" xlink:href="#ArialMT-46"/>
       <use x="83.398438" xlink:href="#ArialMT-48"/>
      </g>
     </g>
    </g>
    <g id="xtick_2">
     <g id="line2d_3">
      <path clip-path="url(#p4b2204b323)" d="M 118.650674 334.399601 
L 118.650674 8.239601 
" style="fill:none;stroke:#cccccc;stroke-linecap:round;stroke-width:0.8;"/>
     </g>
     <g id="line2d_4"/>
     <g id="text_2">
      <!-- 2.5 -->
      <defs>
       <path d="M 50.34375 8.453125 
L 50.34375 0 
L 3.03125 0 
Q 2.9375 3.171875 4.046875 6.109375 
Q 5.859375 10.9375 9.828125 15.625 
Q 13.8125 20.3125 21.34375 26.46875 
Q 33.015625 36.03125 37.109375 41.625 
Q 41.21875 47.21875 41.21875 52.203125 
Q 41.21875 57.421875 37.46875 61 
Q 33.734375 64.59375 27.734375 64.59375 
Q 21.390625 64.59375 17.578125 60.78125 
Q 13.765625 56.984375 13.71875 50.25 
L 4.6875 51.171875 
Q 5.609375 61.28125 11.65625 66.578125 
Q 17.71875 71.875 27.9375 71.875 
Q 38.234375 71.875 44.234375 66.15625 
Q 50.25 60.453125 50.25 52 
Q 50.25 47.703125 48.484375 43.546875 
Q 46.734375 39.40625 42.65625 34.8125 
Q 38.578125 30.21875 29.109375 22.21875 
Q 21.1875 15.578125 18.9375 13.203125 
Q 16.703125 10.84375 15.234375 8.453125 
z
" id="ArialMT-50"/>
       <path d="M 4.15625 18.75 
L 13.375 19.53125 
Q 14.40625 12.796875 18.140625 9.390625 
Q 21.875 6 27.15625 6 
Q 33.5 6 37.890625 10.78125 
Q 42.28125 15.578125 42.28125 23.484375 
Q 42.28125 31 38.0625 35.34375 
Q 33.84375 39.703125 27 39.703125 
Q 22.75 39.703125 19.328125 37.765625 
Q 15.921875 35.84375 13.96875 32.765625 
L 5.71875 33.84375 
L 12.640625 70.609375 
L 48.25 70.609375 
L 48.25 62.203125 
L 19.671875 62.203125 
L 15.828125 42.96875 
Q 22.265625 47.46875 29.34375 47.46875 
Q 38.71875 47.46875 45.15625 40.96875 
Q 51.609375 34.46875 51.609375 24.265625 
Q 51.609375 14.546875 45.953125 7.46875 
Q 39.0625 -1.21875 27.15625 -1.21875 
Q 17.390625 -1.21875 11.203125 4.25 
Q 5.03125 9.71875 4.15625 18.75 
z
" id="ArialMT-53"/>
      </defs>
      <g style="fill:#262626;" transform="translate(111.700674 345.057413)scale(0.1 -0.1)">
       <use xlink:href="#ArialMT-50"/>
       <use x="55.615234" xlink:href="#ArialMT-46"/>
       <use x="83.398438" xlink:href="#ArialMT-53"/>
      </g>
     </g>
    </g>
    <g id="xtick_3">
     <g id="line2d_5">
      <path clip-path="url(#p4b2204b323)" d="M 182.781764 334.399601 
L 182.781764 8.239601 
" style="fill:none;stroke:#cccccc;stroke-linecap:round;stroke-width:0.8;"/>
     </g>
     <g id="line2d_6"/>
     <g id="text_3">
      <!-- 5.0 -->
      <g style="fill:#262626;" transform="translate(175.831764 345.057413)scale(0.1 -0.1)">
       <use xlink:href="#ArialMT-53"/>
       <use x="55.615234" xlink:href="#ArialMT-46"/>
       <use x="83.398438" xlink:href="#ArialMT-48"/>
      </g>
     </g>
    </g>
    <g id="xtick_4">
     <g id="line2d_7">
      <path clip-path="url(#p4b2204b323)" d="M 246.912854 334.399601 
L 246.912854 8.239601 
" style="fill:none;stroke:#cccccc;stroke-linecap:round;stroke-width:0.8;"/>
     </g>
     <g id="line2d_8"/>
     <g id="text_4">
      <!-- 7.5 -->
      <defs>
       <path d="M 4.734375 62.203125 
L 4.734375 70.65625 
L 51.078125 70.65625 
L 51.078125 63.8125 
Q 44.234375 56.546875 37.515625 44.484375 
Q 30.8125 32.421875 27.15625 19.671875 
Q 24.515625 10.6875 23.78125 0 
L 14.75 0 
Q 14.890625 8.453125 18.0625 20.40625 
Q 21.234375 32.375 27.171875 43.484375 
Q 33.109375 54.59375 39.796875 62.203125 
z
" id="ArialMT-55"/>
      </defs>
      <g style="fill:#262626;" transform="translate(239.962854 345.057413)scale(0.1 -0.1)">
       <use xlink:href="#ArialMT-55"/>
       <use x="55.615234" xlink:href="#ArialMT-46"/>
       <use x="83.398438" xlink:href="#ArialMT-53"/>
      </g>
     </g>
    </g>
    <g id="xtick_5">
     <g id="line2d_9">
      <path clip-path="url(#p4b2204b323)" d="M 311.043944 334.399601 
L 311.043944 8.239601 
" style="fill:none;stroke:#cccccc;stroke-linecap:round;stroke-width:0.8;"/>
     </g>
     <g id="line2d_10"/>
     <g id="text_5">
      <!-- 10.0 -->
      <defs>
       <path d="M 37.25 0 
L 28.46875 0 
L 28.46875 56 
Q 25.296875 52.984375 20.140625 49.953125 
Q 14.984375 46.921875 10.890625 45.40625 
L 10.890625 53.90625 
Q 18.265625 57.375 23.78125 62.296875 
Q 29.296875 67.234375 31.59375 71.875 
L 37.25 71.875 
z
" id="ArialMT-49"/>
      </defs>
      <g style="fill:#262626;" transform="translate(301.313475 345.057413)scale(0.1 -0.1)">
       <use xlink:href="#ArialMT-49"/>
       <use x="55.615234" xlink:href="#ArialMT-48"/>
       <use x="111.230469" xlink:href="#ArialMT-46"/>
       <use x="139.013672" xlink:href="#ArialMT-48"/>
      </g>
     </g>
    </g>
    <g id="xtick_6">
     <g id="line2d_11">
      <path clip-path="url(#p4b2204b323)" d="M 375.175034 334.399601 
L 375.175034 8.239601 
" style="fill:none;stroke:#cccccc;stroke-linecap:round;stroke-width:0.8;"/>
     </g>
     <g id="line2d_12"/>
     <g id="text_6">
      <!-- 12.5 -->
      <g style="fill:#262626;" transform="translate(365.444565 345.057413)scale(0.1 -0.1)">
       <use xlink:href="#ArialMT-49"/>
       <use x="55.615234" xlink:href="#ArialMT-50"/>
       <use x="111.230469" xlink:href="#ArialMT-46"/>
       <use x="139.013672" xlink:href="#ArialMT-53"/>
      </g>
     </g>
    </g>
    <g id="xtick_7">
     <g id="line2d_13">
      <path clip-path="url(#p4b2204b323)" d="M 439.306124 334.399601 
L 439.306124 8.239601 
" style="fill:none;stroke:#cccccc;stroke-linecap:round;stroke-width:0.8;"/>
     </g>
     <g id="line2d_14"/>
     <g id="text_7">
      <!-- 15.0 -->
      <g style="fill:#262626;" transform="translate(429.575656 345.057413)scale(0.1 -0.1)">
       <use xlink:href="#ArialMT-49"/>
       <use x="55.615234" xlink:href="#ArialMT-53"/>
       <use x="111.230469" xlink:href="#ArialMT-46"/>
       <use x="139.013672" xlink:href="#ArialMT-48"/>
      </g>
     </g>
    </g>
    <g id="xtick_8">
     <g id="line2d_15">
      <path clip-path="url(#p4b2204b323)" d="M 503.437214 334.399601 
L 503.437214 8.239601 
" style="fill:none;stroke:#cccccc;stroke-linecap:round;stroke-width:0.8;"/>
     </g>
     <g id="line2d_16"/>
     <g id="text_8">
      <!-- 17.5 -->
      <g style="fill:#262626;" transform="translate(493.706746 345.057413)scale(0.1 -0.1)">
       <use xlink:href="#ArialMT-49"/>
       <use x="55.615234" xlink:href="#ArialMT-55"/>
       <use x="111.230469" xlink:href="#ArialMT-46"/>
       <use x="139.013672" xlink:href="#ArialMT-53"/>
      </g>
     </g>
    </g>
    <g id="xtick_9">
     <g id="line2d_17">
      <path clip-path="url(#p4b2204b323)" d="M 567.568304 334.399601 
L 567.568304 8.239601 
" style="fill:none;stroke:#cccccc;stroke-linecap:round;stroke-width:0.8;"/>
     </g>
     <g id="line2d_18"/>
     <g id="text_9">
      <!-- 20.0 -->
      <g style="fill:#262626;" transform="translate(557.837836 345.057413)scale(0.1 -0.1)">
       <use xlink:href="#ArialMT-50"/>
       <use x="55.615234" xlink:href="#ArialMT-48"/>
       <use x="111.230469" xlink:href="#ArialMT-46"/>
       <use x="139.013672" xlink:href="#ArialMT-48"/>
      </g>
     </g>
    </g>
   </g>
   <g id="matplotlib.axis_2">
    <g id="ytick_1">
     <g id="line2d_19">
      <path clip-path="url(#p4b2204b323)" d="M 30.160938 296.972387 
L 588.160938 296.972387 
" style="fill:none;stroke:#cccccc;stroke-linecap:round;stroke-width:0.8;"/>
     </g>
     <g id="line2d_20"/>
     <g id="text_10">
      <!-- 2.5 -->
      <g style="fill:#262626;" transform="translate(12.760938 300.551293)scale(0.1 -0.1)">
       <use xlink:href="#ArialMT-50"/>
       <use x="55.615234" xlink:href="#ArialMT-46"/>
       <use x="83.398438" xlink:href="#ArialMT-53"/>
      </g>
     </g>
    </g>
    <g id="ytick_2">
     <g id="line2d_21">
      <path clip-path="url(#p4b2204b323)" d="M 30.160938 256.087604 
L 588.160938 256.087604 
" style="fill:none;stroke:#cccccc;stroke-linecap:round;stroke-width:0.8;"/>
     </g>
     <g id="line2d_22"/>
     <g id="text_11">
      <!-- 5.0 -->
      <g style="fill:#262626;" transform="translate(12.760938 259.66651)scale(0.1 -0.1)">
       <use xlink:href="#ArialMT-53"/>
       <use x="55.615234" xlink:href="#ArialMT-46"/>
       <use x="83.398438" xlink:href="#ArialMT-48"/>
      </g>
     </g>
    </g>
    <g id="ytick_3">
     <g id="line2d_23">
      <path clip-path="url(#p4b2204b323)" d="M 30.160938 215.202821 
L 588.160938 215.202821 
" style="fill:none;stroke:#cccccc;stroke-linecap:round;stroke-width:0.8;"/>
     </g>
     <g id="line2d_24"/>
     <g id="text_12">
      <!-- 7.5 -->
      <g style="fill:#262626;" transform="translate(12.760938 218.781727)scale(0.1 -0.1)">
       <use xlink:href="#ArialMT-55"/>
       <use x="55.615234" xlink:href="#ArialMT-46"/>
       <use x="83.398438" xlink:href="#ArialMT-53"/>
      </g>
     </g>
    </g>
    <g id="ytick_4">
     <g id="line2d_25">
      <path clip-path="url(#p4b2204b323)" d="M 30.160938 174.318038 
L 588.160938 174.318038 
" style="fill:none;stroke:#cccccc;stroke-linecap:round;stroke-width:0.8;"/>
     </g>
     <g id="line2d_26"/>
     <g id="text_13">
      <!-- 10.0 -->
      <g style="fill:#262626;" transform="translate(7.2 177.896944)scale(0.1 -0.1)">
       <use xlink:href="#ArialMT-49"/>
       <use x="55.615234" xlink:href="#ArialMT-48"/>
       <use x="111.230469" xlink:href="#ArialMT-46"/>
       <use x="139.013672" xlink:href="#ArialMT-48"/>
      </g>
     </g>
    </g>
    <g id="ytick_5">
     <g id="line2d_27">
      <path clip-path="url(#p4b2204b323)" d="M 30.160938 133.433255 
L 588.160938 133.433255 
" style="fill:none;stroke:#cccccc;stroke-linecap:round;stroke-width:0.8;"/>
     </g>
     <g id="line2d_28"/>
     <g id="text_14">
      <!-- 12.5 -->
      <g style="fill:#262626;" transform="translate(7.2 137.012161)scale(0.1 -0.1)">
       <use xlink:href="#ArialMT-49"/>
       <use x="55.615234" xlink:href="#ArialMT-50"/>
       <use x="111.230469" xlink:href="#ArialMT-46"/>
       <use x="139.013672" xlink:href="#ArialMT-53"/>
      </g>
     </g>
    </g>
    <g id="ytick_6">
     <g id="line2d_29">
      <path clip-path="url(#p4b2204b323)" d="M 30.160938 92.548472 
L 588.160938 92.548472 
" style="fill:none;stroke:#cccccc;stroke-linecap:round;stroke-width:0.8;"/>
     </g>
     <g id="line2d_30"/>
     <g id="text_15">
      <!-- 15.0 -->
      <g style="fill:#262626;" transform="translate(7.2 96.127378)scale(0.1 -0.1)">
       <use xlink:href="#ArialMT-49"/>
       <use x="55.615234" xlink:href="#ArialMT-53"/>
       <use x="111.230469" xlink:href="#ArialMT-46"/>
       <use x="139.013672" xlink:href="#ArialMT-48"/>
      </g>
     </g>
    </g>
    <g id="ytick_7">
     <g id="line2d_31">
      <path clip-path="url(#p4b2204b323)" d="M 30.160938 51.663689 
L 588.160938 51.663689 
" style="fill:none;stroke:#cccccc;stroke-linecap:round;stroke-width:0.8;"/>
     </g>
     <g id="line2d_32"/>
     <g id="text_16">
      <!-- 17.5 -->
      <g style="fill:#262626;" transform="translate(7.2 55.242595)scale(0.1 -0.1)">
       <use xlink:href="#ArialMT-49"/>
       <use x="55.615234" xlink:href="#ArialMT-55"/>
       <use x="111.230469" xlink:href="#ArialMT-46"/>
       <use x="139.013672" xlink:href="#ArialMT-53"/>
      </g>
     </g>
    </g>
    <g id="ytick_8">
     <g id="line2d_33">
      <path clip-path="url(#p4b2204b323)" d="M 30.160938 10.778906 
L 588.160938 10.778906 
" style="fill:none;stroke:#cccccc;stroke-linecap:round;stroke-width:0.8;"/>
     </g>
     <g id="line2d_34"/>
     <g id="text_17">
      <!-- 20.0 -->
      <g style="fill:#262626;" transform="translate(7.2 14.357812)scale(0.1 -0.1)">
       <use xlink:href="#ArialMT-50"/>
       <use x="55.615234" xlink:href="#ArialMT-48"/>
       <use x="111.230469" xlink:href="#ArialMT-46"/>
       <use x="139.013672" xlink:href="#ArialMT-48"/>
      </g>
     </g>
    </g>
   </g>
   <g id="line2d_35">
    <defs>
     <path d="M 0 1.5 
C 0.397805 1.5 0.77937 1.341951 1.06066 1.06066 
C 1.341951 0.77937 1.5 0.397805 1.5 0 
C 1.5 -0.397805 1.341951 -0.77937 1.06066 -1.06066 
C 0.77937 -1.341951 0.397805 -1.5 0 -1.5 
C -0.397805 -1.5 -0.77937 -1.341951 -1.06066 -1.06066 
C -1.341951 -0.77937 -1.5 -0.397805 -1.5 0 
C -1.5 0.397805 -1.341951 0.77937 -1.06066 1.06066 
C -0.77937 1.341951 -0.397805 1.5 0 1.5 
z
" id="m4372329f2d" style="stroke:#1f77b4;"/>
    </defs>
    <g clip-path="url(#p4b2204b323)">
     <use style="fill:#1f77b4;stroke:#1f77b4;" x="55.524574" xlink:href="#m4372329f2d" y="251.880526"/>
     <use style="fill:#1f77b4;stroke:#1f77b4;" x="63.780953" xlink:href="#m4372329f2d" y="302.067324"/>
     <use style="fill:#1f77b4;stroke:#1f77b4;" x="201.665502" xlink:href="#m4372329f2d" y="220.087108"/>
     <use style="fill:#1f77b4;stroke:#1f77b4;" x="407.333325" xlink:href="#m4372329f2d" y="145.111883"/>
     <use style="fill:#1f77b4;stroke:#1f77b4;" x="57.629681" xlink:href="#m4372329f2d" y="299.746869"/>
     <use style="fill:#1f77b4;stroke:#1f77b4;" x="71.335627" xlink:href="#m4372329f2d" y="319.574146"/>
     <use style="fill:#1f77b4;stroke:#1f77b4;" x="129.439861" xlink:href="#m4372329f2d" y="211.87692"/>
     <use style="fill:#1f77b4;stroke:#1f77b4;" x="192.855845" xlink:href="#m4372329f2d" y="249.603564"/>
     <use style="fill:#1f77b4;stroke:#1f77b4;" x="276.045415" xlink:href="#m4372329f2d" y="190.834967"/>
     <use style="fill:#1f77b4;stroke:#1f77b4;" x="350.985668" xlink:href="#m4372329f2d" y="105.657181"/>
     <use style="fill:#1f77b4;stroke:#1f77b4;" x="252.993428" xlink:href="#m4372329f2d" y="204.776777"/>
     <use style="fill:#1f77b4;stroke:#1f77b4;" x="329.435217" xlink:href="#m4372329f2d" y="182.288345"/>
     <use style="fill:#1f77b4;stroke:#1f77b4;" x="266.615517" xlink:href="#m4372329f2d" y="242.035515"/>
     <use style="fill:#1f77b4;stroke:#1f77b4;" x="256.346467" xlink:href="#m4372329f2d" y="141.86845"/>
     <use style="fill:#1f77b4;stroke:#1f77b4;" x="506.574565" xlink:href="#m4372329f2d" y="51.307404"/>
     <use style="fill:#1f77b4;stroke:#1f77b4;" x="117.816934" xlink:href="#m4372329f2d" y="203.599307"/>
     <use style="fill:#1f77b4;stroke:#1f77b4;" x="284.100764" xlink:href="#m4372329f2d" y="270.745617"/>
     <use style="fill:#1f77b4;stroke:#1f77b4;" x="268.328744" xlink:href="#m4372329f2d" y="186.692168"/>
     <use style="fill:#1f77b4;stroke:#1f77b4;" x="172.770587" xlink:href="#m4372329f2d" y="216.088364"/>
     <use style="fill:#1f77b4;stroke:#1f77b4;" x="297.626932" xlink:href="#m4372329f2d" y="115.872325"/>
     <use style="fill:#1f77b4;stroke:#1f77b4;" x="375.701739" xlink:href="#m4372329f2d" y="220.39576"/>
     <use style="fill:#1f77b4;stroke:#1f77b4;" x="397.398699" xlink:href="#m4372329f2d" y="77.373326"/>
     <use style="fill:#1f77b4;stroke:#1f77b4;" x="68.33058" xlink:href="#m4372329f2d" y="261.276457"/>
     <use style="fill:#1f77b4;stroke:#1f77b4;" x="329.24979" xlink:href="#m4372329f2d" y="208.958337"/>
     <use style="fill:#1f77b4;stroke:#1f77b4;" x="192.426221" xlink:href="#m4372329f2d" y="287.140479"/>
     <use style="fill:#1f77b4;stroke:#1f77b4;" x="275.247391" xlink:href="#m4372329f2d" y="228.839435"/>
     <use style="fill:#1f77b4;stroke:#1f77b4;" x="548.690083" xlink:href="#m4372329f2d" y="96.524489"/>
     <use style="fill:#1f77b4;stroke:#1f77b4;" x="103.045485" xlink:href="#m4372329f2d" y="257.981178"/>
     <use style="fill:#1f77b4;stroke:#1f77b4;" x="113.400239" xlink:href="#m4372329f2d" y="236.427295"/>
     <use style="fill:#1f77b4;stroke:#1f77b4;" x="88.709171" xlink:href="#m4372329f2d" y="260.67635"/>
     <use style="fill:#1f77b4;stroke:#1f77b4;" x="556.095316" xlink:href="#m4372329f2d" y="78.649727"/>
     <use style="fill:#1f77b4;stroke:#1f77b4;" x="461.87673" xlink:href="#m4372329f2d" y="95.699111"/>
     <use style="fill:#1f77b4;stroke:#1f77b4;" x="338.43155" xlink:href="#m4372329f2d" y="149.548439"/>
     <use style="fill:#1f77b4;stroke:#1f77b4;" x="281.01818" xlink:href="#m4372329f2d" y="221.485564"/>
     <use style="fill:#1f77b4;stroke:#1f77b4;" x="265.010113" xlink:href="#m4372329f2d" y="141.339265"/>
     <use style="fill:#1f77b4;stroke:#1f77b4;" x="203.051206" xlink:href="#m4372329f2d" y="287.386049"/>
     <use style="fill:#1f77b4;stroke:#1f77b4;" x="473.428219" xlink:href="#m4372329f2d" y="79.891911"/>
     <use style="fill:#1f77b4;stroke:#1f77b4;" x="242.465492" xlink:href="#m4372329f2d" y="208.117225"/>
     <use style="fill:#1f77b4;stroke:#1f77b4;" x="432.109678" xlink:href="#m4372329f2d" y="97.121419"/>
     <use style="fill:#1f77b4;stroke:#1f77b4;" x="70.250441" xlink:href="#m4372329f2d" y="268.936818"/>
     <use style="fill:#1f77b4;stroke:#1f77b4;" x="519.710604" xlink:href="#m4372329f2d" y="93.554987"/>
     <use style="fill:#1f77b4;stroke:#1f77b4;" x="130.34548" xlink:href="#m4372329f2d" y="219.808034"/>
     <use style="fill:#1f77b4;stroke:#1f77b4;" x="209.427975" xlink:href="#m4372329f2d" y="225.062504"/>
     <use style="fill:#1f77b4;stroke:#1f77b4;" x="77.210137" xlink:href="#m4372329f2d" y="309.135603"/>
     <use style="fill:#1f77b4;stroke:#1f77b4;" x="536.878885" xlink:href="#m4372329f2d" y="119.359385"/>
     <use style="fill:#1f77b4;stroke:#1f77b4;" x="489.686599" xlink:href="#m4372329f2d" y="134.840349"/>
     <use style="fill:#1f77b4;stroke:#1f77b4;" x="352.080383" xlink:href="#m4372329f2d" y="132.111405"/>
     <use style="fill:#1f77b4;stroke:#1f77b4;" x="331.513907" xlink:href="#m4372329f2d" y="148.210237"/>
     <use style="fill:#1f77b4;stroke:#1f77b4;" x="562.797301" xlink:href="#m4372329f2d" y="85.897265"/>
     <use style="fill:#1f77b4;stroke:#1f77b4;" x="230.733844" xlink:href="#m4372329f2d" y="245.520763"/>
     <use style="fill:#1f77b4;stroke:#1f77b4;" x="487.188927" xlink:href="#m4372329f2d" y="82.790902"/>
     <use style="fill:#1f77b4;stroke:#1f77b4;" x="491.100105" xlink:href="#m4372329f2d" y="149.612509"/>
     <use style="fill:#1f77b4;stroke:#1f77b4;" x="500.276789" xlink:href="#m4372329f2d" y="95.258247"/>
     <use style="fill:#1f77b4;stroke:#1f77b4;" x="168.348192" xlink:href="#m4372329f2d" y="236.922133"/>
     <use style="fill:#1f77b4;stroke:#1f77b4;" x="322.499613" xlink:href="#m4372329f2d" y="117.358493"/>
     <use style="fill:#1f77b4;stroke:#1f77b4;" x="350.806097" xlink:href="#m4372329f2d" y="186.251688"/>
     <use style="fill:#1f77b4;stroke:#1f77b4;" x="444.901171" xlink:href="#m4372329f2d" y="83.218528"/>
     <use style="fill:#1f77b4;stroke:#1f77b4;" x="410.336889" xlink:href="#m4372329f2d" y="133.176939"/>
     <use style="fill:#1f77b4;stroke:#1f77b4;" x="332.242216" xlink:href="#m4372329f2d" y="170.239371"/>
     <use style="fill:#1f77b4;stroke:#1f77b4;" x="470.740743" xlink:href="#m4372329f2d" y="133.94238"/>
     <use style="fill:#1f77b4;stroke:#1f77b4;" x="81.298955" xlink:href="#m4372329f2d" y="290.364543"/>
     <use style="fill:#1f77b4;stroke:#1f77b4;" x="188.533328" xlink:href="#m4372329f2d" y="226.546834"/>
     <use style="fill:#1f77b4;stroke:#1f77b4;" x="110.087248" xlink:href="#m4372329f2d" y="231.615898"/>
     <use style="fill:#1f77b4;stroke:#1f77b4;" x="57.488804" xlink:href="#m4372329f2d" y="292.911605"/>
     <use style="fill:#1f77b4;stroke:#1f77b4;" x="524.623485" xlink:href="#m4372329f2d" y="45.368235"/>
     <use style="fill:#1f77b4;stroke:#1f77b4;" x="364.049973" xlink:href="#m4372329f2d" y="162.431735"/>
     <use style="fill:#1f77b4;stroke:#1f77b4;" x="92.630474" xlink:href="#m4372329f2d" y="173.551792"/>
     <use style="fill:#1f77b4;stroke:#1f77b4;" x="110.547366" xlink:href="#m4372329f2d" y="269.645259"/>
     <use style="fill:#1f77b4;stroke:#1f77b4;" x="506.16121" xlink:href="#m4372329f2d" y="23.065055"/>
     <use style="fill:#1f77b4;stroke:#1f77b4;" x="232.962806" xlink:href="#m4372329f2d" y="235.089189"/>
     <use style="fill:#1f77b4;stroke:#1f77b4;" x="490.285631" xlink:href="#m4372329f2d" y="126.922956"/>
     <use style="fill:#1f77b4;stroke:#1f77b4;" x="402.898017" xlink:href="#m4372329f2d" y="161.362231"/>
     <use style="fill:#1f77b4;stroke:#1f77b4;" x="155.72134" xlink:href="#m4372329f2d" y="238.970444"/>
     <use style="fill:#1f77b4;stroke:#1f77b4;" x="319.744577" xlink:href="#m4372329f2d" y="111.2928"/>
     <use style="fill:#1f77b4;stroke:#1f77b4;" x="144.742178" xlink:href="#m4372329f2d" y="231.16062"/>
     <use style="fill:#1f77b4;stroke:#1f77b4;" x="428.117321" xlink:href="#m4372329f2d" y="155.807394"/>
     <use style="fill:#1f77b4;stroke:#1f77b4;" x="278.908799" xlink:href="#m4372329f2d" y="204.419537"/>
     <use style="fill:#1f77b4;stroke:#1f77b4;" x="83.809749" xlink:href="#m4372329f2d" y="313.02828"/>
     <use style="fill:#1f77b4;stroke:#1f77b4;" x="344.605246" xlink:href="#m4372329f2d" y="120.276589"/>
     <use style="fill:#1f77b4;stroke:#1f77b4;" x="248.578817" xlink:href="#m4372329f2d" y="217.125985"/>
     <use style="fill:#1f77b4;stroke:#1f77b4;" x="418.962843" xlink:href="#m4372329f2d" y="132.254121"/>
     <use style="fill:#1f77b4;stroke:#1f77b4;" x="516.112784" xlink:href="#m4372329f2d" y="65.151324"/>
     <use style="fill:#1f77b4;stroke:#1f77b4;" x="350.782704" xlink:href="#m4372329f2d" y="174.526615"/>
     <use style="fill:#1f77b4;stroke:#1f77b4;" x="259.100627" xlink:href="#m4372329f2d" y="167.033239"/>
     <use style="fill:#1f77b4;stroke:#1f77b4;" x="135.671457" xlink:href="#m4372329f2d" y="247.232832"/>
     <use style="fill:#1f77b4;stroke:#1f77b4;" x="196.484189" xlink:href="#m4372329f2d" y="191.066594"/>
     <use style="fill:#1f77b4;stroke:#1f77b4;" x="202.492695" xlink:href="#m4372329f2d" y="258.127595"/>
     <use style="fill:#1f77b4;stroke:#1f77b4;" x="405.485305" xlink:href="#m4372329f2d" y="88.01837"/>
     <use style="fill:#1f77b4;stroke:#1f77b4;" x="257.890594" xlink:href="#m4372329f2d" y="159.195898"/>
     <use style="fill:#1f77b4;stroke:#1f77b4;" x="121.064149" xlink:href="#m4372329f2d" y="253.334293"/>
     <use style="fill:#1f77b4;stroke:#1f77b4;" x="448.988012" xlink:href="#m4372329f2d" y="98.400049"/>
     <use style="fill:#1f77b4;stroke:#1f77b4;" x="474.986599" xlink:href="#m4372329f2d" y="150.903275"/>
     <use style="fill:#1f77b4;stroke:#1f77b4;" x="328.305454" xlink:href="#m4372329f2d" y="109.105829"/>
     <use style="fill:#1f77b4;stroke:#1f77b4;" x="126.111037" xlink:href="#m4372329f2d" y="254.454732"/>
     <use style="fill:#1f77b4;stroke:#1f77b4;" x="527.007887" xlink:href="#m4372329f2d" y="80.693828"/>
     <use style="fill:#1f77b4;stroke:#1f77b4;" x="248.055277" xlink:href="#m4372329f2d" y="211.600062"/>
     <use style="fill:#1f77b4;stroke:#1f77b4;" x="182.416498" xlink:href="#m4372329f2d" y="259.265244"/>
     <use style="fill:#1f77b4;stroke:#1f77b4;" x="60.244151" xlink:href="#m4372329f2d" y="272.966948"/>
     <use style="fill:#1f77b4;stroke:#1f77b4;" x="143.591455" xlink:href="#m4372329f2d" y="274.042154"/>
     <use style="fill:#1f77b4;stroke:#1f77b4;" x="321.534871" xlink:href="#m4372329f2d" y="206.296259"/>
    </g>
   </g>
   <g id="patch_3">
    <path d="M 30.160938 334.399601 
L 30.160938 8.239601 
" style="fill:none;stroke:#cccccc;stroke-linecap:square;stroke-linejoin:miter;"/>
   </g>
   <g id="patch_4">
    <path d="M 588.160938 334.399601 
L 588.160938 8.239601 
" style="fill:none;stroke:#cccccc;stroke-linecap:square;stroke-linejoin:miter;"/>
   </g>
   <g id="patch_5">
    <path d="M 30.160937 334.399601 
L 588.160938 334.399601 
" style="fill:none;stroke:#cccccc;stroke-linecap:square;stroke-linejoin:miter;"/>
   </g>
   <g id="patch_6">
    <path d="M 30.160937 8.239601 
L 588.160938 8.239601 
" style="fill:none;stroke:#cccccc;stroke-linecap:square;stroke-linejoin:miter;"/>
   </g>
  </g>
 </g>
 <defs>
  <clipPath id="p4b2204b323">
   <rect height="326.16" width="558" x="30.160938" y="8.239601"/>
  </clipPath>
 </defs>
</svg>
