<?xml version="1.0" encoding="utf-8" standalone="no"?>
<!DOCTYPE svg PUBLIC "-//W3C//DTD SVG 1.1//EN"
  "http://www.w3.org/Graphics/SVG/1.1/DTD/svg11.dtd">
<svg height="400.045312pt" version="1.1" viewBox="0 0 662.640625 400.045312" width="662.640625pt" xmlns="http://www.w3.org/2000/svg" xmlns:xlink="http://www.w3.org/1999/xlink">
 <metadata>
  <rdf:RDF xmlns:cc="http://creativecommons.org/ns#" xmlns:dc="http://purl.org/dc/elements/1.1/" xmlns:rdf="http://www.w3.org/1999/02/22-rdf-syntax-ns#">
   <cc:Work>
    <dc:type rdf:resource="http://purl.org/dc/dcmitype/StillImage"/>
    <dc:date>2021-06-17T23:17:25.137387</dc:date>
    <dc:format>image/svg+xml</dc:format>
    <dc:creator>
     <cc:Agent>
      <dc:title>Matplotlib v3.4.1, https://matplotlib.org/</dc:title>
     </cc:Agent>
    </dc:creator>
   </cc:Work>
  </rdf:RDF>
 </metadata>
 <defs>
  <style type="text/css">*{stroke-linecap:butt;stroke-linejoin:round;}</style>
 </defs>
 <g id="figure_1">
  <g id="patch_1">
   <path d="M 0 400.045312 
L 662.640625 400.045312 
L 662.640625 0 
L 0 0 
z
" style="fill:#ffffff;"/>
  </g>
  <g id="axes_1">
   <g id="patch_2">
    <path d="M 30.440625 380.2 
L 588.440625 380.2 
L 588.440625 54.04 
L 30.440625 54.04 
z
" style="fill:#ffffff;"/>
   </g>
   <g id="matplotlib.axis_1">
    <g id="xtick_1">
     <g id="line2d_1">
      <path clip-path="url(#p9d8c449049)" d="M 55.804261 380.2 
L 55.804261 54.04 
" style="fill:none;stroke:#cccccc;stroke-linecap:round;stroke-width:0.8;"/>
     </g>
     <g id="line2d_2"/>
     <g id="text_1">
      <!-- 0.0 -->
      <g style="fill:#262626;" transform="translate(48.854261 390.857812)scale(0.1 -0.1)">
       <defs>
        <path d="M 266 2259 
Q 266 3072 433 3567 
Q 600 4063 929 4331 
Q 1259 4600 1759 4600 
Q 2128 4600 2406 4451 
Q 2684 4303 2865 4023 
Q 3047 3744 3150 3342 
Q 3253 2941 3253 2259 
Q 3253 1453 3087 958 
Q 2922 463 2592 192 
Q 2263 -78 1759 -78 
Q 1097 -78 719 397 
Q 266 969 266 2259 
z
M 844 2259 
Q 844 1131 1108 757 
Q 1372 384 1759 384 
Q 2147 384 2411 759 
Q 2675 1134 2675 2259 
Q 2675 3391 2411 3762 
Q 2147 4134 1753 4134 
Q 1366 4134 1134 3806 
Q 844 3388 844 2259 
z
" id="ArialMT-30" transform="scale(0.015625)"/>
        <path d="M 581 0 
L 581 641 
L 1222 641 
L 1222 0 
L 581 0 
z
" id="ArialMT-2e" transform="scale(0.015625)"/>
       </defs>
       <use xlink:href="#ArialMT-30"/>
       <use x="55.615234" xlink:href="#ArialMT-2e"/>
       <use x="83.398438" xlink:href="#ArialMT-30"/>
      </g>
     </g>
    </g>
    <g id="xtick_2">
     <g id="line2d_3">
      <path clip-path="url(#p9d8c449049)" d="M 119.213352 380.2 
L 119.213352 54.04 
" style="fill:none;stroke:#cccccc;stroke-linecap:round;stroke-width:0.8;"/>
     </g>
     <g id="line2d_4"/>
     <g id="text_2">
      <!-- 2.5 -->
      <g style="fill:#262626;" transform="translate(112.263352 390.857812)scale(0.1 -0.1)">
       <defs>
        <path d="M 3222 541 
L 3222 0 
L 194 0 
Q 188 203 259 391 
Q 375 700 629 1000 
Q 884 1300 1366 1694 
Q 2113 2306 2375 2664 
Q 2638 3022 2638 3341 
Q 2638 3675 2398 3904 
Q 2159 4134 1775 4134 
Q 1369 4134 1125 3890 
Q 881 3647 878 3216 
L 300 3275 
Q 359 3922 746 4261 
Q 1134 4600 1788 4600 
Q 2447 4600 2831 4234 
Q 3216 3869 3216 3328 
Q 3216 3053 3103 2787 
Q 2991 2522 2730 2228 
Q 2469 1934 1863 1422 
Q 1356 997 1212 845 
Q 1069 694 975 541 
L 3222 541 
z
" id="ArialMT-32" transform="scale(0.015625)"/>
        <path d="M 266 1200 
L 856 1250 
Q 922 819 1161 601 
Q 1400 384 1738 384 
Q 2144 384 2425 690 
Q 2706 997 2706 1503 
Q 2706 1984 2436 2262 
Q 2166 2541 1728 2541 
Q 1456 2541 1237 2417 
Q 1019 2294 894 2097 
L 366 2166 
L 809 4519 
L 3088 4519 
L 3088 3981 
L 1259 3981 
L 1013 2750 
Q 1425 3038 1878 3038 
Q 2478 3038 2890 2622 
Q 3303 2206 3303 1553 
Q 3303 931 2941 478 
Q 2500 -78 1738 -78 
Q 1113 -78 717 272 
Q 322 622 266 1200 
z
" id="ArialMT-35" transform="scale(0.015625)"/>
       </defs>
       <use xlink:href="#ArialMT-32"/>
       <use x="55.615234" xlink:href="#ArialMT-2e"/>
       <use x="83.398438" xlink:href="#ArialMT-35"/>
      </g>
     </g>
    </g>
    <g id="xtick_3">
     <g id="line2d_5">
      <path clip-path="url(#p9d8c449049)" d="M 182.622443 380.2 
L 182.622443 54.04 
" style="fill:none;stroke:#cccccc;stroke-linecap:round;stroke-width:0.8;"/>
     </g>
     <g id="line2d_6"/>
     <g id="text_3">
      <!-- 5.0 -->
      <g style="fill:#262626;" transform="translate(175.672443 390.857812)scale(0.1 -0.1)">
       <use xlink:href="#ArialMT-35"/>
       <use x="55.615234" xlink:href="#ArialMT-2e"/>
       <use x="83.398438" xlink:href="#ArialMT-30"/>
      </g>
     </g>
    </g>
    <g id="xtick_4">
     <g id="line2d_7">
      <path clip-path="url(#p9d8c449049)" d="M 246.031534 380.2 
L 246.031534 54.04 
" style="fill:none;stroke:#cccccc;stroke-linecap:round;stroke-width:0.8;"/>
     </g>
     <g id="line2d_8"/>
     <g id="text_4">
      <!-- 7.5 -->
      <g style="fill:#262626;" transform="translate(239.081534 390.857812)scale(0.1 -0.1)">
       <defs>
        <path d="M 303 3981 
L 303 4522 
L 3269 4522 
L 3269 4084 
Q 2831 3619 2401 2847 
Q 1972 2075 1738 1259 
Q 1569 684 1522 0 
L 944 0 
Q 953 541 1156 1306 
Q 1359 2072 1739 2783 
Q 2119 3494 2547 3981 
L 303 3981 
z
" id="ArialMT-37" transform="scale(0.015625)"/>
       </defs>
       <use xlink:href="#ArialMT-37"/>
       <use x="55.615234" xlink:href="#ArialMT-2e"/>
       <use x="83.398438" xlink:href="#ArialMT-35"/>
      </g>
     </g>
    </g>
    <g id="xtick_5">
     <g id="line2d_9">
      <path clip-path="url(#p9d8c449049)" d="M 309.440625 380.2 
L 309.440625 54.04 
" style="fill:none;stroke:#cccccc;stroke-linecap:round;stroke-width:0.8;"/>
     </g>
     <g id="line2d_10"/>
     <g id="text_5">
      <!-- 10.0 -->
      <g style="fill:#262626;" transform="translate(299.710156 390.857812)scale(0.1 -0.1)">
       <defs>
        <path d="M 2384 0 
L 1822 0 
L 1822 3584 
Q 1619 3391 1289 3197 
Q 959 3003 697 2906 
L 697 3450 
Q 1169 3672 1522 3987 
Q 1875 4303 2022 4600 
L 2384 4600 
L 2384 0 
z
" id="ArialMT-31" transform="scale(0.015625)"/>
       </defs>
       <use xlink:href="#ArialMT-31"/>
       <use x="55.615234" xlink:href="#ArialMT-30"/>
       <use x="111.230469" xlink:href="#ArialMT-2e"/>
       <use x="139.013672" xlink:href="#ArialMT-30"/>
      </g>
     </g>
    </g>
    <g id="xtick_6">
     <g id="line2d_11">
      <path clip-path="url(#p9d8c449049)" d="M 372.849716 380.2 
L 372.849716 54.04 
" style="fill:none;stroke:#cccccc;stroke-linecap:round;stroke-width:0.8;"/>
     </g>
     <g id="line2d_12"/>
     <g id="text_6">
      <!-- 12.5 -->
      <g style="fill:#262626;" transform="translate(363.119247 390.857812)scale(0.1 -0.1)">
       <use xlink:href="#ArialMT-31"/>
       <use x="55.615234" xlink:href="#ArialMT-32"/>
       <use x="111.230469" xlink:href="#ArialMT-2e"/>
       <use x="139.013672" xlink:href="#ArialMT-35"/>
      </g>
     </g>
    </g>
    <g id="xtick_7">
     <g id="line2d_13">
      <path clip-path="url(#p9d8c449049)" d="M 436.258807 380.2 
L 436.258807 54.04 
" style="fill:none;stroke:#cccccc;stroke-linecap:round;stroke-width:0.8;"/>
     </g>
     <g id="line2d_14"/>
     <g id="text_7">
      <!-- 15.0 -->
      <g style="fill:#262626;" transform="translate(426.528338 390.857812)scale(0.1 -0.1)">
       <use xlink:href="#ArialMT-31"/>
       <use x="55.615234" xlink:href="#ArialMT-35"/>
       <use x="111.230469" xlink:href="#ArialMT-2e"/>
       <use x="139.013672" xlink:href="#ArialMT-30"/>
      </g>
     </g>
    </g>
    <g id="xtick_8">
     <g id="line2d_15">
      <path clip-path="url(#p9d8c449049)" d="M 499.667898 380.2 
L 499.667898 54.04 
" style="fill:none;stroke:#cccccc;stroke-linecap:round;stroke-width:0.8;"/>
     </g>
     <g id="line2d_16"/>
     <g id="text_8">
      <!-- 17.5 -->
      <g style="fill:#262626;" transform="translate(489.937429 390.857812)scale(0.1 -0.1)">
       <use xlink:href="#ArialMT-31"/>
       <use x="55.615234" xlink:href="#ArialMT-37"/>
       <use x="111.230469" xlink:href="#ArialMT-2e"/>
       <use x="139.013672" xlink:href="#ArialMT-35"/>
      </g>
     </g>
    </g>
    <g id="xtick_9">
     <g id="line2d_17">
      <path clip-path="url(#p9d8c449049)" d="M 563.076989 380.2 
L 563.076989 54.04 
" style="fill:none;stroke:#cccccc;stroke-linecap:round;stroke-width:0.8;"/>
     </g>
     <g id="line2d_18"/>
     <g id="text_9">
      <!-- 20.0 -->
      <g style="fill:#262626;" transform="translate(553.34652 390.857812)scale(0.1 -0.1)">
       <use xlink:href="#ArialMT-32"/>
       <use x="55.615234" xlink:href="#ArialMT-30"/>
       <use x="111.230469" xlink:href="#ArialMT-2e"/>
       <use x="139.013672" xlink:href="#ArialMT-30"/>
      </g>
     </g>
    </g>
   </g>
   <g id="matplotlib.axis_2">
    <g id="ytick_1">
     <g id="line2d_19">
      <path clip-path="url(#p9d8c449049)" d="M 30.440625 352.813325 
L 588.440625 352.813325 
" style="fill:none;stroke:#cccccc;stroke-linecap:round;stroke-width:0.8;"/>
     </g>
     <g id="line2d_20"/>
     <g id="text_10">
      <!-- −1.5 -->
      <g style="fill:#262626;" transform="translate(7.2 356.392231)scale(0.1 -0.1)">
       <defs>
        <path d="M 3381 1997 
L 356 1997 
L 356 2522 
L 3381 2522 
L 3381 1997 
z
" id="ArialMT-2212" transform="scale(0.015625)"/>
       </defs>
       <use xlink:href="#ArialMT-2212"/>
       <use x="58.398438" xlink:href="#ArialMT-31"/>
       <use x="114.013672" xlink:href="#ArialMT-2e"/>
       <use x="141.796875" xlink:href="#ArialMT-35"/>
      </g>
     </g>
    </g>
    <g id="ytick_2">
     <g id="line2d_21">
      <path clip-path="url(#p9d8c449049)" d="M 30.440625 311.158885 
L 588.440625 311.158885 
" style="fill:none;stroke:#cccccc;stroke-linecap:round;stroke-width:0.8;"/>
     </g>
     <g id="line2d_22"/>
     <g id="text_11">
      <!-- −1.0 -->
      <g style="fill:#262626;" transform="translate(7.2 314.737791)scale(0.1 -0.1)">
       <use xlink:href="#ArialMT-2212"/>
       <use x="58.398438" xlink:href="#ArialMT-31"/>
       <use x="114.013672" xlink:href="#ArialMT-2e"/>
       <use x="141.796875" xlink:href="#ArialMT-30"/>
      </g>
     </g>
    </g>
    <g id="ytick_3">
     <g id="line2d_23">
      <path clip-path="url(#p9d8c449049)" d="M 30.440625 269.504445 
L 588.440625 269.504445 
" style="fill:none;stroke:#cccccc;stroke-linecap:round;stroke-width:0.8;"/>
     </g>
     <g id="line2d_24"/>
     <g id="text_12">
      <!-- −0.5 -->
      <g style="fill:#262626;" transform="translate(7.2 273.083352)scale(0.1 -0.1)">
       <use xlink:href="#ArialMT-2212"/>
       <use x="58.398438" xlink:href="#ArialMT-30"/>
       <use x="114.013672" xlink:href="#ArialMT-2e"/>
       <use x="141.796875" xlink:href="#ArialMT-35"/>
      </g>
     </g>
    </g>
    <g id="ytick_4">
     <g id="line2d_25">
      <path clip-path="url(#p9d8c449049)" d="M 30.440625 227.850006 
L 588.440625 227.850006 
" style="fill:none;stroke:#cccccc;stroke-linecap:round;stroke-width:0.8;"/>
     </g>
     <g id="line2d_26"/>
     <g id="text_13">
      <!-- 0.0 -->
      <g style="fill:#262626;" transform="translate(13.040625 231.428912)scale(0.1 -0.1)">
       <use xlink:href="#ArialMT-30"/>
       <use x="55.615234" xlink:href="#ArialMT-2e"/>
       <use x="83.398438" xlink:href="#ArialMT-30"/>
      </g>
     </g>
    </g>
    <g id="ytick_5">
     <g id="line2d_27">
      <path clip-path="url(#p9d8c449049)" d="M 30.440625 186.195566 
L 588.440625 186.195566 
" style="fill:none;stroke:#cccccc;stroke-linecap:round;stroke-width:0.8;"/>
     </g>
     <g id="line2d_28"/>
     <g id="text_14">
      <!-- 0.5 -->
      <g style="fill:#262626;" transform="translate(13.040625 189.774472)scale(0.1 -0.1)">
       <use xlink:href="#ArialMT-30"/>
       <use x="55.615234" xlink:href="#ArialMT-2e"/>
       <use x="83.398438" xlink:href="#ArialMT-35"/>
      </g>
     </g>
    </g>
    <g id="ytick_6">
     <g id="line2d_29">
      <path clip-path="url(#p9d8c449049)" d="M 30.440625 144.541126 
L 588.440625 144.541126 
" style="fill:none;stroke:#cccccc;stroke-linecap:round;stroke-width:0.8;"/>
     </g>
     <g id="line2d_30"/>
     <g id="text_15">
      <!-- 1.0 -->
      <g style="fill:#262626;" transform="translate(13.040625 148.120032)scale(0.1 -0.1)">
       <use xlink:href="#ArialMT-31"/>
       <use x="55.615234" xlink:href="#ArialMT-2e"/>
       <use x="83.398438" xlink:href="#ArialMT-30"/>
      </g>
     </g>
    </g>
    <g id="ytick_7">
     <g id="line2d_31">
      <path clip-path="url(#p9d8c449049)" d="M 30.440625 102.886686 
L 588.440625 102.886686 
" style="fill:none;stroke:#cccccc;stroke-linecap:round;stroke-width:0.8;"/>
     </g>
     <g id="line2d_32"/>
     <g id="text_16">
      <!-- 1.5 -->
      <g style="fill:#262626;" transform="translate(13.040625 106.465592)scale(0.1 -0.1)">
       <use xlink:href="#ArialMT-31"/>
       <use x="55.615234" xlink:href="#ArialMT-2e"/>
       <use x="83.398438" xlink:href="#ArialMT-35"/>
      </g>
     </g>
    </g>
    <g id="ytick_8">
     <g id="line2d_33">
      <path clip-path="url(#p9d8c449049)" d="M 30.440625 61.232246 
L 588.440625 61.232246 
" style="fill:none;stroke:#cccccc;stroke-linecap:round;stroke-width:0.8;"/>
     </g>
     <g id="line2d_34"/>
     <g id="text_17">
      <!-- 2.0 -->
      <g style="fill:#262626;" transform="translate(13.040625 64.811153)scale(0.1 -0.1)">
       <use xlink:href="#ArialMT-32"/>
       <use x="55.615234" xlink:href="#ArialMT-2e"/>
       <use x="83.398438" xlink:href="#ArialMT-30"/>
      </g>
     </g>
    </g>
   </g>
   <g id="line2d_35">
    <defs>
     <path d="M -3 3 
L 3 -3 
M -3 -3 
L 3 3 
" id="m5f74fbcd27" style="stroke:#1f77b4;"/>
    </defs>
    <g clip-path="url(#p9d8c449049)">
     <use style="fill:#1f77b4;stroke:#1f77b4;" x="55.804261" xlink:href="#m5f74fbcd27" y="68.865455"/>
     <use style="fill:#1f77b4;stroke:#1f77b4;" x="81.167898" xlink:href="#m5f74fbcd27" y="227.850006"/>
     <use style="fill:#1f77b4;stroke:#1f77b4;" x="106.531534" xlink:href="#m5f74fbcd27" y="227.850006"/>
     <use style="fill:#1f77b4;stroke:#1f77b4;" x="131.89517" xlink:href="#m5f74fbcd27" y="227.850006"/>
     <use style="fill:#1f77b4;stroke:#1f77b4;" x="157.258807" xlink:href="#m5f74fbcd27" y="227.850006"/>
     <use style="fill:#1f77b4;stroke:#1f77b4;" x="182.622443" xlink:href="#m5f74fbcd27" y="227.850006"/>
     <use style="fill:#1f77b4;stroke:#1f77b4;" x="207.98608" xlink:href="#m5f74fbcd27" y="227.850006"/>
     <use style="fill:#1f77b4;stroke:#1f77b4;" x="233.349716" xlink:href="#m5f74fbcd27" y="227.850006"/>
     <use style="fill:#1f77b4;stroke:#1f77b4;" x="258.713352" xlink:href="#m5f74fbcd27" y="252.988398"/>
     <use style="fill:#1f77b4;stroke:#1f77b4;" x="284.076989" xlink:href="#m5f74fbcd27" y="282.68168"/>
     <use style="fill:#1f77b4;stroke:#1f77b4;" x="309.440625" xlink:href="#m5f74fbcd27" y="288.252346"/>
     <use style="fill:#1f77b4;stroke:#1f77b4;" x="334.804261" xlink:href="#m5f74fbcd27" y="200.508847"/>
     <use style="fill:#1f77b4;stroke:#1f77b4;" x="360.167898" xlink:href="#m5f74fbcd27" y="182.68577"/>
     <use style="fill:#1f77b4;stroke:#1f77b4;" x="385.531534" xlink:href="#m5f74fbcd27" y="145.172952"/>
     <use style="fill:#1f77b4;stroke:#1f77b4;" x="410.89517" xlink:href="#m5f74fbcd27" y="190.696451"/>
     <use style="fill:#1f77b4;stroke:#1f77b4;" x="436.258807" xlink:href="#m5f74fbcd27" y="227.850006"/>
     <use style="fill:#1f77b4;stroke:#1f77b4;" x="461.622443" xlink:href="#m5f74fbcd27" y="227.850006"/>
     <use style="fill:#1f77b4;stroke:#1f77b4;" x="486.98608" xlink:href="#m5f74fbcd27" y="227.850006"/>
     <use style="fill:#1f77b4;stroke:#1f77b4;" x="512.349716" xlink:href="#m5f74fbcd27" y="227.850006"/>
     <use style="fill:#1f77b4;stroke:#1f77b4;" x="537.713352" xlink:href="#m5f74fbcd27" y="304.366418"/>
     <use style="fill:#1f77b4;stroke:#1f77b4;" x="563.076989" xlink:href="#m5f74fbcd27" y="227.850006"/>
    </g>
   </g>
   <g id="line2d_36">
    <defs>
     <path d="M 0 1.5 
C 0.397805 1.5 0.77937 1.341951 1.06066 1.06066 
C 1.341951 0.77937 1.5 0.397805 1.5 0 
C 1.5 -0.397805 1.341951 -0.77937 1.06066 -1.06066 
C 0.77937 -1.341951 0.397805 -1.5 0 -1.5 
C -0.397805 -1.5 -0.77937 -1.341951 -1.06066 -1.06066 
C -1.341951 -0.77937 -1.5 -0.397805 -1.5 0 
C -1.5 0.397805 -1.341951 0.77937 -1.06066 1.06066 
C -0.77937 1.341951 -0.397805 1.5 0 1.5 
z
" id="m294a15462e" style="stroke:#ff7f0e;"/>
    </defs>
    <g clip-path="url(#p9d8c449049)">
     <use style="fill:#ff7f0e;stroke:#ff7f0e;" x="55.804261" xlink:href="#m294a15462e" y="112.020702"/>
     <use style="fill:#ff7f0e;stroke:#ff7f0e;" x="81.167898" xlink:href="#m294a15462e" y="248.688227"/>
     <use style="fill:#ff7f0e;stroke:#ff7f0e;" x="106.531534" xlink:href="#m294a15462e" y="182.577712"/>
     <use style="fill:#ff7f0e;stroke:#ff7f0e;" x="131.89517" xlink:href="#m294a15462e" y="252.102831"/>
     <use style="fill:#ff7f0e;stroke:#ff7f0e;" x="157.258807" xlink:href="#m294a15462e" y="112.511173"/>
     <use style="fill:#ff7f0e;stroke:#ff7f0e;" x="182.622443" xlink:href="#m294a15462e" y="141.911167"/>
     <use style="fill:#ff7f0e;stroke:#ff7f0e;" x="207.98608" xlink:href="#m294a15462e" y="223.475648"/>
     <use style="fill:#ff7f0e;stroke:#ff7f0e;" x="233.349716" xlink:href="#m294a15462e" y="270.951073"/>
     <use style="fill:#ff7f0e;stroke:#ff7f0e;" x="258.713352" xlink:href="#m294a15462e" y="254.528088"/>
     <use style="fill:#ff7f0e;stroke:#ff7f0e;" x="284.076989" xlink:href="#m294a15462e" y="330.003233"/>
     <use style="fill:#ff7f0e;stroke:#ff7f0e;" x="309.440625" xlink:href="#m294a15462e" y="365.374545"/>
     <use style="fill:#ff7f0e;stroke:#ff7f0e;" x="334.804261" xlink:href="#m294a15462e" y="206.927521"/>
     <use style="fill:#ff7f0e;stroke:#ff7f0e;" x="360.167898" xlink:href="#m294a15462e" y="227.108721"/>
     <use style="fill:#ff7f0e;stroke:#ff7f0e;" x="385.531534" xlink:href="#m294a15462e" y="130.538721"/>
     <use style="fill:#ff7f0e;stroke:#ff7f0e;" x="410.89517" xlink:href="#m294a15462e" y="225.789761"/>
     <use style="fill:#ff7f0e;stroke:#ff7f0e;" x="436.258807" xlink:href="#m294a15462e" y="229.338856"/>
     <use style="fill:#ff7f0e;stroke:#ff7f0e;" x="461.622443" xlink:href="#m294a15462e" y="257.21813"/>
     <use style="fill:#ff7f0e;stroke:#ff7f0e;" x="486.98608" xlink:href="#m294a15462e" y="279.224113"/>
     <use style="fill:#ff7f0e;stroke:#ff7f0e;" x="512.349716" xlink:href="#m294a15462e" y="243.874844"/>
     <use style="fill:#ff7f0e;stroke:#ff7f0e;" x="537.713352" xlink:href="#m294a15462e" y="292.18708"/>
     <use style="fill:#ff7f0e;stroke:#ff7f0e;" x="563.076989" xlink:href="#m294a15462e" y="212.909968"/>
    </g>
   </g>
   <g id="line2d_37">
    <defs>
     <path d="M 0 1.5 
C 0.397805 1.5 0.77937 1.341951 1.06066 1.06066 
C 1.341951 0.77937 1.5 0.397805 1.5 0 
C 1.5 -0.397805 1.341951 -0.77937 1.06066 -1.06066 
C 0.77937 -1.341951 0.397805 -1.5 0 -1.5 
C -0.397805 -1.5 -0.77937 -1.341951 -1.06066 -1.06066 
C -1.341951 -0.77937 -1.5 -0.397805 -1.5 0 
C -1.5 0.397805 -1.341951 0.77937 -1.06066 1.06066 
C -0.77937 1.341951 -0.397805 1.5 0 1.5 
z
" id="m3981bca15e" style="stroke:#2ca02c;"/>
    </defs>
    <g clip-path="url(#p9d8c449049)">
     <use style="fill:#2ca02c;stroke:#2ca02c;" x="55.804261" xlink:href="#m3981bca15e" y="110.680915"/>
     <use style="fill:#2ca02c;stroke:#2ca02c;" x="81.167898" xlink:href="#m3981bca15e" y="248.359344"/>
     <use style="fill:#2ca02c;stroke:#2ca02c;" x="106.531534" xlink:href="#m3981bca15e" y="182.733535"/>
     <use style="fill:#2ca02c;stroke:#2ca02c;" x="131.89517" xlink:href="#m3981bca15e" y="251.0186"/>
     <use style="fill:#2ca02c;stroke:#2ca02c;" x="157.258807" xlink:href="#m3981bca15e" y="113.472536"/>
     <use style="fill:#2ca02c;stroke:#2ca02c;" x="182.622443" xlink:href="#m3981bca15e" y="143.087952"/>
     <use style="fill:#2ca02c;stroke:#2ca02c;" x="207.98608" xlink:href="#m3981bca15e" y="223.258371"/>
     <use style="fill:#2ca02c;stroke:#2ca02c;" x="233.349716" xlink:href="#m3981bca15e" y="270.15493"/>
     <use style="fill:#2ca02c;stroke:#2ca02c;" x="258.713352" xlink:href="#m3981bca15e" y="253.215251"/>
     <use style="fill:#2ca02c;stroke:#2ca02c;" x="284.076989" xlink:href="#m3981bca15e" y="329.037825"/>
     <use style="fill:#2ca02c;stroke:#2ca02c;" x="309.440625" xlink:href="#m3981bca15e" y="364.747299"/>
     <use style="fill:#2ca02c;stroke:#2ca02c;" x="334.804261" xlink:href="#m3981bca15e" y="206.004867"/>
     <use style="fill:#2ca02c;stroke:#2ca02c;" x="360.167898" xlink:href="#m3981bca15e" y="227.850006"/>
     <use style="fill:#2ca02c;stroke:#2ca02c;" x="385.531534" xlink:href="#m3981bca15e" y="131.151254"/>
     <use style="fill:#2ca02c;stroke:#2ca02c;" x="410.89517" xlink:href="#m3981bca15e" y="225.521436"/>
     <use style="fill:#2ca02c;stroke:#2ca02c;" x="436.258807" xlink:href="#m3981bca15e" y="228.725837"/>
     <use style="fill:#2ca02c;stroke:#2ca02c;" x="461.622443" xlink:href="#m3981bca15e" y="257.460767"/>
     <use style="fill:#2ca02c;stroke:#2ca02c;" x="486.98608" xlink:href="#m3981bca15e" y="278.40542"/>
     <use style="fill:#2ca02c;stroke:#2ca02c;" x="512.349716" xlink:href="#m3981bca15e" y="243.922931"/>
     <use style="fill:#2ca02c;stroke:#2ca02c;" x="537.713352" xlink:href="#m3981bca15e" y="292.3265"/>
     <use style="fill:#2ca02c;stroke:#2ca02c;" x="563.076989" xlink:href="#m3981bca15e" y="213.089178"/>
    </g>
   </g>
   <g id="patch_3">
    <path d="M 30.440625 380.2 
L 30.440625 54.04 
" style="fill:none;stroke:#cccccc;stroke-linecap:square;stroke-linejoin:miter;"/>
   </g>
   <g id="patch_4">
    <path d="M 588.440625 380.2 
L 588.440625 54.04 
" style="fill:none;stroke:#cccccc;stroke-linecap:square;stroke-linejoin:miter;"/>
   </g>
   <g id="patch_5">
    <path d="M 30.440625 380.2 
L 588.440625 380.2 
" style="fill:none;stroke:#cccccc;stroke-linecap:square;stroke-linejoin:miter;"/>
   </g>
   <g id="patch_6">
    <path d="M 30.440625 54.04 
L 588.440625 54.04 
" style="fill:none;stroke:#cccccc;stroke-linecap:square;stroke-linejoin:miter;"/>
   </g>
   <g id="text_18">
    <!-- Lasso regression -->
    <g style="fill:#262626;" transform="translate(263.7525 48.04)scale(0.12 -0.12)">
     <defs>
      <path d="M 469 0 
L 469 4581 
L 1075 4581 
L 1075 541 
L 3331 541 
L 3331 0 
L 469 0 
z
" id="ArialMT-4c" transform="scale(0.015625)"/>
      <path d="M 2588 409 
Q 2275 144 1986 34 
Q 1697 -75 1366 -75 
Q 819 -75 525 192 
Q 231 459 231 875 
Q 231 1119 342 1320 
Q 453 1522 633 1644 
Q 813 1766 1038 1828 
Q 1203 1872 1538 1913 
Q 2219 1994 2541 2106 
Q 2544 2222 2544 2253 
Q 2544 2597 2384 2738 
Q 2169 2928 1744 2928 
Q 1347 2928 1158 2789 
Q 969 2650 878 2297 
L 328 2372 
Q 403 2725 575 2942 
Q 747 3159 1072 3276 
Q 1397 3394 1825 3394 
Q 2250 3394 2515 3294 
Q 2781 3194 2906 3042 
Q 3031 2891 3081 2659 
Q 3109 2516 3109 2141 
L 3109 1391 
Q 3109 606 3145 398 
Q 3181 191 3288 0 
L 2700 0 
Q 2613 175 2588 409 
z
M 2541 1666 
Q 2234 1541 1622 1453 
Q 1275 1403 1131 1340 
Q 988 1278 909 1158 
Q 831 1038 831 891 
Q 831 666 1001 516 
Q 1172 366 1500 366 
Q 1825 366 2078 508 
Q 2331 650 2450 897 
Q 2541 1088 2541 1459 
L 2541 1666 
z
" id="ArialMT-61" transform="scale(0.015625)"/>
      <path d="M 197 991 
L 753 1078 
Q 800 744 1014 566 
Q 1228 388 1613 388 
Q 2000 388 2187 545 
Q 2375 703 2375 916 
Q 2375 1106 2209 1216 
Q 2094 1291 1634 1406 
Q 1016 1563 777 1677 
Q 538 1791 414 1992 
Q 291 2194 291 2438 
Q 291 2659 392 2848 
Q 494 3038 669 3163 
Q 800 3259 1026 3326 
Q 1253 3394 1513 3394 
Q 1903 3394 2198 3281 
Q 2494 3169 2634 2976 
Q 2775 2784 2828 2463 
L 2278 2388 
Q 2241 2644 2061 2787 
Q 1881 2931 1553 2931 
Q 1166 2931 1000 2803 
Q 834 2675 834 2503 
Q 834 2394 903 2306 
Q 972 2216 1119 2156 
Q 1203 2125 1616 2013 
Q 2213 1853 2448 1751 
Q 2684 1650 2818 1456 
Q 2953 1263 2953 975 
Q 2953 694 2789 445 
Q 2625 197 2315 61 
Q 2006 -75 1616 -75 
Q 969 -75 630 194 
Q 291 463 197 991 
z
" id="ArialMT-73" transform="scale(0.015625)"/>
      <path d="M 213 1659 
Q 213 2581 725 3025 
Q 1153 3394 1769 3394 
Q 2453 3394 2887 2945 
Q 3322 2497 3322 1706 
Q 3322 1066 3130 698 
Q 2938 331 2570 128 
Q 2203 -75 1769 -75 
Q 1072 -75 642 372 
Q 213 819 213 1659 
z
M 791 1659 
Q 791 1022 1069 705 
Q 1347 388 1769 388 
Q 2188 388 2466 706 
Q 2744 1025 2744 1678 
Q 2744 2294 2464 2611 
Q 2184 2928 1769 2928 
Q 1347 2928 1069 2612 
Q 791 2297 791 1659 
z
" id="ArialMT-6f" transform="scale(0.015625)"/>
      <path id="ArialMT-20" transform="scale(0.015625)"/>
      <path d="M 416 0 
L 416 3319 
L 922 3319 
L 922 2816 
Q 1116 3169 1280 3281 
Q 1444 3394 1641 3394 
Q 1925 3394 2219 3213 
L 2025 2691 
Q 1819 2813 1613 2813 
Q 1428 2813 1281 2702 
Q 1134 2591 1072 2394 
Q 978 2094 978 1738 
L 978 0 
L 416 0 
z
" id="ArialMT-72" transform="scale(0.015625)"/>
      <path d="M 2694 1069 
L 3275 997 
Q 3138 488 2766 206 
Q 2394 -75 1816 -75 
Q 1088 -75 661 373 
Q 234 822 234 1631 
Q 234 2469 665 2931 
Q 1097 3394 1784 3394 
Q 2450 3394 2872 2941 
Q 3294 2488 3294 1666 
Q 3294 1616 3291 1516 
L 816 1516 
Q 847 969 1125 678 
Q 1403 388 1819 388 
Q 2128 388 2347 550 
Q 2566 713 2694 1069 
z
M 847 1978 
L 2700 1978 
Q 2663 2397 2488 2606 
Q 2219 2931 1791 2931 
Q 1403 2931 1139 2672 
Q 875 2413 847 1978 
z
" id="ArialMT-65" transform="scale(0.015625)"/>
      <path d="M 319 -275 
L 866 -356 
Q 900 -609 1056 -725 
Q 1266 -881 1628 -881 
Q 2019 -881 2231 -725 
Q 2444 -569 2519 -288 
Q 2563 -116 2559 434 
Q 2191 0 1641 0 
Q 956 0 581 494 
Q 206 988 206 1678 
Q 206 2153 378 2554 
Q 550 2956 876 3175 
Q 1203 3394 1644 3394 
Q 2231 3394 2613 2919 
L 2613 3319 
L 3131 3319 
L 3131 450 
Q 3131 -325 2973 -648 
Q 2816 -972 2473 -1159 
Q 2131 -1347 1631 -1347 
Q 1038 -1347 672 -1080 
Q 306 -813 319 -275 
z
M 784 1719 
Q 784 1066 1043 766 
Q 1303 466 1694 466 
Q 2081 466 2343 764 
Q 2606 1063 2606 1700 
Q 2606 2309 2336 2618 
Q 2066 2928 1684 2928 
Q 1309 2928 1046 2623 
Q 784 2319 784 1719 
z
" id="ArialMT-67" transform="scale(0.015625)"/>
      <path d="M 425 3934 
L 425 4581 
L 988 4581 
L 988 3934 
L 425 3934 
z
M 425 0 
L 425 3319 
L 988 3319 
L 988 0 
L 425 0 
z
" id="ArialMT-69" transform="scale(0.015625)"/>
      <path d="M 422 0 
L 422 3319 
L 928 3319 
L 928 2847 
Q 1294 3394 1984 3394 
Q 2284 3394 2536 3286 
Q 2788 3178 2913 3003 
Q 3038 2828 3088 2588 
Q 3119 2431 3119 2041 
L 3119 0 
L 2556 0 
L 2556 2019 
Q 2556 2363 2490 2533 
Q 2425 2703 2258 2804 
Q 2091 2906 1866 2906 
Q 1506 2906 1245 2678 
Q 984 2450 984 1813 
L 984 0 
L 422 0 
z
" id="ArialMT-6e" transform="scale(0.015625)"/>
     </defs>
     <use xlink:href="#ArialMT-4c"/>
     <use x="55.615234" xlink:href="#ArialMT-61"/>
     <use x="111.230469" xlink:href="#ArialMT-73"/>
     <use x="161.230469" xlink:href="#ArialMT-73"/>
     <use x="211.230469" xlink:href="#ArialMT-6f"/>
     <use x="266.845703" xlink:href="#ArialMT-20"/>
     <use x="294.628906" xlink:href="#ArialMT-72"/>
     <use x="327.929688" xlink:href="#ArialMT-65"/>
     <use x="383.544922" xlink:href="#ArialMT-67"/>
     <use x="439.160156" xlink:href="#ArialMT-72"/>
     <use x="472.460938" xlink:href="#ArialMT-65"/>
     <use x="528.076172" xlink:href="#ArialMT-73"/>
     <use x="578.076172" xlink:href="#ArialMT-73"/>
     <use x="628.076172" xlink:href="#ArialMT-69"/>
     <use x="650.292969" xlink:href="#ArialMT-6f"/>
     <use x="705.908203" xlink:href="#ArialMT-6e"/>
    </g>
   </g>
  </g>
  <g id="legend_1">
   <g id="line2d_38"/>
   <g id="line2d_39">
    <g>
     <use style="fill:#1f77b4;stroke:#1f77b4;" x="601.740625" xlink:href="#m5f74fbcd27" y="12.657813"/>
    </g>
   </g>
   <g id="text_19">
    <!-- True -->
    <g style="fill:#262626;" transform="translate(619.740625 16.157813)scale(0.1 -0.1)">
     <defs>
      <path d="M 1659 0 
L 1659 4041 
L 150 4041 
L 150 4581 
L 3781 4581 
L 3781 4041 
L 2266 4041 
L 2266 0 
L 1659 0 
z
" id="ArialMT-54" transform="scale(0.015625)"/>
      <path d="M 2597 0 
L 2597 488 
Q 2209 -75 1544 -75 
Q 1250 -75 995 37 
Q 741 150 617 320 
Q 494 491 444 738 
Q 409 903 409 1263 
L 409 3319 
L 972 3319 
L 972 1478 
Q 972 1038 1006 884 
Q 1059 663 1231 536 
Q 1403 409 1656 409 
Q 1909 409 2131 539 
Q 2353 669 2445 892 
Q 2538 1116 2538 1541 
L 2538 3319 
L 3100 3319 
L 3100 0 
L 2597 0 
z
" id="ArialMT-75" transform="scale(0.015625)"/>
     </defs>
     <use xlink:href="#ArialMT-54"/>
     <use x="57.333984" xlink:href="#ArialMT-72"/>
     <use x="90.634766" xlink:href="#ArialMT-75"/>
     <use x="146.25" xlink:href="#ArialMT-65"/>
    </g>
   </g>
   <g id="line2d_40"/>
   <g id="line2d_41">
    <g>
     <use style="fill:#ff7f0e;stroke:#ff7f0e;" x="601.740625" xlink:href="#m294a15462e" y="26.803125"/>
    </g>
   </g>
   <g id="text_20">
    <!-- Pytorch -->
    <g style="fill:#262626;" transform="translate(619.740625 30.303125)scale(0.1 -0.1)">
     <defs>
      <path d="M 494 0 
L 494 4581 
L 2222 4581 
Q 2678 4581 2919 4538 
Q 3256 4481 3484 4323 
Q 3713 4166 3852 3881 
Q 3991 3597 3991 3256 
Q 3991 2672 3619 2267 
Q 3247 1863 2275 1863 
L 1100 1863 
L 1100 0 
L 494 0 
z
M 1100 2403 
L 2284 2403 
Q 2872 2403 3119 2622 
Q 3366 2841 3366 3238 
Q 3366 3525 3220 3729 
Q 3075 3934 2838 4000 
Q 2684 4041 2272 4041 
L 1100 4041 
L 1100 2403 
z
" id="ArialMT-50" transform="scale(0.015625)"/>
      <path d="M 397 -1278 
L 334 -750 
Q 519 -800 656 -800 
Q 844 -800 956 -737 
Q 1069 -675 1141 -563 
Q 1194 -478 1313 -144 
Q 1328 -97 1363 -6 
L 103 3319 
L 709 3319 
L 1400 1397 
Q 1534 1031 1641 628 
Q 1738 1016 1872 1384 
L 2581 3319 
L 3144 3319 
L 1881 -56 
Q 1678 -603 1566 -809 
Q 1416 -1088 1222 -1217 
Q 1028 -1347 759 -1347 
Q 597 -1347 397 -1278 
z
" id="ArialMT-79" transform="scale(0.015625)"/>
      <path d="M 1650 503 
L 1731 6 
Q 1494 -44 1306 -44 
Q 1000 -44 831 53 
Q 663 150 594 308 
Q 525 466 525 972 
L 525 2881 
L 113 2881 
L 113 3319 
L 525 3319 
L 525 4141 
L 1084 4478 
L 1084 3319 
L 1650 3319 
L 1650 2881 
L 1084 2881 
L 1084 941 
Q 1084 700 1114 631 
Q 1144 563 1211 522 
Q 1278 481 1403 481 
Q 1497 481 1650 503 
z
" id="ArialMT-74" transform="scale(0.015625)"/>
      <path d="M 2588 1216 
L 3141 1144 
Q 3050 572 2676 248 
Q 2303 -75 1759 -75 
Q 1078 -75 664 370 
Q 250 816 250 1647 
Q 250 2184 428 2587 
Q 606 2991 970 3192 
Q 1334 3394 1763 3394 
Q 2303 3394 2647 3120 
Q 2991 2847 3088 2344 
L 2541 2259 
Q 2463 2594 2264 2762 
Q 2066 2931 1784 2931 
Q 1359 2931 1093 2626 
Q 828 2322 828 1663 
Q 828 994 1084 691 
Q 1341 388 1753 388 
Q 2084 388 2306 591 
Q 2528 794 2588 1216 
z
" id="ArialMT-63" transform="scale(0.015625)"/>
      <path d="M 422 0 
L 422 4581 
L 984 4581 
L 984 2938 
Q 1378 3394 1978 3394 
Q 2347 3394 2619 3248 
Q 2891 3103 3008 2847 
Q 3125 2591 3125 2103 
L 3125 0 
L 2563 0 
L 2563 2103 
Q 2563 2525 2380 2717 
Q 2197 2909 1863 2909 
Q 1613 2909 1392 2779 
Q 1172 2650 1078 2428 
Q 984 2206 984 1816 
L 984 0 
L 422 0 
z
" id="ArialMT-68" transform="scale(0.015625)"/>
     </defs>
     <use xlink:href="#ArialMT-50"/>
     <use x="66.699219" xlink:href="#ArialMT-79"/>
     <use x="116.699219" xlink:href="#ArialMT-74"/>
     <use x="144.482422" xlink:href="#ArialMT-6f"/>
     <use x="200.097656" xlink:href="#ArialMT-72"/>
     <use x="233.398438" xlink:href="#ArialMT-63"/>
     <use x="283.398438" xlink:href="#ArialMT-68"/>
    </g>
   </g>
   <g id="line2d_42"/>
   <g id="line2d_43">
    <g>
     <use style="fill:#2ca02c;stroke:#2ca02c;" x="601.740625" xlink:href="#m3981bca15e" y="41.065625"/>
    </g>
   </g>
   <g id="text_21">
    <!-- sklearn -->
    <g style="fill:#262626;" transform="translate(619.740625 44.565625)scale(0.1 -0.1)">
     <defs>
      <path d="M 425 0 
L 425 4581 
L 988 4581 
L 988 1969 
L 2319 3319 
L 3047 3319 
L 1778 2088 
L 3175 0 
L 2481 0 
L 1384 1697 
L 988 1316 
L 988 0 
L 425 0 
z
" id="ArialMT-6b" transform="scale(0.015625)"/>
      <path d="M 409 0 
L 409 4581 
L 972 4581 
L 972 0 
L 409 0 
z
" id="ArialMT-6c" transform="scale(0.015625)"/>
     </defs>
     <use xlink:href="#ArialMT-73"/>
     <use x="50" xlink:href="#ArialMT-6b"/>
     <use x="100" xlink:href="#ArialMT-6c"/>
     <use x="122.216797" xlink:href="#ArialMT-65"/>
     <use x="177.832031" xlink:href="#ArialMT-61"/>
     <use x="233.447266" xlink:href="#ArialMT-72"/>
     <use x="266.748047" xlink:href="#ArialMT-6e"/>
    </g>
   </g>
  </g>
 </g>
 <defs>
  <clipPath id="p9d8c449049">
   <rect height="326.16" width="558" x="30.440625" y="54.04"/>
  </clipPath>
 </defs>
</svg>
