<?xml version="1.0" encoding="utf-8" standalone="no"?>
<!DOCTYPE svg PUBLIC "-//W3C//DTD SVG 1.1//EN"
  "http://www.w3.org/Graphics/SVG/1.1/DTD/svg11.dtd">
<svg height="381.09375pt" version="1.1" viewBox="0 0 594.723437 381.09375" width="594.723437pt" xmlns="http://www.w3.org/2000/svg" xmlns:xlink="http://www.w3.org/1999/xlink">
 <metadata>
  <rdf:RDF xmlns:cc="http://creativecommons.org/ns#" xmlns:dc="http://purl.org/dc/elements/1.1/" xmlns:rdf="http://www.w3.org/1999/02/22-rdf-syntax-ns#">
   <cc:Work>
    <dc:type rdf:resource="http://purl.org/dc/dcmitype/StillImage"/>
    <dc:date>2021-04-12T22:48:19.317689</dc:date>
    <dc:format>image/svg+xml</dc:format>
    <dc:creator>
     <cc:Agent>
      <dc:title>Matplotlib v3.4.1, https://matplotlib.org/</dc:title>
     </cc:Agent>
    </dc:creator>
   </cc:Work>
  </rdf:RDF>
 </metadata>
 <defs>
  <style type="text/css">*{stroke-linecap:butt;stroke-linejoin:round;}</style>
 </defs>
 <g id="figure_1">
  <g id="patch_1">
   <path d="M -0 381.09375 
L 594.723437 381.09375 
L 594.723437 0 
L -0 0 
z
" style="fill:#ffffff;"/>
  </g>
  <g id="axes_1">
   <g id="patch_2">
    <path d="M 29.523438 348.103125 
L 587.523438 348.103125 
L 587.523438 21.943125 
L 29.523438 21.943125 
z
" style="fill:#ffffff;"/>
   </g>
   <g id="matplotlib.axis_1">
    <g id="xtick_1">
     <g id="line2d_1">
      <path clip-path="url(#p5092d6108b)" d="M 54.887074 348.103125 
L 54.887074 21.943125 
" style="fill:none;stroke:#cccccc;stroke-linecap:round;stroke-width:0.8;"/>
     </g>
     <g id="line2d_2"/>
     <g id="text_1">
      <!-- 0 -->
      <g style="fill:#262626;" transform="translate(52.106605 358.760938)scale(0.1 -0.1)">
       <defs>
        <path d="M 266 2259 
Q 266 3072 433 3567 
Q 600 4063 929 4331 
Q 1259 4600 1759 4600 
Q 2128 4600 2406 4451 
Q 2684 4303 2865 4023 
Q 3047 3744 3150 3342 
Q 3253 2941 3253 2259 
Q 3253 1453 3087 958 
Q 2922 463 2592 192 
Q 2263 -78 1759 -78 
Q 1097 -78 719 397 
Q 266 969 266 2259 
z
M 844 2259 
Q 844 1131 1108 757 
Q 1372 384 1759 384 
Q 2147 384 2411 759 
Q 2675 1134 2675 2259 
Q 2675 3391 2411 3762 
Q 2147 4134 1753 4134 
Q 1366 4134 1134 3806 
Q 844 3388 844 2259 
z
" id="ArialMT-30" transform="scale(0.015625)"/>
       </defs>
       <use xlink:href="#ArialMT-30"/>
      </g>
     </g>
    </g>
    <g id="xtick_2">
     <g id="line2d_3">
      <path clip-path="url(#p5092d6108b)" d="M 157.366413 348.103125 
L 157.366413 21.943125 
" style="fill:none;stroke:#cccccc;stroke-linecap:round;stroke-width:0.8;"/>
     </g>
     <g id="line2d_4"/>
     <g id="text_2">
      <!-- 20 -->
      <g style="fill:#262626;" transform="translate(151.805475 358.760938)scale(0.1 -0.1)">
       <defs>
        <path d="M 3222 541 
L 3222 0 
L 194 0 
Q 188 203 259 391 
Q 375 700 629 1000 
Q 884 1300 1366 1694 
Q 2113 2306 2375 2664 
Q 2638 3022 2638 3341 
Q 2638 3675 2398 3904 
Q 2159 4134 1775 4134 
Q 1369 4134 1125 3890 
Q 881 3647 878 3216 
L 300 3275 
Q 359 3922 746 4261 
Q 1134 4600 1788 4600 
Q 2447 4600 2831 4234 
Q 3216 3869 3216 3328 
Q 3216 3053 3103 2787 
Q 2991 2522 2730 2228 
Q 2469 1934 1863 1422 
Q 1356 997 1212 845 
Q 1069 694 975 541 
L 3222 541 
z
" id="ArialMT-32" transform="scale(0.015625)"/>
       </defs>
       <use xlink:href="#ArialMT-32"/>
       <use x="55.615234" xlink:href="#ArialMT-30"/>
      </g>
     </g>
    </g>
    <g id="xtick_3">
     <g id="line2d_5">
      <path clip-path="url(#p5092d6108b)" d="M 259.845752 348.103125 
L 259.845752 21.943125 
" style="fill:none;stroke:#cccccc;stroke-linecap:round;stroke-width:0.8;"/>
     </g>
     <g id="line2d_6"/>
     <g id="text_3">
      <!-- 40 -->
      <g style="fill:#262626;" transform="translate(254.284814 358.760938)scale(0.1 -0.1)">
       <defs>
        <path d="M 2069 0 
L 2069 1097 
L 81 1097 
L 81 1613 
L 2172 4581 
L 2631 4581 
L 2631 1613 
L 3250 1613 
L 3250 1097 
L 2631 1097 
L 2631 0 
L 2069 0 
z
M 2069 1613 
L 2069 3678 
L 634 1613 
L 2069 1613 
z
" id="ArialMT-34" transform="scale(0.015625)"/>
       </defs>
       <use xlink:href="#ArialMT-34"/>
       <use x="55.615234" xlink:href="#ArialMT-30"/>
      </g>
     </g>
    </g>
    <g id="xtick_4">
     <g id="line2d_7">
      <path clip-path="url(#p5092d6108b)" d="M 362.32509 348.103125 
L 362.32509 21.943125 
" style="fill:none;stroke:#cccccc;stroke-linecap:round;stroke-width:0.8;"/>
     </g>
     <g id="line2d_8"/>
     <g id="text_4">
      <!-- 60 -->
      <g style="fill:#262626;" transform="translate(356.764153 358.760938)scale(0.1 -0.1)">
       <defs>
        <path d="M 3184 3459 
L 2625 3416 
Q 2550 3747 2413 3897 
Q 2184 4138 1850 4138 
Q 1581 4138 1378 3988 
Q 1113 3794 959 3422 
Q 806 3050 800 2363 
Q 1003 2672 1297 2822 
Q 1591 2972 1913 2972 
Q 2475 2972 2870 2558 
Q 3266 2144 3266 1488 
Q 3266 1056 3080 686 
Q 2894 316 2569 119 
Q 2244 -78 1831 -78 
Q 1128 -78 684 439 
Q 241 956 241 2144 
Q 241 3472 731 4075 
Q 1159 4600 1884 4600 
Q 2425 4600 2770 4297 
Q 3116 3994 3184 3459 
z
M 888 1484 
Q 888 1194 1011 928 
Q 1134 663 1356 523 
Q 1578 384 1822 384 
Q 2178 384 2434 671 
Q 2691 959 2691 1453 
Q 2691 1928 2437 2201 
Q 2184 2475 1800 2475 
Q 1419 2475 1153 2201 
Q 888 1928 888 1484 
z
" id="ArialMT-36" transform="scale(0.015625)"/>
       </defs>
       <use xlink:href="#ArialMT-36"/>
       <use x="55.615234" xlink:href="#ArialMT-30"/>
      </g>
     </g>
    </g>
    <g id="xtick_5">
     <g id="line2d_9">
      <path clip-path="url(#p5092d6108b)" d="M 464.804429 348.103125 
L 464.804429 21.943125 
" style="fill:none;stroke:#cccccc;stroke-linecap:round;stroke-width:0.8;"/>
     </g>
     <g id="line2d_10"/>
     <g id="text_5">
      <!-- 80 -->
      <g style="fill:#262626;" transform="translate(459.243492 358.760938)scale(0.1 -0.1)">
       <defs>
        <path d="M 1131 2484 
Q 781 2613 612 2850 
Q 444 3088 444 3419 
Q 444 3919 803 4259 
Q 1163 4600 1759 4600 
Q 2359 4600 2725 4251 
Q 3091 3903 3091 3403 
Q 3091 3084 2923 2848 
Q 2756 2613 2416 2484 
Q 2838 2347 3058 2040 
Q 3278 1734 3278 1309 
Q 3278 722 2862 322 
Q 2447 -78 1769 -78 
Q 1091 -78 675 323 
Q 259 725 259 1325 
Q 259 1772 486 2073 
Q 713 2375 1131 2484 
z
M 1019 3438 
Q 1019 3113 1228 2906 
Q 1438 2700 1772 2700 
Q 2097 2700 2305 2904 
Q 2513 3109 2513 3406 
Q 2513 3716 2298 3927 
Q 2084 4138 1766 4138 
Q 1444 4138 1231 3931 
Q 1019 3725 1019 3438 
z
M 838 1322 
Q 838 1081 952 856 
Q 1066 631 1291 507 
Q 1516 384 1775 384 
Q 2178 384 2440 643 
Q 2703 903 2703 1303 
Q 2703 1709 2433 1975 
Q 2163 2241 1756 2241 
Q 1359 2241 1098 1978 
Q 838 1716 838 1322 
z
" id="ArialMT-38" transform="scale(0.015625)"/>
       </defs>
       <use xlink:href="#ArialMT-38"/>
       <use x="55.615234" xlink:href="#ArialMT-30"/>
      </g>
     </g>
    </g>
    <g id="xtick_6">
     <g id="line2d_11">
      <path clip-path="url(#p5092d6108b)" d="M 567.283768 348.103125 
L 567.283768 21.943125 
" style="fill:none;stroke:#cccccc;stroke-linecap:round;stroke-width:0.8;"/>
     </g>
     <g id="line2d_12"/>
     <g id="text_6">
      <!-- 100 -->
      <g style="fill:#262626;" transform="translate(558.942362 358.760938)scale(0.1 -0.1)">
       <defs>
        <path d="M 2384 0 
L 1822 0 
L 1822 3584 
Q 1619 3391 1289 3197 
Q 959 3003 697 2906 
L 697 3450 
Q 1169 3672 1522 3987 
Q 1875 4303 2022 4600 
L 2384 4600 
L 2384 0 
z
" id="ArialMT-31" transform="scale(0.015625)"/>
       </defs>
       <use xlink:href="#ArialMT-31"/>
       <use x="55.615234" xlink:href="#ArialMT-30"/>
       <use x="111.230469" xlink:href="#ArialMT-30"/>
      </g>
     </g>
    </g>
    <g id="text_7">
     <!-- Epoch -->
     <g style="fill:#262626;" transform="translate(294.346875 371.90625)scale(0.1 -0.1)">
      <defs>
       <path d="M 506 0 
L 506 4581 
L 3819 4581 
L 3819 4041 
L 1113 4041 
L 1113 2638 
L 3647 2638 
L 3647 2100 
L 1113 2100 
L 1113 541 
L 3925 541 
L 3925 0 
L 506 0 
z
" id="ArialMT-45" transform="scale(0.015625)"/>
       <path d="M 422 -1272 
L 422 3319 
L 934 3319 
L 934 2888 
Q 1116 3141 1344 3267 
Q 1572 3394 1897 3394 
Q 2322 3394 2647 3175 
Q 2972 2956 3137 2557 
Q 3303 2159 3303 1684 
Q 3303 1175 3120 767 
Q 2938 359 2589 142 
Q 2241 -75 1856 -75 
Q 1575 -75 1351 44 
Q 1128 163 984 344 
L 984 -1272 
L 422 -1272 
z
M 931 1641 
Q 931 1000 1190 694 
Q 1450 388 1819 388 
Q 2194 388 2461 705 
Q 2728 1022 2728 1688 
Q 2728 2322 2467 2637 
Q 2206 2953 1844 2953 
Q 1484 2953 1207 2617 
Q 931 2281 931 1641 
z
" id="ArialMT-70" transform="scale(0.015625)"/>
       <path d="M 213 1659 
Q 213 2581 725 3025 
Q 1153 3394 1769 3394 
Q 2453 3394 2887 2945 
Q 3322 2497 3322 1706 
Q 3322 1066 3130 698 
Q 2938 331 2570 128 
Q 2203 -75 1769 -75 
Q 1072 -75 642 372 
Q 213 819 213 1659 
z
M 791 1659 
Q 791 1022 1069 705 
Q 1347 388 1769 388 
Q 2188 388 2466 706 
Q 2744 1025 2744 1678 
Q 2744 2294 2464 2611 
Q 2184 2928 1769 2928 
Q 1347 2928 1069 2612 
Q 791 2297 791 1659 
z
" id="ArialMT-6f" transform="scale(0.015625)"/>
       <path d="M 2588 1216 
L 3141 1144 
Q 3050 572 2676 248 
Q 2303 -75 1759 -75 
Q 1078 -75 664 370 
Q 250 816 250 1647 
Q 250 2184 428 2587 
Q 606 2991 970 3192 
Q 1334 3394 1763 3394 
Q 2303 3394 2647 3120 
Q 2991 2847 3088 2344 
L 2541 2259 
Q 2463 2594 2264 2762 
Q 2066 2931 1784 2931 
Q 1359 2931 1093 2626 
Q 828 2322 828 1663 
Q 828 994 1084 691 
Q 1341 388 1753 388 
Q 2084 388 2306 591 
Q 2528 794 2588 1216 
z
" id="ArialMT-63" transform="scale(0.015625)"/>
       <path d="M 422 0 
L 422 4581 
L 984 4581 
L 984 2938 
Q 1378 3394 1978 3394 
Q 2347 3394 2619 3248 
Q 2891 3103 3008 2847 
Q 3125 2591 3125 2103 
L 3125 0 
L 2563 0 
L 2563 2103 
Q 2563 2525 2380 2717 
Q 2197 2909 1863 2909 
Q 1613 2909 1392 2779 
Q 1172 2650 1078 2428 
Q 984 2206 984 1816 
L 984 0 
L 422 0 
z
" id="ArialMT-68" transform="scale(0.015625)"/>
      </defs>
      <use xlink:href="#ArialMT-45"/>
      <use x="66.699219" xlink:href="#ArialMT-70"/>
      <use x="122.314453" xlink:href="#ArialMT-6f"/>
      <use x="177.929688" xlink:href="#ArialMT-63"/>
      <use x="227.929688" xlink:href="#ArialMT-68"/>
     </g>
    </g>
   </g>
   <g id="matplotlib.axis_2">
    <g id="ytick_1">
     <g id="line2d_13">
      <path clip-path="url(#p5092d6108b)" d="M 29.523438 347.132044 
L 587.523438 347.132044 
" style="fill:none;stroke:#cccccc;stroke-linecap:round;stroke-width:0.8;"/>
     </g>
     <g id="line2d_14"/>
     <g id="text_8">
      <!-- 2 -->
      <g style="fill:#262626;" transform="translate(20.4625 350.71095)scale(0.1 -0.1)">
       <use xlink:href="#ArialMT-32"/>
      </g>
     </g>
    </g>
    <g id="ytick_2">
     <g id="line2d_15">
      <path clip-path="url(#p5092d6108b)" d="M 29.523438 288.698036 
L 587.523438 288.698036 
" style="fill:none;stroke:#cccccc;stroke-linecap:round;stroke-width:0.8;"/>
     </g>
     <g id="line2d_16"/>
     <g id="text_9">
      <!-- 3 -->
      <g style="fill:#262626;" transform="translate(20.4625 292.276942)scale(0.1 -0.1)">
       <defs>
        <path d="M 269 1209 
L 831 1284 
Q 928 806 1161 595 
Q 1394 384 1728 384 
Q 2125 384 2398 659 
Q 2672 934 2672 1341 
Q 2672 1728 2419 1979 
Q 2166 2231 1775 2231 
Q 1616 2231 1378 2169 
L 1441 2663 
Q 1497 2656 1531 2656 
Q 1891 2656 2178 2843 
Q 2466 3031 2466 3422 
Q 2466 3731 2256 3934 
Q 2047 4138 1716 4138 
Q 1388 4138 1169 3931 
Q 950 3725 888 3313 
L 325 3413 
Q 428 3978 793 4289 
Q 1159 4600 1703 4600 
Q 2078 4600 2393 4439 
Q 2709 4278 2876 4000 
Q 3044 3722 3044 3409 
Q 3044 3113 2884 2869 
Q 2725 2625 2413 2481 
Q 2819 2388 3044 2092 
Q 3269 1797 3269 1353 
Q 3269 753 2831 336 
Q 2394 -81 1725 -81 
Q 1122 -81 723 278 
Q 325 638 269 1209 
z
" id="ArialMT-33" transform="scale(0.015625)"/>
       </defs>
       <use xlink:href="#ArialMT-33"/>
      </g>
     </g>
    </g>
    <g id="ytick_3">
     <g id="line2d_17">
      <path clip-path="url(#p5092d6108b)" d="M 29.523438 230.264027 
L 587.523438 230.264027 
" style="fill:none;stroke:#cccccc;stroke-linecap:round;stroke-width:0.8;"/>
     </g>
     <g id="line2d_18"/>
     <g id="text_10">
      <!-- 4 -->
      <g style="fill:#262626;" transform="translate(20.4625 233.842933)scale(0.1 -0.1)">
       <use xlink:href="#ArialMT-34"/>
      </g>
     </g>
    </g>
    <g id="ytick_4">
     <g id="line2d_19">
      <path clip-path="url(#p5092d6108b)" d="M 29.523438 171.830019 
L 587.523438 171.830019 
" style="fill:none;stroke:#cccccc;stroke-linecap:round;stroke-width:0.8;"/>
     </g>
     <g id="line2d_20"/>
     <g id="text_11">
      <!-- 5 -->
      <g style="fill:#262626;" transform="translate(20.4625 175.408925)scale(0.1 -0.1)">
       <defs>
        <path d="M 266 1200 
L 856 1250 
Q 922 819 1161 601 
Q 1400 384 1738 384 
Q 2144 384 2425 690 
Q 2706 997 2706 1503 
Q 2706 1984 2436 2262 
Q 2166 2541 1728 2541 
Q 1456 2541 1237 2417 
Q 1019 2294 894 2097 
L 366 2166 
L 809 4519 
L 3088 4519 
L 3088 3981 
L 1259 3981 
L 1013 2750 
Q 1425 3038 1878 3038 
Q 2478 3038 2890 2622 
Q 3303 2206 3303 1553 
Q 3303 931 2941 478 
Q 2500 -78 1738 -78 
Q 1113 -78 717 272 
Q 322 622 266 1200 
z
" id="ArialMT-35" transform="scale(0.015625)"/>
       </defs>
       <use xlink:href="#ArialMT-35"/>
      </g>
     </g>
    </g>
    <g id="ytick_5">
     <g id="line2d_21">
      <path clip-path="url(#p5092d6108b)" d="M 29.523438 113.39601 
L 587.523438 113.39601 
" style="fill:none;stroke:#cccccc;stroke-linecap:round;stroke-width:0.8;"/>
     </g>
     <g id="line2d_22"/>
     <g id="text_12">
      <!-- 6 -->
      <g style="fill:#262626;" transform="translate(20.4625 116.974916)scale(0.1 -0.1)">
       <use xlink:href="#ArialMT-36"/>
      </g>
     </g>
    </g>
    <g id="ytick_6">
     <g id="line2d_23">
      <path clip-path="url(#p5092d6108b)" d="M 29.523438 54.962002 
L 587.523438 54.962002 
" style="fill:none;stroke:#cccccc;stroke-linecap:round;stroke-width:0.8;"/>
     </g>
     <g id="line2d_24"/>
     <g id="text_13">
      <!-- 7 -->
      <g style="fill:#262626;" transform="translate(20.4625 58.540908)scale(0.1 -0.1)">
       <defs>
        <path d="M 303 3981 
L 303 4522 
L 3269 4522 
L 3269 4084 
Q 2831 3619 2401 2847 
Q 1972 2075 1738 1259 
Q 1569 684 1522 0 
L 944 0 
Q 953 541 1156 1306 
Q 1359 2072 1739 2783 
Q 2119 3494 2547 3981 
L 303 3981 
z
" id="ArialMT-37" transform="scale(0.015625)"/>
       </defs>
       <use xlink:href="#ArialMT-37"/>
      </g>
     </g>
    </g>
    <g id="text_14">
     <!-- NegLogLike -->
     <g style="fill:#262626;" transform="translate(14.357812 211.708281)rotate(-90)scale(0.1 -0.1)">
      <defs>
       <path d="M 488 0 
L 488 4581 
L 1109 4581 
L 3516 984 
L 3516 4581 
L 4097 4581 
L 4097 0 
L 3475 0 
L 1069 3600 
L 1069 0 
L 488 0 
z
" id="ArialMT-4e" transform="scale(0.015625)"/>
       <path d="M 2694 1069 
L 3275 997 
Q 3138 488 2766 206 
Q 2394 -75 1816 -75 
Q 1088 -75 661 373 
Q 234 822 234 1631 
Q 234 2469 665 2931 
Q 1097 3394 1784 3394 
Q 2450 3394 2872 2941 
Q 3294 2488 3294 1666 
Q 3294 1616 3291 1516 
L 816 1516 
Q 847 969 1125 678 
Q 1403 388 1819 388 
Q 2128 388 2347 550 
Q 2566 713 2694 1069 
z
M 847 1978 
L 2700 1978 
Q 2663 2397 2488 2606 
Q 2219 2931 1791 2931 
Q 1403 2931 1139 2672 
Q 875 2413 847 1978 
z
" id="ArialMT-65" transform="scale(0.015625)"/>
       <path d="M 319 -275 
L 866 -356 
Q 900 -609 1056 -725 
Q 1266 -881 1628 -881 
Q 2019 -881 2231 -725 
Q 2444 -569 2519 -288 
Q 2563 -116 2559 434 
Q 2191 0 1641 0 
Q 956 0 581 494 
Q 206 988 206 1678 
Q 206 2153 378 2554 
Q 550 2956 876 3175 
Q 1203 3394 1644 3394 
Q 2231 3394 2613 2919 
L 2613 3319 
L 3131 3319 
L 3131 450 
Q 3131 -325 2973 -648 
Q 2816 -972 2473 -1159 
Q 2131 -1347 1631 -1347 
Q 1038 -1347 672 -1080 
Q 306 -813 319 -275 
z
M 784 1719 
Q 784 1066 1043 766 
Q 1303 466 1694 466 
Q 2081 466 2343 764 
Q 2606 1063 2606 1700 
Q 2606 2309 2336 2618 
Q 2066 2928 1684 2928 
Q 1309 2928 1046 2623 
Q 784 2319 784 1719 
z
" id="ArialMT-67" transform="scale(0.015625)"/>
       <path d="M 469 0 
L 469 4581 
L 1075 4581 
L 1075 541 
L 3331 541 
L 3331 0 
L 469 0 
z
" id="ArialMT-4c" transform="scale(0.015625)"/>
       <path d="M 425 3934 
L 425 4581 
L 988 4581 
L 988 3934 
L 425 3934 
z
M 425 0 
L 425 3319 
L 988 3319 
L 988 0 
L 425 0 
z
" id="ArialMT-69" transform="scale(0.015625)"/>
       <path d="M 425 0 
L 425 4581 
L 988 4581 
L 988 1969 
L 2319 3319 
L 3047 3319 
L 1778 2088 
L 3175 0 
L 2481 0 
L 1384 1697 
L 988 1316 
L 988 0 
L 425 0 
z
" id="ArialMT-6b" transform="scale(0.015625)"/>
      </defs>
      <use xlink:href="#ArialMT-4e"/>
      <use x="72.216797" xlink:href="#ArialMT-65"/>
      <use x="127.832031" xlink:href="#ArialMT-67"/>
      <use x="183.447266" xlink:href="#ArialMT-4c"/>
      <use x="239.0625" xlink:href="#ArialMT-6f"/>
      <use x="294.677734" xlink:href="#ArialMT-67"/>
      <use x="350.292969" xlink:href="#ArialMT-4c"/>
      <use x="405.908203" xlink:href="#ArialMT-69"/>
      <use x="428.125" xlink:href="#ArialMT-6b"/>
      <use x="478.125" xlink:href="#ArialMT-65"/>
     </g>
    </g>
   </g>
   <g id="line2d_25">
    <path clip-path="url(#p5092d6108b)" d="M 54.887074 39.202785 
L 60.011041 260.466377 
L 65.135008 312.587064 
L 70.258975 326.377576 
L 75.382942 330.191216 
L 80.506909 331.087945 
L 85.630876 331.300855 
L 90.754842 331.435979 
L 95.878809 331.555792 
L 101.002776 331.678234 
L 106.126743 331.798102 
L 111.25071 331.92121 
L 116.374677 332.044284 
L 121.498644 332.157284 
L 126.622611 332.262789 
L 131.746578 332.376209 
L 136.870545 332.475223 
L 141.994512 332.577361 
L 147.118479 332.659315 
L 152.242446 332.740726 
L 157.366413 332.816808 
L 162.49038 332.877031 
L 167.614347 332.944902 
L 172.738314 332.996537 
L 177.86228 333.046025 
L 182.986247 333.079611 
L 188.110214 333.115278 
L 193.234181 333.136096 
L 198.358148 333.165797 
L 203.482115 333.183164 
L 208.606082 333.208321 
L 213.730049 333.194178 
L 218.854016 333.234501 
L 223.977983 333.244029 
L 229.10195 333.246201 
L 234.225917 333.25548 
L 239.349884 333.259471 
L 244.473851 333.263669 
L 249.597818 333.261786 
L 254.721785 333.265418 
L 259.845752 333.261023 
L 264.969718 333.260502 
L 270.093685 333.256355 
L 275.217652 333.262719 
L 280.341619 333.275948 
L 285.465586 333.260998 
L 290.589553 333.263646 
L 295.71352 333.273496 
L 300.837487 333.248261 
L 305.961454 333.268036 
L 311.085421 333.271139 
L 316.209388 333.272273 
L 321.333355 333.277482 
L 326.457322 333.24107 
L 331.581289 333.230153 
L 336.705256 333.263321 
L 341.829223 333.274659 
L 346.95319 333.266563 
L 352.077157 333.261945 
L 357.201123 333.256696 
L 362.32509 333.259081 
L 367.449057 333.242788 
L 372.573024 333.27297 
L 377.696991 333.253568 
L 382.820958 333.271028 
L 387.944925 333.277571 
L 393.068892 333.271724 
L 398.192859 333.274305 
L 403.316826 333.250878 
L 408.440793 333.262691 
L 413.56476 333.27598 
L 418.688727 333.275601 
L 423.812694 333.270435 
L 428.936661 333.246337 
L 434.060628 333.266976 
L 439.184595 333.277331 
L 444.308561 333.274996 
L 449.432528 333.250353 
L 454.556495 333.234304 
L 459.680462 333.269281 
L 464.804429 333.276935 
L 469.928396 333.26033 
L 475.052363 333.264415 
L 480.17633 333.259445 
L 485.300297 333.266595 
L 490.424264 333.261964 
L 495.548231 333.26722 
L 500.672198 333.259762 
L 505.796165 333.277502 
L 510.920132 333.271432 
L 516.044099 333.27767 
L 521.168066 333.264146 
L 526.292033 333.263757 
L 531.415999 333.267769 
L 536.539966 333.263049 
L 541.663933 333.258675 
L 546.7879 333.273405 
L 551.911867 333.246903 
L 557.035834 333.263437 
L 562.159801 333.275188 
" style="fill:none;stroke:#1f77b4;stroke-linecap:round;stroke-width:1.5;"/>
   </g>
   <g id="line2d_26">
    <path clip-path="url(#p5092d6108b)" d="M 54.887074 36.76858 
L 60.011041 258.925756 
L 65.135008 311.348847 
L 70.258975 325.264431 
L 75.382942 329.145612 
L 80.506909 330.061974 
L 85.630876 330.273718 
L 90.754842 330.410307 
L 95.878809 330.523441 
L 101.002776 330.633195 
L 106.126743 330.738685 
L 111.25071 330.826825 
L 116.374677 330.936856 
L 121.498644 331.037219 
L 126.622611 331.141975 
L 131.746578 331.209827 
L 136.870545 331.275812 
L 141.994512 331.389772 
L 147.118479 331.442473 
L 152.242446 331.516201 
L 157.366413 331.558693 
L 162.49038 331.626599 
L 167.614347 331.654784 
L 172.738314 331.691772 
L 177.86228 331.723271 
L 182.986247 331.735509 
L 188.110214 331.780838 
L 193.234181 331.800318 
L 198.358148 331.769619 
L 203.482115 331.769852 
L 208.606082 331.804347 
L 213.730049 331.827424 
L 218.854016 331.806107 
L 223.977983 331.809635 
L 229.10195 331.788523 
L 234.225917 331.819711 
L 239.349884 331.812452 
L 244.473851 331.796533 
L 249.597818 331.800533 
L 254.721785 331.810487 
L 259.845752 331.772737 
L 264.969718 331.800864 
L 270.093685 331.755644 
L 275.217652 331.77547 
L 280.341619 331.794941 
L 285.465586 331.749848 
L 290.589553 331.779192 
L 295.71352 331.776636 
L 300.837487 331.803392 
L 305.961454 331.753365 
L 311.085421 331.799095 
L 316.209388 331.760717 
L 321.333355 331.785352 
L 326.457322 331.788986 
L 331.581289 331.693421 
L 336.705256 331.775792 
L 341.829223 331.788228 
L 346.95319 331.798148 
L 352.077157 331.801147 
L 357.201123 331.729024 
L 362.32509 331.787774 
L 367.449057 331.74691 
L 372.573024 331.776502 
L 377.696991 331.726106 
L 382.820958 331.795511 
L 387.944925 331.78845 
L 393.068892 331.763695 
L 398.192859 331.764986 
L 403.316826 331.79497 
L 408.440793 331.742511 
L 413.56476 331.764305 
L 418.688727 331.78762 
L 423.812694 331.780483 
L 428.936661 331.755942 
L 434.060628 331.792748 
L 439.184595 331.787484 
L 444.308561 331.782233 
L 449.432528 331.712809 
L 454.556495 331.7869 
L 459.680462 331.765416 
L 464.804429 331.789912 
L 469.928396 331.744601 
L 475.052363 331.795957 
L 480.17633 331.781603 
L 485.300297 331.742181 
L 490.424264 331.789214 
L 495.548231 331.746914 
L 500.672198 331.773357 
L 505.796165 331.789364 
L 510.920132 331.765941 
L 516.044099 331.786983 
L 521.168066 331.748474 
L 526.292033 331.797061 
L 531.415999 331.761286 
L 536.539966 331.792056 
L 541.663933 331.775131 
L 546.7879 331.771895 
L 551.911867 331.778551 
L 557.035834 331.744751 
L 562.159801 331.779198 
" style="fill:none;stroke:#ff7f0e;stroke-linecap:round;stroke-width:1.5;"/>
   </g>
   <g id="patch_3">
    <path d="M 29.523438 348.103125 
L 29.523438 21.943125 
" style="fill:none;stroke:#cccccc;stroke-linecap:square;stroke-linejoin:miter;"/>
   </g>
   <g id="patch_4">
    <path d="M 587.523438 348.103125 
L 587.523438 21.943125 
" style="fill:none;stroke:#cccccc;stroke-linecap:square;stroke-linejoin:miter;"/>
   </g>
   <g id="patch_5">
    <path d="M 29.523437 348.103125 
L 587.523438 348.103125 
" style="fill:none;stroke:#cccccc;stroke-linecap:square;stroke-linejoin:miter;"/>
   </g>
   <g id="patch_6">
    <path d="M 29.523437 21.943125 
L 587.523438 21.943125 
" style="fill:none;stroke:#cccccc;stroke-linecap:square;stroke-linejoin:miter;"/>
   </g>
   <g id="text_15">
    <!-- Training Overview -->
    <g style="fill:#262626;" transform="translate(260.4025 15.943125)scale(0.12 -0.12)">
     <defs>
      <path d="M 1659 0 
L 1659 4041 
L 150 4041 
L 150 4581 
L 3781 4581 
L 3781 4041 
L 2266 4041 
L 2266 0 
L 1659 0 
z
" id="ArialMT-54" transform="scale(0.015625)"/>
      <path d="M 416 0 
L 416 3319 
L 922 3319 
L 922 2816 
Q 1116 3169 1280 3281 
Q 1444 3394 1641 3394 
Q 1925 3394 2219 3213 
L 2025 2691 
Q 1819 2813 1613 2813 
Q 1428 2813 1281 2702 
Q 1134 2591 1072 2394 
Q 978 2094 978 1738 
L 978 0 
L 416 0 
z
" id="ArialMT-72" transform="scale(0.015625)"/>
      <path d="M 2588 409 
Q 2275 144 1986 34 
Q 1697 -75 1366 -75 
Q 819 -75 525 192 
Q 231 459 231 875 
Q 231 1119 342 1320 
Q 453 1522 633 1644 
Q 813 1766 1038 1828 
Q 1203 1872 1538 1913 
Q 2219 1994 2541 2106 
Q 2544 2222 2544 2253 
Q 2544 2597 2384 2738 
Q 2169 2928 1744 2928 
Q 1347 2928 1158 2789 
Q 969 2650 878 2297 
L 328 2372 
Q 403 2725 575 2942 
Q 747 3159 1072 3276 
Q 1397 3394 1825 3394 
Q 2250 3394 2515 3294 
Q 2781 3194 2906 3042 
Q 3031 2891 3081 2659 
Q 3109 2516 3109 2141 
L 3109 1391 
Q 3109 606 3145 398 
Q 3181 191 3288 0 
L 2700 0 
Q 2613 175 2588 409 
z
M 2541 1666 
Q 2234 1541 1622 1453 
Q 1275 1403 1131 1340 
Q 988 1278 909 1158 
Q 831 1038 831 891 
Q 831 666 1001 516 
Q 1172 366 1500 366 
Q 1825 366 2078 508 
Q 2331 650 2450 897 
Q 2541 1088 2541 1459 
L 2541 1666 
z
" id="ArialMT-61" transform="scale(0.015625)"/>
      <path d="M 422 0 
L 422 3319 
L 928 3319 
L 928 2847 
Q 1294 3394 1984 3394 
Q 2284 3394 2536 3286 
Q 2788 3178 2913 3003 
Q 3038 2828 3088 2588 
Q 3119 2431 3119 2041 
L 3119 0 
L 2556 0 
L 2556 2019 
Q 2556 2363 2490 2533 
Q 2425 2703 2258 2804 
Q 2091 2906 1866 2906 
Q 1506 2906 1245 2678 
Q 984 2450 984 1813 
L 984 0 
L 422 0 
z
" id="ArialMT-6e" transform="scale(0.015625)"/>
      <path id="ArialMT-20" transform="scale(0.015625)"/>
      <path d="M 309 2231 
Q 309 3372 921 4017 
Q 1534 4663 2503 4663 
Q 3138 4663 3647 4359 
Q 4156 4056 4423 3514 
Q 4691 2972 4691 2284 
Q 4691 1588 4409 1038 
Q 4128 488 3612 205 
Q 3097 -78 2500 -78 
Q 1853 -78 1343 234 
Q 834 547 571 1087 
Q 309 1628 309 2231 
z
M 934 2222 
Q 934 1394 1379 917 
Q 1825 441 2497 441 
Q 3181 441 3623 922 
Q 4066 1403 4066 2288 
Q 4066 2847 3877 3264 
Q 3688 3681 3323 3911 
Q 2959 4141 2506 4141 
Q 1863 4141 1398 3698 
Q 934 3256 934 2222 
z
" id="ArialMT-4f" transform="scale(0.015625)"/>
      <path d="M 1344 0 
L 81 3319 
L 675 3319 
L 1388 1331 
Q 1503 1009 1600 663 
Q 1675 925 1809 1294 
L 2547 3319 
L 3125 3319 
L 1869 0 
L 1344 0 
z
" id="ArialMT-76" transform="scale(0.015625)"/>
      <path d="M 1034 0 
L 19 3319 
L 600 3319 
L 1128 1403 
L 1325 691 
Q 1338 744 1497 1375 
L 2025 3319 
L 2603 3319 
L 3100 1394 
L 3266 759 
L 3456 1400 
L 4025 3319 
L 4572 3319 
L 3534 0 
L 2950 0 
L 2422 1988 
L 2294 2553 
L 1622 0 
L 1034 0 
z
" id="ArialMT-77" transform="scale(0.015625)"/>
     </defs>
     <use xlink:href="#ArialMT-54"/>
     <use x="57.333984" xlink:href="#ArialMT-72"/>
     <use x="90.634766" xlink:href="#ArialMT-61"/>
     <use x="146.25" xlink:href="#ArialMT-69"/>
     <use x="168.466797" xlink:href="#ArialMT-6e"/>
     <use x="224.082031" xlink:href="#ArialMT-69"/>
     <use x="246.298828" xlink:href="#ArialMT-6e"/>
     <use x="301.914062" xlink:href="#ArialMT-67"/>
     <use x="357.529297" xlink:href="#ArialMT-20"/>
     <use x="385.3125" xlink:href="#ArialMT-4f"/>
     <use x="463.095703" xlink:href="#ArialMT-76"/>
     <use x="513.095703" xlink:href="#ArialMT-65"/>
     <use x="568.710938" xlink:href="#ArialMT-72"/>
     <use x="602.011719" xlink:href="#ArialMT-76"/>
     <use x="652.011719" xlink:href="#ArialMT-69"/>
     <use x="674.228516" xlink:href="#ArialMT-65"/>
     <use x="729.84375" xlink:href="#ArialMT-77"/>
    </g>
   </g>
   <g id="legend_1">
    <g id="line2d_27">
     <path d="M 507.55625 34.600937 
L 527.55625 34.600937 
" style="fill:none;stroke:#1f77b4;stroke-linecap:round;stroke-width:1.5;"/>
    </g>
    <g id="line2d_28"/>
    <g id="text_16">
     <!-- Train loss -->
     <g style="fill:#262626;" transform="translate(535.55625 38.100937)scale(0.1 -0.1)">
      <defs>
       <path d="M 409 0 
L 409 4581 
L 972 4581 
L 972 0 
L 409 0 
z
" id="ArialMT-6c" transform="scale(0.015625)"/>
       <path d="M 197 991 
L 753 1078 
Q 800 744 1014 566 
Q 1228 388 1613 388 
Q 2000 388 2187 545 
Q 2375 703 2375 916 
Q 2375 1106 2209 1216 
Q 2094 1291 1634 1406 
Q 1016 1563 777 1677 
Q 538 1791 414 1992 
Q 291 2194 291 2438 
Q 291 2659 392 2848 
Q 494 3038 669 3163 
Q 800 3259 1026 3326 
Q 1253 3394 1513 3394 
Q 1903 3394 2198 3281 
Q 2494 3169 2634 2976 
Q 2775 2784 2828 2463 
L 2278 2388 
Q 2241 2644 2061 2787 
Q 1881 2931 1553 2931 
Q 1166 2931 1000 2803 
Q 834 2675 834 2503 
Q 834 2394 903 2306 
Q 972 2216 1119 2156 
Q 1203 2125 1616 2013 
Q 2213 1853 2448 1751 
Q 2684 1650 2818 1456 
Q 2953 1263 2953 975 
Q 2953 694 2789 445 
Q 2625 197 2315 61 
Q 2006 -75 1616 -75 
Q 969 -75 630 194 
Q 291 463 197 991 
z
" id="ArialMT-73" transform="scale(0.015625)"/>
      </defs>
      <use xlink:href="#ArialMT-54"/>
      <use x="57.333984" xlink:href="#ArialMT-72"/>
      <use x="90.634766" xlink:href="#ArialMT-61"/>
      <use x="146.25" xlink:href="#ArialMT-69"/>
      <use x="168.466797" xlink:href="#ArialMT-6e"/>
      <use x="224.082031" xlink:href="#ArialMT-20"/>
      <use x="251.865234" xlink:href="#ArialMT-6c"/>
      <use x="274.082031" xlink:href="#ArialMT-6f"/>
      <use x="329.697266" xlink:href="#ArialMT-73"/>
      <use x="379.697266" xlink:href="#ArialMT-73"/>
     </g>
    </g>
    <g id="line2d_29">
     <path d="M 507.55625 48.74625 
L 527.55625 48.74625 
" style="fill:none;stroke:#ff7f0e;stroke-linecap:round;stroke-width:1.5;"/>
    </g>
    <g id="line2d_30"/>
    <g id="text_17">
     <!-- Test loss -->
     <g style="fill:#262626;" transform="translate(535.55625 52.24625)scale(0.1 -0.1)">
      <defs>
       <path d="M 1650 503 
L 1731 6 
Q 1494 -44 1306 -44 
Q 1000 -44 831 53 
Q 663 150 594 308 
Q 525 466 525 972 
L 525 2881 
L 113 2881 
L 113 3319 
L 525 3319 
L 525 4141 
L 1084 4478 
L 1084 3319 
L 1650 3319 
L 1650 2881 
L 1084 2881 
L 1084 941 
Q 1084 700 1114 631 
Q 1144 563 1211 522 
Q 1278 481 1403 481 
Q 1497 481 1650 503 
z
" id="ArialMT-74" transform="scale(0.015625)"/>
      </defs>
      <use xlink:href="#ArialMT-54"/>
      <use x="49.958984" xlink:href="#ArialMT-65"/>
      <use x="105.574219" xlink:href="#ArialMT-73"/>
      <use x="155.574219" xlink:href="#ArialMT-74"/>
      <use x="183.357422" xlink:href="#ArialMT-20"/>
      <use x="211.140625" xlink:href="#ArialMT-6c"/>
      <use x="233.357422" xlink:href="#ArialMT-6f"/>
      <use x="288.972656" xlink:href="#ArialMT-73"/>
      <use x="338.972656" xlink:href="#ArialMT-73"/>
     </g>
    </g>
   </g>
  </g>
 </g>
 <defs>
  <clipPath id="p5092d6108b">
   <rect height="326.16" width="558" x="29.523438" y="21.943125"/>
  </clipPath>
 </defs>
</svg>
