<?xml version="1.0" encoding="utf-8" standalone="no"?>
<!DOCTYPE svg PUBLIC "-//W3C//DTD SVG 1.1//EN"
  "http://www.w3.org/Graphics/SVG/1.1/DTD/svg11.dtd">
<svg height="377.543196pt" version="1.1" viewBox="0 0 627.600156 377.543196" width="627.600156pt" xmlns="http://www.w3.org/2000/svg" xmlns:xlink="http://www.w3.org/1999/xlink">
 <metadata>
  <rdf:RDF xmlns:cc="http://creativecommons.org/ns#" xmlns:dc="http://purl.org/dc/elements/1.1/" xmlns:rdf="http://www.w3.org/1999/02/22-rdf-syntax-ns#">
   <cc:Work>
    <dc:type rdf:resource="http://purl.org/dc/dcmitype/StillImage"/>
    <dc:date>2021-04-10T09:55:05.871001</dc:date>
    <dc:format>image/svg+xml</dc:format>
    <dc:creator>
     <cc:Agent>
      <dc:title>Matplotlib v3.4.1, https://matplotlib.org/</dc:title>
     </cc:Agent>
    </dc:creator>
   </cc:Work>
  </rdf:RDF>
 </metadata>
 <defs>
  <style type="text/css">*{stroke-linecap:butt;stroke-linejoin:round;}</style>
 </defs>
 <g id="figure_1">
  <g id="patch_1">
   <path d="M 0 377.543196 
L 627.600156 377.543196 
L 627.600156 0 
L 0 0 
z
" style="fill:#ffffff;"/>
  </g>
  <g id="axes_1">
   <g id="patch_2">
    <path d="M 62.400156 335.808977 
L 620.400156 335.808977 
L 620.400156 9.648977 
L 62.400156 9.648977 
z
" style="fill:#eaeaf2;"/>
   </g>
   <g id="matplotlib.axis_1">
    <g id="xtick_1">
     <g id="line2d_1">
      <path clip-path="url(#p8a6063b3ae)" d="M 63.607948 335.808977 
L 63.607948 9.648977 
" style="fill:none;stroke:#ffffff;stroke-linecap:round;"/>
     </g>
     <g id="text_1">
      <!-- 0 -->
      <g style="fill:#262626;" transform="translate(60.549433 353.182571)scale(0.11 -0.11)">
       <defs>
        <path d="M 266 2259 
Q 266 3072 433 3567 
Q 600 4063 929 4331 
Q 1259 4600 1759 4600 
Q 2128 4600 2406 4451 
Q 2684 4303 2865 4023 
Q 3047 3744 3150 3342 
Q 3253 2941 3253 2259 
Q 3253 1453 3087 958 
Q 2922 463 2592 192 
Q 2263 -78 1759 -78 
Q 1097 -78 719 397 
Q 266 969 266 2259 
z
M 844 2259 
Q 844 1131 1108 757 
Q 1372 384 1759 384 
Q 2147 384 2411 759 
Q 2675 1134 2675 2259 
Q 2675 3391 2411 3762 
Q 2147 4134 1753 4134 
Q 1366 4134 1134 3806 
Q 844 3388 844 2259 
z
" id="ArialMT-30" transform="scale(0.015625)"/>
       </defs>
       <use xlink:href="#ArialMT-30"/>
      </g>
     </g>
    </g>
    <g id="xtick_2">
     <g id="line2d_2">
      <path clip-path="url(#p8a6063b3ae)" d="M 184.387169 335.808977 
L 184.387169 9.648977 
" style="fill:none;stroke:#ffffff;stroke-linecap:round;"/>
     </g>
     <g id="text_2">
      <!-- 5 -->
      <g style="fill:#262626;" transform="translate(181.328654 353.182571)scale(0.11 -0.11)">
       <defs>
        <path d="M 266 1200 
L 856 1250 
Q 922 819 1161 601 
Q 1400 384 1738 384 
Q 2144 384 2425 690 
Q 2706 997 2706 1503 
Q 2706 1984 2436 2262 
Q 2166 2541 1728 2541 
Q 1456 2541 1237 2417 
Q 1019 2294 894 2097 
L 366 2166 
L 809 4519 
L 3088 4519 
L 3088 3981 
L 1259 3981 
L 1013 2750 
Q 1425 3038 1878 3038 
Q 2478 3038 2890 2622 
Q 3303 2206 3303 1553 
Q 3303 931 2941 478 
Q 2500 -78 1738 -78 
Q 1113 -78 717 272 
Q 322 622 266 1200 
z
" id="ArialMT-35" transform="scale(0.015625)"/>
       </defs>
       <use xlink:href="#ArialMT-35"/>
      </g>
     </g>
    </g>
    <g id="xtick_3">
     <g id="line2d_3">
      <path clip-path="url(#p8a6063b3ae)" d="M 305.16639 335.808977 
L 305.16639 9.648977 
" style="fill:none;stroke:#ffffff;stroke-linecap:round;"/>
     </g>
     <g id="text_3">
      <!-- 10 -->
      <g style="fill:#262626;" transform="translate(299.049359 353.182571)scale(0.11 -0.11)">
       <defs>
        <path d="M 2384 0 
L 1822 0 
L 1822 3584 
Q 1619 3391 1289 3197 
Q 959 3003 697 2906 
L 697 3450 
Q 1169 3672 1522 3987 
Q 1875 4303 2022 4600 
L 2384 4600 
L 2384 0 
z
" id="ArialMT-31" transform="scale(0.015625)"/>
       </defs>
       <use xlink:href="#ArialMT-31"/>
       <use x="55.615234" xlink:href="#ArialMT-30"/>
      </g>
     </g>
    </g>
    <g id="xtick_4">
     <g id="line2d_4">
      <path clip-path="url(#p8a6063b3ae)" d="M 425.945611 335.808977 
L 425.945611 9.648977 
" style="fill:none;stroke:#ffffff;stroke-linecap:round;"/>
     </g>
     <g id="text_4">
      <!-- 15 -->
      <g style="fill:#262626;" transform="translate(419.82858 353.182571)scale(0.11 -0.11)">
       <use xlink:href="#ArialMT-31"/>
       <use x="55.615234" xlink:href="#ArialMT-35"/>
      </g>
     </g>
    </g>
    <g id="xtick_5">
     <g id="line2d_5">
      <path clip-path="url(#p8a6063b3ae)" d="M 546.724832 335.808977 
L 546.724832 9.648977 
" style="fill:none;stroke:#ffffff;stroke-linecap:round;"/>
     </g>
     <g id="text_5">
      <!-- 20 -->
      <g style="fill:#262626;" transform="translate(540.6078 353.182571)scale(0.11 -0.11)">
       <defs>
        <path d="M 3222 541 
L 3222 0 
L 194 0 
Q 188 203 259 391 
Q 375 700 629 1000 
Q 884 1300 1366 1694 
Q 2113 2306 2375 2664 
Q 2638 3022 2638 3341 
Q 2638 3675 2398 3904 
Q 2159 4134 1775 4134 
Q 1369 4134 1125 3890 
Q 881 3647 878 3216 
L 300 3275 
Q 359 3922 746 4261 
Q 1134 4600 1788 4600 
Q 2447 4600 2831 4234 
Q 3216 3869 3216 3328 
Q 3216 3053 3103 2787 
Q 2991 2522 2730 2228 
Q 2469 1934 1863 1422 
Q 1356 997 1212 845 
Q 1069 694 975 541 
L 3222 541 
z
" id="ArialMT-32" transform="scale(0.015625)"/>
       </defs>
       <use xlink:href="#ArialMT-32"/>
       <use x="55.615234" xlink:href="#ArialMT-30"/>
      </g>
     </g>
    </g>
    <g id="text_6">
     <!-- SeasonNo -->
     <g style="fill:#262626;" transform="translate(313.382031 367.958196)scale(0.12 -0.12)">
      <defs>
       <path d="M 288 1472 
L 859 1522 
Q 900 1178 1048 958 
Q 1197 738 1509 602 
Q 1822 466 2213 466 
Q 2559 466 2825 569 
Q 3091 672 3220 851 
Q 3350 1031 3350 1244 
Q 3350 1459 3225 1620 
Q 3100 1781 2813 1891 
Q 2628 1963 1997 2114 
Q 1366 2266 1113 2400 
Q 784 2572 623 2826 
Q 463 3081 463 3397 
Q 463 3744 659 4045 
Q 856 4347 1234 4503 
Q 1613 4659 2075 4659 
Q 2584 4659 2973 4495 
Q 3363 4331 3572 4012 
Q 3781 3694 3797 3291 
L 3216 3247 
Q 3169 3681 2898 3903 
Q 2628 4125 2100 4125 
Q 1550 4125 1298 3923 
Q 1047 3722 1047 3438 
Q 1047 3191 1225 3031 
Q 1400 2872 2139 2705 
Q 2878 2538 3153 2413 
Q 3553 2228 3743 1945 
Q 3934 1663 3934 1294 
Q 3934 928 3725 604 
Q 3516 281 3123 101 
Q 2731 -78 2241 -78 
Q 1619 -78 1198 103 
Q 778 284 539 648 
Q 300 1013 288 1472 
z
" id="ArialMT-53" transform="scale(0.015625)"/>
       <path d="M 2694 1069 
L 3275 997 
Q 3138 488 2766 206 
Q 2394 -75 1816 -75 
Q 1088 -75 661 373 
Q 234 822 234 1631 
Q 234 2469 665 2931 
Q 1097 3394 1784 3394 
Q 2450 3394 2872 2941 
Q 3294 2488 3294 1666 
Q 3294 1616 3291 1516 
L 816 1516 
Q 847 969 1125 678 
Q 1403 388 1819 388 
Q 2128 388 2347 550 
Q 2566 713 2694 1069 
z
M 847 1978 
L 2700 1978 
Q 2663 2397 2488 2606 
Q 2219 2931 1791 2931 
Q 1403 2931 1139 2672 
Q 875 2413 847 1978 
z
" id="ArialMT-65" transform="scale(0.015625)"/>
       <path d="M 2588 409 
Q 2275 144 1986 34 
Q 1697 -75 1366 -75 
Q 819 -75 525 192 
Q 231 459 231 875 
Q 231 1119 342 1320 
Q 453 1522 633 1644 
Q 813 1766 1038 1828 
Q 1203 1872 1538 1913 
Q 2219 1994 2541 2106 
Q 2544 2222 2544 2253 
Q 2544 2597 2384 2738 
Q 2169 2928 1744 2928 
Q 1347 2928 1158 2789 
Q 969 2650 878 2297 
L 328 2372 
Q 403 2725 575 2942 
Q 747 3159 1072 3276 
Q 1397 3394 1825 3394 
Q 2250 3394 2515 3294 
Q 2781 3194 2906 3042 
Q 3031 2891 3081 2659 
Q 3109 2516 3109 2141 
L 3109 1391 
Q 3109 606 3145 398 
Q 3181 191 3288 0 
L 2700 0 
Q 2613 175 2588 409 
z
M 2541 1666 
Q 2234 1541 1622 1453 
Q 1275 1403 1131 1340 
Q 988 1278 909 1158 
Q 831 1038 831 891 
Q 831 666 1001 516 
Q 1172 366 1500 366 
Q 1825 366 2078 508 
Q 2331 650 2450 897 
Q 2541 1088 2541 1459 
L 2541 1666 
z
" id="ArialMT-61" transform="scale(0.015625)"/>
       <path d="M 197 991 
L 753 1078 
Q 800 744 1014 566 
Q 1228 388 1613 388 
Q 2000 388 2187 545 
Q 2375 703 2375 916 
Q 2375 1106 2209 1216 
Q 2094 1291 1634 1406 
Q 1016 1563 777 1677 
Q 538 1791 414 1992 
Q 291 2194 291 2438 
Q 291 2659 392 2848 
Q 494 3038 669 3163 
Q 800 3259 1026 3326 
Q 1253 3394 1513 3394 
Q 1903 3394 2198 3281 
Q 2494 3169 2634 2976 
Q 2775 2784 2828 2463 
L 2278 2388 
Q 2241 2644 2061 2787 
Q 1881 2931 1553 2931 
Q 1166 2931 1000 2803 
Q 834 2675 834 2503 
Q 834 2394 903 2306 
Q 972 2216 1119 2156 
Q 1203 2125 1616 2013 
Q 2213 1853 2448 1751 
Q 2684 1650 2818 1456 
Q 2953 1263 2953 975 
Q 2953 694 2789 445 
Q 2625 197 2315 61 
Q 2006 -75 1616 -75 
Q 969 -75 630 194 
Q 291 463 197 991 
z
" id="ArialMT-73" transform="scale(0.015625)"/>
       <path d="M 213 1659 
Q 213 2581 725 3025 
Q 1153 3394 1769 3394 
Q 2453 3394 2887 2945 
Q 3322 2497 3322 1706 
Q 3322 1066 3130 698 
Q 2938 331 2570 128 
Q 2203 -75 1769 -75 
Q 1072 -75 642 372 
Q 213 819 213 1659 
z
M 791 1659 
Q 791 1022 1069 705 
Q 1347 388 1769 388 
Q 2188 388 2466 706 
Q 2744 1025 2744 1678 
Q 2744 2294 2464 2611 
Q 2184 2928 1769 2928 
Q 1347 2928 1069 2612 
Q 791 2297 791 1659 
z
" id="ArialMT-6f" transform="scale(0.015625)"/>
       <path d="M 422 0 
L 422 3319 
L 928 3319 
L 928 2847 
Q 1294 3394 1984 3394 
Q 2284 3394 2536 3286 
Q 2788 3178 2913 3003 
Q 3038 2828 3088 2588 
Q 3119 2431 3119 2041 
L 3119 0 
L 2556 0 
L 2556 2019 
Q 2556 2363 2490 2533 
Q 2425 2703 2258 2804 
Q 2091 2906 1866 2906 
Q 1506 2906 1245 2678 
Q 984 2450 984 1813 
L 984 0 
L 422 0 
z
" id="ArialMT-6e" transform="scale(0.015625)"/>
       <path d="M 488 0 
L 488 4581 
L 1109 4581 
L 3516 984 
L 3516 4581 
L 4097 4581 
L 4097 0 
L 3475 0 
L 1069 3600 
L 1069 0 
L 488 0 
z
" id="ArialMT-4e" transform="scale(0.015625)"/>
      </defs>
      <use xlink:href="#ArialMT-53"/>
      <use x="66.699219" xlink:href="#ArialMT-65"/>
      <use x="122.314453" xlink:href="#ArialMT-61"/>
      <use x="177.929688" xlink:href="#ArialMT-73"/>
      <use x="227.929688" xlink:href="#ArialMT-6f"/>
      <use x="283.544922" xlink:href="#ArialMT-6e"/>
      <use x="339.160156" xlink:href="#ArialMT-4e"/>
      <use x="411.376953" xlink:href="#ArialMT-6f"/>
     </g>
    </g>
   </g>
   <g id="matplotlib.axis_2">
    <g id="ytick_1">
     <g id="line2d_6">
      <path clip-path="url(#p8a6063b3ae)" d="M 62.400156 324.471988 
L 620.400156 324.471988 
" style="fill:none;stroke:#ffffff;stroke-linecap:round;"/>
     </g>
     <g id="text_7">
      <!-- 0 -->
      <g style="fill:#262626;" transform="translate(46.783125 328.408784)scale(0.11 -0.11)">
       <use xlink:href="#ArialMT-30"/>
      </g>
     </g>
    </g>
    <g id="ytick_2">
     <g id="line2d_7">
      <path clip-path="url(#p8a6063b3ae)" d="M 62.400156 272.249456 
L 620.400156 272.249456 
" style="fill:none;stroke:#ffffff;stroke-linecap:round;"/>
     </g>
     <g id="text_8">
      <!-- 10000 -->
      <g style="fill:#262626;" transform="translate(22.315 276.186253)scale(0.11 -0.11)">
       <use xlink:href="#ArialMT-31"/>
       <use x="55.615234" xlink:href="#ArialMT-30"/>
       <use x="111.230469" xlink:href="#ArialMT-30"/>
       <use x="166.845703" xlink:href="#ArialMT-30"/>
       <use x="222.460938" xlink:href="#ArialMT-30"/>
      </g>
     </g>
    </g>
    <g id="ytick_3">
     <g id="line2d_8">
      <path clip-path="url(#p8a6063b3ae)" d="M 62.400156 220.026924 
L 620.400156 220.026924 
" style="fill:none;stroke:#ffffff;stroke-linecap:round;"/>
     </g>
     <g id="text_9">
      <!-- 20000 -->
      <g style="fill:#262626;" transform="translate(22.315 223.963721)scale(0.11 -0.11)">
       <use xlink:href="#ArialMT-32"/>
       <use x="55.615234" xlink:href="#ArialMT-30"/>
       <use x="111.230469" xlink:href="#ArialMT-30"/>
       <use x="166.845703" xlink:href="#ArialMT-30"/>
       <use x="222.460938" xlink:href="#ArialMT-30"/>
      </g>
     </g>
    </g>
    <g id="ytick_4">
     <g id="line2d_9">
      <path clip-path="url(#p8a6063b3ae)" d="M 62.400156 167.804392 
L 620.400156 167.804392 
" style="fill:none;stroke:#ffffff;stroke-linecap:round;"/>
     </g>
     <g id="text_10">
      <!-- 30000 -->
      <g style="fill:#262626;" transform="translate(22.315 171.741189)scale(0.11 -0.11)">
       <defs>
        <path d="M 269 1209 
L 831 1284 
Q 928 806 1161 595 
Q 1394 384 1728 384 
Q 2125 384 2398 659 
Q 2672 934 2672 1341 
Q 2672 1728 2419 1979 
Q 2166 2231 1775 2231 
Q 1616 2231 1378 2169 
L 1441 2663 
Q 1497 2656 1531 2656 
Q 1891 2656 2178 2843 
Q 2466 3031 2466 3422 
Q 2466 3731 2256 3934 
Q 2047 4138 1716 4138 
Q 1388 4138 1169 3931 
Q 950 3725 888 3313 
L 325 3413 
Q 428 3978 793 4289 
Q 1159 4600 1703 4600 
Q 2078 4600 2393 4439 
Q 2709 4278 2876 4000 
Q 3044 3722 3044 3409 
Q 3044 3113 2884 2869 
Q 2725 2625 2413 2481 
Q 2819 2388 3044 2092 
Q 3269 1797 3269 1353 
Q 3269 753 2831 336 
Q 2394 -81 1725 -81 
Q 1122 -81 723 278 
Q 325 638 269 1209 
z
" id="ArialMT-33" transform="scale(0.015625)"/>
       </defs>
       <use xlink:href="#ArialMT-33"/>
       <use x="55.615234" xlink:href="#ArialMT-30"/>
       <use x="111.230469" xlink:href="#ArialMT-30"/>
       <use x="166.845703" xlink:href="#ArialMT-30"/>
       <use x="222.460938" xlink:href="#ArialMT-30"/>
      </g>
     </g>
    </g>
    <g id="ytick_5">
     <g id="line2d_10">
      <path clip-path="url(#p8a6063b3ae)" d="M 62.400156 115.58186 
L 620.400156 115.58186 
" style="fill:none;stroke:#ffffff;stroke-linecap:round;"/>
     </g>
     <g id="text_11">
      <!-- 40000 -->
      <g style="fill:#262626;" transform="translate(22.315 119.518657)scale(0.11 -0.11)">
       <defs>
        <path d="M 2069 0 
L 2069 1097 
L 81 1097 
L 81 1613 
L 2172 4581 
L 2631 4581 
L 2631 1613 
L 3250 1613 
L 3250 1097 
L 2631 1097 
L 2631 0 
L 2069 0 
z
M 2069 1613 
L 2069 3678 
L 634 1613 
L 2069 1613 
z
" id="ArialMT-34" transform="scale(0.015625)"/>
       </defs>
       <use xlink:href="#ArialMT-34"/>
       <use x="55.615234" xlink:href="#ArialMT-30"/>
       <use x="111.230469" xlink:href="#ArialMT-30"/>
       <use x="166.845703" xlink:href="#ArialMT-30"/>
       <use x="222.460938" xlink:href="#ArialMT-30"/>
      </g>
     </g>
    </g>
    <g id="ytick_6">
     <g id="line2d_11">
      <path clip-path="url(#p8a6063b3ae)" d="M 62.400156 63.359329 
L 620.400156 63.359329 
" style="fill:none;stroke:#ffffff;stroke-linecap:round;"/>
     </g>
     <g id="text_12">
      <!-- 50000 -->
      <g style="fill:#262626;" transform="translate(22.315 67.296126)scale(0.11 -0.11)">
       <use xlink:href="#ArialMT-35"/>
       <use x="55.615234" xlink:href="#ArialMT-30"/>
       <use x="111.230469" xlink:href="#ArialMT-30"/>
       <use x="166.845703" xlink:href="#ArialMT-30"/>
       <use x="222.460938" xlink:href="#ArialMT-30"/>
      </g>
     </g>
    </g>
    <g id="ytick_7">
     <g id="line2d_12">
      <path clip-path="url(#p8a6063b3ae)" d="M 62.400156 11.136797 
L 620.400156 11.136797 
" style="fill:none;stroke:#ffffff;stroke-linecap:round;"/>
     </g>
     <g id="text_13">
      <!-- 60000 -->
      <g style="fill:#262626;" transform="translate(22.315 15.073594)scale(0.11 -0.11)">
       <defs>
        <path d="M 3184 3459 
L 2625 3416 
Q 2550 3747 2413 3897 
Q 2184 4138 1850 4138 
Q 1581 4138 1378 3988 
Q 1113 3794 959 3422 
Q 806 3050 800 2363 
Q 1003 2672 1297 2822 
Q 1591 2972 1913 2972 
Q 2475 2972 2870 2558 
Q 3266 2144 3266 1488 
Q 3266 1056 3080 686 
Q 2894 316 2569 119 
Q 2244 -78 1831 -78 
Q 1128 -78 684 439 
Q 241 956 241 2144 
Q 241 3472 731 4075 
Q 1159 4600 1884 4600 
Q 2425 4600 2770 4297 
Q 3116 3994 3184 3459 
z
M 888 1484 
Q 888 1194 1011 928 
Q 1134 663 1356 523 
Q 1578 384 1822 384 
Q 2178 384 2434 671 
Q 2691 959 2691 1453 
Q 2691 1928 2437 2201 
Q 2184 2475 1800 2475 
Q 1419 2475 1153 2201 
Q 888 1928 888 1484 
z
" id="ArialMT-36" transform="scale(0.015625)"/>
       </defs>
       <use xlink:href="#ArialMT-36"/>
       <use x="55.615234" xlink:href="#ArialMT-30"/>
       <use x="111.230469" xlink:href="#ArialMT-30"/>
       <use x="166.845703" xlink:href="#ArialMT-30"/>
       <use x="222.460938" xlink:href="#ArialMT-30"/>
      </g>
     </g>
    </g>
    <g id="text_14">
     <!-- Minutes played -->
     <g style="fill:#262626;" transform="translate(15.789375 213.082727)rotate(-90)scale(0.12 -0.12)">
      <defs>
       <path d="M 475 0 
L 475 4581 
L 1388 4581 
L 2472 1338 
Q 2622 884 2691 659 
Q 2769 909 2934 1394 
L 4031 4581 
L 4847 4581 
L 4847 0 
L 4263 0 
L 4263 3834 
L 2931 0 
L 2384 0 
L 1059 3900 
L 1059 0 
L 475 0 
z
" id="ArialMT-4d" transform="scale(0.015625)"/>
       <path d="M 425 3934 
L 425 4581 
L 988 4581 
L 988 3934 
L 425 3934 
z
M 425 0 
L 425 3319 
L 988 3319 
L 988 0 
L 425 0 
z
" id="ArialMT-69" transform="scale(0.015625)"/>
       <path d="M 2597 0 
L 2597 488 
Q 2209 -75 1544 -75 
Q 1250 -75 995 37 
Q 741 150 617 320 
Q 494 491 444 738 
Q 409 903 409 1263 
L 409 3319 
L 972 3319 
L 972 1478 
Q 972 1038 1006 884 
Q 1059 663 1231 536 
Q 1403 409 1656 409 
Q 1909 409 2131 539 
Q 2353 669 2445 892 
Q 2538 1116 2538 1541 
L 2538 3319 
L 3100 3319 
L 3100 0 
L 2597 0 
z
" id="ArialMT-75" transform="scale(0.015625)"/>
       <path d="M 1650 503 
L 1731 6 
Q 1494 -44 1306 -44 
Q 1000 -44 831 53 
Q 663 150 594 308 
Q 525 466 525 972 
L 525 2881 
L 113 2881 
L 113 3319 
L 525 3319 
L 525 4141 
L 1084 4478 
L 1084 3319 
L 1650 3319 
L 1650 2881 
L 1084 2881 
L 1084 941 
Q 1084 700 1114 631 
Q 1144 563 1211 522 
Q 1278 481 1403 481 
Q 1497 481 1650 503 
z
" id="ArialMT-74" transform="scale(0.015625)"/>
       <path id="ArialMT-20" transform="scale(0.015625)"/>
       <path d="M 422 -1272 
L 422 3319 
L 934 3319 
L 934 2888 
Q 1116 3141 1344 3267 
Q 1572 3394 1897 3394 
Q 2322 3394 2647 3175 
Q 2972 2956 3137 2557 
Q 3303 2159 3303 1684 
Q 3303 1175 3120 767 
Q 2938 359 2589 142 
Q 2241 -75 1856 -75 
Q 1575 -75 1351 44 
Q 1128 163 984 344 
L 984 -1272 
L 422 -1272 
z
M 931 1641 
Q 931 1000 1190 694 
Q 1450 388 1819 388 
Q 2194 388 2461 705 
Q 2728 1022 2728 1688 
Q 2728 2322 2467 2637 
Q 2206 2953 1844 2953 
Q 1484 2953 1207 2617 
Q 931 2281 931 1641 
z
" id="ArialMT-70" transform="scale(0.015625)"/>
       <path d="M 409 0 
L 409 4581 
L 972 4581 
L 972 0 
L 409 0 
z
" id="ArialMT-6c" transform="scale(0.015625)"/>
       <path d="M 397 -1278 
L 334 -750 
Q 519 -800 656 -800 
Q 844 -800 956 -737 
Q 1069 -675 1141 -563 
Q 1194 -478 1313 -144 
Q 1328 -97 1363 -6 
L 103 3319 
L 709 3319 
L 1400 1397 
Q 1534 1031 1641 628 
Q 1738 1016 1872 1384 
L 2581 3319 
L 3144 3319 
L 1881 -56 
Q 1678 -603 1566 -809 
Q 1416 -1088 1222 -1217 
Q 1028 -1347 759 -1347 
Q 597 -1347 397 -1278 
z
" id="ArialMT-79" transform="scale(0.015625)"/>
       <path d="M 2575 0 
L 2575 419 
Q 2259 -75 1647 -75 
Q 1250 -75 917 144 
Q 584 363 401 755 
Q 219 1147 219 1656 
Q 219 2153 384 2558 
Q 550 2963 881 3178 
Q 1213 3394 1622 3394 
Q 1922 3394 2156 3267 
Q 2391 3141 2538 2938 
L 2538 4581 
L 3097 4581 
L 3097 0 
L 2575 0 
z
M 797 1656 
Q 797 1019 1065 703 
Q 1334 388 1700 388 
Q 2069 388 2326 689 
Q 2584 991 2584 1609 
Q 2584 2291 2321 2609 
Q 2059 2928 1675 2928 
Q 1300 2928 1048 2622 
Q 797 2316 797 1656 
z
" id="ArialMT-64" transform="scale(0.015625)"/>
      </defs>
      <use xlink:href="#ArialMT-4d"/>
      <use x="83.300781" xlink:href="#ArialMT-69"/>
      <use x="105.517578" xlink:href="#ArialMT-6e"/>
      <use x="161.132812" xlink:href="#ArialMT-75"/>
      <use x="216.748047" xlink:href="#ArialMT-74"/>
      <use x="244.53125" xlink:href="#ArialMT-65"/>
      <use x="300.146484" xlink:href="#ArialMT-73"/>
      <use x="350.146484" xlink:href="#ArialMT-20"/>
      <use x="377.929688" xlink:href="#ArialMT-70"/>
      <use x="433.544922" xlink:href="#ArialMT-6c"/>
      <use x="455.761719" xlink:href="#ArialMT-61"/>
      <use x="511.376953" xlink:href="#ArialMT-79"/>
      <use x="561.376953" xlink:href="#ArialMT-65"/>
      <use x="616.992188" xlink:href="#ArialMT-64"/>
     </g>
    </g>
   </g>
   <g id="line2d_13">
    <path clip-path="url(#p8a6063b3ae)" d="M 87.763793 314.565373 
L 111.919637 301.295628 
L 136.075481 286.553207 
L 160.231325 271.695897 
L 184.387169 257.303367 
L 208.543013 244.989294 
L 232.698858 234.978235 
L 256.854702 226.99341 
" style="fill:none;stroke:#4c72b0;stroke-linecap:round;stroke-width:1.5;"/>
   </g>
   <g id="line2d_14">
    <path clip-path="url(#p8a6063b3ae)" d="M 87.763793 308.831339 
L 111.919637 295.211703 
L 136.075481 279.853056 
L 160.231325 266.870535 
L 184.387169 252.216893 
L 208.543013 240.325822 
L 232.698858 226.570407 
L 256.854702 212.203989 
L 281.010546 202.407042 
L 305.16639 189.445409 
L 329.322234 173.87265 
L 353.478078 166.415273 
L 377.633922 153.202972 
L 401.789767 139.948894 
L 425.945611 126.888039 
L 450.101455 125.352696 
L 474.257299 115.419971 
L 498.413143 108.798154 
" style="fill:none;stroke:#dd8452;stroke-linecap:round;stroke-width:1.5;"/>
   </g>
   <g id="line2d_15">
    <path clip-path="url(#p8a6063b3ae)" d="M 87.763793 318.711842 
L 111.919637 307.97489 
L 136.075481 298.073498 
L 160.231325 284.892531 
L 184.387169 270.359 
L 208.543013 254.363239 
L 232.698858 236.602356 
L 256.854702 223.823502 
L 281.010546 209.780863 
L 305.16639 192.66754 
L 329.322234 176.269665 
L 353.478078 159.600232 
L 377.633922 144.142363 
L 401.789767 129.337275 
L 425.945611 114.824634 
L 450.101455 103.168565 
L 474.257299 87.433916 
L 498.413143 86.509577 
L 522.568987 80.206317 
L 546.724832 70.47726 
" style="fill:none;stroke:#55a868;stroke-linecap:round;stroke-width:1.5;"/>
   </g>
   <g id="line2d_16">
    <path clip-path="url(#p8a6063b3ae)" d="M 87.763793 315.280822 
L 111.919637 298.956058 
L 136.075481 283.398966 
L 160.231325 270.943892 
L 184.387169 263.261958 
L 208.543013 248.717983 
L 232.698858 233.949451 
L 256.854702 218.773583 
L 281.010546 202.44882 
L 305.16639 186.996173 
L 329.322234 171.611415 
L 353.478078 159.54801 
L 377.633922 148.837169 
L 401.789767 140.784454 
L 425.945611 129.854278 
L 450.101455 119.550773 
L 474.257299 113.853295 
L 498.413143 108.60493 
L 522.568987 99.210097 
L 546.724832 93.852065 
L 570.880676 86.906468 
L 595.03652 82.331774 
" style="fill:none;stroke:#c44e52;stroke-linecap:round;stroke-width:1.5;"/>
   </g>
   <g id="line2d_17">
    <path clip-path="url(#p8a6063b3ae)" d="M 87.763793 307.040106 
L 111.919637 287.336545 
L 136.075481 267.063758 
L 160.231325 247.187863 
L 184.387169 227.922971 
L 208.543013 210.684313 
L 232.698858 191.168753 
L 256.854702 171.940417 
L 281.010546 151.907854 
L 305.16639 132.747407 
L 329.322234 130.110169 
L 353.478078 111.15339 
L 377.633922 93.037393 
L 401.789767 74.540173 
" style="fill:none;stroke:#8172b3;stroke-linecap:round;stroke-width:1.5;"/>
   </g>
   <g id="line2d_18">
    <path clip-path="url(#p8a6063b3ae)" d="M 87.763793 309.348342 
L 111.919637 296.350154 
L 136.075481 292.527465 
L 160.231325 276.949484 
L 184.387169 262.086951 
L 208.543013 248.441204 
L 232.698858 234.34112 
L 256.854702 220.564816 
L 281.010546 212.047321 
L 305.16639 199.874249 
L 329.322234 199.148356 
L 353.478078 191.539533 
" style="fill:none;stroke:#937860;stroke-linecap:round;stroke-width:1.5;"/>
   </g>
   <g id="line2d_19">
    <path clip-path="url(#p8a6063b3ae)" d="M 87.763793 307.739888 
L 111.919637 297.488605 
L 136.075481 282.474627 
L 160.231325 265.899196 
L 184.387169 248.514315 
L 208.543013 231.902328 
L 232.698858 218.705694 
L 256.854702 207.20107 
L 281.010546 192.662317 
L 305.16639 178.426455 
L 329.322234 164.582262 
L 353.478078 151.401295 
L 377.633922 138.669442 
L 401.789767 127.410264 
L 425.945611 118.877102 
L 450.101455 108.02526 
L 474.257299 96.755638 
L 498.413143 85.12568 
L 522.568987 77.104299 
" style="fill:none;stroke:#da8bc3;stroke-linecap:round;stroke-width:1.5;"/>
   </g>
   <g id="line2d_20">
    <path clip-path="url(#p8a6063b3ae)" d="M 87.763793 310.016791 
L 111.919637 294.95059 
L 136.075481 278.035712 
L 160.231325 262.170507 
L 184.387169 248.874651 
L 208.543013 232.586443 
L 232.698858 216.282568 
L 256.854702 211.514651 
L 281.010546 198.051683 
L 305.16639 187.241619 
L 329.322234 175.09988 
L 353.478078 160.989352 
L 377.633922 160.989352 
L 401.789767 157.344219 
" style="fill:none;stroke:#8c8c8c;stroke-linecap:round;stroke-width:1.5;"/>
   </g>
   <g id="line2d_21">
    <path clip-path="url(#p8a6063b3ae)" d="M 87.763793 320.367297 
L 111.919637 310.382348 
L 136.075481 299.133615 
L 160.231325 291.268902 
L 184.387169 285.675869 
" style="fill:none;stroke:#ccb974;stroke-linecap:round;stroke-width:1.5;"/>
   </g>
   <g id="line2d_22">
    <path clip-path="url(#p8a6063b3ae)" d="M 87.763793 315.395711 
L 111.919637 303.964199 
L 136.075481 293.801695 
L 160.231325 278.213269 
L 184.387169 263.711072 
L 208.543013 248.143535 
L 232.698858 231.823994 
L 256.854702 216.434014 
L 281.010546 203.112046 
L 305.16639 188.139846 
L 329.322234 175.172991 
L 353.478078 167.036721 
" style="fill:none;stroke:#64b5cd;stroke-linecap:round;stroke-width:1.5;"/>
   </g>
   <g id="line2d_23">
    <path clip-path="url(#p8a6063b3ae)" d="M 87.763793 310.528572 
L 111.919637 294.752145 
L 136.075481 278.965273 
L 160.231325 262.838956 
L 184.387169 248.106979 
L 208.543013 233.260114 
L 232.698858 217.9328 
L 256.854702 207.122736 
L 281.010546 192.907763 
L 305.16639 180.395245 
L 329.322234 174.008429 
L 353.478078 162.101692 
L 377.633922 150.617957 
L 401.789767 137.755547 
L 425.945611 136.554429 
L 450.101455 129.734167 
L 474.257299 125.086361 
" style="fill:none;stroke:#4c72b0;stroke-linecap:round;stroke-width:1.5;"/>
   </g>
   <g id="line2d_24">
    <path clip-path="url(#p8a6063b3ae)" d="M 87.763793 306.016545 
L 111.919637 288.845776 
L 136.075481 270.134443 
L 160.231325 253.141231 
L 184.387169 234.612677 
L 208.543013 220.267148 
L 232.698858 202.621154 
L 256.854702 186.870839 
L 281.010546 175.042435 
L 305.16639 158.555782 
L 329.322234 142.14224 
L 353.478078 126.600815 
L 377.633922 112.620843 
L 401.789767 99.283208 
L 425.945611 85.59046 
L 450.101455 71.855935 
L 474.257299 58.126631 
L 498.413143 45.379111 
L 522.568987 33.326151 
L 546.724832 24.474431 
" style="fill:none;stroke:#dd8452;stroke-linecap:round;stroke-width:1.5;"/>
   </g>
   <g id="line2d_25">
    <path clip-path="url(#p8a6063b3ae)" d="M 87.763793 308.168113 
L 111.919637 290.475119 
L 136.075481 272.923126 
L 160.231325 256.264139 
L 184.387169 240.456378 
L 208.543013 224.507617 
L 232.698858 209.018414 
L 256.854702 193.022653 
L 281.010546 180.875692 
L 305.16639 165.85127 
L 329.322234 150.696291 
L 353.478078 137.677214 
L 377.633922 123.53013 
L 401.789767 108.939154 
L 425.945611 93.136616 
L 450.101455 83.021112 
L 474.257299 70.926374 
L 498.413143 63.677886 
" style="fill:none;stroke:#55a868;stroke-linecap:round;stroke-width:1.5;"/>
   </g>
   <g id="line2d_26">
    <path clip-path="url(#p8a6063b3ae)" d="M 87.763793 308.053224 
L 111.919637 305.697987 
L 136.075481 288.563775 
L 160.231325 271.272894 
L 184.387169 254.27446 
L 208.543013 237.578917 
L 232.698858 221.734601 
L 256.854702 205.535171 
L 281.010546 189.518521 
L 305.16639 189.518521 
L 329.322234 186.030056 
L 353.478078 169.893293 
L 377.633922 153.672975 
L 401.789767 137.060988 
L 425.945611 137.060988 
L 450.101455 137.060988 
L 474.257299 137.060988 
L 498.413143 126.130812 
L 522.568987 110.302162 
" style="fill:none;stroke:#c44e52;stroke-linecap:round;stroke-width:1.5;"/>
   </g>
   <g id="line2d_27">
    <path clip-path="url(#p8a6063b3ae)" d="M 87.763793 316.461051 
L 111.919637 307.008773 
L 136.075481 296.96638 
L 160.231325 286.349539 
L 184.387169 273.920577 
L 208.543013 261.000722 
L 232.698858 259.904049 
L 256.854702 249.250653 
L 281.010546 239.599929 
L 305.16639 231.829216 
" style="fill:none;stroke:#8172b3;stroke-linecap:round;stroke-width:1.5;"/>
   </g>
   <g id="line2d_28">
    <path clip-path="url(#p8a6063b3ae)" d="M 87.763793 311.546911 
L 111.919637 296.626934 
L 136.075481 279.926168 
L 160.231325 263.601404 
L 184.387169 247.29753 
L 208.543013 230.05365 
L 232.698858 214.104889 
L 256.854702 197.921126 
L 281.010546 180.536245 
L 305.16639 164.211482 
L 329.322234 147.954608 
L 353.478078 132.298293 
L 377.633922 116.474866 
L 401.789767 106.907698 
L 425.945611 91.517718 
L 450.101455 76.399295 
L 474.257299 60.523645 
L 498.413143 45.19111 
L 522.568987 38.020956 
" style="fill:none;stroke:#937860;stroke-linecap:round;stroke-width:1.5;"/>
   </g>
   <g id="line2d_29">
    <path clip-path="url(#p8a6063b3ae)" d="M 87.763793 309.807901 
L 111.919637 297.519939 
L 136.075481 281.821846 
L 160.231325 266.144642 
L 184.387169 257.204144 
L 208.543013 242.164055 
L 232.698858 230.774321 
L 256.854702 218.58036 
L 281.010546 207.242848 
L 305.16639 192.322871 
L 329.322234 179.685018 
L 353.478078 169.65307 
L 377.633922 160.007568 
L 401.789767 150.309844 
L 425.945611 138.779109 
L 450.101455 130.428726 
" style="fill:none;stroke:#da8bc3;stroke-linecap:round;stroke-width:1.5;"/>
   </g>
   <g id="line2d_30">
    <path clip-path="url(#p8a6063b3ae)" d="M 87.763793 308.805228 
L 111.919637 293.812139 
L 136.075481 278.009601 
L 160.231325 270.829003 
L 184.387169 270.829003 
L 208.543013 269.204882 
L 232.698858 261.214835 
L 256.854702 250.26377 
L 281.010546 239.391039 
L 305.16639 237.197692 
L 329.322234 229.928316 
L 353.478078 223.149831 
L 377.633922 219.27492 
" style="fill:none;stroke:#8c8c8c;stroke-linecap:round;stroke-width:1.5;"/>
   </g>
   <g id="line2d_31">
    <path clip-path="url(#p8a6063b3ae)" d="M 87.763793 310.539016 
L 111.919637 295.848818 
L 136.075481 280.981063 
L 160.231325 268.807991 
L 184.387169 253.867125 
L 208.543013 246.493303 
L 232.698858 234.471676 
L 256.854702 220.11048 
L 281.010546 205.477727 
L 305.16639 190.260081 
L 329.322234 176.525555 
L 353.478078 165.825158 
L 377.633922 157.908222 
" style="fill:none;stroke:#ccb974;stroke-linecap:round;stroke-width:1.5;"/>
   </g>
   <g id="line2d_32">
    <path clip-path="url(#p8a6063b3ae)" d="M 87.763793 320.983522 
L 111.919637 312.956919 
" style="fill:none;stroke:#64b5cd;stroke-linecap:round;stroke-width:1.5;"/>
   </g>
   <g id="patch_3">
    <path d="M 62.400156 335.808977 
L 62.400156 9.648977 
" style="fill:none;stroke:#ffffff;stroke-linecap:square;stroke-linejoin:miter;stroke-width:1.25;"/>
   </g>
   <g id="patch_4">
    <path d="M 620.400156 335.808977 
L 620.400156 9.648977 
" style="fill:none;stroke:#ffffff;stroke-linecap:square;stroke-linejoin:miter;stroke-width:1.25;"/>
   </g>
   <g id="patch_5">
    <path d="M 62.400156 335.808977 
L 620.400156 335.808977 
" style="fill:none;stroke:#ffffff;stroke-linecap:square;stroke-linejoin:miter;stroke-width:1.25;"/>
   </g>
   <g id="patch_6">
    <path d="M 62.400156 9.648977 
L 620.400156 9.648977 
" style="fill:none;stroke:#ffffff;stroke-linecap:square;stroke-linejoin:miter;stroke-width:1.25;"/>
   </g>
   <g id="legend_1">
    <g id="patch_7">
     <path d="M 500.452031 346.781633 
L 612.700156 346.781633 
Q 614.900156 346.781633 614.900156 344.581633 
L 614.900156 17.348977 
Q 614.900156 15.148977 612.700156 15.148977 
L 500.452031 15.148977 
Q 498.252031 15.148977 498.252031 17.348977 
L 498.252031 344.581633 
Q 498.252031 346.781633 500.452031 346.781633 
z
" style="fill:#eaeaf2;opacity:0.8;stroke:#cccccc;stroke-linejoin:miter;"/>
    </g>
    <g id="text_15">
     <!-- Player -->
     <g style="fill:#262626;" transform="translate(539.569844 28.138352)scale(0.12 -0.12)">
      <defs>
       <path d="M 494 0 
L 494 4581 
L 2222 4581 
Q 2678 4581 2919 4538 
Q 3256 4481 3484 4323 
Q 3713 4166 3852 3881 
Q 3991 3597 3991 3256 
Q 3991 2672 3619 2267 
Q 3247 1863 2275 1863 
L 1100 1863 
L 1100 0 
L 494 0 
z
M 1100 2403 
L 2284 2403 
Q 2872 2403 3119 2622 
Q 3366 2841 3366 3238 
Q 3366 3525 3220 3729 
Q 3075 3934 2838 4000 
Q 2684 4041 2272 4041 
L 1100 4041 
L 1100 2403 
z
" id="ArialMT-50" transform="scale(0.015625)"/>
       <path d="M 416 0 
L 416 3319 
L 922 3319 
L 922 2816 
Q 1116 3169 1280 3281 
Q 1444 3394 1641 3394 
Q 1925 3394 2219 3213 
L 2025 2691 
Q 1819 2813 1613 2813 
Q 1428 2813 1281 2702 
Q 1134 2591 1072 2394 
Q 978 2094 978 1738 
L 978 0 
L 416 0 
z
" id="ArialMT-72" transform="scale(0.015625)"/>
      </defs>
      <use xlink:href="#ArialMT-50"/>
      <use x="66.699219" xlink:href="#ArialMT-6c"/>
      <use x="88.916016" xlink:href="#ArialMT-61"/>
      <use x="144.53125" xlink:href="#ArialMT-79"/>
      <use x="194.53125" xlink:href="#ArialMT-65"/>
      <use x="250.146484" xlink:href="#ArialMT-72"/>
     </g>
    </g>
    <g id="line2d_33">
     <path d="M 502.652031 40.187571 
L 524.652031 40.187571 
" style="fill:none;stroke:#4c72b0;stroke-linecap:round;stroke-width:1.5;"/>
    </g>
    <g id="line2d_34"/>
    <g id="text_16">
     <!-- Antetokounmpo -->
     <g style="fill:#262626;" transform="translate(533.452031 44.037571)scale(0.11 -0.11)">
      <defs>
       <path d="M -9 0 
L 1750 4581 
L 2403 4581 
L 4278 0 
L 3588 0 
L 3053 1388 
L 1138 1388 
L 634 0 
L -9 0 
z
M 1313 1881 
L 2866 1881 
L 2388 3150 
Q 2169 3728 2063 4100 
Q 1975 3659 1816 3225 
L 1313 1881 
z
" id="ArialMT-41" transform="scale(0.015625)"/>
       <path d="M 425 0 
L 425 4581 
L 988 4581 
L 988 1969 
L 2319 3319 
L 3047 3319 
L 1778 2088 
L 3175 0 
L 2481 0 
L 1384 1697 
L 988 1316 
L 988 0 
L 425 0 
z
" id="ArialMT-6b" transform="scale(0.015625)"/>
       <path d="M 422 0 
L 422 3319 
L 925 3319 
L 925 2853 
Q 1081 3097 1340 3245 
Q 1600 3394 1931 3394 
Q 2300 3394 2536 3241 
Q 2772 3088 2869 2813 
Q 3263 3394 3894 3394 
Q 4388 3394 4653 3120 
Q 4919 2847 4919 2278 
L 4919 0 
L 4359 0 
L 4359 2091 
Q 4359 2428 4304 2576 
Q 4250 2725 4106 2815 
Q 3963 2906 3769 2906 
Q 3419 2906 3187 2673 
Q 2956 2441 2956 1928 
L 2956 0 
L 2394 0 
L 2394 2156 
Q 2394 2531 2256 2718 
Q 2119 2906 1806 2906 
Q 1569 2906 1367 2781 
Q 1166 2656 1075 2415 
Q 984 2175 984 1722 
L 984 0 
L 422 0 
z
" id="ArialMT-6d" transform="scale(0.015625)"/>
      </defs>
      <use xlink:href="#ArialMT-41"/>
      <use x="66.699219" xlink:href="#ArialMT-6e"/>
      <use x="122.314453" xlink:href="#ArialMT-74"/>
      <use x="150.097656" xlink:href="#ArialMT-65"/>
      <use x="205.712891" xlink:href="#ArialMT-74"/>
      <use x="233.496094" xlink:href="#ArialMT-6f"/>
      <use x="289.111328" xlink:href="#ArialMT-6b"/>
      <use x="339.111328" xlink:href="#ArialMT-6f"/>
      <use x="394.726562" xlink:href="#ArialMT-75"/>
      <use x="450.341797" xlink:href="#ArialMT-6e"/>
      <use x="505.957031" xlink:href="#ArialMT-6d"/>
      <use x="589.257812" xlink:href="#ArialMT-70"/>
      <use x="644.873047" xlink:href="#ArialMT-6f"/>
     </g>
    </g>
    <g id="line2d_35">
     <path d="M 502.652031 55.747414 
L 524.652031 55.747414 
" style="fill:none;stroke:#dd8452;stroke-linecap:round;stroke-width:1.5;"/>
    </g>
    <g id="line2d_36"/>
    <g id="text_17">
     <!-- Anthony -->
     <g style="fill:#262626;" transform="translate(533.452031 59.597414)scale(0.11 -0.11)">
      <defs>
       <path d="M 422 0 
L 422 4581 
L 984 4581 
L 984 2938 
Q 1378 3394 1978 3394 
Q 2347 3394 2619 3248 
Q 2891 3103 3008 2847 
Q 3125 2591 3125 2103 
L 3125 0 
L 2563 0 
L 2563 2103 
Q 2563 2525 2380 2717 
Q 2197 2909 1863 2909 
Q 1613 2909 1392 2779 
Q 1172 2650 1078 2428 
Q 984 2206 984 1816 
L 984 0 
L 422 0 
z
" id="ArialMT-68" transform="scale(0.015625)"/>
      </defs>
      <use xlink:href="#ArialMT-41"/>
      <use x="66.699219" xlink:href="#ArialMT-6e"/>
      <use x="122.314453" xlink:href="#ArialMT-74"/>
      <use x="150.097656" xlink:href="#ArialMT-68"/>
      <use x="205.712891" xlink:href="#ArialMT-6f"/>
      <use x="261.328125" xlink:href="#ArialMT-6e"/>
      <use x="316.943359" xlink:href="#ArialMT-79"/>
     </g>
    </g>
    <g id="line2d_37">
     <path d="M 502.652031 71.436164 
L 524.652031 71.436164 
" style="fill:none;stroke:#55a868;stroke-linecap:round;stroke-width:1.5;"/>
    </g>
    <g id="line2d_38"/>
    <g id="text_18">
     <!-- Bryant -->
     <g style="fill:#262626;" transform="translate(533.452031 75.286164)scale(0.11 -0.11)">
      <defs>
       <path d="M 469 0 
L 469 4581 
L 2188 4581 
Q 2713 4581 3030 4442 
Q 3347 4303 3526 4014 
Q 3706 3725 3706 3409 
Q 3706 3116 3547 2856 
Q 3388 2597 3066 2438 
Q 3481 2316 3704 2022 
Q 3928 1728 3928 1328 
Q 3928 1006 3792 729 
Q 3656 453 3456 303 
Q 3256 153 2954 76 
Q 2653 0 2216 0 
L 469 0 
z
M 1075 2656 
L 2066 2656 
Q 2469 2656 2644 2709 
Q 2875 2778 2992 2937 
Q 3109 3097 3109 3338 
Q 3109 3566 3000 3739 
Q 2891 3913 2687 3977 
Q 2484 4041 1991 4041 
L 1075 4041 
L 1075 2656 
z
M 1075 541 
L 2216 541 
Q 2509 541 2628 563 
Q 2838 600 2978 687 
Q 3119 775 3209 942 
Q 3300 1109 3300 1328 
Q 3300 1584 3169 1773 
Q 3038 1963 2805 2039 
Q 2572 2116 2134 2116 
L 1075 2116 
L 1075 541 
z
" id="ArialMT-42" transform="scale(0.015625)"/>
      </defs>
      <use xlink:href="#ArialMT-42"/>
      <use x="66.699219" xlink:href="#ArialMT-72"/>
      <use x="100" xlink:href="#ArialMT-79"/>
      <use x="150" xlink:href="#ArialMT-61"/>
      <use x="205.615234" xlink:href="#ArialMT-6e"/>
      <use x="261.230469" xlink:href="#ArialMT-74"/>
     </g>
    </g>
    <g id="line2d_39">
     <path d="M 502.652031 87.124914 
L 524.652031 87.124914 
" style="fill:none;stroke:#c44e52;stroke-linecap:round;stroke-width:1.5;"/>
    </g>
    <g id="line2d_40"/>
    <g id="text_19">
     <!-- Carter -->
     <g style="fill:#262626;" transform="translate(533.452031 90.974914)scale(0.11 -0.11)">
      <defs>
       <path d="M 3763 1606 
L 4369 1453 
Q 4178 706 3683 314 
Q 3188 -78 2472 -78 
Q 1731 -78 1267 223 
Q 803 525 561 1097 
Q 319 1669 319 2325 
Q 319 3041 592 3573 
Q 866 4106 1370 4382 
Q 1875 4659 2481 4659 
Q 3169 4659 3637 4309 
Q 4106 3959 4291 3325 
L 3694 3184 
Q 3534 3684 3231 3912 
Q 2928 4141 2469 4141 
Q 1941 4141 1586 3887 
Q 1231 3634 1087 3207 
Q 944 2781 944 2328 
Q 944 1744 1114 1308 
Q 1284 872 1643 656 
Q 2003 441 2422 441 
Q 2931 441 3284 734 
Q 3638 1028 3763 1606 
z
" id="ArialMT-43" transform="scale(0.015625)"/>
      </defs>
      <use xlink:href="#ArialMT-43"/>
      <use x="72.216797" xlink:href="#ArialMT-61"/>
      <use x="127.832031" xlink:href="#ArialMT-72"/>
      <use x="161.132812" xlink:href="#ArialMT-74"/>
      <use x="188.916016" xlink:href="#ArialMT-65"/>
      <use x="244.53125" xlink:href="#ArialMT-72"/>
     </g>
    </g>
    <g id="line2d_41">
     <path d="M 502.652031 102.684758 
L 524.652031 102.684758 
" style="fill:none;stroke:#8172b3;stroke-linecap:round;stroke-width:1.5;"/>
    </g>
    <g id="line2d_42"/>
    <g id="text_20">
     <!-- Chamberlain -->
     <g style="fill:#262626;" transform="translate(533.452031 106.534758)scale(0.11 -0.11)">
      <defs>
       <path d="M 941 0 
L 419 0 
L 419 4581 
L 981 4581 
L 981 2947 
Q 1338 3394 1891 3394 
Q 2197 3394 2470 3270 
Q 2744 3147 2920 2923 
Q 3097 2700 3197 2384 
Q 3297 2069 3297 1709 
Q 3297 856 2875 390 
Q 2453 -75 1863 -75 
Q 1275 -75 941 416 
L 941 0 
z
M 934 1684 
Q 934 1088 1097 822 
Q 1363 388 1816 388 
Q 2184 388 2453 708 
Q 2722 1028 2722 1663 
Q 2722 2313 2464 2622 
Q 2206 2931 1841 2931 
Q 1472 2931 1203 2611 
Q 934 2291 934 1684 
z
" id="ArialMT-62" transform="scale(0.015625)"/>
      </defs>
      <use xlink:href="#ArialMT-43"/>
      <use x="72.216797" xlink:href="#ArialMT-68"/>
      <use x="127.832031" xlink:href="#ArialMT-61"/>
      <use x="183.447266" xlink:href="#ArialMT-6d"/>
      <use x="266.748047" xlink:href="#ArialMT-62"/>
      <use x="322.363281" xlink:href="#ArialMT-65"/>
      <use x="377.978516" xlink:href="#ArialMT-72"/>
      <use x="411.279297" xlink:href="#ArialMT-6c"/>
      <use x="433.496094" xlink:href="#ArialMT-61"/>
      <use x="489.111328" xlink:href="#ArialMT-69"/>
      <use x="511.328125" xlink:href="#ArialMT-6e"/>
     </g>
    </g>
    <g id="line2d_43">
     <path d="M 502.652031 118.378664 
L 524.652031 118.378664 
" style="fill:none;stroke:#937860;stroke-linecap:round;stroke-width:1.5;"/>
    </g>
    <g id="line2d_44"/>
    <g id="text_21">
     <!-- Curry -->
     <g style="fill:#262626;" transform="translate(533.452031 122.228664)scale(0.11 -0.11)">
      <use xlink:href="#ArialMT-43"/>
      <use x="72.216797" xlink:href="#ArialMT-75"/>
      <use x="127.832031" xlink:href="#ArialMT-72"/>
      <use x="161.132812" xlink:href="#ArialMT-72"/>
      <use x="194.433594" xlink:href="#ArialMT-79"/>
     </g>
    </g>
    <g id="line2d_45">
     <path d="M 502.652031 134.067414 
L 524.652031 134.067414 
" style="fill:none;stroke:#da8bc3;stroke-linecap:round;stroke-width:1.5;"/>
    </g>
    <g id="line2d_46"/>
    <g id="text_22">
     <!-- Duncan -->
     <g style="fill:#262626;" transform="translate(533.452031 137.917414)scale(0.11 -0.11)">
      <defs>
       <path d="M 494 0 
L 494 4581 
L 2072 4581 
Q 2606 4581 2888 4516 
Q 3281 4425 3559 4188 
Q 3922 3881 4101 3404 
Q 4281 2928 4281 2316 
Q 4281 1794 4159 1391 
Q 4038 988 3847 723 
Q 3656 459 3429 307 
Q 3203 156 2883 78 
Q 2563 0 2147 0 
L 494 0 
z
M 1100 541 
L 2078 541 
Q 2531 541 2789 625 
Q 3047 709 3200 863 
Q 3416 1078 3536 1442 
Q 3656 1806 3656 2325 
Q 3656 3044 3420 3430 
Q 3184 3816 2847 3947 
Q 2603 4041 2063 4041 
L 1100 4041 
L 1100 541 
z
" id="ArialMT-44" transform="scale(0.015625)"/>
       <path d="M 2588 1216 
L 3141 1144 
Q 3050 572 2676 248 
Q 2303 -75 1759 -75 
Q 1078 -75 664 370 
Q 250 816 250 1647 
Q 250 2184 428 2587 
Q 606 2991 970 3192 
Q 1334 3394 1763 3394 
Q 2303 3394 2647 3120 
Q 2991 2847 3088 2344 
L 2541 2259 
Q 2463 2594 2264 2762 
Q 2066 2931 1784 2931 
Q 1359 2931 1093 2626 
Q 828 2322 828 1663 
Q 828 994 1084 691 
Q 1341 388 1753 388 
Q 2084 388 2306 591 
Q 2528 794 2588 1216 
z
" id="ArialMT-63" transform="scale(0.015625)"/>
      </defs>
      <use xlink:href="#ArialMT-44"/>
      <use x="72.216797" xlink:href="#ArialMT-75"/>
      <use x="127.832031" xlink:href="#ArialMT-6e"/>
      <use x="183.447266" xlink:href="#ArialMT-63"/>
      <use x="233.447266" xlink:href="#ArialMT-61"/>
      <use x="289.0625" xlink:href="#ArialMT-6e"/>
     </g>
    </g>
    <g id="line2d_47">
     <path d="M 502.652031 149.627258 
L 524.652031 149.627258 
" style="fill:none;stroke:#8c8c8c;stroke-linecap:round;stroke-width:1.5;"/>
    </g>
    <g id="line2d_48"/>
    <g id="text_23">
     <!-- Durrant -->
     <g style="fill:#262626;" transform="translate(533.452031 153.477258)scale(0.11 -0.11)">
      <use xlink:href="#ArialMT-44"/>
      <use x="72.216797" xlink:href="#ArialMT-75"/>
      <use x="127.832031" xlink:href="#ArialMT-72"/>
      <use x="161.132812" xlink:href="#ArialMT-72"/>
      <use x="194.433594" xlink:href="#ArialMT-61"/>
      <use x="250.048828" xlink:href="#ArialMT-6e"/>
      <use x="305.664062" xlink:href="#ArialMT-74"/>
     </g>
    </g>
    <g id="line2d_49">
     <path d="M 502.652031 165.187102 
L 524.652031 165.187102 
" style="fill:none;stroke:#ccb974;stroke-linecap:round;stroke-width:1.5;"/>
    </g>
    <g id="line2d_50"/>
    <g id="text_24">
     <!-- Embiid -->
     <g style="fill:#262626;" transform="translate(533.452031 169.037102)scale(0.11 -0.11)">
      <defs>
       <path d="M 506 0 
L 506 4581 
L 3819 4581 
L 3819 4041 
L 1113 4041 
L 1113 2638 
L 3647 2638 
L 3647 2100 
L 1113 2100 
L 1113 541 
L 3925 541 
L 3925 0 
L 506 0 
z
" id="ArialMT-45" transform="scale(0.015625)"/>
      </defs>
      <use xlink:href="#ArialMT-45"/>
      <use x="66.699219" xlink:href="#ArialMT-6d"/>
      <use x="150" xlink:href="#ArialMT-62"/>
      <use x="205.615234" xlink:href="#ArialMT-69"/>
      <use x="227.832031" xlink:href="#ArialMT-69"/>
      <use x="250.048828" xlink:href="#ArialMT-64"/>
     </g>
    </g>
    <g id="line2d_51">
     <path d="M 502.652031 180.746946 
L 524.652031 180.746946 
" style="fill:none;stroke:#64b5cd;stroke-linecap:round;stroke-width:1.5;"/>
    </g>
    <g id="line2d_52"/>
    <g id="text_25">
     <!-- Harden -->
     <g style="fill:#262626;" transform="translate(533.452031 184.596946)scale(0.11 -0.11)">
      <defs>
       <path d="M 513 0 
L 513 4581 
L 1119 4581 
L 1119 2700 
L 3500 2700 
L 3500 4581 
L 4106 4581 
L 4106 0 
L 3500 0 
L 3500 2159 
L 1119 2159 
L 1119 0 
L 513 0 
z
" id="ArialMT-48" transform="scale(0.015625)"/>
      </defs>
      <use xlink:href="#ArialMT-48"/>
      <use x="72.216797" xlink:href="#ArialMT-61"/>
      <use x="127.832031" xlink:href="#ArialMT-72"/>
      <use x="161.132812" xlink:href="#ArialMT-64"/>
      <use x="216.748047" xlink:href="#ArialMT-65"/>
      <use x="272.363281" xlink:href="#ArialMT-6e"/>
     </g>
    </g>
    <g id="line2d_53">
     <path d="M 502.652031 196.306789 
L 524.652031 196.306789 
" style="fill:none;stroke:#4c72b0;stroke-linecap:round;stroke-width:1.5;"/>
    </g>
    <g id="line2d_54"/>
    <g id="text_26">
     <!-- Howard -->
     <g style="fill:#262626;" transform="translate(533.452031 200.156789)scale(0.11 -0.11)">
      <defs>
       <path d="M 1034 0 
L 19 3319 
L 600 3319 
L 1128 1403 
L 1325 691 
Q 1338 744 1497 1375 
L 2025 3319 
L 2603 3319 
L 3100 1394 
L 3266 759 
L 3456 1400 
L 4025 3319 
L 4572 3319 
L 3534 0 
L 2950 0 
L 2422 1988 
L 2294 2553 
L 1622 0 
L 1034 0 
z
" id="ArialMT-77" transform="scale(0.015625)"/>
      </defs>
      <use xlink:href="#ArialMT-48"/>
      <use x="72.216797" xlink:href="#ArialMT-6f"/>
      <use x="127.832031" xlink:href="#ArialMT-77"/>
      <use x="200.048828" xlink:href="#ArialMT-61"/>
      <use x="255.664062" xlink:href="#ArialMT-72"/>
      <use x="288.964844" xlink:href="#ArialMT-64"/>
     </g>
    </g>
    <g id="line2d_55">
     <path d="M 502.652031 211.866633 
L 524.652031 211.866633 
" style="fill:none;stroke:#dd8452;stroke-linecap:round;stroke-width:1.5;"/>
    </g>
    <g id="line2d_56"/>
    <g id="text_27">
     <!-- Jabar -->
     <g style="fill:#262626;" transform="translate(533.452031 215.716633)scale(0.11 -0.11)">
      <defs>
       <path d="M 184 1300 
L 731 1375 
Q 753 850 928 656 
Q 1103 463 1413 463 
Q 1641 463 1806 567 
Q 1972 672 2034 851 
Q 2097 1031 2097 1425 
L 2097 4581 
L 2703 4581 
L 2703 1459 
Q 2703 884 2564 568 
Q 2425 253 2123 87 
Q 1822 -78 1416 -78 
Q 813 -78 492 269 
Q 172 616 184 1300 
z
" id="ArialMT-4a" transform="scale(0.015625)"/>
      </defs>
      <use xlink:href="#ArialMT-4a"/>
      <use x="50" xlink:href="#ArialMT-61"/>
      <use x="105.615234" xlink:href="#ArialMT-62"/>
      <use x="161.230469" xlink:href="#ArialMT-61"/>
      <use x="216.845703" xlink:href="#ArialMT-72"/>
     </g>
    </g>
    <g id="line2d_57">
     <path d="M 502.652031 227.426477 
L 524.652031 227.426477 
" style="fill:none;stroke:#55a868;stroke-linecap:round;stroke-width:1.5;"/>
    </g>
    <g id="line2d_58"/>
    <g id="text_28">
     <!-- James -->
     <g style="fill:#262626;" transform="translate(533.452031 231.276477)scale(0.11 -0.11)">
      <use xlink:href="#ArialMT-4a"/>
      <use x="50" xlink:href="#ArialMT-61"/>
      <use x="105.615234" xlink:href="#ArialMT-6d"/>
      <use x="188.916016" xlink:href="#ArialMT-65"/>
      <use x="244.53125" xlink:href="#ArialMT-73"/>
     </g>
    </g>
    <g id="line2d_59">
     <path d="M 502.652031 242.986321 
L 524.652031 242.986321 
" style="fill:none;stroke:#c44e52;stroke-linecap:round;stroke-width:1.5;"/>
    </g>
    <g id="line2d_60"/>
    <g id="text_29">
     <!-- Jordan -->
     <g style="fill:#262626;" transform="translate(533.452031 246.836321)scale(0.11 -0.11)">
      <use xlink:href="#ArialMT-4a"/>
      <use x="50" xlink:href="#ArialMT-6f"/>
      <use x="105.615234" xlink:href="#ArialMT-72"/>
      <use x="138.916016" xlink:href="#ArialMT-64"/>
      <use x="194.53125" xlink:href="#ArialMT-61"/>
      <use x="250.146484" xlink:href="#ArialMT-6e"/>
     </g>
    </g>
    <g id="line2d_61">
     <path d="M 502.652031 258.546164 
L 524.652031 258.546164 
" style="fill:none;stroke:#8172b3;stroke-linecap:round;stroke-width:1.5;"/>
    </g>
    <g id="line2d_62"/>
    <g id="text_30">
     <!-- Leonard -->
     <g style="fill:#262626;" transform="translate(533.452031 262.396164)scale(0.11 -0.11)">
      <defs>
       <path d="M 469 0 
L 469 4581 
L 1075 4581 
L 1075 541 
L 3331 541 
L 3331 0 
L 469 0 
z
" id="ArialMT-4c" transform="scale(0.015625)"/>
      </defs>
      <use xlink:href="#ArialMT-4c"/>
      <use x="55.615234" xlink:href="#ArialMT-65"/>
      <use x="111.230469" xlink:href="#ArialMT-6f"/>
      <use x="166.845703" xlink:href="#ArialMT-6e"/>
      <use x="222.460938" xlink:href="#ArialMT-61"/>
      <use x="278.076172" xlink:href="#ArialMT-72"/>
      <use x="311.376953" xlink:href="#ArialMT-64"/>
     </g>
    </g>
    <g id="line2d_63">
     <path d="M 502.652031 274.106008 
L 524.652031 274.106008 
" style="fill:none;stroke:#937860;stroke-linecap:round;stroke-width:1.5;"/>
    </g>
    <g id="line2d_64"/>
    <g id="text_31">
     <!-- Malone -->
     <g style="fill:#262626;" transform="translate(533.452031 277.956008)scale(0.11 -0.11)">
      <use xlink:href="#ArialMT-4d"/>
      <use x="83.300781" xlink:href="#ArialMT-61"/>
      <use x="138.916016" xlink:href="#ArialMT-6c"/>
      <use x="161.132812" xlink:href="#ArialMT-6f"/>
      <use x="216.748047" xlink:href="#ArialMT-6e"/>
      <use x="272.363281" xlink:href="#ArialMT-65"/>
     </g>
    </g>
    <g id="line2d_65">
     <path d="M 502.652031 289.665852 
L 524.652031 289.665852 
" style="fill:none;stroke:#da8bc3;stroke-linecap:round;stroke-width:1.5;"/>
    </g>
    <g id="line2d_66"/>
    <g id="text_32">
     <!-- Paul -->
     <g style="fill:#262626;" transform="translate(533.452031 293.515852)scale(0.11 -0.11)">
      <use xlink:href="#ArialMT-50"/>
      <use x="66.699219" xlink:href="#ArialMT-61"/>
      <use x="122.314453" xlink:href="#ArialMT-75"/>
      <use x="177.929688" xlink:href="#ArialMT-6c"/>
     </g>
    </g>
    <g id="line2d_67">
     <path d="M 502.652031 305.225696 
L 524.652031 305.225696 
" style="fill:none;stroke:#8c8c8c;stroke-linecap:round;stroke-width:1.5;"/>
    </g>
    <g id="line2d_68"/>
    <g id="text_33">
     <!-- Rose -->
     <g style="fill:#262626;" transform="translate(533.452031 309.075696)scale(0.11 -0.11)">
      <defs>
       <path d="M 503 0 
L 503 4581 
L 2534 4581 
Q 3147 4581 3465 4457 
Q 3784 4334 3975 4021 
Q 4166 3709 4166 3331 
Q 4166 2844 3850 2509 
Q 3534 2175 2875 2084 
Q 3116 1969 3241 1856 
Q 3506 1613 3744 1247 
L 4541 0 
L 3778 0 
L 3172 953 
Q 2906 1366 2734 1584 
Q 2563 1803 2427 1890 
Q 2291 1978 2150 2013 
Q 2047 2034 1813 2034 
L 1109 2034 
L 1109 0 
L 503 0 
z
M 1109 2559 
L 2413 2559 
Q 2828 2559 3062 2645 
Q 3297 2731 3419 2920 
Q 3541 3109 3541 3331 
Q 3541 3656 3305 3865 
Q 3069 4075 2559 4075 
L 1109 4075 
L 1109 2559 
z
" id="ArialMT-52" transform="scale(0.015625)"/>
      </defs>
      <use xlink:href="#ArialMT-52"/>
      <use x="72.216797" xlink:href="#ArialMT-6f"/>
      <use x="127.832031" xlink:href="#ArialMT-73"/>
      <use x="177.832031" xlink:href="#ArialMT-65"/>
     </g>
    </g>
    <g id="line2d_69">
     <path d="M 502.652031 320.785539 
L 524.652031 320.785539 
" style="fill:none;stroke:#ccb974;stroke-linecap:round;stroke-width:1.5;"/>
    </g>
    <g id="line2d_70"/>
    <g id="text_34">
     <!-- Westbrook -->
     <g style="fill:#262626;" transform="translate(533.452031 324.635539)scale(0.11 -0.11)">
      <defs>
       <path d="M 1294 0 
L 78 4581 
L 700 4581 
L 1397 1578 
Q 1509 1106 1591 641 
Q 1766 1375 1797 1488 
L 2669 4581 
L 3400 4581 
L 4056 2263 
Q 4303 1400 4413 641 
Q 4500 1075 4641 1638 
L 5359 4581 
L 5969 4581 
L 4713 0 
L 4128 0 
L 3163 3491 
Q 3041 3928 3019 4028 
Q 2947 3713 2884 3491 
L 1913 0 
L 1294 0 
z
" id="ArialMT-57" transform="scale(0.015625)"/>
      </defs>
      <use xlink:href="#ArialMT-57"/>
      <use x="92.634766" xlink:href="#ArialMT-65"/>
      <use x="148.25" xlink:href="#ArialMT-73"/>
      <use x="198.25" xlink:href="#ArialMT-74"/>
      <use x="226.033203" xlink:href="#ArialMT-62"/>
      <use x="281.648438" xlink:href="#ArialMT-72"/>
      <use x="314.949219" xlink:href="#ArialMT-6f"/>
      <use x="370.564453" xlink:href="#ArialMT-6f"/>
      <use x="426.179688" xlink:href="#ArialMT-6b"/>
     </g>
    </g>
    <g id="line2d_71">
     <path d="M 502.652031 336.345383 
L 524.652031 336.345383 
" style="fill:none;stroke:#64b5cd;stroke-linecap:round;stroke-width:1.5;"/>
    </g>
    <g id="line2d_72"/>
    <g id="text_35">
     <!-- Williamson -->
     <g style="fill:#262626;" transform="translate(533.452031 340.195383)scale(0.11 -0.11)">
      <use xlink:href="#ArialMT-57"/>
      <use x="94.384766" xlink:href="#ArialMT-69"/>
      <use x="116.601562" xlink:href="#ArialMT-6c"/>
      <use x="138.818359" xlink:href="#ArialMT-6c"/>
      <use x="161.035156" xlink:href="#ArialMT-69"/>
      <use x="183.251953" xlink:href="#ArialMT-61"/>
      <use x="238.867188" xlink:href="#ArialMT-6d"/>
      <use x="322.167969" xlink:href="#ArialMT-73"/>
      <use x="372.167969" xlink:href="#ArialMT-6f"/>
      <use x="427.783203" xlink:href="#ArialMT-6e"/>
     </g>
    </g>
   </g>
  </g>
 </g>
 <defs>
  <clipPath id="p8a6063b3ae">
   <rect height="326.16" width="558" x="62.400156" y="9.648977"/>
  </clipPath>
 </defs>
</svg>
