<?xml version="1.0" encoding="utf-8" standalone="no"?>
<!DOCTYPE svg PUBLIC "-//W3C//DTD SVG 1.1//EN"
  "http://www.w3.org/Graphics/SVG/1.1/DTD/svg11.dtd">
<!-- Created with matplotlib (https://matplotlib.org/) -->
<svg height="353.205313pt" version="1.1" viewBox="0 0 595.640625 353.205313" width="595.640625pt" xmlns="http://www.w3.org/2000/svg" xmlns:xlink="http://www.w3.org/1999/xlink">
 <metadata>
  <rdf:RDF xmlns:cc="http://creativecommons.org/ns#" xmlns:dc="http://purl.org/dc/elements/1.1/" xmlns:rdf="http://www.w3.org/1999/02/22-rdf-syntax-ns#">
   <cc:Work>
    <dc:type rdf:resource="http://purl.org/dc/dcmitype/StillImage"/>
    <dc:date>2021-04-23T13:01:45.937037</dc:date>
    <dc:format>image/svg+xml</dc:format>
    <dc:creator>
     <cc:Agent>
      <dc:title>Matplotlib v3.3.4, https://matplotlib.org/</dc:title>
     </cc:Agent>
    </dc:creator>
   </cc:Work>
  </rdf:RDF>
 </metadata>
 <defs>
  <style type="text/css">*{stroke-linecap:butt;stroke-linejoin:round;}</style>
 </defs>
 <g id="figure_1">
  <g id="patch_1">
   <path d="M 0 353.205313 
L 595.640625 353.205313 
L 595.640625 0 
L 0 0 
z
" style="fill:#ffffff;"/>
  </g>
  <g id="axes_1">
   <g id="patch_2">
    <path d="M 30.440625 333.36 
L 284.076989 333.36 
L 284.076989 7.2 
L 30.440625 7.2 
z
" style="fill:#ffffff;"/>
   </g>
   <g id="matplotlib.axis_1">
    <g id="xtick_1">
     <g id="line2d_1">
      <path clip-path="url(#pa535556ca2)" d="M 41.969551 333.36 
L 41.969551 7.2 
" style="fill:none;stroke:#cccccc;stroke-linecap:round;stroke-width:0.8;"/>
     </g>
     <g id="line2d_2"/>
     <g id="text_1">
      <!-- 0 -->
      <g style="fill:#262626;" transform="translate(39.189082 344.017813)scale(0.1 -0.1)">
       <defs>
        <path d="M 4.15625 35.296875 
Q 4.15625 48 6.765625 55.734375 
Q 9.375 63.484375 14.515625 67.671875 
Q 19.671875 71.875 27.484375 71.875 
Q 33.25 71.875 37.59375 69.546875 
Q 41.9375 67.234375 44.765625 62.859375 
Q 47.609375 58.5 49.21875 52.21875 
Q 50.828125 45.953125 50.828125 35.296875 
Q 50.828125 22.703125 48.234375 14.96875 
Q 45.65625 7.234375 40.5 3 
Q 35.359375 -1.21875 27.484375 -1.21875 
Q 17.140625 -1.21875 11.234375 6.203125 
Q 4.15625 15.140625 4.15625 35.296875 
z
M 13.1875 35.296875 
Q 13.1875 17.671875 17.3125 11.828125 
Q 21.4375 6 27.484375 6 
Q 33.546875 6 37.671875 11.859375 
Q 41.796875 17.71875 41.796875 35.296875 
Q 41.796875 52.984375 37.671875 58.78125 
Q 33.546875 64.59375 27.390625 64.59375 
Q 21.34375 64.59375 17.71875 59.46875 
Q 13.1875 52.9375 13.1875 35.296875 
z
" id="ArialMT-48"/>
       </defs>
       <use xlink:href="#ArialMT-48"/>
      </g>
     </g>
    </g>
    <g id="xtick_2">
     <g id="line2d_3">
      <path clip-path="url(#pa535556ca2)" d="M 88.177669 333.36 
L 88.177669 7.2 
" style="fill:none;stroke:#cccccc;stroke-linecap:round;stroke-width:0.8;"/>
     </g>
     <g id="line2d_4"/>
     <g id="text_2">
      <!-- 100 -->
      <g style="fill:#262626;" transform="translate(79.836263 344.017813)scale(0.1 -0.1)">
       <defs>
        <path d="M 37.25 0 
L 28.46875 0 
L 28.46875 56 
Q 25.296875 52.984375 20.140625 49.953125 
Q 14.984375 46.921875 10.890625 45.40625 
L 10.890625 53.90625 
Q 18.265625 57.375 23.78125 62.296875 
Q 29.296875 67.234375 31.59375 71.875 
L 37.25 71.875 
z
" id="ArialMT-49"/>
       </defs>
       <use xlink:href="#ArialMT-49"/>
       <use x="55.615234" xlink:href="#ArialMT-48"/>
       <use x="111.230469" xlink:href="#ArialMT-48"/>
      </g>
     </g>
    </g>
    <g id="xtick_3">
     <g id="line2d_5">
      <path clip-path="url(#pa535556ca2)" d="M 134.385788 333.36 
L 134.385788 7.2 
" style="fill:none;stroke:#cccccc;stroke-linecap:round;stroke-width:0.8;"/>
     </g>
     <g id="line2d_6"/>
     <g id="text_3">
      <!-- 200 -->
      <g style="fill:#262626;" transform="translate(126.044382 344.017813)scale(0.1 -0.1)">
       <defs>
        <path d="M 50.34375 8.453125 
L 50.34375 0 
L 3.03125 0 
Q 2.9375 3.171875 4.046875 6.109375 
Q 5.859375 10.9375 9.828125 15.625 
Q 13.8125 20.3125 21.34375 26.46875 
Q 33.015625 36.03125 37.109375 41.625 
Q 41.21875 47.21875 41.21875 52.203125 
Q 41.21875 57.421875 37.46875 61 
Q 33.734375 64.59375 27.734375 64.59375 
Q 21.390625 64.59375 17.578125 60.78125 
Q 13.765625 56.984375 13.71875 50.25 
L 4.6875 51.171875 
Q 5.609375 61.28125 11.65625 66.578125 
Q 17.71875 71.875 27.9375 71.875 
Q 38.234375 71.875 44.234375 66.15625 
Q 50.25 60.453125 50.25 52 
Q 50.25 47.703125 48.484375 43.546875 
Q 46.734375 39.40625 42.65625 34.8125 
Q 38.578125 30.21875 29.109375 22.21875 
Q 21.1875 15.578125 18.9375 13.203125 
Q 16.703125 10.84375 15.234375 8.453125 
z
" id="ArialMT-50"/>
       </defs>
       <use xlink:href="#ArialMT-50"/>
       <use x="55.615234" xlink:href="#ArialMT-48"/>
       <use x="111.230469" xlink:href="#ArialMT-48"/>
      </g>
     </g>
    </g>
    <g id="xtick_4">
     <g id="line2d_7">
      <path clip-path="url(#pa535556ca2)" d="M 180.593907 333.36 
L 180.593907 7.2 
" style="fill:none;stroke:#cccccc;stroke-linecap:round;stroke-width:0.8;"/>
     </g>
     <g id="line2d_8"/>
     <g id="text_4">
      <!-- 300 -->
      <g style="fill:#262626;" transform="translate(172.252501 344.017813)scale(0.1 -0.1)">
       <defs>
        <path d="M 4.203125 18.890625 
L 12.984375 20.0625 
Q 14.5 12.59375 18.140625 9.296875 
Q 21.78125 6 27 6 
Q 33.203125 6 37.46875 10.296875 
Q 41.75 14.59375 41.75 20.953125 
Q 41.75 27 37.796875 30.921875 
Q 33.84375 34.859375 27.734375 34.859375 
Q 25.25 34.859375 21.53125 33.890625 
L 22.515625 41.609375 
Q 23.390625 41.5 23.921875 41.5 
Q 29.546875 41.5 34.03125 44.421875 
Q 38.53125 47.359375 38.53125 53.46875 
Q 38.53125 58.296875 35.25 61.46875 
Q 31.984375 64.65625 26.8125 64.65625 
Q 21.6875 64.65625 18.265625 61.421875 
Q 14.84375 58.203125 13.875 51.765625 
L 5.078125 53.328125 
Q 6.6875 62.15625 12.390625 67.015625 
Q 18.109375 71.875 26.609375 71.875 
Q 32.46875 71.875 37.390625 69.359375 
Q 42.328125 66.84375 44.9375 62.5 
Q 47.5625 58.15625 47.5625 53.265625 
Q 47.5625 48.640625 45.0625 44.828125 
Q 42.578125 41.015625 37.703125 38.765625 
Q 44.046875 37.3125 47.5625 32.6875 
Q 51.078125 28.078125 51.078125 21.140625 
Q 51.078125 11.765625 44.234375 5.25 
Q 37.40625 -1.265625 26.953125 -1.265625 
Q 17.53125 -1.265625 11.296875 4.34375 
Q 5.078125 9.96875 4.203125 18.890625 
z
" id="ArialMT-51"/>
       </defs>
       <use xlink:href="#ArialMT-51"/>
       <use x="55.615234" xlink:href="#ArialMT-48"/>
       <use x="111.230469" xlink:href="#ArialMT-48"/>
      </g>
     </g>
    </g>
    <g id="xtick_5">
     <g id="line2d_9">
      <path clip-path="url(#pa535556ca2)" d="M 226.802025 333.36 
L 226.802025 7.2 
" style="fill:none;stroke:#cccccc;stroke-linecap:round;stroke-width:0.8;"/>
     </g>
     <g id="line2d_10"/>
     <g id="text_5">
      <!-- 400 -->
      <g style="fill:#262626;" transform="translate(218.460619 344.017813)scale(0.1 -0.1)">
       <defs>
        <path d="M 32.328125 0 
L 32.328125 17.140625 
L 1.265625 17.140625 
L 1.265625 25.203125 
L 33.9375 71.578125 
L 41.109375 71.578125 
L 41.109375 25.203125 
L 50.78125 25.203125 
L 50.78125 17.140625 
L 41.109375 17.140625 
L 41.109375 0 
z
M 32.328125 25.203125 
L 32.328125 57.46875 
L 9.90625 25.203125 
z
" id="ArialMT-52"/>
       </defs>
       <use xlink:href="#ArialMT-52"/>
       <use x="55.615234" xlink:href="#ArialMT-48"/>
       <use x="111.230469" xlink:href="#ArialMT-48"/>
      </g>
     </g>
    </g>
    <g id="xtick_6">
     <g id="line2d_11">
      <path clip-path="url(#pa535556ca2)" d="M 273.010144 333.36 
L 273.010144 7.2 
" style="fill:none;stroke:#cccccc;stroke-linecap:round;stroke-width:0.8;"/>
     </g>
     <g id="line2d_12"/>
     <g id="text_6">
      <!-- 500 -->
      <g style="fill:#262626;" transform="translate(264.668738 344.017813)scale(0.1 -0.1)">
       <defs>
        <path d="M 4.15625 18.75 
L 13.375 19.53125 
Q 14.40625 12.796875 18.140625 9.390625 
Q 21.875 6 27.15625 6 
Q 33.5 6 37.890625 10.78125 
Q 42.28125 15.578125 42.28125 23.484375 
Q 42.28125 31 38.0625 35.34375 
Q 33.84375 39.703125 27 39.703125 
Q 22.75 39.703125 19.328125 37.765625 
Q 15.921875 35.84375 13.96875 32.765625 
L 5.71875 33.84375 
L 12.640625 70.609375 
L 48.25 70.609375 
L 48.25 62.203125 
L 19.671875 62.203125 
L 15.828125 42.96875 
Q 22.265625 47.46875 29.34375 47.46875 
Q 38.71875 47.46875 45.15625 40.96875 
Q 51.609375 34.46875 51.609375 24.265625 
Q 51.609375 14.546875 45.953125 7.46875 
Q 39.0625 -1.21875 27.15625 -1.21875 
Q 17.390625 -1.21875 11.203125 4.25 
Q 5.03125 9.71875 4.15625 18.75 
z
" id="ArialMT-53"/>
       </defs>
       <use xlink:href="#ArialMT-53"/>
       <use x="55.615234" xlink:href="#ArialMT-48"/>
       <use x="111.230469" xlink:href="#ArialMT-48"/>
      </g>
     </g>
    </g>
   </g>
   <g id="matplotlib.axis_2">
    <g id="ytick_1">
     <g id="line2d_13">
      <path clip-path="url(#pa535556ca2)" d="M 30.440625 324.040928 
L 284.076989 324.040928 
" style="fill:none;stroke:#cccccc;stroke-linecap:round;stroke-width:0.8;"/>
     </g>
     <g id="line2d_14"/>
     <g id="text_7">
      <!-- −0.1 -->
      <g style="fill:#262626;" transform="translate(7.2 327.619834)scale(0.1 -0.1)">
       <defs>
        <path d="M 52.828125 31.203125 
L 5.5625 31.203125 
L 5.5625 39.40625 
L 52.828125 39.40625 
z
" id="ArialMT-8722"/>
        <path d="M 9.078125 0 
L 9.078125 10.015625 
L 19.09375 10.015625 
L 19.09375 0 
z
" id="ArialMT-46"/>
       </defs>
       <use xlink:href="#ArialMT-8722"/>
       <use x="58.398438" xlink:href="#ArialMT-48"/>
       <use x="114.013672" xlink:href="#ArialMT-46"/>
       <use x="141.796875" xlink:href="#ArialMT-49"/>
      </g>
     </g>
    </g>
    <g id="ytick_2">
     <g id="line2d_15">
      <path clip-path="url(#pa535556ca2)" d="M 30.440625 284.249623 
L 284.076989 284.249623 
" style="fill:none;stroke:#cccccc;stroke-linecap:round;stroke-width:0.8;"/>
     </g>
     <g id="line2d_16"/>
     <g id="text_8">
      <!-- 0.0 -->
      <g style="fill:#262626;" transform="translate(13.040625 287.82853)scale(0.1 -0.1)">
       <use xlink:href="#ArialMT-48"/>
       <use x="55.615234" xlink:href="#ArialMT-46"/>
       <use x="83.398438" xlink:href="#ArialMT-48"/>
      </g>
     </g>
    </g>
    <g id="ytick_3">
     <g id="line2d_17">
      <path clip-path="url(#pa535556ca2)" d="M 30.440625 244.458318 
L 284.076989 244.458318 
" style="fill:none;stroke:#cccccc;stroke-linecap:round;stroke-width:0.8;"/>
     </g>
     <g id="line2d_18"/>
     <g id="text_9">
      <!-- 0.1 -->
      <g style="fill:#262626;" transform="translate(13.040625 248.037225)scale(0.1 -0.1)">
       <use xlink:href="#ArialMT-48"/>
       <use x="55.615234" xlink:href="#ArialMT-46"/>
       <use x="83.398438" xlink:href="#ArialMT-49"/>
      </g>
     </g>
    </g>
    <g id="ytick_4">
     <g id="line2d_19">
      <path clip-path="url(#pa535556ca2)" d="M 30.440625 204.667014 
L 284.076989 204.667014 
" style="fill:none;stroke:#cccccc;stroke-linecap:round;stroke-width:0.8;"/>
     </g>
     <g id="line2d_20"/>
     <g id="text_10">
      <!-- 0.2 -->
      <g style="fill:#262626;" transform="translate(13.040625 208.24592)scale(0.1 -0.1)">
       <use xlink:href="#ArialMT-48"/>
       <use x="55.615234" xlink:href="#ArialMT-46"/>
       <use x="83.398438" xlink:href="#ArialMT-50"/>
      </g>
     </g>
    </g>
    <g id="ytick_5">
     <g id="line2d_21">
      <path clip-path="url(#pa535556ca2)" d="M 30.440625 164.875709 
L 284.076989 164.875709 
" style="fill:none;stroke:#cccccc;stroke-linecap:round;stroke-width:0.8;"/>
     </g>
     <g id="line2d_22"/>
     <g id="text_11">
      <!-- 0.3 -->
      <g style="fill:#262626;" transform="translate(13.040625 168.454615)scale(0.1 -0.1)">
       <use xlink:href="#ArialMT-48"/>
       <use x="55.615234" xlink:href="#ArialMT-46"/>
       <use x="83.398438" xlink:href="#ArialMT-51"/>
      </g>
     </g>
    </g>
    <g id="ytick_6">
     <g id="line2d_23">
      <path clip-path="url(#pa535556ca2)" d="M 30.440625 125.084404 
L 284.076989 125.084404 
" style="fill:none;stroke:#cccccc;stroke-linecap:round;stroke-width:0.8;"/>
     </g>
     <g id="line2d_24"/>
     <g id="text_12">
      <!-- 0.4 -->
      <g style="fill:#262626;" transform="translate(13.040625 128.66331)scale(0.1 -0.1)">
       <use xlink:href="#ArialMT-48"/>
       <use x="55.615234" xlink:href="#ArialMT-46"/>
       <use x="83.398438" xlink:href="#ArialMT-52"/>
      </g>
     </g>
    </g>
    <g id="ytick_7">
     <g id="line2d_25">
      <path clip-path="url(#pa535556ca2)" d="M 30.440625 85.293099 
L 284.076989 85.293099 
" style="fill:none;stroke:#cccccc;stroke-linecap:round;stroke-width:0.8;"/>
     </g>
     <g id="line2d_26"/>
     <g id="text_13">
      <!-- 0.5 -->
      <g style="fill:#262626;" transform="translate(13.040625 88.872006)scale(0.1 -0.1)">
       <use xlink:href="#ArialMT-48"/>
       <use x="55.615234" xlink:href="#ArialMT-46"/>
       <use x="83.398438" xlink:href="#ArialMT-53"/>
      </g>
     </g>
    </g>
    <g id="ytick_8">
     <g id="line2d_27">
      <path clip-path="url(#pa535556ca2)" d="M 30.440625 45.501794 
L 284.076989 45.501794 
" style="fill:none;stroke:#cccccc;stroke-linecap:round;stroke-width:0.8;"/>
     </g>
     <g id="line2d_28"/>
     <g id="text_14">
      <!-- 0.6 -->
      <g style="fill:#262626;" transform="translate(13.040625 49.080701)scale(0.1 -0.1)">
       <defs>
        <path d="M 49.75 54.046875 
L 41.015625 53.375 
Q 39.84375 58.546875 37.703125 60.890625 
Q 34.125 64.65625 28.90625 64.65625 
Q 24.703125 64.65625 21.53125 62.3125 
Q 17.390625 59.28125 14.984375 53.46875 
Q 12.59375 47.65625 12.5 36.921875 
Q 15.671875 41.75 20.265625 44.09375 
Q 24.859375 46.4375 29.890625 46.4375 
Q 38.671875 46.4375 44.84375 39.96875 
Q 51.03125 33.5 51.03125 23.25 
Q 51.03125 16.5 48.125 10.71875 
Q 45.21875 4.9375 40.140625 1.859375 
Q 35.0625 -1.21875 28.609375 -1.21875 
Q 17.625 -1.21875 10.6875 6.859375 
Q 3.765625 14.9375 3.765625 33.5 
Q 3.765625 54.25 11.421875 63.671875 
Q 18.109375 71.875 29.4375 71.875 
Q 37.890625 71.875 43.28125 67.140625 
Q 48.6875 62.40625 49.75 54.046875 
z
M 13.875 23.1875 
Q 13.875 18.65625 15.796875 14.5 
Q 17.71875 10.359375 21.1875 8.171875 
Q 24.65625 6 28.46875 6 
Q 34.03125 6 38.03125 10.484375 
Q 42.046875 14.984375 42.046875 22.703125 
Q 42.046875 30.125 38.078125 34.390625 
Q 34.125 38.671875 28.125 38.671875 
Q 22.171875 38.671875 18.015625 34.390625 
Q 13.875 30.125 13.875 23.1875 
z
" id="ArialMT-54"/>
       </defs>
       <use xlink:href="#ArialMT-48"/>
       <use x="55.615234" xlink:href="#ArialMT-46"/>
       <use x="83.398438" xlink:href="#ArialMT-54"/>
      </g>
     </g>
    </g>
   </g>
   <g id="line2d_29">
    <path clip-path="url(#pa535556ca2)" d="M 41.969551 22.025455 
L 42.431632 264.036452 
L 42.893713 295.673096 
L 43.355794 293.183103 
L 43.817875 254.558021 
L 44.279957 269.423158 
L 44.742038 293.496874 
L 45.204119 292.446929 
L 46.128281 270.825345 
L 46.590362 283.212185 
L 47.514525 294.256715 
L 48.438687 277.637092 
L 48.900768 289.413182 
L 49.36285 283.028638 
L 49.824931 270.878589 
L 50.287012 300.737853 
L 50.749093 274.020227 
L 51.211174 275.617765 
L 51.673256 288.308431 
L 52.135337 294.345806 
L 52.597418 271.64905 
L 53.52158 303.710487 
L 53.983661 268.125057 
L 54.907824 281.221716 
L 55.369905 302.84696 
L 55.831986 277.296025 
L 56.294067 302.512647 
L 56.756149 249.92048 
L 57.21823 312.937191 
L 57.680311 269.424686 
L 58.142392 282.858029 
L 58.604473 275.68462 
L 59.066555 287.843866 
L 59.528636 284.838701 
L 59.990717 283.938432 
L 60.452798 290.041822 
L 60.914879 281.554041 
L 61.37696 287.705622 
L 61.839042 288.238127 
L 62.301123 269.570636 
L 62.763204 280.828738 
L 63.225285 303.137714 
L 63.687366 271.240021 
L 64.149448 275.720476 
L 64.611529 289.989054 
L 65.07361 288.874753 
L 65.535691 301.857532 
L 65.997772 281.226348 
L 66.459854 267.538807 
L 66.921935 315.750088 
L 67.384016 279.396802 
L 67.846097 282.33461 
L 68.308178 259.693732 
L 68.770259 290.698537 
L 69.232341 271.218217 
L 69.694422 283.851463 
L 70.156503 272.104008 
L 70.618584 277.153284 
L 71.080665 294.45149 
L 71.542747 283.000606 
L 72.004828 288.81187 
L 72.466909 286.132112 
L 72.92899 280.550282 
L 73.391071 299.930702 
L 73.853153 253.393236 
L 74.315234 292.017205 
L 74.777315 280.81176 
L 75.239396 284.653981 
L 75.701477 286.259694 
L 76.163558 278.01915 
L 76.62564 278.99096 
L 77.087721 284.629835 
L 77.549802 294.200747 
L 78.011883 285.332935 
L 78.473964 282.217001 
L 78.936046 292.32686 
L 79.398127 266.537968 
L 79.860208 271.506512 
L 80.322289 279.866142 
L 80.78437 309.038155 
L 81.246452 274.571644 
L 81.708533 287.29356 
L 82.170614 295.963508 
L 82.632695 272.700543 
L 83.094776 294.370578 
L 83.556857 268.85095 
L 84.018939 276.224759 
L 84.48102 301.217423 
L 84.943101 292.621939 
L 85.405182 254.203638 
L 85.867263 288.486518 
L 86.329345 299.991707 
L 86.791426 277.721177 
L 87.253507 287.335138 
L 87.715588 270.459054 
L 88.177669 305.090413 
L 89.101832 274.387995 
L 89.563913 276.025304 
L 90.025994 283.029326 
L 90.488075 275.098996 
L 90.950156 289.939843 
L 91.874319 283.69358 
L 92.3364 291.531769 
L 92.798481 279.358433 
L 93.260562 282.95985 
L 93.722644 270.831535 
L 94.184725 292.947324 
L 94.646806 299.26935 
L 95.108887 276.155473 
L 95.570968 276.341632 
L 96.03305 289.987825 
L 96.495131 276.126505 
L 96.957212 274.338459 
L 97.419293 286.91847 
L 97.881374 286.486113 
L 98.343455 274.632619 
L 98.805537 293.175264 
L 99.267618 290.945641 
L 99.729699 278.547074 
L 100.19178 287.919299 
L 100.653861 280.645282 
L 101.115943 308.750197 
L 101.578024 270.509485 
L 102.040105 291.280006 
L 102.502186 273.07195 
L 102.964267 286.003376 
L 103.426349 305.535807 
L 103.88843 259.711266 
L 104.350511 288.038989 
L 104.812592 296.99937 
L 105.274673 275.896086 
L 105.736754 293.051517 
L 106.660917 280.679087 
L 107.122998 280.337658 
L 107.585079 279.207942 
L 108.509242 293.615944 
L 108.971323 285.728445 
L 109.433404 292.64064 
L 109.895485 273.291764 
L 110.819648 295.993 
L 111.281729 275.346211 
L 111.74381 289.291378 
L 112.205891 282.048221 
L 112.667972 303.099611 
L 113.130053 270.873041 
L 113.592135 297.356875 
L 114.054216 276.024545 
L 114.516297 287.777798 
L 114.978378 270.434988 
L 115.440459 299.138878 
L 115.902541 286.028458 
L 116.364622 282.147754 
L 116.826703 283.374433 
L 117.288784 266.270692 
L 117.750865 291.944737 
L 118.212947 291.385391 
L 118.675028 287.619411 
L 119.137109 289.403939 
L 119.59919 283.219231 
L 120.061271 294.17819 
L 120.523352 281.715374 
L 120.985434 273.608149 
L 121.447515 297.502359 
L 121.909596 276.856927 
L 122.371677 304.083179 
L 122.833758 274.922409 
L 123.29584 275.701007 
L 123.757921 294.887382 
L 124.220002 279.769879 
L 124.682083 278.501439 
L 125.144164 298.568713 
L 125.606245 284.484839 
L 126.068327 289.024624 
L 126.530408 291.24739 
L 126.992489 257.856202 
L 127.45457 304.250613 
L 127.916651 274.802558 
L 128.378733 278.299667 
L 128.840814 300.123873 
L 129.302895 267.238432 
L 129.764976 296.946659 
L 130.227057 295.935688 
L 131.15122 265.302585 
L 131.613301 310.283675 
L 132.075382 292.474599 
L 132.537463 262.267421 
L 132.999544 287.78596 
L 133.461626 276.179788 
L 133.923707 284.040366 
L 134.385788 300.754632 
L 134.847869 290.266656 
L 135.30995 283.239909 
L 135.772032 286.812093 
L 136.696194 273.618227 
L 137.158275 293.130391 
L 138.082438 269.514982 
L 138.544519 303.99265 
L 139.0066 247.623094 
L 139.468681 298.226823 
L 140.392843 282.552332 
L 140.854925 289.891218 
L 141.317006 269.406095 
L 141.779087 307.353361 
L 142.241168 276.798449 
L 142.703249 284.644968 
L 143.165331 269.565393 
L 143.627412 298.777956 
L 144.089493 282.512183 
L 144.551574 278.598543 
L 145.013655 286.229484 
L 145.475737 286.570058 
L 145.937818 292.606638 
L 146.399899 279.66884 
L 146.86198 281.009229 
L 147.324061 276.465326 
L 147.786142 287.593875 
L 148.248224 282.882113 
L 148.710305 279.48993 
L 149.172386 300.270422 
L 149.634467 275.410328 
L 150.096548 277.374031 
L 150.55863 298.234308 
L 151.020711 271.0441 
L 151.482792 281.92116 
L 151.944873 287.02794 
L 152.406954 294.641055 
L 152.869036 259.313619 
L 153.331117 284.16571 
L 154.255279 292.002675 
L 154.71736 270.268451 
L 155.179441 287.481136 
L 155.641523 286.747174 
L 156.103604 297.677357 
L 156.565685 272.279103 
L 157.027766 281.678027 
L 157.489847 294.707143 
L 157.951929 269.706488 
L 158.41401 280.660305 
L 158.876091 300.625745 
L 159.338172 277.262115 
L 160.262335 285.080035 
L 160.724416 283.495553 
L 161.186497 283.786356 
L 161.648578 290.419437 
L 162.110659 277.722254 
L 162.57274 288.177907 
L 163.034822 274.385129 
L 163.496903 272.748621 
L 163.958984 289.02551 
L 164.421065 289.493734 
L 164.883146 278.218565 
L 165.345228 287.457046 
L 165.807309 290.099034 
L 166.26939 288.307594 
L 166.731471 280.61167 
L 167.193552 279.023551 
L 167.655634 282.254279 
L 168.117715 289.789816 
L 168.579796 289.570887 
L 169.041877 273.439204 
L 169.503958 286.41332 
L 169.966039 281.626457 
L 170.428121 287.835415 
L 170.890202 287.036442 
L 171.352283 284.105614 
L 171.814364 287.098799 
L 172.276445 277.820145 
L 172.738527 294.992228 
L 173.200608 282.990171 
L 173.662689 297.833191 
L 174.12477 258.096397 
L 174.586851 297.4812 
L 175.048933 281.280729 
L 175.511014 291.439022 
L 175.973095 291.322849 
L 176.435176 277.605035 
L 176.897257 274.621641 
L 177.359338 288.703286 
L 177.82142 252.713354 
L 178.283501 303.799926 
L 178.745582 289.286461 
L 179.207663 289.372775 
L 179.669744 282.287583 
L 180.131826 288.270969 
L 180.593907 286.177881 
L 181.055988 270.190974 
L 181.518069 280.698711 
L 181.98015 294.880922 
L 182.442232 282.750804 
L 182.904313 296.874739 
L 183.366394 276.446291 
L 184.290556 286.068273 
L 184.752637 288.660247 
L 185.214719 283.608633 
L 185.6768 273.075 
L 186.138881 310.280396 
L 186.600962 266.547519 
L 187.063043 282.772641 
L 187.525125 281.124629 
L 187.987206 290.058153 
L 188.449287 278.195182 
L 188.911368 295.516414 
L 189.373449 267.378413 
L 189.835531 298.755011 
L 190.759693 269.492401 
L 191.221774 286.893834 
L 191.683855 284.372667 
L 192.145936 293.455432 
L 192.608018 289.382157 
L 193.070099 269.920823 
L 193.53218 290.813443 
L 193.994261 296.330257 
L 194.456342 290.732952 
L 194.918424 293.319727 
L 195.380505 276.899364 
L 195.842586 291.24999 
L 196.766748 272.652378 
L 197.22883 284.824475 
L 197.690911 288.419455 
L 198.152992 273.775479 
L 198.615073 286.153225 
L 199.077154 291.646468 
L 199.539235 273.205407 
L 200.001317 297.882864 
L 200.463398 281.101716 
L 200.925479 284.385441 
L 201.38756 270.374741 
L 201.849641 286.959645 
L 202.311723 281.335854 
L 202.773804 262.748513 
L 203.235885 269.224969 
L 203.697966 316.775599 
L 204.160047 269.63549 
L 204.622129 280.872111 
L 205.08421 280.308562 
L 205.546291 277.53318 
L 206.008372 299.357043 
L 206.470453 281.392362 
L 206.932534 290.621132 
L 207.394616 292.844688 
L 207.856697 281.134355 
L 208.318778 272.966879 
L 208.780859 295.2781 
L 209.705022 277.182559 
L 210.167103 291.077054 
L 210.629184 286.598341 
L 211.091265 272.319192 
L 212.015427 291.617228 
L 212.477509 281.736018 
L 212.93959 285.993068 
L 213.401671 293.206948 
L 214.325833 261.833609 
L 214.787915 298.855882 
L 215.249996 289.582319 
L 215.712077 274.704502 
L 216.174158 279.78551 
L 216.636239 288.187318 
L 217.098321 283.956907 
L 217.560402 278.547568 
L 218.022483 290.427049 
L 218.484564 288.834113 
L 219.408726 296.026974 
L 219.870808 271.741549 
L 220.332889 297.410598 
L 221.257051 271.948352 
L 221.719132 294.468468 
L 222.181214 283.112086 
L 222.643295 268.401962 
L 223.105376 284.000272 
L 223.567457 294.620206 
L 224.029538 278.665949 
L 224.49162 280.638099 
L 224.953701 261.648206 
L 225.415782 318.534545 
L 225.877863 282.077293 
L 226.339944 277.39789 
L 226.802025 285.345076 
L 227.264107 283.266142 
L 227.726188 288.590017 
L 228.188269 257.560163 
L 228.65035 282.157315 
L 229.112431 292.579257 
L 229.574513 283.352183 
L 230.036594 279.124764 
L 230.498675 282.565781 
L 230.960756 279.884414 
L 231.422837 292.881227 
L 231.884919 267.180425 
L 232.809081 301.113715 
L 233.271162 285.180054 
L 233.733243 273.865757 
L 234.195324 282.654762 
L 234.657406 278.003958 
L 235.119487 293.558254 
L 235.581568 289.937882 
L 236.043649 270.670234 
L 236.50573 285.270779 
L 236.967812 291.869496 
L 237.429893 258.565748 
L 237.891974 291.387031 
L 238.354055 277.912513 
L 238.816136 299.627807 
L 239.278218 290.943748 
L 239.740299 272.627349 
L 240.20238 295.974275 
L 240.664461 283.889516 
L 241.126542 291.960595 
L 241.588623 274.377914 
L 242.050705 274.67416 
L 242.512786 295.406774 
L 242.974867 279.359998 
L 243.436948 297.75606 
L 243.899029 279.320376 
L 244.361111 275.489241 
L 244.823192 290.941335 
L 245.285273 285.272819 
L 245.747354 298.163939 
L 246.209435 268.314184 
L 247.133598 297.97812 
L 247.595679 268.523402 
L 248.05776 278.232486 
L 248.519841 291.906431 
L 248.981922 281.328691 
L 249.444004 291.660389 
L 249.906085 275.486598 
L 250.368166 283.715583 
L 250.830247 308.855219 
L 251.292328 286.269298 
L 252.216491 282.004103 
L 252.678572 277.173127 
L 253.140653 290.724958 
L 253.602734 272.568946 
L 254.526897 299.17562 
L 254.988978 274.166564 
L 255.91314 287.349723 
L 256.375221 263.275729 
L 256.837303 310.454989 
L 257.761465 278.785453 
L 258.223546 288.286173 
L 258.685627 287.174029 
L 259.147709 283.707113 
L 259.60979 278.382302 
L 260.071871 289.683362 
L 260.533952 281.214299 
L 261.458115 283.117609 
L 261.920196 279.934408 
L 262.382277 280.491774 
L 262.844358 284.802377 
L 263.306439 305.897468 
L 263.76852 267.255559 
L 264.230602 293.086993 
L 264.692683 285.450148 
L 265.154764 295.753215 
L 265.616845 286.34518 
L 266.078926 263.396409 
L 266.541008 298.750396 
L 267.003089 300.420998 
L 267.46517 260.527675 
L 267.927251 290.92311 
L 268.389332 270.24021 
L 268.851414 299.956244 
L 269.313495 278.856255 
L 269.775576 288.920624 
L 270.237657 280.504634 
L 270.699738 288.392365 
L 271.161819 284.423923 
L 271.623901 277.889904 
L 272.085982 295.322732 
L 272.548063 271.415619 
L 272.548063 271.415619 
" style="fill:none;stroke:#1f77b4;stroke-linecap:round;stroke-width:1.5;"/>
   </g>
   <g id="patch_3">
    <path d="M 30.440625 333.36 
L 30.440625 7.2 
" style="fill:none;stroke:#cccccc;stroke-linecap:square;stroke-linejoin:miter;"/>
   </g>
   <g id="patch_4">
    <path d="M 284.076989 333.36 
L 284.076989 7.2 
" style="fill:none;stroke:#cccccc;stroke-linecap:square;stroke-linejoin:miter;"/>
   </g>
   <g id="patch_5">
    <path d="M 30.440625 333.36 
L 284.076989 333.36 
" style="fill:none;stroke:#cccccc;stroke-linecap:square;stroke-linejoin:miter;"/>
   </g>
   <g id="patch_6">
    <path d="M 30.440625 7.2 
L 284.076989 7.2 
" style="fill:none;stroke:#cccccc;stroke-linecap:square;stroke-linejoin:miter;"/>
   </g>
  </g>
  <g id="axes_2">
   <g id="patch_7">
    <path d="M 334.804261 333.36 
L 588.440625 333.36 
L 588.440625 7.2 
L 334.804261 7.2 
z
" style="fill:#ffffff;"/>
   </g>
   <g id="matplotlib.axis_3">
    <g id="xtick_7">
     <g id="line2d_30">
      <path clip-path="url(#p6d809e0ab3)" d="M 346.333187 333.36 
L 346.333187 7.2 
" style="fill:none;stroke:#cccccc;stroke-linecap:round;stroke-width:0.8;"/>
     </g>
     <g id="line2d_31"/>
     <g id="text_15">
      <!-- 0 -->
      <g style="fill:#262626;" transform="translate(343.552718 344.017813)scale(0.1 -0.1)">
       <use xlink:href="#ArialMT-48"/>
      </g>
     </g>
    </g>
    <g id="xtick_8">
     <g id="line2d_32">
      <path clip-path="url(#p6d809e0ab3)" d="M 392.541306 333.36 
L 392.541306 7.2 
" style="fill:none;stroke:#cccccc;stroke-linecap:round;stroke-width:0.8;"/>
     </g>
     <g id="line2d_33"/>
     <g id="text_16">
      <!-- 100 -->
      <g style="fill:#262626;" transform="translate(384.199899 344.017813)scale(0.1 -0.1)">
       <use xlink:href="#ArialMT-49"/>
       <use x="55.615234" xlink:href="#ArialMT-48"/>
       <use x="111.230469" xlink:href="#ArialMT-48"/>
      </g>
     </g>
    </g>
    <g id="xtick_9">
     <g id="line2d_34">
      <path clip-path="url(#p6d809e0ab3)" d="M 438.749424 333.36 
L 438.749424 7.2 
" style="fill:none;stroke:#cccccc;stroke-linecap:round;stroke-width:0.8;"/>
     </g>
     <g id="line2d_35"/>
     <g id="text_17">
      <!-- 200 -->
      <g style="fill:#262626;" transform="translate(430.408018 344.017813)scale(0.1 -0.1)">
       <use xlink:href="#ArialMT-50"/>
       <use x="55.615234" xlink:href="#ArialMT-48"/>
       <use x="111.230469" xlink:href="#ArialMT-48"/>
      </g>
     </g>
    </g>
    <g id="xtick_10">
     <g id="line2d_36">
      <path clip-path="url(#p6d809e0ab3)" d="M 484.957543 333.36 
L 484.957543 7.2 
" style="fill:none;stroke:#cccccc;stroke-linecap:round;stroke-width:0.8;"/>
     </g>
     <g id="line2d_37"/>
     <g id="text_18">
      <!-- 300 -->
      <g style="fill:#262626;" transform="translate(476.616137 344.017813)scale(0.1 -0.1)">
       <use xlink:href="#ArialMT-51"/>
       <use x="55.615234" xlink:href="#ArialMT-48"/>
       <use x="111.230469" xlink:href="#ArialMT-48"/>
      </g>
     </g>
    </g>
    <g id="xtick_11">
     <g id="line2d_38">
      <path clip-path="url(#p6d809e0ab3)" d="M 531.165662 333.36 
L 531.165662 7.2 
" style="fill:none;stroke:#cccccc;stroke-linecap:round;stroke-width:0.8;"/>
     </g>
     <g id="line2d_39"/>
     <g id="text_19">
      <!-- 400 -->
      <g style="fill:#262626;" transform="translate(522.824256 344.017813)scale(0.1 -0.1)">
       <use xlink:href="#ArialMT-52"/>
       <use x="55.615234" xlink:href="#ArialMT-48"/>
       <use x="111.230469" xlink:href="#ArialMT-48"/>
      </g>
     </g>
    </g>
    <g id="xtick_12">
     <g id="line2d_40">
      <path clip-path="url(#p6d809e0ab3)" d="M 577.373781 333.36 
L 577.373781 7.2 
" style="fill:none;stroke:#cccccc;stroke-linecap:round;stroke-width:0.8;"/>
     </g>
     <g id="line2d_41"/>
     <g id="text_20">
      <!-- 500 -->
      <g style="fill:#262626;" transform="translate(569.032374 344.017813)scale(0.1 -0.1)">
       <use xlink:href="#ArialMT-53"/>
       <use x="55.615234" xlink:href="#ArialMT-48"/>
       <use x="111.230469" xlink:href="#ArialMT-48"/>
      </g>
     </g>
    </g>
   </g>
   <g id="matplotlib.axis_4">
    <g id="ytick_9">
     <g id="line2d_42">
      <path clip-path="url(#p6d809e0ab3)" d="M 334.804261 309.657358 
L 588.440625 309.657358 
" style="fill:none;stroke:#cccccc;stroke-linecap:round;stroke-width:0.8;"/>
     </g>
     <g id="line2d_43"/>
     <g id="text_21">
      <!-- 0.0 -->
      <g style="fill:#262626;" transform="translate(317.404261 313.236264)scale(0.1 -0.1)">
       <use xlink:href="#ArialMT-48"/>
       <use x="55.615234" xlink:href="#ArialMT-46"/>
       <use x="83.398438" xlink:href="#ArialMT-48"/>
      </g>
     </g>
    </g>
    <g id="ytick_10">
     <g id="line2d_44">
      <path clip-path="url(#p6d809e0ab3)" d="M 334.804261 261.318561 
L 588.440625 261.318561 
" style="fill:none;stroke:#cccccc;stroke-linecap:round;stroke-width:0.8;"/>
     </g>
     <g id="line2d_45"/>
     <g id="text_22">
      <!-- 0.1 -->
      <g style="fill:#262626;" transform="translate(317.404261 264.897467)scale(0.1 -0.1)">
       <use xlink:href="#ArialMT-48"/>
       <use x="55.615234" xlink:href="#ArialMT-46"/>
       <use x="83.398438" xlink:href="#ArialMT-49"/>
      </g>
     </g>
    </g>
    <g id="ytick_11">
     <g id="line2d_46">
      <path clip-path="url(#p6d809e0ab3)" d="M 334.804261 212.979764 
L 588.440625 212.979764 
" style="fill:none;stroke:#cccccc;stroke-linecap:round;stroke-width:0.8;"/>
     </g>
     <g id="line2d_47"/>
     <g id="text_23">
      <!-- 0.2 -->
      <g style="fill:#262626;" transform="translate(317.404261 216.558671)scale(0.1 -0.1)">
       <use xlink:href="#ArialMT-48"/>
       <use x="55.615234" xlink:href="#ArialMT-46"/>
       <use x="83.398438" xlink:href="#ArialMT-50"/>
      </g>
     </g>
    </g>
    <g id="ytick_12">
     <g id="line2d_48">
      <path clip-path="url(#p6d809e0ab3)" d="M 334.804261 164.640967 
L 588.440625 164.640967 
" style="fill:none;stroke:#cccccc;stroke-linecap:round;stroke-width:0.8;"/>
     </g>
     <g id="line2d_49"/>
     <g id="text_24">
      <!-- 0.3 -->
      <g style="fill:#262626;" transform="translate(317.404261 168.219874)scale(0.1 -0.1)">
       <use xlink:href="#ArialMT-48"/>
       <use x="55.615234" xlink:href="#ArialMT-46"/>
       <use x="83.398438" xlink:href="#ArialMT-51"/>
      </g>
     </g>
    </g>
    <g id="ytick_13">
     <g id="line2d_50">
      <path clip-path="url(#p6d809e0ab3)" d="M 334.804261 116.302171 
L 588.440625 116.302171 
" style="fill:none;stroke:#cccccc;stroke-linecap:round;stroke-width:0.8;"/>
     </g>
     <g id="line2d_51"/>
     <g id="text_25">
      <!-- 0.4 -->
      <g style="fill:#262626;" transform="translate(317.404261 119.881077)scale(0.1 -0.1)">
       <use xlink:href="#ArialMT-48"/>
       <use x="55.615234" xlink:href="#ArialMT-46"/>
       <use x="83.398438" xlink:href="#ArialMT-52"/>
      </g>
     </g>
    </g>
    <g id="ytick_14">
     <g id="line2d_52">
      <path clip-path="url(#p6d809e0ab3)" d="M 334.804261 67.963374 
L 588.440625 67.963374 
" style="fill:none;stroke:#cccccc;stroke-linecap:round;stroke-width:0.8;"/>
     </g>
     <g id="line2d_53"/>
     <g id="text_26">
      <!-- 0.5 -->
      <g style="fill:#262626;" transform="translate(317.404261 71.54228)scale(0.1 -0.1)">
       <use xlink:href="#ArialMT-48"/>
       <use x="55.615234" xlink:href="#ArialMT-46"/>
       <use x="83.398438" xlink:href="#ArialMT-53"/>
      </g>
     </g>
    </g>
    <g id="ytick_15">
     <g id="line2d_54">
      <path clip-path="url(#p6d809e0ab3)" d="M 334.804261 19.624577 
L 588.440625 19.624577 
" style="fill:none;stroke:#cccccc;stroke-linecap:round;stroke-width:0.8;"/>
     </g>
     <g id="line2d_55"/>
     <g id="text_27">
      <!-- 0.6 -->
      <g style="fill:#262626;" transform="translate(317.404261 23.203483)scale(0.1 -0.1)">
       <use xlink:href="#ArialMT-48"/>
       <use x="55.615234" xlink:href="#ArialMT-46"/>
       <use x="83.398438" xlink:href="#ArialMT-54"/>
      </g>
     </g>
    </g>
   </g>
   <g id="line2d_56">
    <path clip-path="url(#p6d809e0ab3)" d="M 346.333187 22.025455 
L 346.795268 235.884795 
L 347.257349 309.65219 
L 347.719431 309.761603 
L 348.181512 306.56611 
L 348.643593 313.768268 
L 349.105674 299.465357 
L 349.567755 309.661384 
L 350.029836 307.689729 
L 350.491918 309.422253 
L 350.953999 309.599391 
L 351.41608 310.274949 
L 351.878161 309.488539 
L 352.340242 309.896899 
L 352.802324 303.055798 
L 353.264405 310.483109 
L 353.726486 309.573251 
L 354.188567 309.391775 
L 354.650648 309.679331 
L 356.498973 309.657234 
L 356.961054 309.55245 
L 357.423135 308.712941 
L 357.885217 307.117004 
L 358.347298 309.58946 
L 358.809379 310.206079 
L 359.27146 308.682952 
L 359.733541 309.646894 
L 360.195623 309.285174 
L 360.657704 309.657322 
L 361.119785 309.608296 
L 361.581866 307.668474 
L 362.043947 309.583654 
L 362.506029 310.686863 
L 362.96811 309.657732 
L 364.354353 309.65751 
L 364.816434 313.730381 
L 365.278516 310.030367 
L 365.740597 309.654653 
L 366.202678 310.982612 
L 366.664759 309.657705 
L 367.12684 310.311774 
L 367.588922 309.521759 
L 368.051003 314.930947 
L 368.513084 309.65841 
L 368.975165 309.215433 
L 369.437246 309.65752 
L 370.361409 309.6697 
L 370.82349 307.504926 
L 371.285571 308.202931 
L 371.747652 309.33069 
L 372.209733 309.649645 
L 372.671815 310.66624 
L 373.133896 285.060612 
L 373.595977 309.625447 
L 374.058058 309.557378 
L 374.520139 309.699322 
L 374.982221 309.679999 
L 375.444302 309.798794 
L 375.906383 309.569152 
L 376.368464 312.751201 
L 376.830545 310.2273 
L 377.292627 309.711524 
L 377.754708 309.687783 
L 378.216789 310.214815 
L 378.67887 309.903479 
L 379.140951 304.648602 
L 379.603032 309.842356 
L 380.065114 310.040656 
L 380.527195 309.657242 
L 380.989276 309.65968 
L 381.451357 304.677246 
L 381.913438 309.822729 
L 382.37552 310.004436 
L 382.837601 309.407222 
L 383.299682 309.658149 
L 383.761763 309.60028 
L 384.685926 309.657799 
L 385.610088 309.650827 
L 386.072169 307.198312 
L 386.996331 309.739455 
L 387.458413 309.657145 
L 387.920494 302.207511 
L 388.382575 309.679453 
L 388.844656 312.761595 
L 389.306737 307.256408 
L 389.768819 312.449973 
L 390.2309 309.657648 
L 390.692981 309.667124 
L 391.155062 311.069141 
L 391.617143 299.85534 
L 392.079225 309.656076 
L 392.541306 312.69786 
L 393.003387 309.657937 
L 393.927549 309.657368 
L 394.38963 311.016019 
L 394.851712 309.644413 
L 395.775874 309.705728 
L 396.237955 305.876596 
L 396.700036 309.657446 
L 397.624199 309.609735 
L 398.08628 307.320715 
L 398.548361 315.828714 
L 399.010442 309.56734 
L 399.472524 312.518585 
L 399.934605 303.354171 
L 400.396686 309.771555 
L 401.320848 309.626325 
L 401.782929 310.399552 
L 402.245011 309.664757 
L 402.707092 309.675219 
L 403.631254 309.965731 
L 404.093335 309.486213 
L 405.479579 309.692395 
L 405.94166 302.272416 
L 406.403741 308.11819 
L 406.865823 308.843767 
L 407.789985 309.879777 
L 408.714147 309.378518 
L 409.176228 310.254581 
L 409.63831 311.470286 
L 410.100391 309.653478 
L 410.562472 308.727597 
L 411.024553 315.593462 
L 411.486634 309.657371 
L 411.948716 308.371285 
L 412.410797 309.65723 
L 412.872878 309.592031 
L 413.334959 315.725816 
L 413.79704 306.183348 
L 414.259121 309.657482 
L 415.183284 309.689136 
L 415.645365 305.413402 
L 416.107446 309.911658 
L 416.569527 309.551991 
L 417.49369 309.657353 
L 417.955771 309.63269 
L 418.417852 309.943901 
L 418.879933 309.615568 
L 419.342015 309.862438 
L 419.804096 310.312868 
L 420.266177 309.655378 
L 420.728258 309.677063 
L 421.190339 309.317418 
L 421.65242 310.10156 
L 422.114502 309.633 
L 422.576583 309.71289 
L 423.038664 311.336995 
L 423.500745 309.657404 
L 423.962826 309.758174 
L 424.424908 309.657492 
L 424.886989 317.702431 
L 425.34907 309.658424 
L 425.811151 309.503414 
L 426.273232 309.621077 
L 426.735314 311.296398 
L 427.197395 308.345099 
L 427.659476 310.101103 
L 428.121557 309.738243 
L 428.583638 307.07962 
L 429.045719 309.656535 
L 429.507801 309.657235 
L 429.969882 309.421735 
L 430.431963 310.287063 
L 430.894044 309.684199 
L 431.356125 309.657286 
L 431.818207 308.556799 
L 432.742369 309.605477 
L 434.128613 309.657362 
L 435.514856 309.657892 
L 435.976937 311.595218 
L 436.439018 309.657298 
L 436.9011 309.67619 
L 437.363181 306.632217 
L 437.825262 309.770786 
L 438.287343 307.714534 
L 438.749424 310.013944 
L 439.673587 308.860195 
L 440.135668 309.655985 
L 441.521912 309.709849 
L 441.983993 307.353163 
L 442.446074 309.884272 
L 442.908155 309.658312 
L 443.370236 309.003707 
L 443.832317 309.657489 
L 444.294399 309.902232 
L 444.75648 308.662153 
L 445.218561 309.649463 
L 445.680642 309.339412 
L 446.142723 309.713553 
L 446.604805 309.935849 
L 447.066886 310.331535 
L 447.528967 309.662871 
L 448.915211 309.660493 
L 449.377292 311.243817 
L 449.839373 310.865769 
L 450.301454 309.657617 
L 450.763535 308.112165 
L 451.225616 307.214108 
L 451.687698 309.657374 
L 452.149779 309.822384 
L 452.61186 309.657274 
L 456.30851 309.655892 
L 456.770591 308.485737 
L 457.694753 309.682574 
L 458.156834 309.556625 
L 458.618915 309.026879 
L 459.080997 310.405624 
L 459.543078 309.733348 
L 460.005159 309.655222 
L 460.46724 309.887604 
L 460.929321 309.222974 
L 461.391403 309.552815 
L 462.315565 309.782049 
L 462.777646 304.923408 
L 463.239727 309.378469 
L 463.701809 309.657213 
L 464.16389 308.999422 
L 464.625971 310.210693 
L 465.088052 309.686227 
L 466.012214 309.652866 
L 466.474296 302.895776 
L 466.936377 310.00696 
L 467.398458 307.39143 
L 467.860539 309.496976 
L 468.32262 318.534545 
L 468.784702 308.47591 
L 469.246783 309.669439 
L 469.708864 310.126739 
L 470.170945 309.645922 
L 470.633026 306.540626 
L 471.095108 309.653755 
L 472.01927 309.759926 
L 472.481351 308.387113 
L 472.943432 309.679567 
L 475.253838 309.526981 
L 475.715919 307.454071 
L 476.178001 309.568993 
L 476.640082 304.535065 
L 477.102163 309.912293 
L 477.564244 307.204743 
L 478.026325 309.71368 
L 478.488407 316.204843 
L 478.950488 309.657066 
L 479.412569 309.100222 
L 479.87465 309.656601 
L 480.336731 309.655534 
L 480.798812 313.236932 
L 481.260894 309.663198 
L 481.722975 307.252402 
L 482.185056 309.660991 
L 482.647137 309.675972 
L 483.109218 309.303103 
L 483.5713 306.66175 
L 484.033381 309.648261 
L 484.495462 305.575987 
L 484.957543 309.656887 
L 485.419624 309.675053 
L 485.881706 305.840367 
L 486.343787 311.299392 
L 486.805868 311.100836 
L 487.267949 309.664513 
L 487.73003 309.574322 
L 488.192111 311.6504 
L 488.654193 309.678953 
L 489.116274 309.603555 
L 489.578355 309.647996 
L 490.040436 309.544975 
L 490.502517 313.160418 
L 490.964599 309.460061 
L 491.42668 309.96454 
L 491.888761 309.657416 
L 492.350842 306.580639 
L 492.812923 299.729184 
L 493.275005 309.657479 
L 493.737086 309.657331 
L 494.199167 308.866433 
L 494.661248 309.641703 
L 495.58541 309.657573 
L 496.047492 310.49481 
L 496.509573 307.134797 
L 496.971654 309.068588 
L 497.433735 310.277925 
L 497.895816 309.658271 
L 498.357898 309.719104 
L 498.819979 310.183356 
L 499.28206 310.829397 
L 499.744141 308.121214 
L 500.206222 309.600724 
L 500.668303 308.861587 
L 501.130385 309.46697 
L 501.592466 309.282756 
L 502.054547 309.664077 
L 502.516628 308.788253 
L 502.978709 305.058506 
L 503.440791 318.323681 
L 504.364953 299.917557 
L 504.827034 309.772287 
L 505.289115 309.657215 
L 505.751197 281.627154 
L 506.213278 310.072727 
L 506.675359 310.280969 
L 507.13744 310.71337 
L 507.599521 289.184629 
L 508.061602 310.218833 
L 508.523684 307.366112 
L 508.985765 306.88727 
L 509.447846 309.418063 
L 509.909927 311.246916 
L 510.372008 309.653145 
L 510.83409 305.932474 
L 511.296171 309.462128 
L 511.758252 309.596438 
L 512.220333 309.922432 
L 512.682414 309.657201 
L 513.144496 307.807903 
L 513.606577 309.763753 
L 514.068658 309.484539 
L 514.530739 304.28334 
L 514.99282 309.657544 
L 515.916983 309.655871 
L 516.379064 309.910148 
L 516.841145 308.767272 
L 517.303226 308.194167 
L 517.765307 311.441131 
L 518.227389 312.148247 
L 518.68947 309.995838 
L 519.151551 309.242431 
L 519.613632 307.186474 
L 520.075713 309.657197 
L 520.537795 309.498986 
L 520.999876 309.156198 
L 521.461957 309.645306 
L 521.924038 309.658381 
L 522.386119 309.028252 
L 522.8482 309.626871 
L 523.310282 303.34335 
L 523.772363 308.434612 
L 524.234444 310.509332 
L 524.696525 309.090289 
L 525.620688 310.464892 
L 526.082769 309.657434 
L 527.006931 309.66114 
L 527.469012 306.201594 
L 527.931094 310.53554 
L 528.393175 309.65695 
L 528.855256 311.848653 
L 529.317337 309.660455 
L 529.779418 310.009978 
L 530.241499 309.928363 
L 530.703581 309.648646 
L 531.627743 309.657777 
L 532.089824 309.950167 
L 532.551905 309.346967 
L 533.013987 309.623608 
L 534.862311 309.656838 
L 535.786474 309.59957 
L 536.248555 309.181582 
L 537.172717 310.239497 
L 538.09688 307.031177 
L 538.558961 308.753882 
L 539.021042 309.657535 
L 539.945204 309.677463 
L 540.407286 306.502953 
L 540.869367 309.661732 
L 541.331448 309.657156 
L 541.793529 309.273884 
L 542.25561 309.559717 
L 542.717692 309.396667 
L 543.179773 309.687947 
L 543.641854 307.90484 
L 544.103935 305.36366 
L 544.566016 309.657007 
L 545.95226 309.554148 
L 546.414341 311.790764 
L 546.876422 309.657597 
L 548.724747 309.662994 
L 549.186828 309.65719 
L 549.648909 316.037028 
L 550.110991 308.870743 
L 550.573072 310.404224 
L 551.035153 315.78179 
L 551.497234 310.290012 
L 551.959315 309.869494 
L 552.421396 308.70781 
L 553.345559 310.388345 
L 553.80764 310.481563 
L 554.269721 307.102721 
L 554.731802 309.656701 
L 555.193884 309.657064 
L 555.655965 310.079616 
L 556.580127 307.27686 
L 557.50429 309.735331 
L 557.966371 309.563832 
L 558.428452 309.721314 
L 558.890533 309.528275 
L 559.352614 309.657411 
L 560.276777 309.655722 
L 560.738858 306.114285 
L 561.200939 309.554558 
L 561.66302 309.593958 
L 562.125101 309.365503 
L 562.587183 316.582495 
L 563.049264 309.666093 
L 563.511345 311.508079 
L 563.973426 309.655668 
L 564.435507 309.657466 
L 564.897589 314.059444 
L 565.35967 316.971317 
L 565.821751 309.657809 
L 566.283832 298.604081 
L 566.745913 309.657016 
L 567.207994 309.112131 
L 567.670076 309.656418 
L 568.132157 307.697853 
L 568.594238 309.577695 
L 569.056319 314.248105 
L 569.5184 309.656803 
L 572.752969 309.670739 
L 573.21505 310.533469 
L 573.677131 309.424073 
L 574.139212 310.355237 
L 574.601293 309.629624 
L 575.525456 309.662522 
L 575.987537 306.063395 
L 576.449618 309.657321 
L 576.911699 303.350468 
L 576.911699 303.350468 
" style="fill:none;stroke:#1f77b4;stroke-linecap:round;stroke-width:1.5;"/>
   </g>
   <g id="patch_8">
    <path d="M 334.804261 333.36 
L 334.804261 7.2 
" style="fill:none;stroke:#cccccc;stroke-linecap:square;stroke-linejoin:miter;"/>
   </g>
   <g id="patch_9">
    <path d="M 588.440625 333.36 
L 588.440625 7.2 
" style="fill:none;stroke:#cccccc;stroke-linecap:square;stroke-linejoin:miter;"/>
   </g>
   <g id="patch_10">
    <path d="M 334.804261 333.36 
L 588.440625 333.36 
" style="fill:none;stroke:#cccccc;stroke-linecap:square;stroke-linejoin:miter;"/>
   </g>
   <g id="patch_11">
    <path d="M 334.804261 7.2 
L 588.440625 7.2 
" style="fill:none;stroke:#cccccc;stroke-linecap:square;stroke-linejoin:miter;"/>
   </g>
  </g>
 </g>
 <defs>
  <clipPath id="pa535556ca2">
   <rect height="326.16" width="253.636364" x="30.440625" y="7.2"/>
  </clipPath>
  <clipPath id="p6d809e0ab3">
   <rect height="326.16" width="253.636364" x="334.804261" y="7.2"/>
  </clipPath>
 </defs>
</svg>
