<?xml version="1.0" encoding="utf-8" standalone="no"?>
<!DOCTYPE svg PUBLIC "-//W3C//DTD SVG 1.1//EN"
  "http://www.w3.org/Graphics/SVG/1.1/DTD/svg11.dtd">
<!-- Created with matplotlib (https://matplotlib.org/) -->
<svg height="413.190625pt" version="1.1" viewBox="0 0 673.246875 413.190625" width="673.246875pt" xmlns="http://www.w3.org/2000/svg" xmlns:xlink="http://www.w3.org/1999/xlink">
 <metadata>
  <rdf:RDF xmlns:cc="http://creativecommons.org/ns#" xmlns:dc="http://purl.org/dc/elements/1.1/" xmlns:rdf="http://www.w3.org/1999/02/22-rdf-syntax-ns#">
   <cc:Work>
    <dc:type rdf:resource="http://purl.org/dc/dcmitype/StillImage"/>
    <dc:date>2021-04-23T13:01:35.321412</dc:date>
    <dc:format>image/svg+xml</dc:format>
    <dc:creator>
     <cc:Agent>
      <dc:title>Matplotlib v3.3.4, https://matplotlib.org/</dc:title>
     </cc:Agent>
    </dc:creator>
   </cc:Work>
  </rdf:RDF>
 </metadata>
 <defs>
  <style type="text/css">*{stroke-linecap:butt;stroke-linejoin:round;}</style>
 </defs>
 <g id="figure_1">
  <g id="patch_1">
   <path d="M 0 413.190625 
L 673.246875 413.190625 
L 673.246875 0 
L 0 0 
z
" style="fill:#ffffff;"/>
  </g>
  <g id="axes_1">
   <g id="patch_2">
    <path d="M 41.046875 380.2 
L 599.046875 380.2 
L 599.046875 54.04 
L 41.046875 54.04 
z
" style="fill:#ffffff;"/>
   </g>
   <g id="matplotlib.axis_1">
    <g id="xtick_1">
     <g id="line2d_1">
      <path clip-path="url(#pb40ca07ceb)" d="M 41.046875 380.2 
L 41.046875 54.04 
" style="fill:none;stroke:#cccccc;stroke-linecap:round;stroke-width:0.8;"/>
     </g>
     <g id="line2d_2"/>
    </g>
    <g id="xtick_2">
     <g id="line2d_3">
      <path clip-path="url(#pb40ca07ceb)" d="M 125.452996 380.2 
L 125.452996 54.04 
" style="fill:none;stroke:#cccccc;stroke-linecap:round;stroke-width:0.8;"/>
     </g>
     <g id="line2d_4"/>
     <g id="text_1">
      <!-- 2012 -->
      <g style="fill:#262626;" transform="translate(114.331121 390.857812)scale(0.1 -0.1)">
       <defs>
        <path d="M 50.34375 8.453125 
L 50.34375 0 
L 3.03125 0 
Q 2.9375 3.171875 4.046875 6.109375 
Q 5.859375 10.9375 9.828125 15.625 
Q 13.8125 20.3125 21.34375 26.46875 
Q 33.015625 36.03125 37.109375 41.625 
Q 41.21875 47.21875 41.21875 52.203125 
Q 41.21875 57.421875 37.46875 61 
Q 33.734375 64.59375 27.734375 64.59375 
Q 21.390625 64.59375 17.578125 60.78125 
Q 13.765625 56.984375 13.71875 50.25 
L 4.6875 51.171875 
Q 5.609375 61.28125 11.65625 66.578125 
Q 17.71875 71.875 27.9375 71.875 
Q 38.234375 71.875 44.234375 66.15625 
Q 50.25 60.453125 50.25 52 
Q 50.25 47.703125 48.484375 43.546875 
Q 46.734375 39.40625 42.65625 34.8125 
Q 38.578125 30.21875 29.109375 22.21875 
Q 21.1875 15.578125 18.9375 13.203125 
Q 16.703125 10.84375 15.234375 8.453125 
z
" id="ArialMT-50"/>
        <path d="M 4.15625 35.296875 
Q 4.15625 48 6.765625 55.734375 
Q 9.375 63.484375 14.515625 67.671875 
Q 19.671875 71.875 27.484375 71.875 
Q 33.25 71.875 37.59375 69.546875 
Q 41.9375 67.234375 44.765625 62.859375 
Q 47.609375 58.5 49.21875 52.21875 
Q 50.828125 45.953125 50.828125 35.296875 
Q 50.828125 22.703125 48.234375 14.96875 
Q 45.65625 7.234375 40.5 3 
Q 35.359375 -1.21875 27.484375 -1.21875 
Q 17.140625 -1.21875 11.234375 6.203125 
Q 4.15625 15.140625 4.15625 35.296875 
z
M 13.1875 35.296875 
Q 13.1875 17.671875 17.3125 11.828125 
Q 21.4375 6 27.484375 6 
Q 33.546875 6 37.671875 11.859375 
Q 41.796875 17.71875 41.796875 35.296875 
Q 41.796875 52.984375 37.671875 58.78125 
Q 33.546875 64.59375 27.390625 64.59375 
Q 21.34375 64.59375 17.71875 59.46875 
Q 13.1875 52.9375 13.1875 35.296875 
z
" id="ArialMT-48"/>
        <path d="M 37.25 0 
L 28.46875 0 
L 28.46875 56 
Q 25.296875 52.984375 20.140625 49.953125 
Q 14.984375 46.921875 10.890625 45.40625 
L 10.890625 53.90625 
Q 18.265625 57.375 23.78125 62.296875 
Q 29.296875 67.234375 31.59375 71.875 
L 37.25 71.875 
z
" id="ArialMT-49"/>
       </defs>
       <use xlink:href="#ArialMT-50"/>
       <use x="55.615234" xlink:href="#ArialMT-48"/>
       <use x="111.230469" xlink:href="#ArialMT-49"/>
       <use x="166.845703" xlink:href="#ArialMT-50"/>
      </g>
     </g>
    </g>
    <g id="xtick_3">
     <g id="line2d_5">
      <path clip-path="url(#pb40ca07ceb)" d="M 245.657823 380.2 
L 245.657823 54.04 
" style="fill:none;stroke:#cccccc;stroke-linecap:round;stroke-width:0.8;"/>
     </g>
     <g id="line2d_6"/>
     <g id="text_2">
      <!-- 2013 -->
      <g style="fill:#262626;" transform="translate(234.535948 390.857812)scale(0.1 -0.1)">
       <defs>
        <path d="M 4.203125 18.890625 
L 12.984375 20.0625 
Q 14.5 12.59375 18.140625 9.296875 
Q 21.78125 6 27 6 
Q 33.203125 6 37.46875 10.296875 
Q 41.75 14.59375 41.75 20.953125 
Q 41.75 27 37.796875 30.921875 
Q 33.84375 34.859375 27.734375 34.859375 
Q 25.25 34.859375 21.53125 33.890625 
L 22.515625 41.609375 
Q 23.390625 41.5 23.921875 41.5 
Q 29.546875 41.5 34.03125 44.421875 
Q 38.53125 47.359375 38.53125 53.46875 
Q 38.53125 58.296875 35.25 61.46875 
Q 31.984375 64.65625 26.8125 64.65625 
Q 21.6875 64.65625 18.265625 61.421875 
Q 14.84375 58.203125 13.875 51.765625 
L 5.078125 53.328125 
Q 6.6875 62.15625 12.390625 67.015625 
Q 18.109375 71.875 26.609375 71.875 
Q 32.46875 71.875 37.390625 69.359375 
Q 42.328125 66.84375 44.9375 62.5 
Q 47.5625 58.15625 47.5625 53.265625 
Q 47.5625 48.640625 45.0625 44.828125 
Q 42.578125 41.015625 37.703125 38.765625 
Q 44.046875 37.3125 47.5625 32.6875 
Q 51.078125 28.078125 51.078125 21.140625 
Q 51.078125 11.765625 44.234375 5.25 
Q 37.40625 -1.265625 26.953125 -1.265625 
Q 17.53125 -1.265625 11.296875 4.34375 
Q 5.078125 9.96875 4.203125 18.890625 
z
" id="ArialMT-51"/>
       </defs>
       <use xlink:href="#ArialMT-50"/>
       <use x="55.615234" xlink:href="#ArialMT-48"/>
       <use x="111.230469" xlink:href="#ArialMT-49"/>
       <use x="166.845703" xlink:href="#ArialMT-51"/>
      </g>
     </g>
    </g>
    <g id="xtick_4">
     <g id="line2d_7">
      <path clip-path="url(#pb40ca07ceb)" d="M 365.53422 380.2 
L 365.53422 54.04 
" style="fill:none;stroke:#cccccc;stroke-linecap:round;stroke-width:0.8;"/>
     </g>
     <g id="line2d_8"/>
     <g id="text_3">
      <!-- 2014 -->
      <g style="fill:#262626;" transform="translate(354.412345 390.857812)scale(0.1 -0.1)">
       <defs>
        <path d="M 32.328125 0 
L 32.328125 17.140625 
L 1.265625 17.140625 
L 1.265625 25.203125 
L 33.9375 71.578125 
L 41.109375 71.578125 
L 41.109375 25.203125 
L 50.78125 25.203125 
L 50.78125 17.140625 
L 41.109375 17.140625 
L 41.109375 0 
z
M 32.328125 25.203125 
L 32.328125 57.46875 
L 9.90625 25.203125 
z
" id="ArialMT-52"/>
       </defs>
       <use xlink:href="#ArialMT-50"/>
       <use x="55.615234" xlink:href="#ArialMT-48"/>
       <use x="111.230469" xlink:href="#ArialMT-49"/>
       <use x="166.845703" xlink:href="#ArialMT-52"/>
      </g>
     </g>
    </g>
    <g id="xtick_5">
     <g id="line2d_9">
      <path clip-path="url(#pb40ca07ceb)" d="M 485.410618 380.2 
L 485.410618 54.04 
" style="fill:none;stroke:#cccccc;stroke-linecap:round;stroke-width:0.8;"/>
     </g>
     <g id="line2d_10"/>
     <g id="text_4">
      <!-- 2015 -->
      <g style="fill:#262626;" transform="translate(474.288743 390.857812)scale(0.1 -0.1)">
       <defs>
        <path d="M 4.15625 18.75 
L 13.375 19.53125 
Q 14.40625 12.796875 18.140625 9.390625 
Q 21.875 6 27.15625 6 
Q 33.5 6 37.890625 10.78125 
Q 42.28125 15.578125 42.28125 23.484375 
Q 42.28125 31 38.0625 35.34375 
Q 33.84375 39.703125 27 39.703125 
Q 22.75 39.703125 19.328125 37.765625 
Q 15.921875 35.84375 13.96875 32.765625 
L 5.71875 33.84375 
L 12.640625 70.609375 
L 48.25 70.609375 
L 48.25 62.203125 
L 19.671875 62.203125 
L 15.828125 42.96875 
Q 22.265625 47.46875 29.34375 47.46875 
Q 38.71875 47.46875 45.15625 40.96875 
Q 51.609375 34.46875 51.609375 24.265625 
Q 51.609375 14.546875 45.953125 7.46875 
Q 39.0625 -1.21875 27.15625 -1.21875 
Q 17.390625 -1.21875 11.203125 4.25 
Q 5.03125 9.71875 4.15625 18.75 
z
" id="ArialMT-53"/>
       </defs>
       <use xlink:href="#ArialMT-50"/>
       <use x="55.615234" xlink:href="#ArialMT-48"/>
       <use x="111.230469" xlink:href="#ArialMT-49"/>
       <use x="166.845703" xlink:href="#ArialMT-53"/>
      </g>
     </g>
    </g>
    <g id="xtick_6">
     <g id="line2d_11">
      <path clip-path="url(#pb40ca07ceb)" d="M 599.046875 380.2 
L 599.046875 54.04 
" style="fill:none;stroke:#cccccc;stroke-linecap:round;stroke-width:0.8;"/>
     </g>
     <g id="line2d_12"/>
    </g>
    <g id="xtick_7">
     <g id="line2d_13"/>
    </g>
    <g id="xtick_8">
     <g id="line2d_14"/>
    </g>
    <g id="xtick_9">
     <g id="line2d_15"/>
    </g>
    <g id="xtick_10">
     <g id="line2d_16"/>
    </g>
    <g id="xtick_11">
     <g id="line2d_17"/>
    </g>
    <g id="xtick_12">
     <g id="line2d_18"/>
    </g>
    <g id="xtick_13">
     <g id="line2d_19"/>
    </g>
    <g id="xtick_14">
     <g id="line2d_20"/>
    </g>
    <g id="xtick_15">
     <g id="line2d_21"/>
    </g>
    <g id="xtick_16">
     <g id="line2d_22"/>
    </g>
    <g id="xtick_17">
     <g id="line2d_23"/>
    </g>
    <g id="xtick_18">
     <g id="line2d_24"/>
    </g>
    <g id="xtick_19">
     <g id="line2d_25"/>
    </g>
    <g id="xtick_20">
     <g id="line2d_26"/>
    </g>
    <g id="text_5">
     <!-- ds -->
     <g style="fill:#262626;" transform="translate(314.766406 404.003125)scale(0.1 -0.1)">
      <defs>
       <path d="M 40.234375 0 
L 40.234375 6.546875 
Q 35.296875 -1.171875 25.734375 -1.171875 
Q 19.53125 -1.171875 14.328125 2.25 
Q 9.125 5.671875 6.265625 11.796875 
Q 3.421875 17.921875 3.421875 25.875 
Q 3.421875 33.640625 6 39.96875 
Q 8.59375 46.296875 13.765625 49.65625 
Q 18.953125 53.03125 25.34375 53.03125 
Q 30.03125 53.03125 33.6875 51.046875 
Q 37.359375 49.078125 39.65625 45.90625 
L 39.65625 71.578125 
L 48.390625 71.578125 
L 48.390625 0 
z
M 12.453125 25.875 
Q 12.453125 15.921875 16.640625 10.984375 
Q 20.84375 6.0625 26.5625 6.0625 
Q 32.328125 6.0625 36.34375 10.765625 
Q 40.375 15.484375 40.375 25.140625 
Q 40.375 35.796875 36.265625 40.765625 
Q 32.171875 45.75 26.171875 45.75 
Q 20.3125 45.75 16.375 40.96875 
Q 12.453125 36.1875 12.453125 25.875 
z
" id="ArialMT-100"/>
       <path d="M 3.078125 15.484375 
L 11.765625 16.84375 
Q 12.5 11.625 15.84375 8.84375 
Q 19.1875 6.0625 25.203125 6.0625 
Q 31.25 6.0625 34.171875 8.515625 
Q 37.109375 10.984375 37.109375 14.3125 
Q 37.109375 17.28125 34.515625 19 
Q 32.71875 20.171875 25.53125 21.96875 
Q 15.875 24.421875 12.140625 26.203125 
Q 8.40625 27.984375 6.46875 31.125 
Q 4.546875 34.28125 4.546875 38.09375 
Q 4.546875 41.546875 6.125 44.5 
Q 7.71875 47.46875 10.453125 49.421875 
Q 12.5 50.921875 16.03125 51.96875 
Q 19.578125 53.03125 23.640625 53.03125 
Q 29.734375 53.03125 34.34375 51.265625 
Q 38.96875 49.515625 41.15625 46.5 
Q 43.359375 43.5 44.1875 38.484375 
L 35.59375 37.3125 
Q 35.015625 41.3125 32.203125 43.546875 
Q 29.390625 45.796875 24.265625 45.796875 
Q 18.21875 45.796875 15.625 43.796875 
Q 13.03125 41.796875 13.03125 39.109375 
Q 13.03125 37.40625 14.109375 36.03125 
Q 15.1875 34.625 17.484375 33.6875 
Q 18.796875 33.203125 25.25 31.453125 
Q 34.578125 28.953125 38.25 27.359375 
Q 41.9375 25.78125 44.03125 22.75 
Q 46.140625 19.734375 46.140625 15.234375 
Q 46.140625 10.84375 43.578125 6.953125 
Q 41.015625 3.078125 36.171875 0.953125 
Q 31.34375 -1.171875 25.25 -1.171875 
Q 15.140625 -1.171875 9.84375 3.03125 
Q 4.546875 7.234375 3.078125 15.484375 
z
" id="ArialMT-115"/>
      </defs>
      <use xlink:href="#ArialMT-100"/>
      <use x="55.615234" xlink:href="#ArialMT-115"/>
     </g>
    </g>
   </g>
   <g id="matplotlib.axis_2">
    <g id="ytick_1">
     <g id="line2d_27">
      <path clip-path="url(#pb40ca07ceb)" d="M 41.046875 373.032727 
L 599.046875 373.032727 
" style="fill:none;stroke:#cccccc;stroke-linecap:round;stroke-width:0.8;"/>
     </g>
     <g id="line2d_28"/>
     <g id="text_6">
      <!-- −20 -->
      <g style="fill:#262626;" transform="translate(20.584375 376.611634)scale(0.1 -0.1)">
       <defs>
        <path d="M 52.828125 31.203125 
L 5.5625 31.203125 
L 5.5625 39.40625 
L 52.828125 39.40625 
z
" id="ArialMT-8722"/>
       </defs>
       <use xlink:href="#ArialMT-8722"/>
       <use x="58.398438" xlink:href="#ArialMT-50"/>
       <use x="114.013672" xlink:href="#ArialMT-48"/>
      </g>
     </g>
    </g>
    <g id="ytick_2">
     <g id="line2d_29">
      <path clip-path="url(#pb40ca07ceb)" d="M 41.046875 307.578182 
L 599.046875 307.578182 
" style="fill:none;stroke:#cccccc;stroke-linecap:round;stroke-width:0.8;"/>
     </g>
     <g id="line2d_30"/>
     <g id="text_7">
      <!-- −10 -->
      <g style="fill:#262626;" transform="translate(20.584375 311.157088)scale(0.1 -0.1)">
       <use xlink:href="#ArialMT-8722"/>
       <use x="58.398438" xlink:href="#ArialMT-49"/>
       <use x="114.013672" xlink:href="#ArialMT-48"/>
      </g>
     </g>
    </g>
    <g id="ytick_3">
     <g id="line2d_31">
      <path clip-path="url(#pb40ca07ceb)" d="M 41.046875 242.123636 
L 599.046875 242.123636 
" style="fill:none;stroke:#cccccc;stroke-linecap:round;stroke-width:0.8;"/>
     </g>
     <g id="line2d_32"/>
     <g id="text_8">
      <!-- 0 -->
      <g style="fill:#262626;" transform="translate(31.985938 245.702543)scale(0.1 -0.1)">
       <use xlink:href="#ArialMT-48"/>
      </g>
     </g>
    </g>
    <g id="ytick_4">
     <g id="line2d_33">
      <path clip-path="url(#pb40ca07ceb)" d="M 41.046875 176.669091 
L 599.046875 176.669091 
" style="fill:none;stroke:#cccccc;stroke-linecap:round;stroke-width:0.8;"/>
     </g>
     <g id="line2d_34"/>
     <g id="text_9">
      <!-- 10 -->
      <g style="fill:#262626;" transform="translate(26.425 180.247997)scale(0.1 -0.1)">
       <use xlink:href="#ArialMT-49"/>
       <use x="55.615234" xlink:href="#ArialMT-48"/>
      </g>
     </g>
    </g>
    <g id="ytick_5">
     <g id="line2d_35">
      <path clip-path="url(#pb40ca07ceb)" d="M 41.046875 111.214545 
L 599.046875 111.214545 
" style="fill:none;stroke:#cccccc;stroke-linecap:round;stroke-width:0.8;"/>
     </g>
     <g id="line2d_36"/>
     <g id="text_10">
      <!-- 20 -->
      <g style="fill:#262626;" transform="translate(26.425 114.793452)scale(0.1 -0.1)">
       <use xlink:href="#ArialMT-50"/>
       <use x="55.615234" xlink:href="#ArialMT-48"/>
      </g>
     </g>
    </g>
    <g id="text_11">
     <!-- Temp (°C) -->
     <g style="fill:#262626;" transform="translate(14.479688 239.672344)rotate(-90)scale(0.1 -0.1)">
      <defs>
       <path d="M 25.921875 0 
L 25.921875 63.140625 
L 2.34375 63.140625 
L 2.34375 71.578125 
L 59.078125 71.578125 
L 59.078125 63.140625 
L 35.40625 63.140625 
L 35.40625 0 
z
" id="ArialMT-84"/>
       <path d="M 42.09375 16.703125 
L 51.171875 15.578125 
Q 49.03125 7.625 43.21875 3.21875 
Q 37.40625 -1.171875 28.375 -1.171875 
Q 17 -1.171875 10.328125 5.828125 
Q 3.65625 12.84375 3.65625 25.484375 
Q 3.65625 38.578125 10.390625 45.796875 
Q 17.140625 53.03125 27.875 53.03125 
Q 38.28125 53.03125 44.875 45.953125 
Q 51.46875 38.875 51.46875 26.03125 
Q 51.46875 25.25 51.421875 23.6875 
L 12.75 23.6875 
Q 13.234375 15.140625 17.578125 10.59375 
Q 21.921875 6.0625 28.421875 6.0625 
Q 33.25 6.0625 36.671875 8.59375 
Q 40.09375 11.140625 42.09375 16.703125 
z
M 13.234375 30.90625 
L 42.1875 30.90625 
Q 41.609375 37.453125 38.875 40.71875 
Q 34.671875 45.796875 27.984375 45.796875 
Q 21.921875 45.796875 17.796875 41.75 
Q 13.671875 37.703125 13.234375 30.90625 
z
" id="ArialMT-101"/>
       <path d="M 6.59375 0 
L 6.59375 51.859375 
L 14.453125 51.859375 
L 14.453125 44.578125 
Q 16.890625 48.390625 20.9375 50.703125 
Q 25 53.03125 30.171875 53.03125 
Q 35.9375 53.03125 39.625 50.640625 
Q 43.3125 48.25 44.828125 43.953125 
Q 50.984375 53.03125 60.84375 53.03125 
Q 68.5625 53.03125 72.703125 48.75 
Q 76.859375 44.484375 76.859375 35.59375 
L 76.859375 0 
L 68.109375 0 
L 68.109375 32.671875 
Q 68.109375 37.9375 67.25 40.25 
Q 66.40625 42.578125 64.15625 43.984375 
Q 61.921875 45.40625 58.890625 45.40625 
Q 53.421875 45.40625 49.796875 41.765625 
Q 46.1875 38.140625 46.1875 30.125 
L 46.1875 0 
L 37.40625 0 
L 37.40625 33.6875 
Q 37.40625 39.546875 35.25 42.46875 
Q 33.109375 45.40625 28.21875 45.40625 
Q 24.515625 45.40625 21.359375 43.453125 
Q 18.21875 41.5 16.796875 37.734375 
Q 15.375 33.984375 15.375 26.90625 
L 15.375 0 
z
" id="ArialMT-109"/>
       <path d="M 6.59375 -19.875 
L 6.59375 51.859375 
L 14.59375 51.859375 
L 14.59375 45.125 
Q 17.4375 49.078125 21 51.046875 
Q 24.5625 53.03125 29.640625 53.03125 
Q 36.28125 53.03125 41.359375 49.609375 
Q 46.4375 46.1875 49.015625 39.953125 
Q 51.609375 33.734375 51.609375 26.3125 
Q 51.609375 18.359375 48.75 11.984375 
Q 45.90625 5.609375 40.453125 2.21875 
Q 35.015625 -1.171875 29 -1.171875 
Q 24.609375 -1.171875 21.109375 0.6875 
Q 17.625 2.546875 15.375 5.375 
L 15.375 -19.875 
z
M 14.546875 25.640625 
Q 14.546875 15.625 18.59375 10.84375 
Q 22.65625 6.0625 28.421875 6.0625 
Q 34.28125 6.0625 38.453125 11.015625 
Q 42.625 15.96875 42.625 26.375 
Q 42.625 36.28125 38.546875 41.203125 
Q 34.46875 46.140625 28.8125 46.140625 
Q 23.1875 46.140625 18.859375 40.890625 
Q 14.546875 35.640625 14.546875 25.640625 
z
" id="ArialMT-112"/>
       <path id="ArialMT-32"/>
       <path d="M 23.390625 -21.046875 
Q 16.109375 -11.859375 11.078125 0.4375 
Q 6.0625 12.75 6.0625 25.921875 
Q 6.0625 37.546875 9.8125 48.1875 
Q 14.203125 60.546875 23.390625 72.796875 
L 29.6875 72.796875 
Q 23.78125 62.640625 21.875 58.296875 
Q 18.890625 51.5625 17.1875 44.234375 
Q 15.09375 35.109375 15.09375 25.875 
Q 15.09375 2.390625 29.6875 -21.046875 
z
" id="ArialMT-40"/>
       <path d="M 6.25 59.28125 
Q 6.25 64.890625 10.21875 68.84375 
Q 14.203125 72.796875 19.78125 72.796875 
Q 25.4375 72.796875 29.390625 68.84375 
Q 33.34375 64.890625 33.34375 59.28125 
Q 33.34375 53.65625 29.359375 49.671875 
Q 25.390625 45.703125 19.78125 45.703125 
Q 14.203125 45.703125 10.21875 49.65625 
Q 6.25 53.609375 6.25 59.28125 
z
M 11.578125 59.28125 
Q 11.578125 55.859375 13.984375 53.4375 
Q 16.40625 51.03125 19.828125 51.03125 
Q 23.1875 51.03125 25.609375 53.4375 
Q 28.03125 55.859375 28.03125 59.28125 
Q 28.03125 62.703125 25.609375 65.109375 
Q 23.1875 67.53125 19.828125 67.53125 
Q 16.40625 67.53125 13.984375 65.109375 
Q 11.578125 62.703125 11.578125 59.28125 
z
" id="ArialMT-176"/>
       <path d="M 58.796875 25.09375 
L 68.265625 22.703125 
Q 65.28125 11.03125 57.546875 4.90625 
Q 49.8125 -1.21875 38.625 -1.21875 
Q 27.046875 -1.21875 19.796875 3.484375 
Q 12.546875 8.203125 8.765625 17.140625 
Q 4.984375 26.078125 4.984375 36.328125 
Q 4.984375 47.515625 9.25 55.828125 
Q 13.53125 64.15625 21.40625 68.46875 
Q 29.296875 72.796875 38.765625 72.796875 
Q 49.515625 72.796875 56.828125 67.328125 
Q 64.15625 61.859375 67.046875 51.953125 
L 57.71875 49.75 
Q 55.21875 57.5625 50.484375 61.125 
Q 45.75 64.703125 38.578125 64.703125 
Q 30.328125 64.703125 24.78125 60.734375 
Q 19.234375 56.78125 16.984375 50.109375 
Q 14.75 43.453125 14.75 36.375 
Q 14.75 27.25 17.40625 20.4375 
Q 20.0625 13.625 25.671875 10.25 
Q 31.296875 6.890625 37.84375 6.890625 
Q 45.796875 6.890625 51.3125 11.46875 
Q 56.84375 16.0625 58.796875 25.09375 
z
" id="ArialMT-67"/>
       <path d="M 12.359375 -21.046875 
L 6.0625 -21.046875 
Q 20.65625 2.390625 20.65625 25.875 
Q 20.65625 35.0625 18.5625 44.09375 
Q 16.890625 51.421875 13.921875 58.15625 
Q 12.015625 62.546875 6.0625 72.796875 
L 12.359375 72.796875 
Q 21.53125 60.546875 25.921875 48.1875 
Q 29.6875 37.546875 29.6875 25.921875 
Q 29.6875 12.75 24.625 0.4375 
Q 19.578125 -11.859375 12.359375 -21.046875 
z
" id="ArialMT-41"/>
      </defs>
      <use xlink:href="#ArialMT-84"/>
      <use x="49.958984" xlink:href="#ArialMT-101"/>
      <use x="105.574219" xlink:href="#ArialMT-109"/>
      <use x="188.875" xlink:href="#ArialMT-112"/>
      <use x="244.490234" xlink:href="#ArialMT-32"/>
      <use x="272.273438" xlink:href="#ArialMT-40"/>
      <use x="305.574219" xlink:href="#ArialMT-176"/>
      <use x="345.564453" xlink:href="#ArialMT-67"/>
      <use x="417.78125" xlink:href="#ArialMT-41"/>
     </g>
    </g>
   </g>
   <g id="line2d_37">
    <path clip-path="url(#pb40ca07ceb)" d="M 533.361178 174.948059 
L 533.689606 180.520833 
L 534.346463 175.622508 
L 534.674891 176.214414 
L 535.00332 177.988689 
L 535.331748 179.041378 
L 535.660177 179.47953 
L 536.317034 179.854203 
L 537.959176 181.961967 
L 540.258176 184.24852 
L 542.228747 185.847317 
L 544.199318 187.169203 
L 546.498317 188.425384 
L 548.797316 189.432022 
L 551.424744 190.340028 
L 554.380601 191.121227 
L 557.664886 191.76441 
L 561.606027 192.310388 
L 566.532455 192.757135 
L 572.772596 193.089488 
L 581.640165 193.321122 
L 596.419447 193.451431 
L 599.046875 193.460675 
L 599.046875 193.460675 
" style="fill:none;stroke:#1f77b4;stroke-linecap:round;stroke-width:1.5;"/>
   </g>
   <g id="line2d_38">
    <path clip-path="url(#pb40ca07ceb)" d="M 533.361178 181.970909 
L 533.689606 174.991828 
L 534.018035 172.172836 
L 534.346463 153.131395 
L 534.674891 144.416552 
L 535.00332 167.651238 
L 535.331748 166.479322 
L 535.988605 180.496653 
L 536.645462 174.409653 
L 536.973891 174.152623 
L 537.302319 160.984372 
L 537.630748 157.266062 
L 537.959176 156.736296 
L 538.287605 168.131341 
L 538.616033 172.543562 
L 538.944462 180.100558 
L 539.27289 173.857802 
L 539.601319 190.117106 
L 540.258176 175.591969 
L 540.586604 157.339071 
L 540.915033 159.735364 
L 541.243461 158.013307 
L 541.57189 130.070618 
L 541.900318 131.490551 
L 542.228747 126.728664 
L 542.557175 138.144682 
L 542.885604 158.054843 
L 543.214032 161.111152 
L 543.542461 162.48438 
L 543.870889 157.234639 
L 544.199318 157.560221 
L 544.527746 161.244611 
L 544.856175 155.39951 
L 545.184603 170.038405 
L 545.513032 162.184129 
L 545.84146 144.026188 
L 546.169889 144.943334 
L 546.826746 124.750313 
L 547.155174 139.193402 
L 547.483602 136.451003 
L 547.812031 139.840797 
L 548.140459 140.720352 
L 548.468888 141.076684 
L 548.797316 130.955429 
L 549.125745 149.818418 
L 549.454173 151.052382 
L 549.782602 137.062529 
L 550.11103 128.148834 
L 550.439459 132.970896 
L 550.767887 119.857028 
L 551.096316 131.921427 
L 551.424744 131.119 
L 551.753173 139.624366 
L 552.081601 137.399085 
L 552.41003 158.184219 
L 552.738458 141.452591 
L 553.066887 144.8706 
L 553.395315 154.0913 
L 553.723744 160.119548 
L 554.052172 155.661172 
L 554.380601 133.32327 
L 554.709029 142.428227 
L 555.037458 147.453898 
L 555.365886 160.372696 
L 555.694315 158.890153 
L 556.022743 153.700886 
L 556.351172 177.013275 
L 556.6796 167.424683 
L 557.008029 152.081863 
L 557.336457 146.523668 
L 557.664886 143.67555 
L 557.993314 152.64304 
L 558.321743 148.863119 
L 558.650171 153.851998 
L 558.9786 156.681552 
L 559.307028 156.15236 
L 559.635457 152.009766 
L 559.963885 151.568215 
L 560.292313 142.533221 
L 560.620742 159.997613 
L 560.94917 168.851457 
L 561.277599 147.558967 
L 561.606027 146.939001 
L 561.934456 136.279653 
L 562.262884 151.527041 
L 562.591313 160.171197 
L 562.919741 149.768679 
L 563.24817 154.430353 
L 563.576598 151.380511 
L 563.905027 139.96297 
L 564.233455 154.176319 
L 564.561884 153.707003 
L 565.218741 148.497686 
L 565.547169 148.1649 
L 565.875598 139.319733 
L 566.532455 150.113376 
L 566.860883 161.649906 
L 567.189312 159.189593 
L 567.51774 161.740943 
L 567.846169 154.153523 
L 568.174597 152.347383 
L 568.503026 153.224903 
L 568.831454 138.941491 
L 569.159883 147.524897 
L 569.81674 143.109691 
L 570.145168 158.982139 
L 570.473597 168.285674 
L 570.802025 164.162292 
L 571.130454 163.23848 
L 571.458882 172.75013 
L 571.787311 159.169993 
L 572.115739 159.099493 
L 572.444168 173.287711 
L 572.772596 162.72216 
L 573.101024 168.833167 
L 573.429453 160.553858 
L 573.757881 155.54569 
L 574.743167 179.656511 
L 575.071595 180.894096 
L 575.400024 175.718798 
L 575.728452 193.849732 
L 576.056881 184.185325 
L 576.385309 191.339606 
L 576.713738 190.349005 
L 577.042166 189.936309 
L 577.370595 191.766182 
L 577.699023 186.091153 
L 578.027452 174.74134 
L 578.35588 190.691222 
L 578.684309 193.631164 
L 579.012737 190.268349 
L 579.341166 197.166904 
L 579.669594 189.940397 
L 579.998023 195.498144 
L 580.65488 200.514847 
L 580.983308 195.168179 
L 581.311737 199.214166 
L 581.968594 190.715826 
L 582.297022 174.414671 
L 582.625451 175.360332 
L 582.953879 200.706999 
L 583.282308 196.631967 
L 583.610736 199.055741 
L 583.939165 209.791179 
L 584.267593 193.47586 
L 584.596022 202.308394 
L 584.92445 195.414198 
L 585.252879 184.107597 
L 585.581307 201.109095 
L 585.909736 211.973684 
L 586.238164 199.88132 
L 586.566592 192.026838 
L 586.895021 196.532528 
L 587.223449 194.34771 
L 587.551878 205.078506 
L 587.880306 207.557564 
L 588.208735 205.030328 
L 588.537163 211.194716 
L 588.865592 202.782238 
L 589.19402 197.958285 
L 589.850877 225.239239 
L 590.507734 212.709266 
L 590.836163 217.025776 
L 591.164591 207.875331 
L 591.821448 220.948083 
L 592.149877 219.57091 
L 592.478305 224.0729 
L 592.806734 209.788831 
L 593.463591 196.423773 
L 593.792019 199.400481 
L 594.120448 197.701779 
L 594.448876 209.397743 
L 594.777305 200.996745 
L 595.434162 205.961348 
L 595.76259 198.758702 
L 596.419447 213.093144 
L 596.747876 212.128376 
L 597.076304 210.541698 
L 597.733161 212.113376 
L 598.06159 212.000432 
L 598.390018 228.16477 
L 598.718447 238.420097 
L 599.046875 234.763875 
L 599.046875 234.763875 
" style="fill:none;stroke:#ff7f0e;stroke-linecap:round;stroke-width:1.5;"/>
   </g>
   <g id="line2d_39">
    <path clip-path="url(#pb40ca07ceb)" d="M 41.046875 182.625455 
L 41.375303 180.661818 
L 41.703732 171.236364 
L 42.03216 170.058182 
L 42.360589 159.127273 
L 42.689017 141.912727 
L 43.017446 180.596364 
L 43.345874 189.890909 
L 43.674303 187.534545 
L 44.002731 180.334545 
L 44.33116 177.978182 
L 44.659588 158.341818 
L 45.316445 199.512727 
L 45.644874 210.574545 
L 45.973302 239.243636 
L 46.301731 213.52 
L 46.630159 203.047273 
L 47.287016 154.872727 
L 47.615445 157.949091 
L 47.943873 146.952727 
L 48.272302 156.836364 
L 48.60073 162.269091 
L 48.929159 175.36 
L 49.586016 185.570909 
L 49.914444 198.596364 
L 50.242873 172.610909 
L 50.571301 171.105455 
L 50.89973 156.770909 
L 51.228158 154.283636 
L 51.556587 158.996364 
L 51.885015 147.869091 
L 52.213444 159.061818 
L 53.198729 170.123636 
L 53.527158 146.232727 
L 53.855586 177.978182 
L 54.184014 173.134545 
L 54.840871 113.963636 
L 55.1693 153.432727 
L 55.497728 159.650909 
L 55.826157 147.607273 
L 56.154585 140.669091 
L 56.483014 103.425455 
L 56.811442 133.534545 
L 57.139871 144.138182 
L 57.468299 122.08 
L 57.796728 159.52 
L 58.125156 171.170909 
L 58.453585 154.741818 
L 58.782013 159.52 
L 59.110442 161.810909 
L 59.767299 143.221818 
L 60.095727 141.454545 
L 60.424156 151.861818 
L 60.752584 152.450909 
L 61.081013 169.338182 
L 61.409441 158.669091 
L 61.73787 161.090909 
L 62.066298 137.92 
L 62.394727 151.272727 
L 62.723155 159.454545 
L 63.051584 174.116364 
L 63.380012 166.589091 
L 64.036869 126.334545 
L 64.365298 126.792727 
L 64.693726 126.727273 
L 65.022155 183.345455 
L 65.350583 172.349091 
L 65.679012 178.632727 
L 66.335869 152.778182 
L 66.664297 154.021818 
L 66.992726 120.116364 
L 67.321154 137.723636 
L 67.649582 147.149091 
L 67.978011 115.992727 
L 68.306439 138.901818 
L 68.634868 145.185455 
L 68.963296 124.109091 
L 69.620153 159.389091 
L 69.948582 147.28 
L 70.27701 127.643636 
L 70.605439 163.316364 
L 70.933867 166.196364 
L 71.262296 123.716364 
L 71.590724 141.454545 
L 71.919153 151.796364 
L 72.247581 170.385455 
L 72.57601 158.996364 
L 72.904438 169.272727 
L 73.232867 166.654545 
L 73.561295 135.694545 
L 73.889724 137.527273 
L 74.218152 132.945455 
L 74.546581 152.123636 
L 74.875009 158.538182 
L 75.203438 154.676364 
L 75.531866 156.967273 
L 75.860295 127.447273 
L 76.188723 129.083636 
L 76.517152 138.770909 
L 76.84558 127.970909 
L 77.174009 97.010909 
L 77.502437 159.650909 
L 77.830866 166.916364 
L 78.159294 167.636364 
L 78.487723 148.523636 
L 78.816151 140.734545 
L 79.14458 139.818182 
L 79.473008 143.941818 
L 79.801437 135.694545 
L 80.129865 147.410909 
L 80.458293 138.509091 
L 80.786722 135.170909 
L 81.11515 105.454545 
L 81.443579 161.810909 
L 81.772007 148.589091 
L 82.100436 103.818182 
L 82.428864 129.083636 
L 82.757293 105.323636 
L 83.085721 136.938182 
L 83.41415 119.723636 
L 83.742578 112.981818 
L 84.071007 158.930909 
L 84.399435 155.265455 
L 84.727864 163.447273 
L 85.056292 183.28 
L 85.384721 181.84 
L 86.370006 130.392727 
L 86.698435 125.418182 
L 87.026863 160.567273 
L 87.355292 132.683636 
L 87.68372 161.156364 
L 88.012149 162.923636 
L 88.340577 135.956364 
L 88.669006 118.872727 
L 88.997434 145.381818 
L 89.325863 127.185455 
L 89.98272 172.807273 
L 90.311148 188.778182 
L 90.639577 159.781818 
L 90.968005 141.912727 
L 91.296434 178.763636 
L 91.624862 187.141818 
L 91.953291 188.647273 
L 92.281719 178.96 
L 92.610148 174.312727 
L 92.938576 194.472727 
L 93.923861 155.658182 
L 94.25229 152.909091 
L 94.580718 165.803636 
L 94.909147 170.778182 
L 95.237575 166.654545 
L 95.566004 165.738182 
L 95.894432 163.84 
L 96.222861 157.229091 
L 96.551289 140.930909 
L 96.879718 145.84 
L 97.208146 189.301818 
L 97.536575 188.647273 
L 97.865003 211.687273 
L 98.193432 196.632727 
L 98.52186 139.883636 
L 98.850289 179.810909 
L 99.178717 194.472727 
L 99.835574 238.523636 
L 100.164003 230.014545 
L 100.492431 201.738182 
L 100.82086 221.636364 
L 101.149288 203.570909 
L 101.477717 216.661818 
L 101.806145 242.712727 
L 102.134574 248.210909 
L 102.791431 220.654545 
L 103.119859 190.349091 
L 103.448288 193.425455 
L 103.776716 214.24 
L 104.105145 181.054545 
L 104.433573 202.130909 
L 104.762002 177.650909 
L 105.09043 180.596364 
L 105.418859 188.385455 
L 105.747287 211.883636 
L 106.075715 207.890909 
L 106.404144 211.425455 
L 106.732572 208.349091 
L 107.061001 200.56 
L 107.389429 207.301818 
L 107.717858 222.88 
L 108.374715 233.090909 
L 108.703143 223.992727 
L 109.031572 248.669091 
L 109.36 246.116364 
L 109.688429 253.381818 
L 110.016857 263.854545 
L 110.673714 262.087273 
L 111.002143 252.269091 
L 111.330571 221.374545 
L 111.659 236.756364 
L 111.987428 216.007273 
L 112.315857 227.527273 
L 112.972714 241.403636 
L 113.301142 243.432727 
L 113.957999 209.592727 
L 114.286428 197.876364 
L 114.614856 257.243636 
L 114.943285 224.778182 
L 115.271713 254.232727 
L 115.600142 181.578182 
L 115.92857 226.807273 
L 116.256999 199.054545 
L 116.585427 204.552727 
L 116.913856 238.065455 
L 117.570713 218.494545 
L 117.899141 201.476364 
L 118.22757 237.607273 
L 118.555998 247.556364 
L 118.884427 249.192727 
L 119.541283 206.058182 
L 119.869712 221.047273 
L 120.19814 215.221818 
L 120.526569 224.843636 
L 120.854997 227.92 
L 121.183426 237.018182 
L 121.511854 241.665455 
L 121.840283 226.48 
L 122.168711 228.181818 
L 122.49714 208.349091 
L 122.825568 200.494545 
L 123.153997 234.007273 
L 123.482425 204.487273 
L 123.810854 194.407273 
L 124.139282 202.850909 
L 124.467711 216.989091 
L 124.796139 218.363636 
L 125.124568 232.24 
L 125.452996 227.069091 
L 125.781425 164.952727 
L 126.109853 214.894545 
L 126.438282 187.796364 
L 126.76671 223.141818 
L 127.095139 221.767273 
L 127.423567 225.956364 
L 127.751996 221.374545 
L 128.080424 223.010909 
L 128.408853 203.767273 
L 128.737281 215.68 
L 129.06571 201.410909 
L 129.394138 220.981818 
L 129.722567 231.192727 
L 130.050995 250.174545 
L 130.379424 259.796364 
L 130.707852 247.949091 
L 131.036281 264.247273 
L 131.364709 233.876364 
L 131.693138 221.047273 
L 132.021566 236.036364 
L 132.349994 239.44 
L 132.678423 216.138182 
L 133.006851 238.261818 
L 133.33528 237.738182 
L 133.663708 249.061818 
L 133.992137 265.883636 
L 134.320565 250.24 
L 134.977422 294.225455 
L 135.305851 302.472727 
L 135.634279 318.574545 
L 135.962708 326.625455 
L 136.291136 353.985455 
L 136.619565 337.425455 
L 137.276422 344.101818 
L 137.60485 365.374545 
L 137.933279 307.970909 
L 138.261707 333.76 
L 138.590136 291.607273 
L 138.918564 351.498182 
L 139.246993 354.312727 
L 139.90385 263.134545 
L 140.232278 237.345455 
L 140.560707 236.429091 
L 141.217564 213.650909 
L 141.545992 201.149091 
L 142.202849 261.76 
L 142.859706 194.276364 
L 143.516563 185.178182 
L 144.17342 243.432727 
L 144.501849 219.083636 
L 144.830277 186.290909 
L 145.158705 179.418182 
L 145.487134 183.345455 
L 145.815562 214.894545 
L 146.143991 194.407273 
L 146.800848 216.4 
L 147.129276 245.265455 
L 147.457705 217.578182 
L 147.786133 224.189091 
L 148.114562 224.516364 
L 148.44299 183.738182 
L 148.771419 196.894545 
L 149.099847 189.367273 
L 149.428276 201.607273 
L 149.756704 208.872727 
L 150.085133 220.589091 
L 150.74199 159.061818 
L 151.398847 236.887273 
L 151.727275 196.043636 
L 152.055704 194.014545 
L 152.384132 200.756364 
L 152.712561 201.476364 
L 153.369418 186.225455 
L 153.697846 209.985455 
L 154.354703 159.127273 
L 154.683132 203.112727 
L 155.01156 186.749091 
L 155.339989 233.745455 
L 155.668417 204.683636 
L 155.996846 213.127273 
L 156.325274 197.483636 
L 156.653703 213.258182 
L 156.982131 219.214545 
L 157.31056 243.694545 
L 157.638988 240.421818 
L 157.967416 255.672727 
L 158.295845 193.294545 
L 158.624273 163.84 
L 158.952702 197.68 
L 159.28113 204.290909 
L 159.609559 220.130909 
L 159.937987 195.454545 
L 160.266416 189.105455 
L 160.594844 224.647273 
L 160.923273 209.134545 
L 161.251701 213.323636 
L 161.58013 190.349091 
L 162.236987 192.509091 
L 162.893844 208.218182 
L 163.222272 196.698182 
L 163.550701 158.145455 
L 163.879129 156.509091 
L 164.535986 109.12 
L 164.864415 132.16 
L 165.521272 140.014545 
L 165.8497 133.861818 
L 166.178129 174.705455 
L 166.506557 153.825455 
L 166.834986 198.727273 
L 167.163414 196.305455 
L 167.491843 185.701818 
L 168.477128 106.829091 
L 169.133985 201.738182 
L 169.462414 202.654545 
L 169.790842 173.92 
L 170.119271 202.130909 
L 170.447699 205.076364 
L 170.776128 194.472727 
L 171.104556 152.123636 
L 171.432984 135.956364 
L 171.761413 112.785455 
L 172.089841 113.898182 
L 172.41827 113.898182 
L 172.746698 112 
L 173.403555 155.854545 
L 173.731984 147.869091 
L 174.060412 148.523636 
L 174.388841 142.043636 
L 174.717269 155.396364 
L 175.045698 157.949091 
L 175.374126 157.818182 
L 175.702555 173.92 
L 176.030983 184.261818 
L 176.359412 171.956364 
L 176.68784 165.607273 
L 177.016269 201.607273 
L 177.673126 123.585455 
L 178.001554 138.574545 
L 178.329983 161.876364 
L 178.658411 144.661818 
L 178.98684 173.396364 
L 179.315268 144.465455 
L 179.643697 169.665455 
L 179.972125 176.407273 
L 180.300554 132.029091 
L 180.628982 136.218182 
L 180.957411 145.578182 
L 181.285839 125.68 
L 181.942696 140.014545 
L 182.271125 139.687273 
L 182.599553 160.370909 
L 182.927982 152.385455 
L 183.25641 162.072727 
L 183.584839 163.774545 
L 183.913267 170.647273 
L 184.570124 104.603636 
L 184.898552 88.829091 
L 185.555409 132.487273 
L 185.883838 143.418182 
L 186.212266 122.276364 
L 186.540695 113.047273 
L 186.869123 132.356364 
L 187.197552 122.669091 
L 187.52598 128.887273 
L 187.854409 126.792727 
L 188.182837 135.170909 
L 188.511266 138.050909 
L 188.839694 144.4 
L 189.168123 176.014545 
L 189.496551 135.563636 
L 189.82498 159.061818 
L 190.153408 148.196364 
L 190.481837 153.76 
L 190.810265 144.661818 
L 191.138694 118.349091 
L 191.467122 154.807273 
L 191.795551 152.32 
L 192.123979 165.28 
L 192.452408 170.32 
L 193.109265 105.912727 
L 193.437693 85.36 
L 193.766122 104.08 
L 194.09455 88.632727 
L 194.751407 140.341818 
L 195.079836 150.029091 
L 195.408264 142.894545 
L 195.736693 107.549091 
L 196.065121 104.865455 
L 196.39355 127.774545 
L 196.721978 126.007273 
L 197.050406 120.705455 
L 197.707263 142.109091 
L 198.035692 141.912727 
L 198.36412 135.825455 
L 198.692549 145.774545 
L 199.020977 164.232727 
L 199.349406 140.407273 
L 199.677834 137.723636 
L 200.006263 137.527273 
L 200.334691 119.789091 
L 200.66312 151.272727 
L 201.319977 119.003636 
L 201.648405 88.632727 
L 201.976834 83.003636 
L 202.305262 96.16 
L 202.633691 135.170909 
L 202.962119 141.847273 
L 203.290548 122.603636 
L 203.618976 115.338182 
L 203.947405 147.476364 
L 204.275833 156.770909 
L 204.604262 112.261818 
L 204.93269 115.272727 
L 205.261119 143.090909 
L 205.917976 165.018182 
L 206.574833 141.978182 
L 206.903261 153.956364 
L 207.23169 155.330909 
L 207.560118 184.72 
L 207.888547 147.018182 
L 208.216975 141.781818 
L 208.545404 114.88 
L 209.202261 147.738182 
L 209.530689 177.127273 
L 209.859117 196.24 
L 210.187546 154.021818 
L 210.515974 170.516364 
L 210.844403 170.123636 
L 211.172831 155.789091 
L 211.50126 165.214545 
L 211.829688 186.487273 
L 212.158117 193.752727 
L 212.486545 165.149091 
L 212.814974 199.578182 
L 213.143402 171.563636 
L 213.471831 156.443636 
L 213.800259 155.396364 
L 214.128688 145.578182 
L 214.457116 162.334545 
L 214.785545 186.749091 
L 215.113973 183.869091 
L 215.442402 197.025455 
L 215.77083 167.570909 
L 216.099259 179.876364 
L 216.427687 137.461818 
L 216.756116 195.716364 
L 217.084544 136.48 
L 217.412973 183.541818 
L 218.06983 198.727273 
L 218.398258 216.269091 
L 218.726687 209.658182 
L 219.055115 214.698182 
L 219.383544 186.88 
L 219.711972 188.712727 
L 220.040401 188.058182 
L 220.368829 215.221818 
L 220.697258 186.945455 
L 221.025686 170.712727 
L 221.354115 173.789091 
L 221.682543 169.076364 
L 222.010972 171.367273 
L 222.3394 182.036364 
L 222.667829 174.967273 
L 222.996257 191.527273 
L 223.324685 191.592727 
L 223.653114 190.676364 
L 223.981542 242.123636 
L 224.309971 233.810909 
L 224.638399 262.545455 
L 224.966828 235.316364 
L 225.295256 225.105455 
L 225.623685 229.556364 
L 225.952113 176.996364 
L 226.280542 196.96 
L 226.937399 179.483636 
L 227.265827 206.909091 
L 227.594256 202.458182 
L 227.922684 183.934545 
L 228.251113 191.069091 
L 228.579541 211.687273 
L 228.90797 195.192727 
L 229.236398 192.247273 
L 229.564827 215.810909 
L 229.893255 248.341818 
L 230.221684 250.370909 
L 230.550112 246.181818 
L 230.878541 231.454545 
L 231.206969 245.461818 
L 231.535398 202.327273 
L 231.863826 222.88 
L 232.192255 205.534545 
L 232.849112 232.698182 
L 233.17754 198.072727 
L 233.505969 200.167273 
L 233.834397 196.305455 
L 234.162826 184.130909 
L 234.819683 219.018182 
L 235.148111 236.56 
L 235.47654 260.189091 
L 235.804968 254.036364 
L 236.133396 239.505455 
L 236.461825 240.88 
L 236.790253 224.647273 
L 237.118682 262.610909 
L 237.44711 265.883636 
L 237.775539 291.803636 
L 238.103967 292.458182 
L 238.432396 231.716364 
L 238.760824 246.509091 
L 239.089253 276.683636 
L 239.417681 272.363636 
L 239.74611 261.890909 
L 240.074538 228.116364 
L 240.402967 213.389091 
L 240.731395 224.189091 
L 241.388252 219.476364 
L 241.716681 232.174545 
L 242.045109 238.72 
L 242.373538 248.734545 
L 243.358823 158.538182 
L 243.687252 182.56 
L 244.672537 220.458182 
L 245.000966 198.858182 
L 245.329394 199.905455 
L 245.657823 204.88 
L 245.986251 217.84 
L 246.31468 223.927273 
L 246.643108 183.214545 
L 246.971537 184.523636 
L 247.299965 199.185455 
L 247.628394 198.334545 
L 247.956822 213.258182 
L 248.285251 205.927273 
L 248.613679 216.007273 
L 248.942107 248.08 
L 249.270536 260.058182 
L 249.598964 287.876364 
L 249.927393 275.570909 
L 250.255821 267.52 
L 250.58425 267.061818 
L 250.912678 273.607273 
L 251.241107 262.283636 
L 251.569535 285.650909 
L 251.897964 290.690909 
L 252.226392 285.258182 
L 252.883249 292.261818 
L 253.211678 289.381818 
L 253.540106 279.694545 
L 253.868535 293.570909 
L 254.196963 266.210909 
L 254.525392 226.610909 
L 254.85382 220.72 
L 255.182249 190.610909 
L 255.510677 194.734545 
L 256.167534 218.625455 
L 256.495963 243.236364 
L 257.15282 214.763636 
L 257.481248 240.356364 
L 257.809677 245.92 
L 258.138105 246.967273 
L 258.466534 260.450909 
L 258.794962 263.723636 
L 259.123391 282.378182 
L 259.451819 258.16 
L 259.780248 256.916364 
L 260.108676 278.32 
L 260.437105 243.563636 
L 260.765533 246.312727 
L 261.093962 232.501818 
L 261.42239 239.767273 
L 261.750818 242.254545 
L 262.079247 251.287273 
L 262.407675 266.538182 
L 262.736104 275.374545 
L 263.064532 273.803636 
L 263.392961 261.498182 
L 263.721389 243.04 
L 264.049818 238.916364 
L 264.378246 246.443636 
L 264.706675 243.432727 
L 265.035103 239.047273 
L 265.363532 239.636364 
L 265.69196 258.225455 
L 266.020389 235.578182 
L 266.348817 234.4 
L 266.677246 227.134545 
L 267.005674 229.229091 
L 267.334103 208.676364 
L 267.662531 242.974545 
L 267.99096 232.501818 
L 268.319388 271.512727 
L 268.976245 279.498182 
L 269.304674 317.003636 
L 269.633102 269.287273 
L 269.961531 295.338182 
L 270.289959 241.207273 
L 270.618388 224.254545 
L 270.946816 248.538182 
L 271.275245 237.672727 
L 271.603673 238 
L 271.932102 252.923636 
L 272.26053 262.676364 
L 272.588959 293.047273 
L 272.917387 277.927273 
L 273.902673 258.749091 
L 274.231101 247.032727 
L 274.55953 249.978182 
L 274.887958 256.785455 
L 275.216386 256.130909 
L 275.544815 247.294545 
L 275.873243 244.807273 
L 276.201672 246.836364 
L 276.5301 238.981818 
L 276.858529 238.654545 
L 277.186957 244.872727 
L 277.515386 255.869091 
L 277.843814 209.461818 
L 278.172243 221.309091 
L 278.8291 163.970909 
L 279.157528 182.625455 
L 279.485957 194.145455 
L 279.814385 167.44 
L 280.142814 151.6 
L 280.471242 154.741818 
L 280.799671 153.629091 
L 281.128099 157.229091 
L 281.456528 182.494545 
L 281.784956 188.450909 
L 282.113385 181.316364 
L 282.441813 182.690909 
L 282.770242 164.363636 
L 283.09867 159.192727 
L 283.427099 158.210909 
L 283.755527 171.956364 
L 284.083956 213.978182 
L 284.412384 191.396364 
L 284.740813 184.130909 
L 285.069241 195.454545 
L 285.39767 173.2 
L 285.726098 173.2 
L 286.054527 185.178182 
L 286.382955 170.516364 
L 286.711384 169.141818 
L 287.039812 146.56 
L 287.368241 153.367273 
L 287.696669 147.869091 
L 288.025097 152.974545 
L 288.353526 155.330909 
L 289.010383 202.130909 
L 289.338811 170.778182 
L 289.66724 170.581818 
L 289.995668 158.669091 
L 290.324097 138.574545 
L 290.652525 147.410909 
L 290.980954 171.629091 
L 291.309382 169.076364 
L 291.637811 172.938182 
L 291.966239 171.629091 
L 292.294668 194.996364 
L 292.623096 208.872727 
L 292.951525 197.614545 
L 293.279953 205.534545 
L 293.608382 183.672727 
L 293.93681 189.04 
L 294.265239 171.890909 
L 294.593667 175.687273 
L 294.922096 161.221818 
L 295.250524 154.676364 
L 295.578953 170.058182 
L 295.907381 194.734545 
L 296.23581 166.130909 
L 296.564238 149.505455 
L 296.892667 176.603636 
L 297.221095 151.141818 
L 297.549524 139.032727 
L 297.877952 137.723636 
L 298.534809 167.309091 
L 298.863238 155.2 
L 299.191666 135.105455 
L 299.848523 165.149091 
L 300.176952 138.705455 
L 300.50538 146.756364 
L 301.490665 68.865455 
L 301.819094 120.181818 
L 302.147522 136.087273 
L 302.475951 135.367273 
L 303.132808 151.665455 
L 303.461236 174.509091 
L 303.789665 170.581818 
L 304.118093 176.669091 
L 304.446522 153.825455 
L 304.77495 172.152727 
L 305.103379 147.345455 
L 305.431807 131.832727 
L 305.760236 137.265455 
L 306.088664 135.956364 
L 306.417093 132.225455 
L 306.745521 131.898182 
L 307.07395 137.985455 
L 307.402378 138.116364 
L 307.730807 134.32 
L 308.059235 128.56 
L 308.387664 147.934545 
L 308.716092 145.12 
L 309.044521 151.665455 
L 309.372949 143.941818 
L 309.701378 144.465455 
L 310.029806 141.192727 
L 310.686663 126.465455 
L 311.015092 126.334545 
L 311.34352 119.003636 
L 311.671949 133.076364 
L 312.000377 121.621818 
L 312.328806 118.48 
L 312.657234 110.232727 
L 312.985663 127.250909 
L 313.314091 108.203636 
L 313.642519 105.52 
L 313.970948 96.618182 
L 314.627805 133.403636 
L 314.956233 124.174545 
L 315.284662 137.854545 
L 315.61309 111.541818 
L 315.941519 99.825455 
L 316.269947 95.898182 
L 316.598376 122.341818 
L 316.926804 101.789091 
L 317.255233 135.498182 
L 317.583661 106.632727 
L 317.91209 134.058182 
L 318.240518 148 
L 318.568947 130.916364 
L 318.897375 165.803636 
L 319.225804 161.810909 
L 319.554232 159.978182 
L 319.882661 173.330909 
L 320.539518 135.04 
L 321.196375 121.490909 
L 321.524803 146.690909 
L 321.853232 144.465455 
L 322.18166 152.647273 
L 322.510089 146.363636 
L 323.166946 124.370909 
L 323.495374 145.381818 
L 323.823803 145.512727 
L 324.152231 158.603636 
L 324.48066 152.647273 
L 324.809088 150.683636 
L 325.137517 137.2 
L 325.465945 147.803636 
L 325.794374 152.189091 
L 326.122802 126.923636 
L 326.451231 127.185455 
L 326.779659 135.04 
L 327.108087 121.098182 
L 327.436516 115.861818 
L 327.764944 116.647273 
L 328.093373 154.48 
L 328.421801 176.865455 
L 329.407087 170.123636 
L 329.735515 154.807273 
L 330.063944 148.327273 
L 330.720801 176.276364 
L 331.049229 185.636364 
L 331.377658 187.010909 
L 331.706086 170.058182 
L 332.034515 162.727273 
L 332.362943 181.12 
L 332.691372 147.869091 
L 333.0198 145.709091 
L 333.676657 159.454545 
L 334.005086 195.454545 
L 334.333514 214.436364 
L 334.661943 180.203636 
L 334.990371 195.716364 
L 335.3188 188.450909 
L 335.975657 213.650909 
L 336.304085 200.952727 
L 336.632514 167.701818 
L 336.960942 168.814545 
L 337.617799 155.396364 
L 337.946228 163.512727 
L 338.274656 157.556364 
L 338.603085 202.458182 
L 338.931513 207.825455 
L 339.259942 200.494545 
L 339.58837 224.32 
L 339.916798 175.818182 
L 340.573655 201.083636 
L 340.902084 172.349091 
L 341.230512 199.381818 
L 341.558941 149.898182 
L 341.887369 149.832727 
L 342.215798 166.196364 
L 342.544226 128.429091 
L 342.872655 140.8 
L 343.201083 185.309091 
L 343.529512 147.28 
L 343.85794 133.534545 
L 344.186369 160.24 
L 344.514797 149.374545 
L 345.171654 230.865455 
L 345.500083 228.705455 
L 346.15694 161.68 
L 346.485368 196.305455 
L 346.813797 198.203636 
L 347.142225 210.64 
L 347.470654 190.741818 
L 347.799082 152.450909 
L 348.455939 214.109091 
L 348.784368 215.68 
L 349.112796 241.534545 
L 349.441225 218.952727 
L 349.769653 239.047273 
L 350.098082 230.407273 
L 350.42651 227.854545 
L 350.754939 243.694545 
L 351.411796 204.16 
L 351.740224 213.323636 
L 352.068653 233.810909 
L 353.053938 212.407273 
L 353.382366 246.378182 
L 353.710795 249.061818 
L 354.039223 270.858182 
L 354.69608 211.098182 
L 355.024509 221.636364 
L 355.352937 219.345455 
L 355.681366 203.767273 
L 356.009794 250.501818 
L 356.338223 257.963636 
L 356.666651 219.410909 
L 356.99508 237.410909 
L 357.323508 242.581818 
L 357.980365 195.389091 
L 358.308794 195.585455 
L 358.637222 208.48 
L 359.294079 245.92 
L 359.622508 255.149091 
L 359.950936 229.556364 
L 360.279365 238.327273 
L 360.607793 202.916364 
L 360.936222 238.981818 
L 361.26465 224.32 
L 361.593079 202 
L 361.921507 230.996364 
L 362.249936 216.4 
L 362.578364 179.287273 
L 362.906793 185.832727 
L 363.235221 188.123636 
L 363.56365 205.665455 
L 363.892078 204.618182 
L 364.548935 194.996364 
L 364.877364 231.061818 
L 365.205792 241.6 
L 365.53422 242.909091 
L 365.862649 228.312727 
L 366.519506 175.36 
L 367.176363 229.621818 
L 367.504791 184.065455 
L 367.83322 173.789091 
L 368.161648 206.909091 
L 368.490077 193.294545 
L 368.818505 223.992727 
L 369.146934 220.916364 
L 369.475362 257.374545 
L 369.803791 225.890909 
L 370.132219 224.450909 
L 370.460648 234.334545 
L 370.789076 201.738182 
L 371.445933 244.938182 
L 371.774362 233.810909 
L 372.10279 250.501818 
L 372.431219 248.930909 
L 372.759647 263.527273 
L 373.088076 251.876364 
L 373.416504 279.170909 
L 373.744933 293.374545 
L 374.40179 241.469091 
L 374.730218 254.756364 
L 375.058647 263.003636 
L 375.387075 265.032727 
L 376.043932 222.225455 
L 376.372361 238.654545 
L 376.700789 245.069091 
L 377.029218 243.956364 
L 377.357646 231.061818 
L 377.686075 204.225455 
L 378.014503 200.167273 
L 378.342932 209.2 
L 378.67136 226.676364 
L 378.999788 211.818182 
L 379.328217 232.305455 
L 379.656645 217.84 
L 379.985074 210.181818 
L 380.313502 195.716364 
L 380.641931 193.752727 
L 380.970359 221.832727 
L 381.298788 234.465455 
L 381.627216 209.396364 
L 382.284073 214.698182 
L 382.612502 219.541818 
L 382.94093 212.669091 
L 383.269359 231.323636 
L 383.597787 214.763636 
L 383.926216 217.643636 
L 384.254644 197.745455 
L 384.583073 212.538182 
L 384.911501 236.298182 
L 385.23993 226.283636 
L 385.568358 233.68 
L 385.896787 217.970909 
L 386.225215 218.494545 
L 386.553644 223.403636 
L 386.882072 230.930909 
L 387.210501 213.781818 
L 387.538929 227.461818 
L 387.867358 211.556364 
L 388.195786 213.258182 
L 388.524215 217.12 
L 388.852643 218.625455 
L 389.181072 210.967273 
L 389.5095 198.530909 
L 389.837929 194.145455 
L 390.166357 178.501818 
L 390.494786 183.607273 
L 390.823214 181.512727 
L 391.151643 173.069091 
L 391.480071 142.567273 
L 391.808499 190.152727 
L 392.136928 191.985455 
L 392.465356 227.003636 
L 392.793785 234.203636 
L 393.122213 244.021818 
L 393.450642 197.876364 
L 393.77907 194.930909 
L 394.107499 204.749091 
L 394.764356 187.6 
L 395.092784 189.825455 
L 395.421213 178.894545 
L 395.749641 175.294545 
L 396.07807 154.48 
L 396.406498 173.723636 
L 396.734927 178.763636 
L 397.063355 176.538182 
L 397.391784 149.570909 
L 397.720212 204.290909 
L 398.048641 186.356364 
L 398.377069 188.909091 
L 398.705498 180.727273 
L 399.033926 166.589091 
L 399.362355 178.829091 
L 399.690783 222.749091 
L 400.019212 216.4 
L 400.34764 232.96 
L 400.676069 199.381818 
L 401.004497 223.403636 
L 401.332926 173.92 
L 401.661354 179.876364 
L 401.989783 177.912727 
L 402.318211 171.629091 
L 402.64664 170.712727 
L 402.975068 162.203636 
L 403.303497 148.458182 
L 403.631925 165.738182 
L 403.960354 164.036364 
L 404.288782 157.621818 
L 404.61721 175.032727 
L 404.945639 166.850909 
L 405.274067 173.069091 
L 405.602496 215.483636 
L 405.930924 221.636364 
L 406.259353 216.989091 
L 406.587781 185.767273 
L 406.91621 142.567273 
L 407.244638 169.861818 
L 407.573067 164.56 
L 407.901495 189.629091 
L 408.229924 169.010909 
L 408.558352 189.76 
L 408.886781 189.956364 
L 409.215209 186.225455 
L 409.543638 197.221818 
L 410.200495 163.84 
L 410.528923 171.563636 
L 410.857352 175.556364 
L 411.842637 115.207273 
L 412.171066 111.214545 
L 412.499494 156.705455 
L 412.827923 159.847273 
L 413.156351 155.592727 
L 413.48478 122.276364 
L 414.141637 180.203636 
L 414.470065 190.741818 
L 414.798494 186.618182 
L 415.126922 174.181818 
L 415.455351 170.058182 
L 416.440636 153.105455 
L 416.769065 169.403636 
L 417.425921 110.494545 
L 417.75435 101.003636 
L 418.411207 90.661818 
L 419.068064 148.589091 
L 419.396492 147.672727 
L 419.724921 172.741818 
L 420.381778 160.829091 
L 420.710206 159.912727 
L 421.038635 153.825455 
L 421.367063 162.727273 
L 421.695492 164.232727 
L 422.352349 152.450909 
L 422.680777 156.705455 
L 423.337634 170.32 
L 423.666063 175.687273 
L 423.994491 135.04 
L 424.32292 136.349091 
L 424.651348 162.596364 
L 424.979777 169.927273 
L 425.308205 157.949091 
L 425.636634 160.567273 
L 426.293491 102.967273 
L 426.621919 114.421818 
L 426.950348 92.429091 
L 427.278776 125.876364 
L 427.935633 150.16 
L 428.264062 141.258182 
L 428.59249 141.389091 
L 428.920919 151.927273 
L 429.577776 127.185455 
L 429.906204 117.301818 
L 430.234633 121.818182 
L 430.563061 122.472727 
L 430.891489 107.025455 
L 431.219918 99.629091 
L 431.548346 83.265455 
L 431.876775 106.567273 
L 432.205203 102.705455 
L 432.533632 111.476364 
L 432.86206 140.341818 
L 433.190489 132.618182 
L 433.518917 131.309091 
L 433.847346 131.963636 
L 434.175774 101.592727 
L 434.504203 114.683636 
L 434.832631 122.603636 
L 435.16106 138.705455 
L 435.489488 116.32 
L 435.817917 118.48 
L 436.146345 121.621818 
L 436.474774 142.043636 
L 436.803202 146.821818 
L 437.131631 139.687273 
L 437.460059 141.454545 
L 437.788488 113.963636 
L 438.116916 139.098182 
L 438.445345 120.378182 
L 438.773773 144.530909 
L 439.759059 154.218182 
L 440.087487 157.163636 
L 440.415916 157.032727 
L 440.744344 145.578182 
L 441.072773 164.756364 
L 441.401201 170.058182 
L 441.72963 173.069091 
L 442.058058 178.24 
L 442.386487 158.08 
L 443.043344 180.203636 
L 443.371772 161.352727 
L 443.7002 162.072727 
L 444.028629 176.996364 
L 444.357057 143.156364 
L 444.685486 144.989091 
L 445.013914 144.334545 
L 445.342343 158.538182 
L 445.670771 148.72 
L 445.9992 165.869091 
L 446.327628 141.585455 
L 446.656057 155.396364 
L 446.984485 126.334545 
L 447.312914 132.749091 
L 447.641342 130.392727 
L 447.969771 135.04 
L 448.298199 154.938182 
L 448.626628 165.018182 
L 448.955056 158.276364 
L 449.283485 144.138182 
L 449.611913 141.323636 
L 449.940342 144.792727 
L 450.26877 143.483636 
L 450.597199 138.705455 
L 450.925627 149.570909 
L 451.254056 133.469091 
L 451.582484 143.221818 
L 452.239341 168.749091 
L 452.56777 178.109091 
L 452.896198 195.258182 
L 453.224627 195.258182 
L 453.553055 160.436364 
L 453.881484 148.327273 
L 454.209912 176.472727 
L 454.866769 145.905455 
L 455.195198 140.145455 
L 455.523626 162.138182 
L 455.852055 156.574545 
L 456.180483 176.8 
L 456.508911 180.989091 
L 456.83734 175.098182 
L 457.165768 173.330909 
L 457.822625 127.709091 
L 458.151054 125.810909 
L 458.479482 151.141818 
L 458.807911 161.352727 
L 459.136339 153.301818 
L 459.464768 154.676364 
L 460.121625 178.436364 
L 460.450053 162.334545 
L 460.778482 171.825455 
L 461.10691 167.963636 
L 461.435339 127.643636 
L 461.763767 181.12 
L 462.092196 190.349091 
L 462.420624 188.450909 
L 462.749053 190.48 
L 463.077481 202.130909 
L 463.40591 181.185455 
L 463.734338 171.170909 
L 464.062767 213.650909 
L 464.391195 225.890909 
L 464.719624 216.007273 
L 465.048052 177.716364 
L 465.376481 175.36 
L 465.704909 185.570909 
L 466.033338 168.029091 
L 467.018623 190.938182 
L 467.347052 209.789091 
L 467.67548 192.378182 
L 468.003909 226.48 
L 468.332337 223.665455 
L 468.660766 198.989091 
L 468.989194 203.832727 
L 469.317622 200.363636 
L 469.646051 188.32 
L 469.974479 201.410909 
L 470.302908 194.210909 
L 470.631336 204.683636 
L 470.959765 189.563636 
L 471.288193 210.705455 
L 471.616622 209.985455 
L 471.94505 213.716364 
L 472.273479 212.341818 
L 472.601907 221.178182 
L 472.930336 204.356364 
L 473.258764 237.149091 
L 473.587193 230.930909 
L 473.915621 238.523636 
L 474.24405 222.945455 
L 475.229335 239.112727 
L 475.557764 257.636364 
L 475.886192 263.396364 
L 476.214621 256.654545 
L 476.871478 228.247273 
L 477.528335 222.749091 
L 477.856763 260.385455 
L 478.185192 246.64 
L 478.51362 225.432727 
L 478.842049 221.178182 
L 479.170477 180.727273 
L 479.498906 226.872727 
L 479.827334 232.436364 
L 480.155763 208.872727 
L 480.484191 220.981818 
L 480.81262 204.552727 
L 481.141048 157.163636 
L 481.469477 206.516364 
L 481.797905 220.327273 
L 482.454762 179.876364 
L 482.78319 180.530909 
L 483.111619 208.283636 
L 483.440047 226.283636 
L 483.768476 270.858182 
L 484.096904 271.970909 
L 484.425333 262.545455 
L 484.753761 275.309091 
L 485.08219 232.109091 
L 485.410618 228.64 
L 485.739047 230.538182 
L 486.067475 217.709091 
L 486.395904 231.258182 
L 486.724332 225.563636 
L 487.052761 241.141818 
L 487.381189 235.709091 
L 487.709618 241.469091 
L 488.366475 191.2 
L 488.694903 216.465455 
L 489.023332 215.025455 
L 489.680189 176.603636 
L 490.008617 234.923636 
L 490.337046 195.52 
L 490.665474 211.163636 
L 490.993903 246.64 
L 491.322331 253.774545 
L 491.65076 237.803636 
L 491.979188 244.610909 
L 492.307617 254.167273 
L 492.636045 250.698182 
L 492.964474 254.298182 
L 493.292902 240.618182 
L 493.949759 229.490909 
L 494.278188 227.854545 
L 494.606616 223.665455 
L 494.935045 230.603636 
L 495.263473 245.723636 
L 495.92033 253.447273 
L 496.248758 242.058182 
L 496.577187 246.509091 
L 496.905615 257.047273 
L 497.234044 258.945455 
L 497.562472 269.68 
L 497.890901 230.472727 
L 498.219329 242.581818 
L 498.547758 216.4 
L 498.876186 215.287273 
L 499.204615 257.570909 
L 499.533043 255.345455 
L 499.861472 254.101818 
L 500.1899 253.709091 
L 500.518329 229.36 
L 500.846757 246.770909 
L 501.175186 233.352727 
L 501.503614 253.84 
L 501.832043 261.694545 
L 502.160471 205.469091 
L 502.4889 239.047273 
L 502.817328 252.334545 
L 503.145757 228.443636 
L 503.474185 227.134545 
L 503.802614 251.287273 
L 504.131042 234.923636 
L 504.459471 233.876364 
L 504.787899 240.88 
L 505.116328 204.749091 
L 505.444756 224.581818 
L 505.773185 227.265455 
L 506.75847 214.894545 
L 507.086899 212.669091 
L 507.415327 197.549091 
L 507.743756 232.829091 
L 508.072184 211.36 
L 508.400612 208.283636 
L 508.729041 232.109091 
L 509.057469 235.578182 
L 509.385898 225.563636 
L 509.714326 224.123636 
L 510.042755 196.501818 
L 510.371183 188.974545 
L 511.02804 229.490909 
L 511.356469 235.970909 
L 511.684897 219.149091 
L 512.013326 254.298182 
L 512.341754 221.832727 
L 512.670183 226.218182 
L 512.998611 176.8 
L 513.32704 202.196364 
L 513.655468 204.618182 
L 513.983897 189.76 
L 514.312325 190.414545 
L 514.640754 218.167273 
L 514.969182 216.465455 
L 515.297611 232.24 
L 515.626039 226.414545 
L 515.954468 244.938182 
L 516.939753 215.549091 
L 517.268182 194.341818 
L 517.59661 189.956364 
L 517.925039 189.498182 
L 518.253467 179.614545 
L 518.581896 158.276364 
L 518.910324 173.396364 
L 519.238753 220.261818 
L 519.567181 159.127273 
L 519.89561 143.876364 
L 520.224038 185.701818 
L 520.552467 203.767273 
L 520.880895 230.145455 
L 521.209323 207.04 
L 521.537752 170.712727 
L 521.86618 174.64 
L 522.194609 220.261818 
L 522.851466 174.64 
L 523.179894 154.021818 
L 523.836751 206.32 
L 524.16518 213.781818 
L 524.493608 188.385455 
L 525.150465 195.389091 
L 525.478894 188.254545 
L 525.807322 156.574545 
L 526.464179 143.287273 
L 526.792608 172.218182 
L 527.121036 189.04 
L 527.449465 148.392727 
L 528.106322 186.749091 
L 528.43475 140.472727 
L 528.763179 157.294545 
L 529.091607 157.490909 
L 529.420036 183.018182 
L 529.748464 186.16 
L 530.076893 164.625455 
L 530.405321 187.076364 
L 530.73375 147.476364 
L 531.390607 187.796364 
L 531.719035 194.734545 
L 532.375892 158.014545 
L 532.704321 155.330909 
L 533.361178 181.970909 
L 533.361178 181.970909 
" style="fill:none;stroke:#2ca02c;stroke-linecap:round;stroke-width:1.5;"/>
   </g>
   <g id="patch_3">
    <path d="M 41.046875 380.2 
L 41.046875 54.04 
" style="fill:none;stroke:#cccccc;stroke-linecap:square;stroke-linejoin:miter;"/>
   </g>
   <g id="patch_4">
    <path d="M 599.046875 380.2 
L 599.046875 54.04 
" style="fill:none;stroke:#cccccc;stroke-linecap:square;stroke-linejoin:miter;"/>
   </g>
   <g id="patch_5">
    <path d="M 41.046875 380.2 
L 599.046875 380.2 
" style="fill:none;stroke:#cccccc;stroke-linecap:square;stroke-linejoin:miter;"/>
   </g>
   <g id="patch_6">
    <path d="M 41.046875 54.04 
L 599.046875 54.04 
" style="fill:none;stroke:#cccccc;stroke-linecap:square;stroke-linejoin:miter;"/>
   </g>
  </g>
  <g id="legend_1">
   <g id="line2d_40">
    <path d="M 604.576562 12.657813 
L 624.576562 12.657813 
" style="fill:none;stroke:#1f77b4;stroke-linecap:round;stroke-width:1.5;"/>
   </g>
   <g id="line2d_41"/>
   <g id="text_12">
    <!-- ARIMA -->
    <g style="fill:#262626;" transform="translate(632.576562 16.157813)scale(0.1 -0.1)">
     <defs>
      <path d="M -0.140625 0 
L 27.34375 71.578125 
L 37.546875 71.578125 
L 66.84375 0 
L 56.0625 0 
L 47.703125 21.6875 
L 17.78125 21.6875 
L 9.90625 0 
z
M 20.515625 29.390625 
L 44.78125 29.390625 
L 37.3125 49.21875 
Q 33.890625 58.25 32.234375 64.0625 
Q 30.859375 57.171875 28.375 50.390625 
z
" id="ArialMT-65"/>
      <path d="M 7.859375 0 
L 7.859375 71.578125 
L 39.59375 71.578125 
Q 49.171875 71.578125 54.140625 69.640625 
Q 59.125 67.71875 62.109375 62.828125 
Q 65.09375 57.953125 65.09375 52.046875 
Q 65.09375 44.4375 60.15625 39.203125 
Q 55.21875 33.984375 44.921875 32.5625 
Q 48.6875 30.765625 50.640625 29 
Q 54.78125 25.203125 58.5 19.484375 
L 70.953125 0 
L 59.03125 0 
L 49.5625 14.890625 
Q 45.40625 21.34375 42.71875 24.75 
Q 40.046875 28.171875 37.921875 29.53125 
Q 35.796875 30.90625 33.59375 31.453125 
Q 31.984375 31.78125 28.328125 31.78125 
L 17.328125 31.78125 
L 17.328125 0 
z
M 17.328125 39.984375 
L 37.703125 39.984375 
Q 44.1875 39.984375 47.84375 41.328125 
Q 51.515625 42.671875 53.421875 45.625 
Q 55.328125 48.578125 55.328125 52.046875 
Q 55.328125 57.125 51.640625 60.390625 
Q 47.953125 63.671875 39.984375 63.671875 
L 17.328125 63.671875 
z
" id="ArialMT-82"/>
      <path d="M 9.328125 0 
L 9.328125 71.578125 
L 18.796875 71.578125 
L 18.796875 0 
z
" id="ArialMT-73"/>
      <path d="M 7.421875 0 
L 7.421875 71.578125 
L 21.6875 71.578125 
L 38.625 20.90625 
Q 40.96875 13.8125 42.046875 10.296875 
Q 43.265625 14.203125 45.84375 21.78125 
L 62.984375 71.578125 
L 75.734375 71.578125 
L 75.734375 0 
L 66.609375 0 
L 66.609375 59.90625 
L 45.796875 0 
L 37.25 0 
L 16.546875 60.9375 
L 16.546875 0 
z
" id="ArialMT-77"/>
     </defs>
     <use xlink:href="#ArialMT-65"/>
     <use x="66.699219" xlink:href="#ArialMT-82"/>
     <use x="138.916016" xlink:href="#ArialMT-73"/>
     <use x="166.699219" xlink:href="#ArialMT-77"/>
     <use x="250" xlink:href="#ArialMT-65"/>
    </g>
   </g>
   <g id="line2d_42">
    <path d="M 604.576562 26.803125 
L 624.576562 26.803125 
" style="fill:none;stroke:#ff7f0e;stroke-linecap:round;stroke-width:1.5;"/>
   </g>
   <g id="line2d_43"/>
   <g id="text_13">
    <!-- np -->
    <g style="fill:#262626;" transform="translate(632.576562 30.303125)scale(0.1 -0.1)">
     <defs>
      <path d="M 6.59375 0 
L 6.59375 51.859375 
L 14.5 51.859375 
L 14.5 44.484375 
Q 20.21875 53.03125 31 53.03125 
Q 35.6875 53.03125 39.625 51.34375 
Q 43.5625 49.65625 45.515625 46.921875 
Q 47.46875 44.1875 48.25 40.4375 
Q 48.734375 37.984375 48.734375 31.890625 
L 48.734375 0 
L 39.9375 0 
L 39.9375 31.546875 
Q 39.9375 36.921875 38.90625 39.578125 
Q 37.890625 42.234375 35.28125 43.8125 
Q 32.671875 45.40625 29.15625 45.40625 
Q 23.53125 45.40625 19.453125 41.84375 
Q 15.375 38.28125 15.375 28.328125 
L 15.375 0 
z
" id="ArialMT-110"/>
     </defs>
     <use xlink:href="#ArialMT-110"/>
     <use x="55.615234" xlink:href="#ArialMT-112"/>
    </g>
   </g>
   <g id="line2d_44">
    <path d="M 604.576562 40.948438 
L 624.576562 40.948438 
" style="fill:none;stroke:#2ca02c;stroke-linecap:round;stroke-width:1.5;"/>
   </g>
   <g id="line2d_45"/>
   <g id="text_14">
    <!-- actual -->
    <g style="fill:#262626;" transform="translate(632.576562 44.448438)scale(0.1 -0.1)">
     <defs>
      <path d="M 40.4375 6.390625 
Q 35.546875 2.25 31.03125 0.53125 
Q 26.515625 -1.171875 21.34375 -1.171875 
Q 12.796875 -1.171875 8.203125 3 
Q 3.609375 7.171875 3.609375 13.671875 
Q 3.609375 17.484375 5.34375 20.625 
Q 7.078125 23.78125 9.890625 25.6875 
Q 12.703125 27.59375 16.21875 28.5625 
Q 18.796875 29.25 24.03125 29.890625 
Q 34.671875 31.15625 39.703125 32.90625 
Q 39.75 34.71875 39.75 35.203125 
Q 39.75 40.578125 37.25 42.78125 
Q 33.890625 45.75 27.25 45.75 
Q 21.046875 45.75 18.09375 43.578125 
Q 15.140625 41.40625 13.71875 35.890625 
L 5.125 37.0625 
Q 6.296875 42.578125 8.984375 45.96875 
Q 11.671875 49.359375 16.75 51.1875 
Q 21.828125 53.03125 28.515625 53.03125 
Q 35.15625 53.03125 39.296875 51.46875 
Q 43.453125 49.90625 45.40625 47.53125 
Q 47.359375 45.171875 48.140625 41.546875 
Q 48.578125 39.3125 48.578125 33.453125 
L 48.578125 21.734375 
Q 48.578125 9.46875 49.140625 6.21875 
Q 49.703125 2.984375 51.375 0 
L 42.1875 0 
Q 40.828125 2.734375 40.4375 6.390625 
z
M 39.703125 26.03125 
Q 34.90625 24.078125 25.34375 22.703125 
Q 19.921875 21.921875 17.671875 20.9375 
Q 15.4375 19.96875 14.203125 18.09375 
Q 12.984375 16.21875 12.984375 13.921875 
Q 12.984375 10.40625 15.640625 8.0625 
Q 18.3125 5.71875 23.4375 5.71875 
Q 28.515625 5.71875 32.46875 7.9375 
Q 36.421875 10.15625 38.28125 14.015625 
Q 39.703125 17 39.703125 22.796875 
z
" id="ArialMT-97"/>
      <path d="M 40.4375 19 
L 49.078125 17.875 
Q 47.65625 8.9375 41.8125 3.875 
Q 35.984375 -1.171875 27.484375 -1.171875 
Q 16.84375 -1.171875 10.375 5.78125 
Q 3.90625 12.75 3.90625 25.734375 
Q 3.90625 34.125 6.6875 40.421875 
Q 9.46875 46.734375 15.15625 49.875 
Q 20.84375 53.03125 27.546875 53.03125 
Q 35.984375 53.03125 41.359375 48.75 
Q 46.734375 44.484375 48.25 36.625 
L 39.703125 35.296875 
Q 38.484375 40.53125 35.375 43.15625 
Q 32.28125 45.796875 27.875 45.796875 
Q 21.234375 45.796875 17.078125 41.03125 
Q 12.9375 36.28125 12.9375 25.984375 
Q 12.9375 15.53125 16.9375 10.796875 
Q 20.953125 6.0625 27.390625 6.0625 
Q 32.5625 6.0625 36.03125 9.234375 
Q 39.5 12.40625 40.4375 19 
z
" id="ArialMT-99"/>
      <path d="M 25.78125 7.859375 
L 27.046875 0.09375 
Q 23.34375 -0.6875 20.40625 -0.6875 
Q 15.625 -0.6875 12.984375 0.828125 
Q 10.359375 2.34375 9.28125 4.8125 
Q 8.203125 7.28125 8.203125 15.1875 
L 8.203125 45.015625 
L 1.765625 45.015625 
L 1.765625 51.859375 
L 8.203125 51.859375 
L 8.203125 64.703125 
L 16.9375 69.96875 
L 16.9375 51.859375 
L 25.78125 51.859375 
L 25.78125 45.015625 
L 16.9375 45.015625 
L 16.9375 14.703125 
Q 16.9375 10.9375 17.40625 9.859375 
Q 17.875 8.796875 18.921875 8.15625 
Q 19.96875 7.515625 21.921875 7.515625 
Q 23.390625 7.515625 25.78125 7.859375 
z
" id="ArialMT-116"/>
      <path d="M 40.578125 0 
L 40.578125 7.625 
Q 34.515625 -1.171875 24.125 -1.171875 
Q 19.53125 -1.171875 15.546875 0.578125 
Q 11.578125 2.34375 9.640625 5 
Q 7.71875 7.671875 6.9375 11.53125 
Q 6.390625 14.109375 6.390625 19.734375 
L 6.390625 51.859375 
L 15.1875 51.859375 
L 15.1875 23.09375 
Q 15.1875 16.21875 15.71875 13.8125 
Q 16.546875 10.359375 19.234375 8.375 
Q 21.921875 6.390625 25.875 6.390625 
Q 29.828125 6.390625 33.296875 8.421875 
Q 36.765625 10.453125 38.203125 13.9375 
Q 39.65625 17.4375 39.65625 24.078125 
L 39.65625 51.859375 
L 48.4375 51.859375 
L 48.4375 0 
z
" id="ArialMT-117"/>
      <path d="M 6.390625 0 
L 6.390625 71.578125 
L 15.1875 71.578125 
L 15.1875 0 
z
" id="ArialMT-108"/>
     </defs>
     <use xlink:href="#ArialMT-97"/>
     <use x="55.615234" xlink:href="#ArialMT-99"/>
     <use x="105.615234" xlink:href="#ArialMT-116"/>
     <use x="133.398438" xlink:href="#ArialMT-117"/>
     <use x="189.013672" xlink:href="#ArialMT-97"/>
     <use x="244.628906" xlink:href="#ArialMT-108"/>
    </g>
   </g>
  </g>
 </g>
 <defs>
  <clipPath id="pb40ca07ceb">
   <rect height="326.16" width="558" x="41.046875" y="54.04"/>
  </clipPath>
 </defs>
</svg>
